<svg width="28" height="34" viewBox="0 0 28 34" fill="none" xmlns="http://www.w3.org/2000/svg">
<path d="M20.5914 0.414062C20.7325 3.36021 19.4624 5.59106 17.0852 7.22947C16.2351 7.81617 15.2496 8.02743 14.217 7.96199C13.9738 7.94706 13.9577 7.82421 13.9497 7.63477C13.8762 5.92058 14.4465 4.42914 15.502 3.10647C16.6183 1.70573 18.0937 0.887099 19.8089 0.465729C19.8594 0.453099 19.9087 0.434729 19.9592 0.418655L20.5914 0.414062Z" fill="black"/>
<path d="M0.695923 18.3536C0.687892 15.5647 1.30399 13.3075 2.83105 11.3591C4.27435 9.52202 6.17886 8.48869 8.51935 8.32336C9.36261 8.26365 10.1875 8.43817 10.9837 8.71832C11.6538 8.94795 12.3215 9.1971 12.9778 9.46576C13.3517 9.62851 13.755 9.71307 14.1628 9.71426C14.5706 9.71544 14.9743 9.63323 15.3492 9.47265C16.2291 9.10288 17.1325 8.79182 18.0534 8.54151C20.7794 7.83425 23.2357 8.42669 25.3961 10.227C25.7575 10.5278 26.026 10.9388 26.3403 11.2971C26.4964 11.475 26.4551 11.5898 26.2715 11.7322C25.8146 12.0587 25.3782 12.413 24.9647 12.7931C23.6465 14.0687 23.0292 15.6394 23.0143 17.4752C22.9994 19.3387 23.4663 21.023 24.7284 22.4341C25.4054 23.1711 26.2164 23.7724 27.1182 24.2057C27.3087 24.301 27.3844 24.4032 27.3041 24.6271C26.3572 27.2973 24.8597 29.7383 22.9088 31.7915C22.2324 32.5319 21.2947 32.9799 20.2941 33.0407C19.4554 33.0924 18.6569 32.8754 17.8756 32.5883C17.318 32.3828 16.7661 32.1589 16.1982 31.9901C14.9786 31.6296 13.7671 31.7203 12.575 32.1348C11.874 32.3782 11.1788 32.6388 10.4755 32.8731C9.08726 33.3323 7.87113 32.9879 6.77431 32.0694C5.88286 31.3288 5.17956 30.4229 4.51642 29.4883C2.9866 27.364 1.8821 24.9635 1.26384 22.4192C0.918499 20.9725 0.676419 19.5109 0.695923 18.3536Z" fill="black"/>
</svg>
