<svg width="20" height="26" viewBox="0 0 20 26" fill="none" xmlns="http://www.w3.org/2000/svg">
<path d="M11.4025 25.1089H9.55564C9.33204 25.0763 9.10765 25.0492 8.88486 25.0094C6.64255 24.6113 4.75991 23.5593 3.27353 21.8314C1.53969 19.8136 0.817186 17.4518 1.00099 14.8112C1.09568 13.4512 1.38612 12.1221 1.76965 10.8154C2.49613 8.33576 3.49872 5.9819 4.98112 3.8534C5.81661 2.65339 6.78976 1.58715 8.07721 0.850571C9.03206 0.30272 10.0577 0.0694044 11.1582 0.242997C12.0772 0.387923 12.8785 0.800404 13.6106 1.35224C14.7381 2.20427 15.6126 3.28485 16.3573 4.47292C18.0538 7.18033 19.1463 10.1266 19.7216 13.2656C19.973 14.6337 20.0717 16.0113 19.7844 17.3896C19.081 20.7675 17.1196 23.115 13.9591 24.4695C13.1427 24.8199 12.2778 24.9871 11.4025 25.1089Z" fill="white"/>
</svg>
