<svg width="38" height="22" viewBox="0 0 38 22" fill="none" xmlns="http://www.w3.org/2000/svg">
<path d="M0.229282 2.08928C0.465033 1.70907 0.834075 1.58204 1.25027 1.58113C3.0719 1.57387 4.89353 1.56933 6.71516 1.58113C6.98386 1.57578 7.24807 1.65059 7.47414 1.79602C7.70021 1.94146 7.8779 2.15095 7.98459 2.39779C8.50143 3.47489 8.97112 4.57557 9.51063 5.63996C10.2638 7.1532 11.1633 8.58893 12.1964 9.92655C12.4598 10.257 12.7645 10.5522 13.1031 10.8049C13.639 11.2078 14.1567 11.0889 14.3725 10.4565C14.5785 9.85447 14.7077 9.22886 14.757 8.59448C14.8842 7.12807 14.8446 5.65195 14.6391 4.19446C14.4913 3.1827 14.0108 2.60468 13.0324 2.33065C12.4593 2.17094 12.4104 2.00035 12.8211 1.55935C13.2319 1.11835 13.7505 0.849757 14.3852 0.851572C16.3637 0.857923 18.3422 0.851572 20.3207 0.851572C21.1368 0.851572 21.6065 1.23994 21.7552 2.04209C21.8258 2.40733 21.8643 2.77806 21.8703 3.15003C21.8812 5.17809 21.8631 7.20705 21.8894 9.23511C21.9008 9.6313 21.9892 10.0215 22.1496 10.3839C22.4389 11.0499 23.0482 11.1388 23.5714 10.6407C24.7193 9.54635 25.6133 8.2542 26.3469 6.86405C27.0614 5.51111 27.6753 4.10553 28.3345 2.72265C28.4147 2.53377 28.5055 2.34958 28.6065 2.17094C28.8359 1.80163 29.1578 1.57115 29.6139 1.57115C31.7495 1.57115 33.8849 1.57115 36.02 1.57115C36.0435 1.57115 36.068 1.57115 36.0925 1.57115C37.1352 1.63739 37.5505 2.1537 37.1987 3.1337C36.9031 3.95037 36.5332 4.77792 36.0417 5.49296C34.7814 7.33318 33.433 9.11442 32.1255 10.9229C31.904 11.224 31.6994 11.5373 31.5126 11.8611C31.1499 12.4963 31.207 13.1179 31.6939 13.6696C31.9814 13.9926 32.2996 14.2876 32.6007 14.5961C33.8701 15.8855 35.2456 17.0733 36.3183 18.5424C36.6244 18.9747 36.8972 19.4297 37.1343 19.9035C37.2359 20.1229 37.2867 20.3623 37.283 20.604C37.2939 21.3572 36.7934 21.8617 36.0426 21.8644C34.1122 21.8698 32.1817 21.8853 30.2522 21.859C29.2158 21.8444 28.3281 21.3835 27.6064 20.6703C26.8347 19.9089 26.1383 19.0723 25.3867 18.291C25.0172 17.8952 24.612 17.5343 24.1762 17.213C23.5614 16.7775 22.972 16.919 22.5685 17.5597C22.1324 18.252 22.01 19.0406 21.9456 19.84C21.9289 20.1531 21.8953 20.4651 21.845 20.7746C21.7289 21.3798 21.3916 21.7356 20.7777 21.7836C19.9254 21.8583 19.0694 21.8804 18.2144 21.8499C16.9465 21.7963 15.6936 21.5544 14.4968 21.1321C12.7765 20.518 11.202 19.5541 9.87242 18.301C7.67902 16.2512 6.06413 13.764 4.52812 11.2169C2.90778 8.5237 1.5513 5.69622 0.273712 2.82881C0.257537 2.79762 0.239678 2.76733 0.220215 2.73807L0.229282 2.08928Z" fill="white"/>
</svg>
