<svg width="15" height="32" viewBox="0 0 15 32" fill="none" xmlns="http://www.w3.org/2000/svg">
<path d="M0.885858 32C0.404076 31.7497 0.000863409 31.395 0 30.7768C0.00548784 30.4061 0.0912834 30.0421 0.250389 29.7145C0.976516 28.2259 1.73718 26.7581 2.48489 25.2827C3.3719 23.5338 4.25747 21.7843 5.1416 20.0342C5.18218 19.9542 5.21499 19.8686 5.25125 19.7867C4.86099 19.4772 4.47418 19.1968 4.10983 18.8787C2.49871 17.4523 1.53341 15.593 1.16906 13.3875C0.705406 10.575 0.925574 7.81244 2.03937 5.21077C3.30599 2.25154 5.45415 0.492002 8.45622 0.0770514C9.19012 -0.02551 9.94215 0.0130685 10.6864 0.0046001C11.6413 -0.00575013 12.5971 0.0046001 13.5521 0.0046001C14.507 0.0046001 14.9957 0.547517 14.9957 1.58254C14.9957 4.80993 14.9957 8.0367 14.9957 11.2628C14.9957 17.6536 14.9971 24.0447 15 30.4362C15 31.1673 14.7729 31.7102 14.1288 31.9962H11.1483C10.5215 31.682 10.2659 31.1579 10.2711 30.4014C10.2901 27.3904 10.2789 24.386 10.2789 21.3788C10.2863 21.2847 10.284 21.19 10.272 21.0965C10.2564 21.0278 10.2107 20.9309 10.1615 20.9158C10.1254 20.9105 10.0886 20.9136 10.0537 20.9252C10.0189 20.9367 9.98669 20.9563 9.95942 20.9826C9.90276 21.053 9.85776 21.1335 9.82645 21.2207C8.31031 24.4537 6.78898 27.6849 5.28492 30.9245C5.05353 31.4242 4.76688 31.8146 4.26869 31.9934L0.885858 32ZM10.2789 10.4574V5.14961C10.292 5.03619 10.2885 4.92121 10.2685 4.80899C10.2418 4.72431 10.1468 4.60199 10.0855 4.60481C9.6106 4.62175 9.12105 4.59916 8.66344 4.7149C7.56691 4.99718 6.88655 5.83366 6.4842 6.92138C5.74253 8.92744 5.6726 11.0069 6.17596 13.0779C6.70955 15.2759 7.96408 16.31 9.89553 16.3043C10.2772 16.3043 10.278 16.3043 10.278 15.8913C10.2792 14.0803 10.2795 12.269 10.2789 10.4574Z" fill="#EA3323"/>
</svg>
