<svg width="1111" height="786" viewBox="0 0 1111 786" fill="none" xmlns="http://www.w3.org/2000/svg">
<path d="M1000.29 394.375L955.707 438.838L990.655 514.433L1036.69 467.703L1000.29 394.375Z" fill="#BAE2FD"/>
<path d="M1035.44 462.963L1099.63 476.069L1051.49 525.672L989.409 509.693L1035.44 462.963Z" fill="#BAE2FD"/>
<path d="M1000.29 394.378L1006.88 398.418L1039.87 463.942L1036.69 467.705L1000.29 394.378Z" fill="#BAE2FD"/>
<path d="M1035.44 462.962L1099.63 476.067L1095.65 471.867L1038.63 459.198L1035.44 462.962Z" fill="#BAE2FD"/>
<path d="M1039.87 463.94C1052.43 441.29 1019.35 403.508 1019.35 403.508L1008.61 401.846" fill="#BAE2FD"/>
<path d="M1093.42 473.711L1088.6 464.748C1088.6 464.748 1053.19 440.27 1041.52 450.643L1038.16 460.482L1038.68 461.714L1093.42 473.711Z" fill="#BAE2FD"/>
<path d="M348.851 700.295C339.176 689.861 344.423 672.866 358.297 669.703L406.428 658.732C420.301 655.569 432.396 668.611 428.198 682.207L413.634 729.376C409.436 742.972 392.095 746.925 382.419 736.491L348.851 700.295Z" fill="#BAE2FD"/>
<path d="M314.312 354.987L273.166 393.915L302.648 457.318L345.153 416.426L314.312 354.987Z" fill="#BAE2FD"/>
<path d="M344.153 412.426L401.46 421.959L356.994 465.347L301.648 453.318L344.153 412.426Z" fill="#BAE2FD"/>
<path d="M314.311 354.988L320.129 358.259L348.108 413.147L345.153 416.427L314.311 354.988Z" fill="#BAE2FD"/>
<path d="M344.154 412.425L401.46 421.957L397.994 418.486L347.109 409.145L344.154 412.425Z" fill="#BAE2FD"/>
<path d="M348.11 413.146C359.95 393.571 331.199 362.274 331.199 362.274L321.595 361.131" fill="#BAE2FD"/>
<path d="M395.942 420.109L391.842 412.609C391.842 412.609 360.659 392.683 349.924 401.797L346.654 410.249L347.098 411.283L395.942 420.109Z" fill="#BAE2FD"/>
<path d="M464.836 72.4407C462.784 71.7695 461.354 70.3817 460.547 68.2773C459.748 66.1469 459.824 63.6268 460.776 60.7171C461.744 57.7554 463.176 55.6209 465.07 54.3135C466.998 52.9886 469.002 52.666 471.08 53.3456C473.185 54.0338 474.891 55.4113 476.199 57.4784C477.326 56.4087 478.668 56.1288 480.227 56.6385C481.63 57.0973 482.619 57.7658 483.194 58.6442C483.778 59.4966 483.803 60.7411 483.268 62.3779L479.954 72.5099C479.445 74.0687 478.763 75.0536 477.91 75.4648C477.065 75.8499 475.824 75.7749 474.187 75.2397C472.473 74.679 471.5 73.8288 471.269 72.6892C469.241 73.2626 467.096 73.1798 464.836 72.4407ZM474.43 61.041C474.235 60.1432 473.787 59.5796 473.085 59.3502C472.41 59.1293 471.703 59.4445 470.964 60.2958C470.226 61.1471 469.649 62.2093 469.232 63.4823C468.841 64.6774 468.688 65.8062 468.772 66.8689C468.856 67.9316 469.248 68.5777 469.95 68.807C470.677 69.0449 471.376 68.8853 472.048 68.3283L474.43 61.041Z" fill="#BAE2FD"/>
<path d="M497.347 68.7935C497.156 68.6736 496.918 68.5669 496.632 68.4734C495.879 68.2271 495.326 68.2907 494.973 68.6644C494.63 69.0121 494.271 69.7576 493.897 70.9007L491.807 77.162C491.543 77.9674 491.201 78.5744 490.78 78.983C490.332 79.3832 489.742 79.607 489.007 79.6544C488.273 79.7018 487.36 79.5471 486.269 79.1903C485.567 78.9609 485.021 78.6961 484.631 78.3958C484.24 78.0955 483.935 77.7083 483.716 77.2341C483.489 76.7859 483.416 76.1727 483.498 75.3943C483.572 74.6418 483.735 73.7463 483.989 72.7076C484.234 71.6949 484.607 70.4221 485.108 68.8893C485.567 67.4864 486.2 66.2986 487.006 65.3259C487.813 64.3532 488.682 63.6308 489.613 63.1588C490.526 62.6522 491.519 62.3008 492.589 62.1045C493.651 61.9342 494.671 61.8938 495.648 61.9833C496.617 62.0988 497.569 62.3095 498.504 62.6153C499.414 62.9126 500.293 63.3009 501.143 63.7801C501.984 64.2853 502.796 64.9246 503.579 65.698C504.326 66.489 504.932 67.3629 505.396 68.3197C505.868 69.2505 506.142 70.3467 506.218 71.6082C506.295 72.8698 506.104 74.202 505.645 75.6049C504.812 78.1509 504.075 80.0092 503.434 81.1797C502.801 82.3243 502.13 83.0542 501.424 83.3694C500.699 83.6502 499.765 83.6036 498.622 83.2298C497.011 82.7031 495.958 82.0566 495.46 81.2901C494.972 80.4977 494.923 79.5039 495.314 78.3089L497.314 72.061L497.62 71.1257C497.679 70.9439 497.742 70.7058 497.81 70.4116C497.877 70.1173 497.893 69.8925 497.858 69.7371C497.822 69.5817 497.761 69.4178 497.674 69.2454C497.621 69.0556 497.512 68.9049 497.347 68.7935Z" fill="#BAE2FD"/>
<path d="M530.012 88.4473C530.739 88.6852 531.451 88.4002 532.146 87.5923C532.842 86.7845 533.385 85.7831 533.776 84.588C534.192 83.315 534.354 82.1169 534.261 80.9938C534.168 79.8706 533.784 79.1986 533.108 78.9777C532.407 78.7483 531.712 78.9382 531.024 79.5471L528.654 86.7955C528.858 87.6673 529.31 88.2179 530.012 88.4473ZM516.792 82.5716C516.876 83.6343 517.269 84.2803 517.97 84.5097C518.698 84.7476 519.401 84.575 520.081 83.992L522.464 76.7047C522.26 75.8329 521.807 75.2822 521.106 75.0529C520.43 74.832 519.723 75.1472 518.985 75.9985C518.246 76.8498 517.669 77.912 517.253 79.185C516.862 80.38 516.708 81.5089 516.792 82.5716ZM538.313 75.3306C540.391 76.0102 541.808 77.437 542.564 79.6109C543.32 81.7848 543.209 84.3656 542.232 87.3532C541.281 90.2629 539.857 92.3283 537.963 93.5492C536.06 94.7961 534.082 95.084 532.03 94.4129C530.055 93.7672 528.433 92.7479 527.163 91.3549L526.067 94.7062C525.379 96.8106 524.54 98.1897 523.549 98.8437C522.525 99.5151 521.298 99.6172 519.869 99.1499L519.401 98.997C518.206 98.5198 517.428 97.8198 517.069 96.8969C516.849 96.3364 516.78 95.6237 516.862 94.7588C516.926 93.9459 517.137 92.9939 517.494 91.9028L518.59 88.5514C516.742 88.925 514.831 88.789 512.857 88.1433C510.804 87.4722 509.374 86.0844 508.567 83.9799C507.768 81.8495 507.845 79.3294 508.796 76.4197C509.773 73.4321 511.209 71.2846 513.103 69.9772C514.997 68.6698 516.983 68.3559 519.062 69.0356C521.114 69.7067 522.807 71.0368 524.141 73.0259C524.691 72.4004 525.315 72.0727 526.015 72.0428C526.637 71.9873 527.394 72.0911 528.286 72.3539L528.598 72.4559C529.611 72.7872 530.391 73.1717 530.938 73.6094C531.477 74.0731 531.783 74.7196 531.857 75.549C534.108 74.7323 536.26 74.6595 538.313 75.3306Z" fill="#BAE2FD"/>
<path d="M549.283 100.055C547.23 99.3835 545.8 97.9957 544.993 95.8913C544.194 93.7608 544.271 91.2408 545.222 88.331C546.191 85.3694 547.622 83.2348 549.516 81.9275C551.445 80.6026 553.448 80.28 555.527 80.9596C557.631 81.6478 559.337 83.0253 560.646 85.0923C561.772 84.0227 563.115 83.7428 564.673 84.2525C566.076 84.7113 567.065 85.3798 567.641 86.2582C568.225 87.1106 568.249 88.3551 567.714 89.9918L564.401 100.124C563.891 101.683 563.21 102.668 562.356 103.079C561.511 103.464 560.271 103.389 558.634 102.854C556.919 102.293 555.946 101.443 555.715 100.303C553.687 100.877 551.543 100.794 549.283 100.055ZM558.877 88.655C558.682 87.7572 558.233 87.1936 557.532 86.9642C556.856 86.7433 556.149 87.0585 555.411 87.9098C554.672 88.7611 554.095 89.8233 553.679 91.0963C553.288 92.2913 553.134 93.4202 553.218 94.4829C553.302 95.5456 553.695 96.1916 554.396 96.421C555.124 96.6589 555.823 96.4993 556.494 95.9423L558.877 88.655Z" fill="#BAE2FD"/>
<path d="M576.913 102.361C577.126 103.206 577.596 103.748 578.323 103.986C579.024 104.216 579.723 103.926 580.418 103.119C580.65 102.849 580.86 102.558 581.049 102.246C580.996 102.143 580.931 102.035 580.852 101.923C580.679 101.751 580.418 101.58 580.072 101.409C579.742 101.273 579.318 101.119 578.798 100.95C578.305 100.788 577.889 100.609 577.551 100.412L576.913 102.361ZM582.533 96.52C582.44 95.3968 582.056 94.7248 581.381 94.5039C580.679 94.2745 579.984 94.4643 579.296 95.0733L578.697 96.9049C578.879 96.9644 579.074 97.0281 579.282 97.096C580.269 97.4189 581.014 97.6048 581.515 97.6538C582.017 97.7028 582.315 97.6708 582.409 97.5579C582.452 97.5144 582.499 97.458 582.551 97.3885C582.566 97.0773 582.56 96.7877 582.533 96.52ZM588.584 102.683C588.855 103.174 589.005 103.726 589.035 104.34C589.064 104.953 588.943 105.676 588.671 106.507C588.136 108.144 587.066 109.261 585.462 109.858C584.599 110.208 583.645 110.356 582.599 110.302C581.847 110.315 581.081 110.194 580.302 109.939C578.042 109.2 576.263 108 574.965 106.339C574.105 107.122 572.818 107.233 571.103 106.672C569.467 106.137 568.421 105.465 567.967 104.655C567.522 103.819 567.554 102.622 568.063 101.063L571.377 90.9307C571.912 89.294 572.667 88.3043 573.642 87.9616C574.625 87.593 575.818 87.638 577.221 88.0967C578.78 88.6065 579.697 89.6255 579.974 91.1539C582.251 90.2592 584.441 90.1559 586.546 90.8441C587.299 91.0904 587.975 91.4409 588.574 91.8956C589.312 92.3668 589.894 92.8735 590.321 93.4156C591.27 94.6462 591.528 95.924 591.094 97.249C590.474 99.1455 589.193 100.38 587.252 100.953C587.843 101.607 588.287 102.183 588.584 102.683Z" fill="#BAE2FD"/>
<path d="M601.595 107.8C601.111 109.281 601.441 110.208 602.584 110.582C602.973 110.71 603.349 110.703 603.712 110.563C604.108 110.405 604.457 110.131 604.757 109.74C605.057 109.349 605.301 108.868 605.488 108.297L607.195 103.075C607.484 102.191 607.891 101.476 608.415 100.929C608.948 100.355 609.572 99.9841 610.289 99.8158C611.005 99.6474 611.766 99.6949 612.571 99.9583C613.974 100.417 614.963 101.086 615.539 101.964C616.123 102.816 616.147 104.061 615.612 105.698L612.299 115.83C611.781 117.414 611.099 118.399 610.254 118.785C609.409 119.17 608.169 119.095 606.532 118.559C605.83 118.33 605.254 118.07 604.803 117.778C604.36 117.461 604.03 117.109 603.812 116.721C603.619 116.342 603.522 115.893 603.519 115.374C602.224 115.727 600.933 115.851 599.644 115.746C598.382 115.65 597.023 115.364 595.568 114.888C593.723 114.285 592.632 113.137 592.294 111.445C591.964 109.727 592.339 107.218 593.418 103.918C593.953 102.282 594.425 100.97 594.835 99.9818C595.252 98.9681 595.658 98.123 596.052 97.4466C596.48 96.7526 596.922 96.279 597.379 96.0257C597.862 95.781 598.362 95.6571 598.881 95.6541C599.426 95.6597 600.088 95.7899 600.867 96.0447C602.322 96.5205 603.272 97.1331 603.717 97.8825C604.188 98.6405 604.245 99.565 603.888 100.656L601.595 107.8Z" fill="#BAE2FD"/>
<path d="M641.201 118.465C641.677 117.01 641.33 116.092 640.161 115.709C639.642 115.54 639.154 115.711 638.699 116.223C638.244 116.736 637.868 117.447 637.57 118.356C637.12 119.733 636.72 120.868 636.371 121.76C636.048 122.661 635.702 123.454 635.334 124.139C634.967 124.824 634.624 125.344 634.306 125.7C633.988 126.057 633.627 126.327 633.221 126.511C632.825 126.668 632.415 126.736 631.991 126.712C631.576 126.663 631.069 126.54 630.472 126.345C629.563 126.047 628.865 125.675 628.378 125.229C627.917 124.79 627.647 124.299 627.566 123.755C627.485 123.211 627.559 122.588 627.788 121.887L630.095 114.833C630.571 113.379 630.224 112.46 629.055 112.078C628.587 111.925 628.108 112.07 627.618 112.514C627.163 112.94 626.795 113.582 626.514 114.439L624.743 119.856C624.233 121.415 623.552 122.399 622.698 122.811C621.853 123.196 620.613 123.121 618.976 122.586C617.443 122.084 616.506 121.389 616.163 120.501C615.856 119.595 615.969 118.324 616.505 116.687L619.639 107.101C620.073 105.776 620.772 104.825 621.737 104.249C622.727 103.682 623.82 103.594 625.015 103.984C627.146 104.681 628.271 105.811 628.393 107.375C629.618 106.97 630.745 106.778 631.773 106.798C632.828 106.827 633.992 107.049 635.265 107.465C637.188 108.094 638.306 109.38 638.619 111.323C638.783 111.262 638.947 111.2 639.111 111.139C641.587 110.338 644.28 110.413 647.19 111.365C649.034 111.968 650.13 113.103 650.476 114.769C650.823 116.435 650.457 118.918 649.378 122.217C648.928 123.594 648.528 124.729 648.179 125.621C647.855 126.522 647.51 127.315 647.142 128C646.774 128.685 646.419 129.201 646.075 129.549C645.757 129.905 645.369 130.167 644.912 130.333C644.49 130.483 644.04 130.537 643.565 130.497C643.124 130.439 642.578 130.304 641.929 130.091C640.942 129.768 640.179 129.375 639.64 128.911C639.128 128.456 638.818 127.952 638.711 127.4C638.604 126.847 638.665 126.22 638.895 125.519L641.201 118.465Z" fill="#BAE2FD"/>
<path d="M157.303 144.504L213.69 121.256L207.756 114.328L155.792 138.839L157.303 144.504Z" fill="#C3E7FF"/>
<path d="M147.124 40.7585L217.268 100.153L153.645 129.85L157.303 144.504L87 74.5582L90.8164 59.3193L141.557 39L147.124 40.7585Z" fill="#C3E7FF"/>
<path d="M207.279 104.35L206.566 117.934L155.153 139.897L152.645 129.851L207.279 104.35Z" fill="#C3E7FF"/>
<path d="M43.1412 440.361L44.3782 459.979C44.4663 461.622 44.3097 462.929 43.9085 463.898C43.4844 464.827 42.7726 465.576 41.7731 466.145C40.4936 466.872 39.1638 467.047 37.7838 466.667C36.381 466.248 34.309 465.257 31.5676 463.694L17.4118 454.997L27.0669 471.97C28.0449 473.689 28.3616 475.176 28.0168 476.431C27.712 477.663 26.7799 478.722 25.2206 479.609C23.4613 480.61 21.9657 480.958 20.7339 480.653C19.4794 480.308 18.2039 478.996 16.9074 476.717L2.0324 450.568C0.28106 447.489 -0.338419 444.772 0.173962 442.417C0.686342 440.061 2.60185 437.94 5.92048 436.052C7.15997 435.347 8.36462 434.953 9.53443 434.869C10.6815 434.746 11.6342 434.839 12.3924 435.149C13.1679 435.396 14.003 435.794 14.8977 436.343L32.9307 449.344L31.6214 427.227C31.4632 423.506 33.3033 420.555 37.1417 418.371C38.941 417.348 40.6623 416.792 42.3057 416.704C43.9263 416.576 45.4945 417.007 47.0103 417.997C48.5433 418.924 49.9012 420.427 51.0839 422.506L65.9248 448.595C68.1365 452.577 66.7634 455.977 61.8055 458.798C60.0062 459.821 58.2539 460.183 56.5485 459.883C54.8603 459.52 53.3708 458.251 52.0798 456.074L43.1412 440.361Z" fill="#BAE2FD"/>
<path d="M1002.38 103.008C1004.54 104.135 1005.87 105.269 1006.36 106.409C1006.9 107.57 1006.73 108.987 1005.86 110.659C1005.14 112.046 1004.08 112.769 1002.7 112.827C1001.39 112.867 999.627 112.312 997.424 111.164L987.513 105.995L984.131 112.48L997.376 119.465C999.66 120.656 1001.11 121.853 1001.73 123.057C1002.41 124.241 1002.3 125.69 1001.41 127.403C1000.39 129.361 999.082 130.419 997.495 130.577C995.949 130.756 993.993 130.229 991.627 128.996L971.805 118.659C969.398 117.404 967.953 115.847 967.471 113.987C967.05 112.107 967.691 109.536 969.392 106.273L982.855 80.4545C985.408 75.56 989.009 74.3251 993.658 76.7498L1013.48 87.0865C1015.85 88.3201 1017.41 89.6018 1018.17 90.9315C1018.97 92.2825 1018.87 93.9165 1017.87 95.8335C1016.93 97.6281 1015.76 98.6267 1014.36 98.8291C1013.02 99.0121 1011.21 98.508 1008.92 97.3169L995.587 90.362L991.854 97.5202L1002.38 103.008Z" fill="#BAE2FD"/>
<path d="M774.851 107.295C765.176 96.8611 770.423 79.866 784.297 76.7034L832.428 65.7315C846.301 62.5689 858.396 75.6108 854.198 89.2068L839.634 136.376C835.436 149.972 818.095 153.925 808.419 143.491L774.851 107.295Z" fill="#BAE2FD"/>
</svg>
