<svg width="976" height="380" viewBox="0 0 976 380" fill="none" xmlns="http://www.w3.org/2000/svg">
<path d="M272.98 333.782L271.913 357.503C271.805 359.488 271.443 361.033 270.826 362.137C270.188 363.191 269.222 363.986 267.929 364.522C266.274 365.209 264.63 365.225 262.998 364.569C261.343 363.861 258.947 362.37 255.811 360.096L239.697 347.598L249.239 369.371C250.205 371.576 250.396 373.407 249.811 374.862C249.278 376.296 248.003 377.431 245.986 378.269C243.71 379.213 241.842 379.413 240.38 378.868C238.896 378.272 237.514 376.512 236.233 373.588L221.532 340.044C219.802 336.094 219.403 332.744 220.337 329.992C221.27 327.24 223.883 324.973 228.176 323.191C229.78 322.526 231.3 322.228 232.736 322.298C234.151 322.317 235.3 322.568 236.183 323.05C237.096 323.459 238.062 324.058 239.08 324.848L259.355 343.075L260.661 316.344C260.957 311.857 263.587 308.583 268.552 306.521C270.879 305.555 273.051 305.139 275.065 305.273C277.057 305.355 278.912 306.1 280.63 307.509C282.377 308.845 283.835 310.847 285.004 313.514L299.67 346.981C301.844 352.08 299.724 355.961 293.311 358.624C290.983 359.59 288.8 359.769 286.76 359.16C284.75 358.479 283.101 356.739 281.813 353.939L272.98 333.782Z" fill="#83CFFF"/>
<path d="M330.842 306.125C333.583 304.987 335.688 304.629 337.156 305.05C338.676 305.449 339.897 306.7 340.819 308.803C341.583 310.547 341.461 312.083 340.454 313.411C339.475 314.665 337.59 315.873 334.797 317.032L322.229 322.249L325.803 330.404L342.671 323.493C345.568 322.291 347.828 321.868 349.451 322.224C351.104 322.508 352.402 323.727 353.346 325.882C354.425 328.343 354.428 330.373 353.355 331.97C352.334 333.546 350.324 334.956 347.324 336.202L322.188 346.636C319.136 347.903 316.538 348.042 314.393 347.053C312.277 345.991 310.32 343.409 308.522 339.306L294.294 306.838C291.597 300.684 293.196 296.382 299.092 293.935L324.228 283.5C327.228 282.255 329.654 281.793 331.507 282.115C333.412 282.416 334.892 283.772 335.949 286.182C336.938 288.439 336.988 290.298 336.1 291.758C335.24 293.145 333.363 294.44 330.466 295.642L313.554 302.663L317.498 311.664L330.842 306.125Z" fill="#83CFFF"/>
<path d="M40.2169 245.391C41.4567 246.124 42.1658 246.891 42.3442 247.693C42.5019 248.483 42.1807 249.519 41.3806 250.802C40.6313 252.004 39.8379 252.664 39.0006 252.782C38.1553 252.868 37.0818 252.526 35.78 251.757L34.8191 251.189C34.8118 252.244 34.6511 253.25 34.337 254.207C33.9927 255.258 33.465 256.353 32.7538 257.493C31.852 258.939 30.636 259.642 29.1058 259.602C27.6964 259.55 25.8361 258.883 23.525 257.601L23.4941 257.583L22.9242 257.204C22.1564 256.667 21.5174 256.15 21.007 255.653C20.5047 255.189 20.1977 254.729 20.0863 254.273C19.9748 253.817 19.9714 253.37 20.076 252.93C20.1933 252.47 20.4425 251.934 20.8235 251.323C21.5474 250.162 22.2851 249.456 23.0366 249.203C23.7753 248.971 24.5786 249.111 25.4465 249.623L27.6972 250.911L27.8832 251.021C29.061 251.717 29.9293 251.617 30.4881 250.721C30.6786 250.415 30.7508 250.096 30.7045 249.762C30.6503 249.395 30.4856 249.047 30.2105 248.718C29.9927 248.477 29.7352 248.256 29.4379 248.052L29.457 248.022L28.1552 247.253C27.1014 246.63 26.4256 245.855 26.128 244.926C25.843 243.978 25.9927 243.035 26.5769 242.098C27.2627 240.999 28.0441 240.29 28.921 239.972C29.7773 239.642 30.8564 239.861 32.1582 240.63L40.2169 245.391Z" fill="#83CFFF"/>
<path d="M42.8531 234.023C44.031 234.719 44.8993 234.619 45.4581 233.723C45.6486 233.418 45.7207 233.098 45.6745 232.764C45.6202 232.398 45.4556 232.049 45.1805 231.72C44.9054 231.39 44.5406 231.091 44.086 230.822L39.9327 228.369C39.2301 227.954 38.6967 227.471 38.3326 226.922C37.9477 226.36 37.7567 225.759 37.7595 225.12C37.7624 224.481 37.9606 223.846 38.3544 223.214C39.0402 222.115 39.8216 221.406 40.6985 221.088C41.5548 220.758 42.6338 220.977 43.9356 221.746L51.9944 226.507C53.2548 227.252 53.9639 228.019 54.1217 228.809C54.2794 229.599 53.9582 230.635 53.1581 231.918C52.8152 232.468 52.4714 232.906 52.1268 233.232C51.7615 233.545 51.389 233.757 51.0093 233.867C50.6423 233.957 50.2347 233.953 49.7866 233.856C49.8237 235.02 49.6639 236.138 49.3069 237.209C48.9627 238.26 48.435 239.355 47.7237 240.496C46.822 241.941 45.606 242.644 44.0758 242.604C42.525 242.552 40.4374 241.751 37.8131 240.2C36.5113 239.431 35.4766 238.778 34.7088 238.241C33.9203 237.691 33.2749 237.185 32.7726 236.721C32.2622 236.224 31.945 235.758 31.8208 235.322C31.7093 234.866 31.7059 234.419 31.8105 233.979C31.9279 233.519 32.177 232.983 32.5581 232.372C33.2693 231.232 33.9943 230.545 34.733 230.313C35.4845 230.06 36.2941 230.19 37.162 230.703L42.8531 234.023Z" fill="#83CFFF"/>
<path d="M60.2423 202.537C59.0851 201.854 58.2208 201.97 57.6492 202.886C57.3952 203.294 57.4424 203.74 57.7906 204.224C58.1389 204.708 58.6746 205.164 59.3978 205.591C60.493 206.238 61.3895 206.796 62.0873 207.264C62.7978 207.712 63.4106 208.157 63.9257 208.601C64.4407 209.044 64.8191 209.435 65.0608 209.773C65.3026 210.111 65.4609 210.469 65.5357 210.848C65.59 211.214 65.5632 211.575 65.4553 211.929C65.3268 212.271 65.1165 212.676 64.8244 213.145C64.3798 213.857 63.9145 214.377 63.4285 214.703C62.9552 215.008 62.4754 215.143 61.9891 215.106C61.5029 215.07 60.9808 214.887 60.4229 214.557L54.8128 211.243C53.6556 210.559 52.7913 210.676 52.2197 211.592C51.9911 211.959 52.0176 212.392 52.2991 212.893C52.5727 213.361 53.0504 213.797 53.7323 214.199L58.0406 216.745C59.2804 217.477 59.9895 218.244 60.1679 219.047C60.3257 219.836 60.0045 220.873 59.2043 222.156C58.455 223.357 57.6617 224.017 56.8243 224.136C55.9791 224.221 54.9055 223.88 53.6037 223.111L45.9789 218.606C44.9251 217.984 44.2493 217.208 43.9517 216.28C43.6667 215.331 43.8164 214.389 44.4006 213.452C45.4421 211.782 46.6501 211.047 48.0246 211.246C47.9287 210.13 47.9957 209.138 48.2256 208.271C48.4682 207.383 48.9007 206.44 49.523 205.443C50.4629 203.936 51.8036 203.237 53.5452 203.346C53.526 203.195 53.5069 203.045 53.4877 202.894C53.3085 200.642 53.9301 198.376 55.3526 196.095C56.2544 194.65 57.46 193.941 58.9695 193.969C60.4791 193.997 62.546 194.786 65.1702 196.336C66.2654 196.983 67.1619 197.541 67.8597 198.008C68.5702 198.456 69.183 198.902 69.6981 199.345C70.2132 199.789 70.5852 200.19 70.8142 200.548C71.0559 200.886 71.2015 201.265 71.251 201.684C71.2925 202.071 71.2467 202.462 71.1134 202.857C70.9722 203.219 70.7428 203.655 70.4253 204.164C69.9427 204.938 69.4457 205.508 68.9342 205.875C68.4355 206.221 67.9366 206.386 67.4377 206.37C66.9387 206.354 66.4103 206.181 65.8524 205.852L60.2423 202.537Z" fill="#83CFFF"/>
<path d="M77.9702 192.475C76.9668 194.084 75.4737 195.027 73.4908 195.304C71.4872 195.57 69.3283 195.019 67.014 193.652C64.6584 192.26 63.1122 190.636 62.3755 188.78C61.6308 186.891 61.7665 185.131 62.7825 183.502C63.8113 181.853 65.3527 180.673 67.4069 179.964C66.7166 178.804 66.7525 177.613 67.5146 176.391C68.2004 175.291 68.9818 174.583 69.8587 174.265C70.715 173.935 71.794 174.154 73.0958 174.923L81.1546 179.684C82.3944 180.416 83.1035 181.184 83.2819 181.986C83.4396 182.776 83.1184 183.812 82.3183 185.095C81.4801 186.439 80.5453 187.099 79.514 187.075C79.5897 188.903 79.0751 190.703 77.9702 192.475ZM70.1157 182.15C69.3006 182.142 68.7215 182.413 68.3786 182.963C68.0484 183.492 68.1743 184.152 68.7563 184.941C69.3383 185.731 70.1355 186.425 71.1481 187.023C72.0986 187.585 73.041 187.933 73.9754 188.067C74.9098 188.201 75.5485 187.993 75.8914 187.443C76.247 186.873 76.2538 186.25 75.9118 185.574L70.1157 182.15Z" fill="#83CFFF"/>
<path d="M89.3768 155.823C88.2196 155.14 87.3553 155.256 86.7837 156.172C86.5297 156.58 86.5768 157.026 86.9251 157.51C87.2734 157.994 87.8091 158.45 88.5323 158.877C89.6275 159.524 90.524 160.082 91.2218 160.55C91.9323 160.998 92.5451 161.443 93.0602 161.887C93.5752 162.33 93.9536 162.721 94.1953 163.059C94.4371 163.397 94.5954 163.755 94.6702 164.134C94.7245 164.5 94.6977 164.861 94.5898 165.215C94.4613 165.557 94.251 165.962 93.9588 166.431C93.5143 167.143 93.049 167.663 92.563 167.989C92.0896 168.294 91.6099 168.429 91.1236 168.392C90.6374 168.356 90.1153 168.173 89.5574 167.843L83.9473 164.529C82.7901 163.845 81.9258 163.962 81.3542 164.878C81.1256 165.245 81.1521 165.678 81.4336 166.179C81.7072 166.647 82.1849 167.083 82.8668 167.485L87.1751 170.031C88.4149 170.763 89.124 171.53 89.3024 172.333C89.4602 173.122 89.139 174.159 88.3388 175.442C87.5895 176.643 86.7962 177.303 85.9588 177.422C85.1136 177.507 84.04 177.166 82.7382 176.397L75.1134 171.892C74.0596 171.27 73.3838 170.494 73.0862 169.566C72.8012 168.617 72.9509 167.675 73.5351 166.738C74.5766 165.068 75.7846 164.333 77.1591 164.532C77.0632 163.416 77.1302 162.424 77.3601 161.557C77.6027 160.669 78.0352 159.726 78.6575 158.729C79.5974 157.222 80.9381 156.523 82.6797 156.632C82.6605 156.481 82.6414 156.331 82.6222 156.18C82.443 153.928 83.0646 151.662 84.4871 149.381C85.3888 147.936 86.5945 147.227 88.104 147.255C89.6136 147.283 91.6805 148.072 94.3047 149.622C95.3999 150.269 96.2964 150.826 96.9942 151.294C97.7047 151.742 98.3175 152.188 98.8326 152.631C99.3477 153.075 99.7197 153.476 99.9487 153.834C100.19 154.172 100.336 154.551 100.386 154.97C100.427 155.357 100.381 155.748 100.248 156.143C100.107 156.505 99.8773 156.941 99.5598 157.45C99.0772 158.224 98.5802 158.794 98.0687 159.161C97.57 159.507 97.0711 159.672 96.5722 159.656C96.0732 159.64 95.5448 159.467 94.9869 159.138L89.3768 155.823Z" fill="#83CFFF"/>
<path d="M103.909 142.452C104.219 142.635 104.492 142.81 104.727 142.977L104.886 142.653C105.023 142.343 105.085 142.018 105.072 141.676C105.059 141.333 104.929 141.02 104.683 140.735C104.457 140.462 104.075 140.167 103.538 139.85C103.063 139.569 102.632 139.398 102.246 139.337C101.826 139.285 101.452 139.342 101.121 139.509C100.783 139.643 100.487 139.845 100.235 140.114L100.128 140.218L103.909 142.452ZM100.154 149.22L92.0953 144.46C90.7935 143.69 90.0954 142.86 90.0012 141.968C89.9661 141.753 89.9581 141.539 89.977 141.327C89.9417 140.749 90.1464 140.103 90.5909 139.391L90.8576 138.963C91.4418 138.026 92.2257 137.472 93.2092 137.301C94.2053 137.109 95.2303 137.325 96.2842 137.947L97.214 138.496L97.3855 138.222C98.1348 137.02 98.9876 136.061 99.9437 135.344C100.913 134.606 101.963 134.168 103.096 134.029C104.217 133.911 105.283 134.151 106.295 134.749C107.122 135.237 107.775 135.846 108.253 136.574C108.765 137.295 109.06 138.068 109.139 138.895C109.225 139.754 109.161 140.65 108.947 141.582C108.712 142.503 108.303 143.431 107.719 144.368L105.376 148.125C105.21 148.39 105.037 148.622 104.856 148.822C104.301 149.441 103.76 149.832 103.234 149.995C102.42 150.211 101.394 149.953 100.154 149.22Z" fill="#83CFFF"/>
</svg>
