<svg width="96" height="87" viewBox="0 0 96 87" fill="none" xmlns="http://www.w3.org/2000/svg">
<path d="M68.6836 26.2C68.959 24.0456 69.7583 22.2575 71.1335 20.8542C71.2124 20.774 71.2091 20.488 71.1704 20.3254C70.5794 17.8542 70.9202 15.6093 72.2585 13.6195C72.9218 12.6319 73.7832 11.9734 74.7974 11.5413C74.1913 9.81288 74.3105 8.20792 75.4607 6.926C76.5555 5.70788 77.8233 5.67701 79.1146 6.47538C81.0641 2.95474 84.5198 2.97532 86.5146 4.89511C88.528 6.83135 89.3289 11.031 86.9244 14.1566C88.5347 16.4467 88.842 18.9756 87.7774 21.7637C90.9728 22.8296 93.0382 25.2432 93.416 29.3235C93.7921 33.4018 92.2507 36.3401 89.3021 38.2599C89.3995 38.3525 89.4817 38.4389 89.569 38.515C91.0098 39.7537 91.6428 41.834 91.1861 43.8382C90.721 45.8855 89.3021 47.2785 87.5389 47.4185C87.4835 47.4226 87.4214 47.4411 87.3727 47.4205C86.6691 47.1324 86.424 47.5995 86.2107 48.3362C86.0378 48.937 85.6902 49.4638 85.4198 50.0214C84.5467 51.1696 83.519 52.0214 82.2865 52.4864C82.258 52.4885 82.2294 52.4864 82.2026 52.4926C78.5856 53.5605 75.4792 50.7477 74.7706 47.1366C74.7152 46.8547 74.5825 46.7991 74.3911 46.7971C74.3642 46.616 74.3189 46.4349 74.3155 46.2518C74.3021 45.6201 74.3038 44.9884 74.3004 44.3546C74.3021 44.1159 74.3038 43.8752 74.3054 43.6365C74.3038 42.6406 74.3038 41.6447 74.3021 40.6509C74.3054 40.5583 74.3088 40.4657 74.3105 40.371C76.2281 40.371 78.1474 40.371 80.065 40.371C80.0751 40.3258 80.0851 40.2784 80.0969 40.2332C79.9945 40.1015 79.8937 39.9677 79.7896 39.8401C77.3296 36.8236 74.868 33.8112 72.408 30.7927C71.1637 29.2618 69.9245 27.7288 68.6836 26.2Z" fill="#8BC43F"/>
<path d="M68.684 26.2C69.9249 27.7289 71.1641 29.2618 72.4084 30.7886C74.8667 33.8051 77.33 36.8196 79.79 39.8361C79.8941 39.9636 79.9948 40.0974 80.0973 40.2291C80.0872 40.2743 80.0771 40.3217 80.0654 40.3669C78.1477 40.3669 76.2285 40.3669 74.3109 40.3669C73.9314 40.4019 73.5939 40.2888 73.3168 39.9534C72.5074 38.941 71.6981 37.9286 70.8904 36.9163C70.7006 36.6838 70.5109 36.4512 70.3212 36.2167C69.4732 35.1837 68.6269 34.1487 67.7789 33.1158C67.6026 32.8853 67.4263 32.6549 67.25 32.4224C66.4188 31.4182 65.5876 30.4162 64.7564 29.4141C64.5952 29.2124 64.4323 29.0108 64.2711 28.8112C63.4265 27.7762 62.5819 26.7412 61.7373 25.7083C61.5593 25.4778 61.383 25.2494 61.205 25.0189C60.3419 23.9778 59.4788 22.9387 58.6157 21.8975C58.4847 21.7329 58.3537 21.5683 58.2211 21.4037C57.3446 20.3337 56.4697 19.2637 55.5932 18.1937C55.4605 18.0291 55.3262 17.8645 55.1936 17.6999C54.8409 17.241 54.4984 16.7719 54.134 16.3295C53.6219 15.706 53.0929 15.1031 52.5707 14.49C52.4381 14.3253 52.3054 14.1587 52.1727 13.9941C51.3029 12.9282 50.4348 11.8603 49.565 10.7944C49.4105 10.5948 49.2544 10.3973 49.0999 10.1977C48.5306 9.54749 47.9614 8.89727 47.4425 8.30467C46.922 8.89727 46.3528 9.54749 45.7835 10.1977C45.6274 10.3973 45.4712 10.5948 45.315 10.7944C44.4469 11.8623 43.5771 12.9303 42.709 13.9961C42.5763 14.1607 42.442 14.3253 42.3093 14.49C41.4362 15.5599 40.563 16.6299 39.6898 17.6978C39.5219 17.8974 39.354 18.097 39.1861 18.2966C38.3448 19.3316 37.5036 20.3666 36.6623 21.4016C36.5296 21.5662 36.3987 21.7308 36.266 21.8975C35.3878 22.9675 34.5079 24.0374 33.6297 25.1074C33.4685 25.307 33.3073 25.5066 33.1444 25.7062C32.2998 26.7412 31.4569 27.7741 30.6123 28.8091C30.4494 29.0108 30.2865 29.2124 30.1253 29.4141C29.2773 30.447 28.431 31.48 27.5831 32.5129C27.4219 32.7145 27.2623 32.9141 27.1011 33.1158C26.2548 34.1487 25.4085 35.1817 24.5622 36.2146C24.3725 36.4471 24.1811 36.6817 23.9913 36.9142C23.1736 37.9163 22.3558 38.9163 21.5381 39.9184C21.3534 40.0665 21.1703 40.2147 20.9856 40.3649C18.9135 40.3649 16.8414 40.3649 14.7694 40.3649C14.7425 40.299 14.7156 40.2332 14.6904 40.1694C14.8164 40.0624 14.9591 39.976 15.0649 39.8464C18.0823 36.1549 21.0981 32.4594 24.1122 28.7618C24.2298 28.6178 24.3389 28.4593 24.4514 28.3091C25.652 26.8358 26.8543 25.3626 28.0549 23.8872C28.1489 23.7864 28.2497 23.6918 28.337 23.5848C29.8986 21.6732 31.4602 19.7596 33.0202 17.846C33.1277 17.7143 33.22 17.5641 33.3208 17.4242C33.4366 17.3028 33.5592 17.1917 33.6667 17.06C38.1265 11.5969 42.5847 6.13385 47.0429 0.666678C47.1604 0.522642 47.2578 0.351858 47.4963 0C47.6239 0.27161 47.681 0.483547 47.7968 0.625525C54.6428 9.0269 61.4955 17.4242 68.3465 25.8194C68.4522 25.9531 68.5698 26.0745 68.684 26.2Z" fill="#BF282E"/>
<path d="M24.4509 28.3105C24.3384 28.4607 24.2309 28.6192 24.1117 28.7632C21.0976 32.4588 18.0818 36.1563 15.0643 39.8478C14.9586 39.9774 14.8158 40.0638 14.6899 40.1708C14.7168 40.2367 14.7436 40.3025 14.7688 40.3663C16.8409 40.3663 18.913 40.3663 20.9851 40.3663C20.9884 40.4589 20.9901 40.5494 20.9935 40.642C20.9918 41.64 20.9918 42.6379 20.9901 43.6359C20.9918 43.8725 20.9935 44.1092 20.9952 44.3478C20.9952 45.3767 20.9968 46.4034 20.9968 47.4323C20.9968 47.6401 20.9968 47.8479 20.9968 48.0557C20.9952 49.0846 20.9935 50.1134 20.9918 51.1443C20.9901 51.3788 20.9901 51.6134 20.9884 51.848C20.9901 52.8459 20.9935 53.846 20.9952 54.8439C20.9935 55.0805 20.9918 55.3192 20.9901 55.5559C20.9901 56.5538 20.9918 57.5518 20.9918 58.5497C20.9918 58.7864 20.9918 59.0251 20.9918 59.2617C20.9901 60.2596 20.9901 61.2576 20.9884 62.2556C20.9901 62.4922 20.9901 62.7288 20.9918 62.9675C20.9918 64.0004 20.9901 65.0313 20.9901 66.0643C20.9901 66.2618 20.9901 66.4593 20.9901 66.6589C20.9884 67.5931 20.9868 68.5252 20.9851 69.4594C20.6291 69.4532 20.2748 69.447 19.9188 69.4409C19.9188 68.2618 19.9222 67.0849 19.9188 65.9058C19.9188 65.7556 19.9306 65.5704 19.8684 65.4593C19.3949 64.626 18.9046 63.807 18.3841 62.9243C17.8602 63.8461 17.3766 64.6939 16.893 65.5437C16.8896 65.5766 16.8846 65.6095 16.8812 65.6424C16.8762 66.9079 16.8711 68.1734 16.8661 69.4409C15.7562 69.4409 14.6462 69.4409 13.538 69.4429C13.538 68.517 13.496 67.5869 13.5531 66.6672C13.6052 65.8215 13.4104 65.1404 12.9671 64.5107C12.6363 64.0395 12.3559 63.5148 12.0183 62.9552C11.5331 63.772 11.0898 64.4963 10.6717 65.2412C10.5692 65.4243 10.5054 65.6754 10.5021 65.8976C10.4869 67.0807 10.4953 68.2639 10.497 69.447C9.8136 69.445 9.13018 69.4429 8.44676 69.4388C8.03873 68.4491 7.63236 67.4594 7.22433 66.4676C7.15884 66.0519 7.09503 65.6383 7.02955 65.2227C7.1135 64.2967 7.05809 63.4757 6.10433 63.2926C6.00022 63.272 5.90451 63.1794 5.80543 63.1198C5.77017 63.093 5.73323 63.0642 5.69797 63.0375C4.28579 61.842 3.47643 60.2164 3.40759 58.095C3.31691 55.3028 4.86678 52.7801 7.07992 52.0702C7.22769 52.0229 7.37545 51.9776 7.55177 51.9241C7.52994 51.4694 7.49299 51.0146 7.48964 50.5599C7.4762 48.101 8.24022 46.0619 9.733 44.4363C9.97984 44.1688 10.0336 43.961 9.93282 43.568C9.11171 40.391 10.3123 36.9815 12.7488 35.5082C12.9738 35.3724 13.2038 35.2551 13.4591 35.1131C12.8814 33.3641 13.0292 31.7756 14.2432 30.5102C15.056 29.6624 16.2633 29.3085 17.7057 30.1953C18.6175 28.5677 19.86 27.5533 21.5006 27.3969C22.5585 27.3002 23.5576 27.5677 24.4509 28.3105Z" fill="#8BC43F"/>
<path d="M74.3001 82.9437C74.9717 83.1453 75.4352 83.6227 75.6316 84.454C75.64 84.526 75.6484 84.596 75.6585 84.668C75.6585 85.0939 75.6585 85.5198 75.6585 86.0199C75.4537 86.0199 75.279 86.0199 75.1027 86.0199C56.8972 86.0199 38.6917 86.0199 20.4862 86.0199C20.2058 86.0199 19.927 86.026 19.6466 86.0281C19.3981 84.2997 19.781 83.4252 20.9933 82.9375C25.9754 82.9396 30.9575 82.9416 35.9396 82.9457C36.0185 82.9684 36.0974 83.0116 36.1763 83.0116C37.6674 83.0116 39.1585 83.0075 40.6479 83.0033C40.9166 83.0013 41.1853 83.0013 41.4556 82.9992C41.8586 82.9992 42.2633 83.0013 42.6663 83.0013C45.9608 83.0013 49.2553 83.0013 52.5499 83.0013C52.9999 82.9848 53.4499 82.9684 53.9016 82.9519C54.2173 82.9478 54.5346 82.9437 54.8503 82.9396C54.9998 82.9642 55.1475 83.0075 55.297 83.0095C56.5798 83.0157 57.861 83.0157 59.1439 83.0095C59.2934 83.0095 59.4445 82.9684 59.594 82.9478C64.4954 82.9478 69.3969 82.9457 74.3001 82.9437Z" fill="#1B1B1B"/>
<path d="M85.6447 54.9564C86.5548 54.9337 87.4766 54.8967 88.3145 55.407C88.8586 55.7383 89.3623 56.1766 89.8627 56.6066C90.0373 56.7568 90.1482 56.8494 90.3749 56.7465C91.8626 56.0716 93.347 56.7383 94.0304 58.3659C94.7222 60.01 94.284 61.8907 92.9574 62.9853C92.9222 63.0141 92.8886 63.045 92.855 63.0759C92.5309 63.2096 92.2068 63.3434 91.8576 63.4874C91.9885 63.6211 92.0792 63.7117 92.1716 63.8063C91.9247 64.2261 91.7132 64.6294 91.463 64.9936C91.2346 65.329 91.1523 65.6829 91.1607 66.1171C91.1809 67.2261 91.1691 68.3352 91.1691 69.4422C90.6536 69.4505 90.1297 69.397 89.6226 69.4834C88.8384 69.6192 88.4421 69.076 88.1113 68.3578C88.0291 68.1809 87.9686 67.9875 87.8981 67.8023C87.8796 67.5986 87.8225 67.3887 87.8494 67.1953C88.0173 65.9483 87.6496 64.9319 86.9762 64.0368C86.8721 63.8989 86.7949 63.7323 86.7008 63.5862C86.5783 63.3927 86.449 63.2055 86.2979 62.9792C85.831 63.7631 85.3928 64.471 84.9864 65.2035C84.8706 65.4134 84.8 65.6994 84.795 65.9525C84.7698 67.0121 84.7782 68.0718 84.7732 69.1315C84.2627 69.1192 83.7472 69.1562 83.2435 69.0801C82.5903 68.9834 82.147 68.3949 81.665 67.9113C81.618 67.8043 81.571 67.6994 81.524 67.5924C81.5038 67.2755 81.4652 66.9586 81.4652 66.6418C81.4635 66.0368 81.5189 65.4236 81.1613 64.9133C81.3309 64.438 81.5005 63.9627 81.6634 63.51C81.2066 63.4606 80.7314 63.4113 80.2579 63.3598C80.0917 63.2672 79.9254 63.1767 79.7592 63.0841C79.6433 62.9894 79.5224 62.903 79.4133 62.7981C78.4377 61.8433 78.0431 60.6067 78.347 59.1231C78.6476 57.6622 79.4519 56.7609 80.6676 56.5325C81.1344 56.4441 81.6298 56.5902 82.1134 56.6293C82.419 56.9605 82.6507 57.0161 83.0168 56.6148C83.4735 56.1128 84.0411 55.7506 84.5885 55.3926C84.9109 55.1827 85.2904 55.0984 85.6447 54.9564Z" fill="#8BC43F"/>
<path d="M81.5236 67.5938C81.5706 67.7007 81.6176 67.8057 81.6646 67.9127C81.6411 68.4168 81.6176 68.9189 81.5941 69.4436C82.6889 69.4436 83.7384 69.4436 84.7878 69.4436C85.6677 69.4456 86.5476 69.4312 87.4275 69.4559C87.7482 69.4662 87.8372 69.3304 87.8271 68.9539C87.8171 68.5711 87.8708 68.1864 87.8977 67.8036C87.9682 67.9888 88.0286 68.1822 88.1109 68.3592C88.4417 69.0773 88.838 69.6185 89.6222 69.4847C90.1293 69.3983 90.6532 69.4518 91.1687 69.4436C92.1795 69.4456 93.1904 69.4456 94.2012 69.4477C95.2893 69.4518 95.291 69.4518 95.2893 70.8099C95.2893 71.5897 95.2893 72.3716 95.2877 73.1515C95.1063 73.1494 94.925 73.1453 94.7419 73.1453C87.9329 73.1432 81.1222 73.1412 74.3115 73.1412C74.3031 72.2173 74.2947 71.2913 74.2863 70.3675C74.2863 70.1658 74.2847 69.9642 74.2847 69.7625C74.2964 69.6555 74.3082 69.5506 74.3199 69.4436C75.6851 69.4456 77.0486 69.4456 78.4137 69.4477C79.2651 69.4477 80.1181 69.4271 80.9678 69.458C81.3271 69.4703 81.4665 69.3633 81.4446 68.8942C81.4278 68.4621 81.495 68.0259 81.5236 67.5938Z" fill="#EFEFEF"/>
<path d="M13.5374 69.4396C14.6473 69.4396 15.7573 69.4396 16.8655 69.4375C17.8831 69.4375 18.9007 69.4375 19.9182 69.4375C20.2742 69.4437 20.6285 69.4498 20.9845 69.456C20.9946 69.5301 21.0046 69.6021 21.0147 69.6762C21.0097 69.9046 21.0063 70.133 21.0013 70.3634C20.9929 71.2894 20.9845 72.2153 20.9761 73.1392C20.7796 73.1413 20.5849 73.1454 20.3884 73.1454C13.5945 73.1474 6.80227 73.1516 0.00837248 73.1536C0.00837248 72.061 0.015089 70.9704 0.00165567 69.8799C-0.00338182 69.5424 0.0906516 69.4396 0.362676 69.4416C1.61533 69.456 2.86799 69.4478 4.12065 69.4478C5.12982 69.4478 6.13732 69.4478 7.1465 69.4478C7.57972 69.4437 8.01295 69.4416 8.44617 69.4375C9.12959 69.4396 9.81301 69.4416 10.4964 69.4457C11.509 69.4437 12.5232 69.4416 13.5374 69.4396Z" fill="#EFEFEF"/>
<path d="M94.1999 78.4991C95.288 78.4991 95.2897 78.4991 95.288 79.8139C95.288 80.5794 95.2846 81.3428 95.283 82.1082C95.0865 82.1062 94.8917 82.102 94.6953 82.102C87.8997 82.1 81.1041 82.1 74.3085 82.0979C74.3018 81.8922 74.2968 81.6864 74.29 81.4786C74.29 81.3098 74.29 81.1391 74.29 80.9703C74.3001 80.1452 74.3102 79.3201 74.3203 78.495C75.6854 78.497 77.0489 78.497 78.4141 78.4991C79.435 78.4929 80.4576 78.4867 81.4785 78.4785C82.575 78.4806 83.6715 78.4826 84.768 78.4847C85.7856 78.4888 86.8032 78.4929 87.8208 78.497C88.9391 78.497 90.0557 78.497 91.174 78.497C92.1832 78.4991 93.1924 78.4991 94.1999 78.4991Z" fill="#F0F0F0"/>
<path d="M0.0139419 82.1108C0.0122628 81.0696 0.0223374 80.0285 0.000508314 78.9873C-0.00788751 78.6066 0.0861465 78.4873 0.40015 78.4914C1.63937 78.512 2.88028 78.4996 4.1195 78.4996C5.12868 78.4996 6.13618 78.4996 7.14535 78.4996C8.26368 78.4996 9.382 78.4996 10.4986 78.4996C11.5061 78.4996 12.5153 78.4996 13.5228 78.4996C14.1978 78.4996 14.8729 78.5079 15.5496 78.4935C15.6906 78.4914 15.83 78.4153 15.9694 78.3721C16.3018 78.6766 16.6125 78.6807 16.8543 78.3844C16.9735 78.4235 17.0944 78.4935 17.2136 78.4935C18.1204 78.4955 19.0271 78.4852 19.9339 78.477C20.2831 78.4791 20.6324 78.4791 20.9817 78.4811C20.9867 79.3104 20.9917 80.1396 20.9951 80.9668C20.9951 81.1396 20.9951 81.3104 20.9951 81.4832C20.9884 81.6869 20.9833 81.8907 20.9766 82.0964C19.1732 82.0985 17.3698 82.1005 15.568 82.1026C10.3861 82.1046 5.20088 82.1088 0.0139419 82.1108Z" fill="#F0F0F0"/>
<path d="M28.0369 14.3111C26.885 13.9983 26.5089 13.4283 26.5089 12.0003C26.5089 11.4345 26.4988 10.8686 26.5106 10.3048C26.5324 9.27394 27.1537 8.46323 27.9966 8.44883C29.7732 8.42002 31.5498 8.42208 33.3246 8.44677C34.2096 8.45911 34.8308 9.26983 34.856 10.3645C34.8678 10.8954 34.8594 11.4262 34.8594 11.9592C34.8594 13.4119 34.4564 14.023 33.3112 14.3111C31.5514 14.309 29.795 14.3111 28.0369 14.3111Z" fill="#BF282E"/>
<path d="M28.0381 14.3115C29.7962 14.3115 31.5526 14.3115 33.3107 14.3115C33.314 15.3506 33.3157 16.3877 33.3191 17.4268C33.22 17.5688 33.126 17.7169 33.0202 17.8486C31.4602 19.7643 29.9003 21.6758 28.337 23.5874C28.248 23.6965 28.1489 23.7891 28.0549 23.8899C28.0482 20.6964 28.0431 17.505 28.0381 14.3115Z" fill="#1A1A1A"/>
<path d="M74.2922 81.4792C74.2989 81.685 74.3039 81.8908 74.3106 82.0986C74.3123 82.3435 74.3157 82.5863 74.3174 82.8311C74.3106 82.8682 74.3056 82.9073 74.2989 82.9443C69.3974 82.9464 64.4959 82.9484 59.5928 82.9505C59.8178 82.4546 60.0428 81.9607 60.2678 81.4648C60.3366 81.471 60.4072 81.4834 60.476 81.4834C65.082 81.4834 69.6879 81.4813 74.2922 81.4792Z" fill="#EFCE84"/>
<path d="M94.2002 69.4476C93.1894 69.4456 92.1785 69.4456 91.1677 69.4435C91.1677 68.3344 91.1794 67.2254 91.1593 66.1184C91.1509 65.6842 91.2332 65.3303 91.4615 64.9949C91.7117 64.6307 91.9233 64.2274 92.1701 63.8076C92.0778 63.713 91.9871 63.6224 91.8561 63.4887C92.2054 63.3446 92.5295 63.2109 92.8535 63.0771C93.2246 63.7541 93.6092 64.4208 93.9618 65.1101C94.081 65.3426 94.1818 65.6328 94.1868 65.8982C94.2137 67.0813 94.2002 68.2645 94.2002 69.4476Z" fill="#E4E4E4"/>
<path d="M7.14765 69.4457C6.13847 69.4457 5.13097 69.4457 4.1218 69.4457C4.1218 68.2626 4.11508 67.0794 4.12851 65.8983C4.13019 65.6905 4.18057 65.4539 4.2746 65.2851C4.6457 64.6041 5.0403 63.9415 5.4349 63.281C5.49703 63.1761 5.60786 63.1164 5.69685 63.0361C5.73379 63.0629 5.76906 63.0917 5.80432 63.1184C6.21236 63.8201 6.62039 64.5197 7.02843 65.2214C7.09392 65.637 7.15773 66.0506 7.22321 66.4662C7.20306 66.5897 7.18291 66.7131 7.16276 66.8345V66.8119C7.15772 67.6905 7.15269 68.5691 7.14765 69.4457Z" fill="#E4E4E4"/>
<path d="M0.0143748 82.1101C5.19963 82.1081 10.3849 82.1039 15.5702 82.1019C17.3736 82.0998 19.177 82.0978 20.9787 82.0957C20.9771 82.3387 20.9754 82.5837 20.9737 82.8266C19.58 82.8266 18.188 82.8266 16.7943 82.8246C15.7062 82.8246 14.6164 82.8266 13.5283 82.8266C12.5174 82.8266 11.5066 82.8246 10.4957 82.8246C9.38075 82.8266 8.26411 82.8266 7.14914 82.8287C6.13829 82.8266 5.12743 82.8266 4.11657 82.8246C2.76485 82.8246 1.41312 82.8246 0.0126953 82.8246C0.0143745 82.5446 0.0143748 82.3263 0.0143748 82.1101Z" fill="#CBCBCB"/>
<path d="M74.3182 82.8307C74.3166 82.5856 74.3132 82.3427 74.3115 82.0977C81.1071 82.0997 87.9027 82.0997 94.6983 82.1018C94.8947 82.1018 95.0895 82.1059 95.286 82.108C95.286 82.3241 95.286 82.5424 95.286 82.8286C94.8947 82.8286 94.5505 82.8286 94.2063 82.8286C93.1954 82.8286 92.1845 82.8286 91.172 82.8286C90.057 82.8286 88.9421 82.8307 87.8271 82.8307C86.8112 82.8286 85.797 82.8286 84.7811 82.8265C83.6779 82.8286 82.5764 82.8286 81.4732 82.8307C80.4539 82.8286 79.433 82.8286 78.4137 82.8265C77.0469 82.8265 75.6817 82.8286 74.3182 82.8307Z" fill="#CBCBCB"/>
<path d="M85.6443 54.955C85.29 55.0969 84.9105 55.1813 84.5864 55.3932C84.039 55.7513 83.4715 56.1134 83.0147 56.6155C82.6487 57.0167 82.4169 56.9612 82.1113 56.6299C82.1684 55.2471 82.2255 53.8644 82.2843 52.4817C83.5168 52.0187 84.5444 51.1648 85.4176 50.0166C85.4932 51.6627 85.5687 53.3088 85.6443 54.955Z" fill="#45240F"/>
<path d="M94.2002 78.4991C93.191 78.4991 92.1819 78.4991 91.1727 78.4991C91.1693 76.9291 91.166 75.3592 91.1626 73.7871C92.1768 73.7871 93.1927 73.7871 94.2069 73.7871C94.2069 75.3571 94.2036 76.9291 94.2002 78.4991Z" fill="#E4E4E4"/>
<path d="M7.14677 78.4992C6.13759 78.4992 5.13009 78.4992 4.12091 78.4992C4.11756 76.9272 4.1142 75.3572 4.11084 73.7852C5.12506 73.7872 6.14095 73.7872 7.15517 73.7893C7.15349 75.3593 7.15013 76.9292 7.14677 78.4992Z" fill="#E4E4E4"/>
<path d="M94.2086 73.7881C93.1944 73.7881 92.1785 73.7881 91.1643 73.7881C90.0527 73.7881 88.9411 73.7881 87.8312 73.7881C86.8052 73.784 85.7792 73.7799 84.7533 73.7778C83.6668 73.7778 82.5821 73.7799 81.4957 73.7799C80.4647 73.7819 79.4353 73.784 78.4043 73.7881C77.0442 73.819 75.6824 73.8499 74.3223 73.8787C74.3139 73.7408 74.3038 73.6008 74.2954 73.4628C74.3021 73.3557 74.3089 73.2487 74.3139 73.1416C81.1229 73.1437 87.9336 73.1457 94.7426 73.1478C94.924 73.1478 95.1053 73.1519 95.2883 73.154C95.3656 73.6646 95.196 73.8561 94.7795 73.784C94.5932 73.749 94.4001 73.784 94.2086 73.7881Z" fill="#CBCBCB"/>
<path d="M7.1558 73.7893C6.14159 73.7872 5.12569 73.7872 4.11148 73.7852C2.76982 73.7852 1.42817 73.7852 0.0361446 73.7852C0.0260696 73.5463 0.0176732 73.3487 0.00927734 73.1531C6.80318 73.151 13.5954 73.149 20.3893 73.1448C20.5858 73.1448 20.7805 73.1407 20.977 73.1387C20.9837 73.2457 20.9904 73.3507 20.9988 73.4578C20.9955 73.5649 20.9921 73.674 20.9888 73.7811C20.6412 73.7811 20.2919 73.7831 19.9443 73.7831C18.9116 73.7831 17.8789 73.7831 16.8446 73.7831C15.7498 73.7831 14.655 73.7831 13.5601 73.7831C12.5308 73.7811 11.5032 73.7811 10.4738 73.779C10.1514 73.777 9.82903 73.777 9.50663 73.7749C8.72246 73.7811 7.93997 73.7852 7.1558 73.7893Z" fill="#CBCBCB"/>
<path d="M16.7954 82.8242C18.1891 82.8242 19.5811 82.8242 20.9749 82.8263C20.9816 82.8633 20.9866 82.9024 20.9933 82.9394C19.781 83.4251 19.3998 84.3016 19.6466 86.03C19.0673 86.0568 18.488 86.1021 17.9087 86.1082C16.7988 86.1206 16.7988 86.1123 16.7988 84.7728C16.7971 84.1226 16.7971 83.4744 16.7954 82.8242Z" fill="#F0F0F0"/>
<path d="M81.4699 82.8303C82.5731 82.8282 83.6747 82.8282 84.7779 82.8262C84.7812 83.8077 84.7829 84.7912 84.7863 85.7727C83.6747 85.7666 82.5631 85.7604 81.4531 85.7542C81.4598 84.7789 81.4649 83.8036 81.4699 82.8303Z" fill="#45240F"/>
<path d="M4.11787 82.8242C5.12873 82.8263 6.13959 82.8263 7.15045 82.8283C7.14877 83.7358 7.13869 84.6452 7.15045 85.5527C7.15381 85.8654 7.10175 86.0218 6.80622 86.0136C6.02373 85.993 5.23956 85.9971 4.45707 86.0115C4.20351 86.0156 4.11284 85.9128 4.11787 85.5979C4.12795 84.6761 4.11955 83.7502 4.11787 82.8242Z" fill="#E4E4E4"/>
<path d="M10.4971 82.8262C11.508 82.8262 12.5188 82.8262 13.5297 82.8282C13.528 83.7377 13.5146 84.6451 13.5314 85.5526C13.5381 85.9188 13.434 86.0238 13.1452 86.0155C12.3895 85.995 11.6339 85.995 10.88 86.0155C10.5895 86.0238 10.4887 85.9147 10.4954 85.5505C10.5122 84.6431 10.4988 83.7336 10.4971 82.8262Z" fill="#E4E4E4"/>
<path d="M81.4705 82.8303C81.4655 83.8056 81.4587 84.7789 81.4537 85.7542C81.3412 85.8386 81.2304 85.995 81.1162 85.9991C80.3236 86.0196 79.5294 85.9991 78.7368 86.0155C78.4681 86.0217 78.4094 85.8818 78.4127 85.5875C78.4211 84.6678 78.4144 83.7459 78.4127 82.8262C79.432 82.8262 80.4512 82.8282 81.4705 82.8303Z" fill="#E4E4E4"/>
<path d="M84.7877 85.7708C84.7843 84.7893 84.7827 83.8057 84.7793 82.8242C85.7952 82.8263 86.8094 82.8263 87.8253 82.8283C87.8236 83.7358 87.8152 84.6432 87.8253 85.5506C87.8287 85.8593 87.7817 86.0218 87.4844 86.0156C86.6885 85.9951 85.8909 86.0177 85.095 85.9971C84.9892 85.9951 84.8885 85.851 84.7877 85.7708Z" fill="#E4E4E4"/>
<path d="M91.1709 82.8262C92.1818 82.8262 93.1926 82.8262 94.2051 82.8262C94.2035 83.7336 94.1951 84.6431 94.2051 85.5505C94.2085 85.8612 94.1598 86.0217 93.8626 86.0135C93.0801 85.9929 92.2959 85.9929 91.5135 86.0135C91.2162 86.0217 91.1692 85.8591 91.1726 85.5484C91.181 84.6431 91.1726 83.7357 91.1709 82.8262Z" fill="#E4E4E4"/>
<path d="M75.6578 84.6695C75.6492 84.597 75.6407 84.5266 75.6304 84.4541C75.6389 84.5266 75.6492 84.597 75.6578 84.6695Z" fill="#D6D6D6"/>
<path d="M20.9968 47.4311C20.9968 46.4023 20.9951 45.3755 20.9951 44.3467C21.247 44.3467 21.4989 44.3487 21.7507 44.3487C39.2661 44.3487 56.7831 44.3508 74.2985 44.3508C74.3019 44.9825 74.3002 45.6163 74.3136 46.248C74.317 46.4311 74.3623 46.6122 74.3892 46.7932C74.359 47.0072 74.3287 47.2212 74.2985 47.4352C72.9703 47.4352 71.6421 47.4352 70.3139 47.4352C64.8465 47.4332 59.3791 47.429 53.9118 47.427C53.8916 47.4167 53.8715 47.4126 53.8496 47.4146C53.7254 47.3982 53.6028 47.3673 53.4785 47.3673C49.6349 47.3653 45.793 47.3653 41.9494 47.3673C41.7832 47.3673 41.6169 47.4043 41.4507 47.4249C41.2828 47.429 41.1149 47.4332 40.9486 47.4332C34.2975 47.4332 27.6463 47.4332 20.9968 47.4311Z" fill="#F0CF85"/>
<path d="M20.9897 43.6365C20.9914 42.6386 20.9914 41.6406 20.9931 40.6426C28.0691 40.6426 35.1451 40.6447 42.2194 40.6447C42.3454 40.6447 42.4713 40.6324 42.5956 40.6262C42.6678 40.6776 42.7433 40.7229 42.8105 40.7805C44.7046 42.3937 46.7901 42.9616 49.0654 42.5172C50.4053 42.2558 51.5908 41.5542 52.6974 40.6221C52.9207 40.6303 53.1441 40.6447 53.3674 40.6447C60.3443 40.6468 67.3212 40.6468 74.2982 40.6468C74.2999 41.6427 74.2999 42.6386 74.3015 43.6324C72.9616 43.6653 71.6233 43.7271 70.2833 43.725C55.5721 43.7003 40.861 43.6633 26.1498 43.6324C24.4304 43.6283 22.7092 43.6345 20.9897 43.6365Z" fill="#EFCF84"/>
<path d="M20.9897 43.6364C22.7109 43.6343 24.4304 43.6281 26.1515 43.6322C40.8627 43.6631 55.5738 43.7002 70.285 43.7249C71.6249 43.727 72.9632 43.6652 74.3032 43.6322C74.3015 43.8711 74.2999 44.112 74.2982 44.3508C56.7828 44.3508 39.2658 44.3508 21.7504 44.3488C21.4985 44.3488 21.2467 44.3467 20.9948 44.3467C20.9931 44.1099 20.9914 43.8731 20.9897 43.6364Z" fill="#D2B164"/>
<path d="M74.3005 40.6452C67.3236 40.6452 60.3466 40.6452 53.3697 40.6431C53.1464 40.6431 52.923 40.6287 52.6997 40.6205C52.913 40.396 53.1262 40.1716 53.3395 39.9472C53.4654 39.941 53.5913 39.9286 53.7173 39.9286C60.125 39.9286 66.5327 39.9266 72.9404 39.9286C73.0663 39.9286 73.1906 39.9451 73.3165 39.9534C73.5936 40.2869 73.9311 40.4022 74.3106 40.3672C74.3072 40.4599 74.3038 40.5525 74.3005 40.6452Z" fill="#D2B164"/>
<path d="M55.5913 18.1943C56.4679 19.2643 57.3427 20.3343 58.2192 21.4043C51.0324 21.4043 43.8473 21.4043 36.6621 21.4043C37.5034 20.3693 38.3446 19.3343 39.1876 18.2993C39.243 18.3054 39.2984 18.3199 39.3538 18.3199C44.6533 18.3219 49.9527 18.324 55.2521 18.3178C55.3646 18.3157 55.4788 18.2375 55.5913 18.1943Z" fill="#EFCF84"/>
<path d="M21.5371 39.9204C22.3549 38.9183 23.1726 37.9183 23.9904 36.9162C24.7846 36.8915 25.5789 36.8462 26.3731 36.8442C30.9337 36.8359 35.4943 36.838 40.0566 36.8359C40.6477 37.8216 41.2387 38.8072 41.8298 39.7948C41.7039 39.838 41.5763 39.9204 41.4503 39.9204C34.8109 39.9265 28.1732 39.9224 21.5371 39.9204Z" fill="#EFCF84"/>
<path d="M73.3164 39.9529C73.1904 39.9447 73.0662 39.9282 72.9402 39.9282C66.5326 39.9262 60.1249 39.9262 53.7172 39.9282C53.5912 39.9282 53.4653 39.9406 53.3394 39.9468C53.9674 38.9056 54.5937 37.8644 55.2217 36.8232C55.4165 36.8294 55.6129 36.8418 55.8077 36.8418C60.3767 36.8438 64.9474 36.8397 69.5164 36.8459C69.9748 36.8459 70.4316 36.8911 70.8883 36.9158C71.6977 37.9282 72.507 38.9406 73.3164 39.9529Z" fill="#EFCF84"/>
<path d="M33.6289 25.1095C34.5071 24.0395 35.387 22.9695 36.2652 21.8995C36.4079 21.9407 36.549 22.0189 36.69 22.0189C43.8567 22.025 51.0217 22.025 58.1884 22.0189C58.3294 22.0189 58.4705 21.9407 58.6132 21.8975C59.4763 22.9386 60.3394 23.9777 61.2025 25.0189C61.0429 25.0518 60.8834 25.1094 60.7239 25.1115C58.3076 25.1197 55.8896 25.1197 53.4733 25.1218C51.4633 22.8563 49.1108 21.8933 46.3956 22.3543C44.6241 22.6547 43.1229 23.6506 41.8148 25.1177C39.0862 25.1115 36.3575 25.1095 33.6289 25.1095Z" fill="#EFCE84"/>
<path d="M24.5615 36.216C25.4078 35.1831 26.2541 34.1501 27.1021 33.1172C27.1861 33.1234 27.27 33.1357 27.3523 33.1357C31.337 33.1357 35.3199 33.1337 39.3046 33.1316C39.5011 34.1954 39.6958 35.2592 39.8923 36.3209C34.7809 36.286 29.6712 36.251 24.5615 36.216Z" fill="#EFCE84"/>
<path d="M67.7784 33.1162C68.6264 34.1492 69.4727 35.1841 70.3207 36.2171C69.9882 36.2521 69.6557 36.3159 69.3233 36.3179C64.682 36.3241 60.0408 36.322 55.3979 36.322C55.5961 35.2582 55.7959 34.1965 55.9941 33.1327C58.7479 33.1347 61.5017 33.1388 64.2555 33.1368C65.4293 33.1368 66.6047 33.1244 67.7784 33.1162Z" fill="#EFCE84"/>
<path d="M39.689 17.7002C40.5621 16.6302 41.4353 15.5602 42.3085 14.4923C42.4495 14.5334 42.5922 14.6116 42.7333 14.6116C45.87 14.6178 49.0083 14.6178 52.145 14.6116C52.2861 14.6116 52.4271 14.5334 52.5682 14.4902C53.0904 15.1034 53.6193 15.7063 54.1315 16.3298C54.4958 16.7722 54.8384 17.2434 55.1893 17.7002C50.0242 17.7002 44.8574 17.7002 39.689 17.7002Z" fill="#EFCE84"/>
<path d="M27.583 32.5148C28.431 31.4819 29.2773 30.449 30.1253 29.416C30.3066 29.4222 30.488 29.4345 30.6693 29.4345C33.6616 29.4366 36.6522 29.4345 39.6444 29.4345C39.5269 30.4613 39.4094 31.4901 39.2918 32.5169C35.3894 32.5169 31.4854 32.5148 27.583 32.5148Z" fill="#EFCF84"/>
<path d="M64.7556 29.415C65.5868 30.4192 66.418 31.4212 67.2492 32.4233C67.1048 32.4562 66.9587 32.518 66.8143 32.518C63.2091 32.5221 59.6039 32.5221 55.9988 32.5221C55.8796 31.4933 55.7603 30.4665 55.6411 29.4377C56.4773 29.4377 57.3136 29.4377 58.1498 29.4356C60.3512 29.4294 62.5526 29.4233 64.7556 29.415Z" fill="#EFCE84"/>
<path d="M30.6113 28.8109C31.4559 27.7759 32.2989 26.743 33.1435 25.708C33.3249 25.7142 33.5062 25.7286 33.6876 25.7286C36.2332 25.7306 38.7805 25.7327 41.3261 25.7327C40.819 26.7615 40.3119 27.7883 39.8031 28.8171C36.7403 28.8151 33.6758 28.813 30.6113 28.8109Z" fill="#EFCF84"/>
<path d="M61.7348 25.7061C62.5794 26.7411 63.4241 27.776 64.2687 28.809C63.9329 28.811 63.5987 28.8131 63.2629 28.8131C60.6652 28.8193 58.0675 28.8234 55.4699 28.8296C54.9678 27.7966 54.4674 26.7637 53.9653 25.7307C54.3683 25.7287 54.773 25.7287 55.176 25.7266C57.364 25.7225 59.5502 25.7143 61.7348 25.7061Z" fill="#EFCE84"/>
<path d="M42.708 13.9966C43.5761 12.9287 44.4459 11.8608 45.3141 10.7949C46.7296 10.7949 48.1468 10.7949 49.5624 10.7949C50.4322 11.8608 51.3003 12.9287 52.1684 13.9946C49.0166 13.9946 45.8615 13.9966 42.708 13.9966Z" fill="#EFCE84"/>
<path d="M21.5378 39.9204C28.1739 39.9225 34.8116 39.9266 41.4476 39.9225C41.5736 39.9225 41.7012 39.8401 41.8271 39.7969C42.084 40.0728 42.3393 40.3487 42.5962 40.6246C42.4703 40.6308 42.3443 40.6431 42.2201 40.6431C35.1441 40.6431 28.0681 40.6431 20.9937 40.6411C20.9904 40.5484 20.9887 40.4578 20.9854 40.3652C21.1701 40.219 21.3531 40.0707 21.5378 39.9204Z" fill="#D2B164"/>
<path d="M58.6136 21.8985C58.4726 21.9396 58.3315 22.0199 58.1888 22.0199C51.0221 22.0261 43.8571 22.0261 36.6905 22.0199C36.5494 22.0199 36.4067 21.9417 36.2656 21.9005C36.3983 21.7358 36.5293 21.5711 36.6619 21.4043C43.8471 21.4043 51.0339 21.4043 58.219 21.4043C58.3517 21.569 58.4827 21.7337 58.6136 21.8985Z" fill="#D1B062"/>
<path d="M39.6895 17.7002C44.8563 17.7002 50.0231 17.7002 55.1899 17.7002C55.3225 17.8649 55.4569 18.0296 55.5895 18.1944C55.4753 18.2355 55.3628 18.3158 55.2486 18.3158C49.9492 18.322 44.6498 18.32 39.3503 18.3179C39.2949 18.3179 39.2395 18.3055 39.1841 18.2973C39.3537 18.0996 39.5216 17.8999 39.6895 17.7002Z" fill="#D1B062"/>
<path d="M24.5619 36.2168C29.6715 36.2518 34.7829 36.2868 39.8926 36.3218C39.9464 36.4948 40.0018 36.6657 40.0555 36.8386C35.4949 36.8407 30.9343 36.8386 26.372 36.8468C25.5777 36.8489 24.7835 36.8942 23.9893 36.9189C24.1807 36.6842 24.3704 36.4515 24.5619 36.2168Z" fill="#D1B062"/>
<path d="M55.3978 36.3218C60.039 36.3218 64.6802 36.3239 69.3231 36.3177C69.6556 36.3177 69.988 36.2518 70.3205 36.2168C70.5103 36.4495 70.7 36.6821 70.8897 36.9169C70.433 36.8921 69.9746 36.8468 69.5179 36.8468C64.9489 36.8407 60.3782 36.8448 55.8092 36.8427C55.6144 36.8427 55.4179 36.8304 55.2231 36.8242C55.2802 36.6574 55.339 36.4886 55.3978 36.3218Z" fill="#D1B062"/>
<path d="M27.5823 32.5146C31.4847 32.5167 35.3887 32.5167 39.2911 32.5188C39.2961 32.7247 39.2995 32.9285 39.3045 33.1344C35.3199 33.1365 31.3369 33.1385 27.3522 33.1385C27.2683 33.1385 27.1843 33.1262 27.1021 33.12C27.2616 32.9161 27.4211 32.7164 27.5823 32.5146Z" fill="#D2B164"/>
<path d="M55.9975 32.5217C59.6027 32.5217 63.2078 32.5237 66.813 32.5176C66.9574 32.5176 67.1035 32.4558 67.2479 32.4229C67.4242 32.6535 67.6005 32.8841 67.7768 33.1167C66.6031 33.1229 65.4294 33.1353 64.2556 33.1373C61.5018 33.1394 58.748 33.1353 55.9941 33.1332C55.9958 32.9294 55.9958 32.7255 55.9975 32.5217Z" fill="#D1B062"/>
<path d="M42.7087 13.9953C45.8622 13.9933 49.0173 13.9933 52.1708 13.9912C52.3035 14.1559 52.4361 14.3227 52.5688 14.4874C52.4277 14.5286 52.2867 14.6068 52.1456 14.6089C49.0089 14.6151 45.8706 14.6151 42.7339 14.6089C42.5929 14.6089 42.4501 14.5307 42.3091 14.4895C42.4417 14.3268 42.5761 14.1621 42.7087 13.9953Z" fill="#D2B164"/>
<path d="M30.612 28.8105C33.6764 28.8126 36.7409 28.8147 39.8054 28.8167C39.7516 29.0226 39.6979 29.2285 39.6442 29.4365C36.6519 29.4365 33.6613 29.4365 30.669 29.4365C30.4877 29.4365 30.3063 29.4241 30.125 29.4179C30.2879 29.2141 30.4491 29.0123 30.612 28.8105Z" fill="#D1B062"/>
<path d="M55.4717 28.8311C58.0693 28.825 60.667 28.8208 63.2647 28.8147C63.6005 28.8147 63.9347 28.8105 64.2705 28.8105C64.4317 29.0123 64.5946 29.2141 64.7558 29.4138C62.5544 29.42 60.3513 29.4282 58.1499 29.4344C57.3137 29.4365 56.4775 29.4365 55.6413 29.4365C55.5842 29.2347 55.5271 29.0329 55.4717 28.8311Z" fill="#D1B062"/>
<path d="M41.3281 25.7334C38.7825 25.7313 36.2352 25.7313 33.6896 25.7292C33.5082 25.7292 33.3269 25.7169 33.1455 25.7086C33.3067 25.5089 33.4679 25.3092 33.6291 25.1074C36.3578 25.1095 39.0864 25.1115 41.8167 25.1136C41.6522 25.3195 41.491 25.5275 41.3281 25.7334Z" fill="#D1B062"/>
<path d="M61.7351 25.7073C59.5489 25.7156 57.3643 25.7217 55.178 25.73C54.775 25.732 54.3703 25.732 53.9673 25.7341C53.8027 25.5303 53.6382 25.3244 53.4736 25.1205C55.89 25.1185 58.3079 25.1185 60.7243 25.1102C60.8838 25.1102 61.0433 25.0505 61.2028 25.0176C61.3808 25.2482 61.5571 25.4788 61.7351 25.7073Z" fill="#D1B062"/>
<path d="M45.7832 10.1977C46.3524 9.54751 46.9217 8.89935 47.4422 8.30469C47.9611 8.89729 48.5303 9.54751 49.0996 10.1977C47.9947 10.1977 46.8881 10.1977 45.7832 10.1977Z" fill="#EFCE84"/>
<path d="M45.7827 10.1982C46.8876 10.1982 47.9942 10.1982 49.0991 10.1982C49.2536 10.398 49.4097 10.5956 49.5642 10.7953C48.1487 10.7953 46.7315 10.7953 45.3159 10.7953C45.4704 10.5956 45.6266 10.398 45.7827 10.1982Z" fill="#D1B062"/>
<path d="M20.9917 51.1408C20.9934 50.112 20.9951 49.0832 20.9967 48.0523C24.565 48.0523 28.1315 48.0523 31.6997 48.0502C34.9036 48.0482 38.1074 48.044 41.3113 48.042C41.3499 48.0502 41.3885 48.0584 41.4271 48.0687C41.4305 49.0914 41.4322 50.112 41.4355 51.1346C41.2542 51.1367 41.0728 51.1388 40.8915 51.1388C34.2571 51.1388 27.6244 51.1408 20.9917 51.1408Z" fill="#F0CF85"/>
<path d="M13.5379 69.4399C12.5237 69.442 11.5112 69.442 10.4969 69.444C10.4969 68.2609 10.4869 67.0777 10.502 65.8946C10.5053 65.6724 10.5691 65.4193 10.6716 65.2382C11.0897 64.4933 11.533 63.769 12.0183 62.9521C12.3558 63.5118 12.6362 64.0386 12.967 64.5077C13.4103 65.1374 13.6051 65.8185 13.553 66.6641C13.4942 67.586 13.5379 68.514 13.5379 69.4399Z" fill="#E4E4E4"/>
<path d="M19.9189 69.4404C18.9014 69.4404 17.8838 69.4404 16.8662 69.4404C16.8712 68.1749 16.8763 66.9095 16.8813 65.642C16.8931 65.6338 16.9132 65.6235 16.9132 65.6173C16.9099 65.5926 16.9015 65.5679 16.8931 65.5432C17.3767 64.6934 17.8603 63.8436 18.3842 62.9238C18.9047 63.8086 19.3967 64.6276 19.8686 65.4589C19.9307 65.57 19.9189 65.7552 19.9189 65.9054C19.9223 67.0844 19.9206 68.2614 19.9189 69.4404Z" fill="#E4E4E4"/>
<path d="M20.9912 51.1401C27.6239 51.138 34.2582 51.138 40.8909 51.136C41.0723 51.136 41.2536 51.1318 41.435 51.1318C41.4333 51.3769 41.4316 51.6239 41.4316 51.869C40.137 51.8648 38.8407 51.8587 37.546 51.8545C37.2975 51.8463 37.0507 51.8298 36.8022 51.8298C33.2843 51.8278 29.7648 51.8278 26.2469 51.8298C25.9867 51.8298 25.7264 51.8422 25.4661 51.8484C23.9733 51.8484 22.4806 51.8463 20.9878 51.8463C20.9895 51.6095 20.9895 51.3748 20.9912 51.1401Z" fill="#CAAC64"/>
<path d="M20.9917 66.0626C20.9917 65.0296 20.9934 63.9988 20.9934 62.9658C22.4778 62.9658 23.9638 62.9658 25.4482 62.9658C25.4381 63.9823 25.4297 64.9988 25.4197 66.0153C25.0586 66.0255 24.6993 66.0338 24.3383 66.0441C23.2233 66.0502 22.1067 66.0564 20.9917 66.0626Z" fill="#F0CF85"/>
<path d="M20.9914 58.5464C20.9914 57.5485 20.9897 56.5505 20.9897 55.5526C22.3247 55.5546 23.6596 55.5587 24.9962 55.5526C25.144 55.5526 25.2934 55.4929 25.4412 55.46C25.4429 56.4888 25.4462 57.5155 25.4479 58.5444C23.9635 58.5464 22.4775 58.5464 20.9914 58.5464Z" fill="#F0CF85"/>
<path d="M20.9878 62.2546C20.9895 61.2567 20.9895 60.2587 20.9912 59.2607C22.4772 59.2607 23.9633 59.2628 25.4493 59.2628C25.4493 60.2587 25.451 61.2567 25.451 62.2526C23.9633 62.2526 22.4755 62.2526 20.9878 62.2546Z" fill="#F0CF85"/>
<path d="M20.9878 51.8438C22.4806 51.8438 23.9733 51.8458 25.4661 51.8458C25.4594 52.8438 25.4527 53.8417 25.4477 54.8397C23.9633 54.8397 22.4806 54.8397 20.9962 54.8397C20.9928 53.8417 20.9895 52.8417 20.9878 51.8438Z" fill="#EFCF84"/>
<path d="M41.3111 48.0424C38.1073 48.0465 34.9034 48.0506 31.6996 48.0527C28.1313 48.0548 24.5648 48.0548 20.9966 48.0548C20.9966 47.8468 20.9966 47.6388 20.9966 47.4309C27.6461 47.4329 34.2972 47.4329 40.9467 47.435C41.1146 47.435 41.2826 47.4288 41.4488 47.4268C41.4421 47.5318 41.4337 47.6388 41.427 47.7438C41.3884 47.8427 41.3497 47.9415 41.3111 48.0424Z" fill="#D1B062"/>
<path d="M21.0156 69.6766C21.0055 69.6026 20.9954 69.5305 20.9854 69.4565C20.987 68.5223 20.9887 67.5902 20.9904 66.656C22.097 66.6519 23.2035 66.6478 24.3101 66.6416C24.3118 67.6766 24.3118 68.7116 24.3135 69.7487C23.2153 69.726 22.1154 69.7013 21.0156 69.6766Z" fill="#EFCF84"/>
<path d="M20.9878 62.254C22.4755 62.254 23.9633 62.252 25.451 62.252C25.4493 62.4908 25.4477 62.7296 25.4477 62.9664C23.9633 62.9664 22.4772 62.9664 20.9928 62.9664C20.9912 62.7276 20.9895 62.4908 20.9878 62.254Z" fill="#D2B164"/>
<path d="M25.4499 59.2615C23.9638 59.2615 22.4778 59.2594 20.9917 59.2594C20.9917 59.0226 20.9917 58.7838 20.9917 58.547C22.4778 58.547 23.9621 58.547 25.4482 58.5449C25.4482 58.7838 25.4499 59.0226 25.4499 59.2615Z" fill="#D2B164"/>
<path d="M20.9948 54.8398C22.4792 54.8398 23.9619 54.8398 25.4462 54.8398C25.4446 55.0478 25.4429 55.2537 25.4412 55.4617C25.2934 55.4946 25.144 55.5523 24.9962 55.5543C23.6613 55.5605 22.3264 55.5564 20.9897 55.5543C20.9914 55.3155 20.9931 55.0787 20.9948 54.8398Z" fill="#D2B164"/>
<path d="M24.3114 66.6431C23.2048 66.6472 22.0983 66.6513 20.9917 66.6575C20.9917 66.4599 20.9917 66.2601 20.9917 66.0625C22.1067 66.0563 23.2233 66.0501 24.3383 66.0439C24.3299 66.2437 24.3198 66.4434 24.3114 66.6431Z" fill="#B79C5C"/>
<path d="M16.8933 65.542C16.9001 65.5667 16.9104 65.5913 16.9138 65.616C16.9138 65.6222 16.8933 65.6324 16.8813 65.6407C16.8848 65.6078 16.8899 65.5749 16.8933 65.542Z" fill="#EFEFEF"/>
<path d="M52.5493 83.0052C49.2548 83.0052 45.9602 83.0052 42.6657 83.0052C42.659 82.8509 42.6489 82.6965 42.6489 82.5443C42.6489 71.54 42.6489 60.5357 42.6489 49.5314C42.6489 49.3668 42.664 49.2001 42.6724 49.0293C45.9854 49.0293 49.2615 49.0293 52.5677 49.0293C52.5677 49.2783 52.5677 49.484 52.5677 49.6877C52.5677 60.5892 52.5677 71.4906 52.5677 82.392C52.5661 82.5937 52.5543 82.7994 52.5493 83.0052ZM51.8558 66.2209C51.8625 65.7662 51.5334 65.3567 51.1656 65.3588C50.7962 65.3608 50.4705 65.7662 50.4755 66.2189C50.4805 66.6489 50.7912 67.0378 51.1438 67.0543C51.5116 67.0728 51.8507 66.6757 51.8558 66.2209Z" fill="#BF272D"/>
<path d="M52.5497 83.0062C52.5564 82.8004 52.5681 82.5967 52.5681 82.3909C52.5698 71.4895 52.5681 60.5881 52.5681 49.6867C52.5681 49.483 52.5681 49.2793 52.5681 49.0282C49.2619 49.0282 45.9858 49.0282 42.6728 49.0282C42.6644 49.2011 42.6493 49.3657 42.6493 49.5303C42.6476 60.5346 42.6476 71.5389 42.6493 82.5432C42.6493 82.6975 42.6611 82.8519 42.6661 83.0041C42.2631 83.0041 41.8584 83.0021 41.4554 83.0021C41.4487 82.4403 41.4403 81.8786 41.4336 81.3169C41.5394 80.9712 41.6452 80.6234 41.7493 80.2757C41.981 80.2757 42.2127 80.2757 42.4663 80.2757C42.4663 79.6481 42.4663 79.0967 42.4663 78.5205C42.2614 78.5061 42.0834 78.4938 41.9055 78.4814C41.9911 78.0308 41.9273 77.646 41.6166 77.3353C41.5461 77.2653 41.5075 77.109 41.5008 76.9896C41.4739 76.5369 41.4672 76.0822 41.4521 75.6275C41.447 75.5863 41.442 75.5431 41.437 75.5019C41.4269 75.0246 41.4168 74.5472 41.4067 74.0698C41.4202 74.041 41.4219 74.0122 41.4135 73.9813C41.4185 73.8003 41.4219 73.6192 41.4269 73.4402C41.4252 72.3908 41.4219 71.3414 41.4202 70.292C41.4219 70.1068 41.4235 69.9237 41.4252 69.7405C41.4269 68.722 41.4269 67.7014 41.4269 66.6829C41.4252 66.4668 41.4219 66.2508 41.4202 66.0347C41.4219 65.0182 41.4252 63.9997 41.4269 62.9832C41.4286 62.7322 41.4286 62.4811 41.4302 62.2301C41.4302 61.2465 41.4302 60.2609 41.4302 59.2774C41.4269 59.0593 41.4235 58.8432 41.4202 58.6251C41.4219 57.5757 41.4235 56.5243 41.4252 55.4748C41.4269 55.2588 41.4303 55.0427 41.4319 54.8246C41.4319 53.839 41.4319 52.8534 41.4302 51.8678C41.4319 51.6229 41.4336 51.376 41.4353 51.1312C41.4319 50.1106 41.4303 49.0879 41.4269 48.0653C41.4269 47.9562 41.4269 47.8492 41.4269 47.7402C41.4336 47.6352 41.442 47.5282 41.4487 47.4233C41.615 47.4027 41.7812 47.3657 41.9474 47.3657C45.791 47.3615 49.633 47.3636 53.4766 47.3657C53.6008 47.3657 53.7234 47.3965 53.8477 47.413C53.8645 47.6249 53.8796 47.8369 53.8964 48.0488C53.8997 49.0776 53.9014 50.1044 53.9048 51.1332C53.9014 51.1682 53.898 51.2011 53.8947 51.2361C53.893 51.4089 53.8913 51.5818 53.8913 51.7567C53.8846 51.7896 53.888 51.8225 53.8997 51.8534C53.8997 52.8493 53.8997 53.8472 53.9014 54.8431C53.8913 54.874 53.888 54.9069 53.8947 54.9399C53.8964 55.1127 53.898 55.2835 53.8997 55.4563C53.8964 56.4852 53.893 57.516 53.8913 58.5449C53.8913 58.7835 53.8913 59.0222 53.8913 59.2609C53.8947 60.2568 53.898 61.2527 53.9014 62.2486C53.8896 62.2795 53.8863 62.3124 53.893 62.3474C53.8947 62.5532 53.8964 62.761 53.898 62.9667C53.8947 63.9626 53.8913 64.9565 53.8897 65.9524C53.8913 66.189 53.893 66.4257 53.8964 66.6623C53.898 67.6932 53.898 68.7261 53.8997 69.757C53.8997 69.9627 53.8997 70.1665 53.8997 70.3722C53.9031 71.401 53.9048 72.4299 53.9081 73.4587C53.9048 73.4937 53.9014 73.5266 53.898 73.5616C53.8964 73.7673 53.8947 73.9731 53.893 74.1789C53.893 75.1069 53.893 76.0349 53.893 76.9608C53.4766 77.3538 53.3053 77.8477 53.4749 78.4835C53.354 78.4999 53.2314 78.5164 53.1038 78.5349C53.1038 79.1193 53.1038 79.6728 53.1038 80.2798C53.359 80.2798 53.5807 80.2798 53.8023 80.2798C53.8275 80.4218 53.851 80.5638 53.8762 80.7037C53.8846 81.4547 53.8947 82.2058 53.9031 82.9589C53.4497 82.9733 52.9997 82.9897 52.5497 83.0062Z" fill="#504D4D"/>
<path d="M20.9936 82.939C20.9869 82.902 20.9818 82.8629 20.9751 82.8258C20.9768 82.583 20.9785 82.3382 20.9801 82.0954C20.9869 81.8917 20.9919 81.6879 20.9986 81.4822C24.6709 81.4822 28.3416 81.4863 32.0139 81.4842C33.102 81.4842 34.1918 81.4739 35.2799 81.4678C35.4999 81.9616 35.7198 82.4534 35.9398 82.9472C30.9577 82.9431 25.9756 82.941 20.9936 82.939Z" fill="#EFCE84"/>
<path d="M35.9396 82.9481C35.7196 82.4543 35.4997 81.9625 35.278 81.4687C35.2176 81.302 35.1571 81.1353 35.0967 80.9687C35.0362 80.765 34.9758 80.5613 34.917 80.3596C35.2293 80.3246 35.5416 80.2588 35.854 80.2588C37.8186 80.2588 39.7849 80.2711 41.7495 80.2814C41.6437 80.6271 41.5379 80.9749 41.4338 81.3205C41.1719 81.8823 40.9099 82.4461 40.648 83.0078C39.1569 83.0119 37.6658 83.016 36.1764 83.016C36.0974 83.014 36.0185 82.9708 35.9396 82.9481Z" fill="#A07A51"/>
<path d="M53.8747 80.7037C53.8495 80.5617 53.826 80.4197 53.8008 80.2798C53.967 80.2715 54.1349 80.2551 54.3012 80.2551C56.4354 80.253 58.5696 80.251 60.7038 80.251C60.6199 80.4917 60.5359 80.7304 60.4503 80.9712C60.3898 81.1378 60.3294 81.3024 60.2672 81.4691C60.0422 81.965 59.8172 82.4588 59.5922 82.9547C59.4428 82.9774 59.2916 83.0165 59.1422 83.0165C57.8593 83.0206 56.5781 83.0226 55.2952 83.0165C55.1458 83.0165 54.998 82.9712 54.8486 82.9465C54.5245 82.1975 54.1987 81.4506 53.8747 80.7037Z" fill="#A07A51"/>
<path d="M53.8745 80.7021C54.2003 81.4491 54.5244 82.196 54.8501 82.945C54.5344 82.9491 54.2171 82.9532 53.9014 82.9573C53.8913 82.2042 53.8829 81.4532 53.8745 80.7021Z" fill="#EFCE84"/>
<path d="M40.6484 83.0056C40.9104 82.4439 41.1723 81.8801 41.4343 81.3184C41.441 81.8801 41.4494 82.4418 41.4561 83.0036C41.1858 83.0036 40.9171 83.0056 40.6484 83.0056Z" fill="#EFCE84"/>
<path d="M87.8964 67.8047C87.8695 68.1874 87.8158 68.5742 87.8259 68.9549C87.836 69.3314 87.747 69.4652 87.4262 69.457C86.5464 69.4302 85.6665 69.4467 84.7866 69.4446C84.7816 69.3397 84.7765 69.2368 84.7715 69.1319C84.7765 68.0722 84.7681 67.0125 84.7933 65.9528C84.8 65.6997 84.8689 65.4137 84.9847 65.2038C85.3911 64.4692 85.8294 63.7635 86.2962 62.9795C86.4473 63.2079 86.5749 63.3951 86.6992 63.5865C86.7932 63.7346 86.8704 63.9013 86.9745 64.0371C87.6479 64.9322 88.014 65.9466 87.8477 67.1956C87.8208 67.3911 87.8779 67.601 87.8964 67.8047Z" fill="#E4E4E4"/>
<path d="M78.4156 69.4482C78.4156 68.4729 78.461 67.4934 78.4005 66.5222C78.3535 65.7568 78.5886 65.1889 78.9446 64.6189C79.2451 64.1353 79.4886 63.6003 79.7556 63.0859C79.9218 63.1785 80.0881 63.2691 80.256 63.3617C80.5566 63.8802 80.8588 64.3967 81.1594 64.9152C81.517 65.4234 81.4616 66.0387 81.4633 66.6436C81.465 66.9605 81.5019 67.2774 81.5221 67.5942C81.4935 68.0284 81.4264 68.4646 81.4465 68.8947C81.4683 69.3638 81.329 69.4729 80.9696 69.4585C80.12 69.4276 79.267 69.4482 78.4156 69.4482Z" fill="#E4E4E4"/>
<path d="M84.7729 69.1312C84.7779 69.2362 84.783 69.339 84.788 69.444C83.7385 69.444 82.6891 69.444 81.5942 69.444C81.6194 68.9193 81.6413 68.4172 81.6648 67.9131C82.1467 68.3946 82.59 68.9851 83.2432 69.0818C83.7469 69.1559 84.2624 69.1189 84.7729 69.1312Z" fill="#45240F"/>
<path d="M53.9049 73.4589C53.9015 72.43 53.8998 71.4012 53.8965 70.3724C54.8066 70.3744 55.7184 70.3765 56.6285 70.3786C56.6436 70.5926 56.6587 70.8065 56.6721 71.0144C61.4729 71.0144 66.235 71.0144 71.0105 71.0144C71.0273 70.7819 71.0441 70.5802 71.0592 70.3765C72.1356 70.3724 73.2119 70.3703 74.2883 70.3662C74.2967 71.2901 74.3051 72.216 74.3134 73.1399C74.3067 73.2469 74.3 73.3539 74.295 73.4589C67.4977 73.4609 60.7021 73.4589 53.9049 73.4589Z" fill="#F0CF85"/>
<path d="M74.295 66.666C74.3034 67.592 74.3135 68.5179 74.3219 69.4438C74.3102 69.5508 74.2984 69.6558 74.2866 69.7628C73.2103 69.7587 72.134 69.7566 71.0593 69.7525C71.0593 68.7257 71.0576 67.701 71.0576 66.6742C72.1373 66.6722 73.2153 66.6681 74.295 66.666Z" fill="#F0CF85"/>
<path d="M71.0596 69.752C72.1359 69.7561 73.2123 69.7581 74.2869 69.7623C74.2869 69.964 74.2886 70.1658 74.2886 70.3676C73.2123 70.3717 72.1359 70.3738 71.0596 70.3779C71.0596 70.1679 71.0596 69.9599 71.0596 69.752Z" fill="#D1B062"/>
<path d="M41.4189 70.2932C41.4206 71.3426 41.424 72.392 41.4256 73.4414C41.387 73.4496 41.3484 73.4599 41.3115 73.4681C41.1855 73.464 41.0596 73.4599 40.9336 73.4599C34.2875 73.4599 27.6431 73.4599 20.9969 73.4599C20.9902 73.3529 20.9835 73.248 20.9751 73.141C20.9835 72.215 20.9919 71.2891 21.0003 70.3652C22.1035 70.3714 23.2084 70.3755 24.3116 70.3817C24.325 70.5833 24.3385 70.785 24.3519 71.0175C29.1392 71.0175 33.9097 71.0175 38.6953 71.0175C38.7138 70.787 38.7289 70.5854 38.7457 70.3837C39.6004 70.3775 40.4568 70.3714 41.3115 70.3652C41.3467 70.3405 41.382 70.3138 41.4156 70.2891L41.4189 70.2932Z" fill="#F0CF85"/>
<path d="M24.3142 70.38C23.211 70.3738 22.1061 70.3697 21.0029 70.3635C21.008 70.1349 21.0113 69.9043 21.0164 69.6758C22.1162 69.7005 23.2161 69.7252 24.3159 69.7478C24.3142 69.9599 24.3142 70.1699 24.3142 70.38Z" fill="#B79C5C"/>
<path d="M60.4502 80.9687C60.5342 80.7279 60.6181 80.4892 60.7038 80.2485C60.87 80.2505 61.0413 80.2814 61.2025 80.2423C61.2948 80.2197 61.4359 80.09 61.4409 80.0016C61.4644 79.5159 61.4527 79.0283 61.4527 78.4912C61.2109 78.4912 61.0312 78.4912 60.8532 78.4912C60.8582 78.2546 60.8649 78.018 60.87 77.7793C65.3483 77.7793 69.825 77.7793 74.3033 77.7793C74.31 78.018 74.3167 78.2567 74.3251 78.4954C74.3151 79.3205 74.305 80.1456 74.2949 80.9707C69.6789 80.9707 65.0645 80.9687 60.4502 80.9687Z" fill="#EFCE84"/>
<path d="M81.4952 73.7794C82.5816 73.7794 83.6664 73.7773 84.7528 73.7773C84.7578 75.3473 84.7645 76.9173 84.7696 78.4852C83.6731 78.4832 82.5766 78.4811 81.4801 78.4791C81.4683 76.977 81.4566 75.477 81.4448 73.9749C81.4465 73.9378 81.4482 73.9029 81.4515 73.8658C81.4667 73.837 81.4801 73.8082 81.4952 73.7794Z" fill="#45240F"/>
<path d="M87.8306 73.7875C87.8272 75.3575 87.8239 76.9275 87.8205 78.4995C86.8029 78.4954 85.7853 78.4913 84.7678 78.4872C84.7627 76.9172 84.7577 75.3472 84.751 73.7793C85.7786 73.7814 86.8046 73.7834 87.8306 73.7875Z" fill="#E4E4E4"/>
<path d="M81.4453 73.9748C81.457 75.4769 81.4688 76.9769 81.4805 78.479C80.4596 78.4851 79.437 78.4913 78.4161 78.4995C78.4127 76.9275 78.4093 75.3575 78.4043 73.7855C79.4336 73.7834 80.4646 73.7814 81.4956 73.7793C81.4805 73.8081 81.4671 73.8369 81.452 73.8678C81.4503 73.9028 81.4469 73.9398 81.4453 73.9748Z" fill="#E4E4E4"/>
<path d="M60.4501 80.9688C65.0645 80.9688 69.6771 80.9708 74.2915 80.9708C74.2915 81.1396 74.2915 81.3105 74.2915 81.4794C69.6855 81.4814 65.0813 81.4835 60.4753 81.4835C60.4065 81.4835 60.3359 81.4711 60.2671 81.465C60.3292 81.3002 60.3897 81.1335 60.4501 80.9688Z" fill="#D1B062"/>
<path d="M34.9191 80.3579C34.9795 80.5616 35.04 80.7653 35.0987 80.9669C30.3987 80.9669 25.6988 80.9669 20.9988 80.9669C20.9937 80.1377 20.9887 79.3085 20.9854 78.4813C20.987 78.2797 20.9887 78.0759 20.9904 77.8743C21.6016 77.8434 22.2111 77.7858 22.8224 77.7858C26.7147 77.7796 30.607 77.7858 34.4993 77.7899C34.511 78.0245 34.5211 78.2591 34.5329 78.4936C34.4136 78.5657 34.197 78.6295 34.192 78.7138C34.1601 79.2118 34.1752 79.7138 34.1752 80.183C34.4657 80.2509 34.6924 80.3044 34.9191 80.3579Z" fill="#EFCE84"/>
<path d="M10.5 78.4994C10.4983 77.3945 10.4967 76.2895 10.495 75.1866C10.4883 74.7175 10.4799 74.2504 10.4731 73.7812C11.5025 73.7833 12.5301 73.7833 13.5594 73.7854C13.5494 74.7998 13.5393 75.8163 13.5292 76.8307C13.5275 77.3862 13.5275 77.9439 13.5259 78.4994C12.5167 78.4994 11.5092 78.4994 10.5 78.4994Z" fill="#E4E4E4"/>
<path d="M16.8442 73.7852C17.8769 73.7852 18.9096 73.7852 19.9423 73.7852C19.9389 75.349 19.9373 76.9128 19.9356 78.4766C19.0288 78.4828 18.1221 78.4951 17.2153 78.4931C17.0961 78.4931 16.9752 78.421 16.856 78.384C16.8644 76.9128 16.8728 75.4436 16.8795 73.9724C16.8795 73.9374 16.8778 73.9045 16.8778 73.8695C16.8627 73.8448 16.851 73.816 16.8442 73.7852Z" fill="#E4E4E4"/>
<path d="M16.8447 73.7861C16.8514 73.8169 16.8632 73.8457 16.88 73.8725C16.88 73.9075 16.8817 73.9404 16.8817 73.9754C16.8733 75.4466 16.8649 76.9158 16.8582 78.387C16.6164 78.6833 16.304 78.6792 15.9732 78.3746C15.7499 77.8376 15.5266 77.2985 15.3318 76.8314C14.7122 76.8314 14.1211 76.8314 13.5317 76.8314C13.5418 75.817 13.5519 74.8005 13.562 73.7861C14.6551 73.784 15.7499 73.7861 16.8447 73.7861Z" fill="#8BC43F"/>
<path d="M20.998 80.9688C25.698 80.9688 30.398 80.9688 35.098 80.9688C35.1584 81.1355 35.2189 81.3023 35.2793 81.4691C34.1912 81.4753 33.1015 81.4856 32.0134 81.4856C28.341 81.4876 24.6704 81.4835 20.998 81.4835C20.998 81.3126 20.998 81.1396 20.998 80.9688Z" fill="#D1B062"/>
<path d="M19.9355 78.4786C19.9372 76.9148 19.9406 75.351 19.9423 73.7872C20.2898 73.7872 20.6391 73.7852 20.9867 73.7852C20.9901 73.8839 20.9934 73.9848 20.9968 74.0835C20.9951 75.1123 20.9917 76.1412 20.9901 77.17C20.9901 77.4046 20.9901 77.6412 20.9884 77.8758C20.9867 78.0774 20.985 78.2811 20.9833 78.4828C20.6341 78.4807 20.2848 78.4786 19.9355 78.4786Z" fill="#8BC43F"/>
<path d="M7.16357 66.8385L7.18955 66.825L7.16357 66.8115V66.8385Z" fill="#8BC43F"/>
<path d="M74.3221 73.879C74.3153 73.947 74.3103 74.0128 74.3036 74.0808C67.5315 74.0808 60.7594 74.0787 53.9857 74.0787C53.9555 73.9058 53.9252 73.7349 53.895 73.5619C53.8984 73.5269 53.9017 73.494 53.9051 73.459C60.7024 73.461 67.4979 73.461 74.2935 73.4631C74.3036 73.6011 74.312 73.739 74.3221 73.879Z" fill="#D1B062"/>
<path d="M20.9969 74.0818C20.9935 73.9829 20.9902 73.882 20.9868 73.7832C20.9902 73.6761 20.9935 73.567 20.9969 73.46C27.643 73.46 34.2875 73.46 40.9336 73.46C41.0595 73.46 41.1855 73.4661 41.3114 73.4682C41.345 73.6391 41.3786 73.812 41.4138 73.985C41.4222 74.0159 41.4189 74.0447 41.4071 74.0735C41.2123 74.0756 41.0159 74.0818 40.8211 74.0818C34.2119 74.0797 27.6044 74.0818 20.9969 74.0818Z" fill="#D1B062"/>
<path d="M10.4734 73.7815C10.4801 74.2503 10.4885 74.7171 10.4952 75.1859C10.1663 74.7171 9.83574 74.2462 9.50684 73.7773C9.82903 73.7773 10.1512 73.7794 10.4734 73.7815Z" fill="#8BC43F"/>
<path d="M74.2984 47.435C74.2984 47.6409 74.2984 47.8447 74.3 48.0506C71.8837 48.0506 69.4691 48.0527 67.0528 48.0506C62.697 48.0486 58.3396 48.0445 53.9838 48.0424C53.9603 47.8365 53.9351 47.6327 53.9116 47.4268C59.379 47.4288 64.8463 47.4329 70.3137 47.435C71.6419 47.435 72.9701 47.435 74.2984 47.435Z" fill="#D1B062"/>
<path d="M53.9098 47.4269C53.9333 47.6328 53.9585 47.8367 53.982 48.0426C53.9534 48.0467 53.9249 48.0487 53.8963 48.0528C53.8796 47.8408 53.8644 47.6287 53.8477 47.4166C53.8695 47.4125 53.8913 47.4166 53.9098 47.4269Z" fill="#B79C5C"/>
<path d="M53.4735 25.1194C53.6381 25.3232 53.8026 25.5289 53.9672 25.7326C54.4693 26.7656 54.9696 27.7985 55.4717 28.8314C55.5288 29.0331 55.5842 29.2347 55.6413 29.4364C55.7605 30.4652 55.8798 31.492 55.999 32.5208C55.9973 32.7245 55.9973 32.9282 55.9956 33.1319C55.7975 34.1957 55.5977 35.2575 55.3995 36.3213C55.3407 36.488 55.282 36.6567 55.2232 36.8233C54.5952 37.8645 53.9689 38.9057 53.3409 39.9469C53.1276 40.1711 52.9144 40.3954 52.7011 40.6218C51.5945 41.5539 50.409 42.2555 49.0691 42.5169C46.7938 42.9613 44.7083 42.3955 42.8142 40.7802C42.7453 40.7226 42.6714 40.6773 42.5992 40.6259C42.3423 40.3502 42.0871 40.0744 41.8302 39.7987C41.2391 38.8131 40.6481 37.8275 40.057 36.8398C40.0033 36.667 39.9478 36.4962 39.8941 36.3233C39.6977 35.2595 39.5029 34.1957 39.3064 33.134C39.3014 32.9282 39.298 32.7245 39.293 32.5187C39.4105 31.492 39.5281 30.4632 39.6456 29.4364C39.6993 29.2306 39.7531 29.0249 39.8068 28.817C40.3139 27.7882 40.821 26.7614 41.3298 25.7326C41.4927 25.5269 41.6556 25.319 41.8184 25.1133C43.1265 23.6462 44.6277 22.6503 46.3992 22.3498C49.1127 21.891 51.4652 22.854 53.4735 25.1194ZM46.9835 24.0248C46.7098 24.0824 46.4361 24.1338 46.1641 24.1956C43.3179 24.8334 40.9453 28.1401 40.7807 31.6977C40.7807 32.2101 40.7807 32.7225 40.7807 33.2348C40.8496 33.7286 40.8831 34.2369 40.994 34.7163C41.7781 38.1423 44.3187 40.7205 47.0205 40.8584C47.4386 40.8605 47.8584 40.8625 48.2765 40.8646C51.5022 40.6156 54.2913 37.1999 54.5079 33.2348C54.5062 32.7225 54.5062 32.208 54.5045 31.6957C54.3584 27.7779 51.5744 24.354 48.2748 24.0351C47.845 24.033 47.4151 24.0289 46.9835 24.0248Z" fill="#1D1D1C"/>
<path d="M53.8965 48.0523C53.925 48.0482 53.9536 48.0461 53.9821 48.042C58.3379 48.044 62.6953 48.0482 67.0511 48.0502C69.4674 48.0523 71.882 48.0502 74.2983 48.0502C74.2983 49.079 74.2983 50.1099 74.2983 51.1388C67.5011 51.1388 60.7021 51.1367 53.9049 51.1367C53.9032 50.1079 53.8998 49.079 53.8965 48.0523Z" fill="#F0CF85"/>
<path d="M74.3025 55.46C74.3025 56.5217 74.3025 57.5835 74.3042 58.6452C72.8299 58.6431 71.3539 58.6431 69.8796 58.6411C69.8796 57.5835 69.8779 56.5238 69.8779 55.4661C71.3522 55.462 72.8265 55.46 74.3025 55.46Z" fill="#EFCF84"/>
<path d="M74.3001 62.9658C74.3018 63.9946 74.3018 65.0235 74.3034 66.0523C73.2103 66.0544 72.1155 66.0564 71.0224 66.0585C70.6462 66.042 70.2684 66.0255 69.8923 66.0091C69.8872 64.9967 69.8805 63.9864 69.8755 62.974C71.3481 62.9699 72.8241 62.9679 74.3001 62.9658Z" fill="#F0CF85"/>
<path d="M74.3038 59.1631C74.3005 60.1919 74.2988 61.2207 74.2954 62.2496C72.8194 62.2475 71.3451 62.2434 69.8691 62.2413C69.8725 61.2166 69.8759 60.1919 69.8775 59.1672C71.3535 59.1672 72.8295 59.1651 74.3038 59.1631Z" fill="#EFCF84"/>
<path d="M53.9055 51.1367C60.7028 51.1367 67.5017 51.1388 74.299 51.1388C74.2973 51.3776 74.2956 51.6144 74.2939 51.8532C72.8163 51.8553 71.3386 51.8574 69.8609 51.8594C69.7115 51.8327 69.5637 51.7832 69.4143 51.7832C65.6983 51.7791 61.9806 51.7791 58.2646 51.7832C58.1001 51.7832 57.9372 51.8327 57.7726 51.8574C56.4814 51.8553 55.1918 51.8553 53.9005 51.8532C53.8887 51.8224 53.8854 51.7894 53.8921 51.7565C53.8938 51.5835 53.8955 51.4106 53.8955 51.2356C53.8988 51.2047 53.9022 51.1697 53.9055 51.1367Z" fill="#D2B164"/>
<path d="M69.8608 51.8597C71.3385 51.8576 72.8162 51.8556 74.2938 51.8535C74.2938 52.8515 74.2922 53.8494 74.2922 54.8474C72.9774 54.8474 71.6626 54.8515 70.3478 54.8412C70.1866 54.8392 70.0254 54.7754 69.8642 54.7383C69.8642 53.7774 69.8625 52.8186 69.8608 51.8597Z" fill="#F0CF85"/>
<path d="M69.8711 62.2412C71.3471 62.2433 72.8214 62.2474 74.2974 62.2494C74.299 62.4883 74.3007 62.7251 74.3024 62.9639C72.8264 62.966 71.3521 62.968 69.8761 62.9722C69.8728 62.7292 69.8711 62.4842 69.8711 62.2412Z" fill="#D2B164"/>
<path d="M69.8643 54.7383C70.0255 54.7733 70.1867 54.8392 70.3479 54.8412C71.6626 54.8495 72.9774 54.8474 74.2922 54.8474C74.2956 55.0512 74.2989 55.2571 74.3006 55.461C72.8246 55.463 71.3503 55.463 69.8743 55.4651C69.8727 55.2221 69.8693 54.9792 69.8643 54.7383Z" fill="#D2B164"/>
<path d="M74.3035 59.1637C72.8292 59.1658 71.3532 59.1658 69.8789 59.1678C69.8789 58.9908 69.8789 58.8157 69.8789 58.6387C71.3532 58.6407 72.8292 58.6407 74.3035 58.6428C74.3035 58.8178 74.3035 58.9908 74.3035 59.1637Z" fill="#D1B062"/>
<path d="M71.021 66.0589C72.1141 66.0569 73.209 66.0548 74.3021 66.0527C74.3004 66.2586 74.297 66.4625 74.2954 66.6684C73.2157 66.6704 72.1376 66.6725 71.0579 66.6766C71.0462 66.4686 71.0328 66.2628 71.021 66.0589Z" fill="#D2B164"/>
<path d="M41.4271 47.7422C41.4271 47.8517 41.4271 47.9592 41.4271 48.0687C41.3884 48.0604 41.3497 48.0522 41.311 48.0418C41.3497 47.9426 41.3884 47.8434 41.4271 47.7422Z" fill="#CAAC64"/>
<path d="M25.4415 55.4615C25.4432 55.2537 25.4448 55.0479 25.4465 54.8401C25.4532 53.8421 25.4599 52.8442 25.465 51.8462C25.7253 51.8401 25.9855 51.8277 26.2458 51.8277C29.7636 51.8257 33.2832 51.8257 36.801 51.8277C37.0495 51.8277 37.2964 51.8442 37.5449 51.8524C37.5466 52.8133 37.5483 53.7743 37.5499 54.7352C37.5533 54.98 37.5566 55.2228 37.5617 55.4677C37.5634 56.5233 37.5634 57.5768 37.565 58.6324C37.5617 58.8443 37.5583 59.0583 37.555 59.2702C37.555 60.26 37.555 61.2476 37.555 62.2374C37.5566 62.4843 37.5566 62.7312 37.5583 62.9781C37.5617 63.9864 37.5667 64.9946 37.5701 66.0008C37.1553 66.0049 36.7406 66.007 36.3241 66.0111C36.3292 64.0337 36.3359 62.0563 36.3409 60.0789C36.346 59.19 36.351 58.299 36.356 57.4101C36.351 57.1344 36.346 56.8587 36.3409 56.5809C36.346 55.692 36.351 54.8031 36.3577 53.9121C36.3577 53.729 36.3577 53.5438 36.3577 53.3442C33.132 53.3442 29.9433 53.3442 26.7176 53.3442C26.7176 53.5664 26.7176 53.7537 26.7176 53.9389C26.7176 56.0438 26.7143 58.1488 26.7193 60.2538C26.721 61.1262 26.7361 61.9966 26.7445 62.8691C26.7378 63.7559 26.7328 64.6448 26.726 65.5317C26.7328 65.686 26.7378 65.8382 26.7445 65.9926C26.3029 65.9987 25.8613 66.007 25.418 66.0131C25.428 64.9967 25.4364 63.9802 25.4465 62.9637C25.4482 62.725 25.4499 62.4863 25.4499 62.2497C25.4499 61.2538 25.4482 60.2558 25.4482 59.2599C25.4482 59.0213 25.4482 58.7826 25.4482 58.5439C25.4465 57.5171 25.4432 56.4883 25.4415 55.4615Z" fill="#515150"/>
<path d="M37.55 54.7382C37.5483 53.7773 37.5466 52.8164 37.5449 51.8555C38.8396 51.8596 40.1359 51.8658 41.4305 51.8699C41.4305 52.8555 41.4305 53.8411 41.4322 54.8267C40.2417 54.8329 39.0511 54.8432 37.8623 54.8411C37.7582 54.8411 37.6541 54.7753 37.55 54.7382Z" fill="#F0CF85"/>
<path d="M36.3243 66.0112C36.739 66.0071 37.1538 66.005 37.5702 66.0009C37.948 66.0194 38.3258 66.0379 38.7036 66.0565C38.7188 66.2643 38.7322 66.4721 38.7473 66.6779C38.7473 67.7005 38.749 68.7232 38.749 69.7458C38.749 69.9578 38.749 70.1697 38.749 70.3816C38.7339 70.5833 38.7171 70.7849 38.6986 71.0154C33.913 71.0154 29.1425 71.0154 24.3552 71.0154C24.3401 70.7829 24.3266 70.5812 24.3149 70.3796C24.3149 70.1697 24.3149 69.9598 24.3149 69.7479C24.3132 68.7129 24.3132 67.6779 24.3115 66.6408C24.3199 66.4412 24.33 66.2417 24.3384 66.0421C24.6994 66.0318 25.0588 66.0235 25.4198 66.0133C25.8614 66.0071 26.303 65.9989 26.7463 65.9927C26.9579 65.9865 27.1695 65.9824 27.381 65.9762C28.3012 65.9721 29.2197 65.968 30.1399 65.9639C30.291 65.9783 30.4438 66.005 30.595 66.005C32.5042 66.0112 34.4134 66.0112 36.3243 66.0112Z" fill="#1A1A1A"/>
<path d="M51.8562 66.2215C51.8495 66.6762 51.5103 67.0754 51.1459 67.0569C50.7933 67.0383 50.4826 66.6494 50.4776 66.2215C50.4726 65.7688 50.7966 65.3634 51.1677 65.3614C51.5355 65.3572 51.8629 65.7667 51.8562 66.2215Z" fill="#1D1D1C"/>
<path d="M20.9962 74.0816C27.6037 74.0816 34.2112 74.0816 40.8187 74.0795C41.0135 74.0795 41.21 74.0733 41.4048 74.0713C41.4148 74.5487 41.4249 75.026 41.435 75.5034C41.3947 75.5096 41.3561 75.5137 41.3158 75.5199C41.0622 75.0301 40.6928 74.738 40.2377 74.6289C39.5997 74.4787 39.1328 74.9149 38.7013 75.4046C37.9759 74.31 37.2421 74.275 36.4596 75.2503C36.3807 75.3491 36.2531 75.3944 36.1423 75.4479C35.7342 75.6392 35.4605 75.9499 35.4202 76.5219C35.4118 76.6495 35.3111 76.8018 35.217 76.8779C35.0575 77.0075 34.8711 77.0878 34.6965 77.1886C34.5857 77.1804 34.4732 77.166 34.3623 77.166C29.9042 77.166 25.446 77.166 20.9878 77.168C20.9928 76.1392 20.9945 75.1104 20.9962 74.0816Z" fill="#EFCF84"/>
<path d="M53.9875 74.0752C60.7596 74.0752 67.5317 74.0773 74.3054 74.0773C74.3037 75.1061 74.3004 76.1349 74.2987 77.1637C69.681 77.1658 65.0633 77.1678 60.4456 77.1699C60.4506 76.9641 60.4607 76.7604 60.4624 76.5547C60.4691 75.2007 59.4918 74.2933 58.4474 74.7234C58.1451 74.8468 57.8865 75.1287 57.5994 75.3468C57.5155 75.2419 57.4197 75.1205 57.3207 75.0011C56.9294 74.5341 56.33 74.4044 55.8598 74.7398C55.4635 75.0238 55.0773 75.3406 54.7247 75.6987C54.5551 75.8695 54.3905 76.1575 54.367 76.4127C54.3301 76.816 54.1588 76.9209 53.8901 76.96C53.8901 76.032 53.8901 75.104 53.8901 74.1781C53.922 74.1431 53.9539 74.1102 53.9875 74.0752Z" fill="#EFCE84"/>
<path d="M53.89 76.9599C54.1587 76.9208 54.3282 76.8158 54.3669 76.4125C54.3904 76.1574 54.5549 75.8693 54.7245 75.6985C55.0772 75.3405 55.4634 75.0236 55.8596 74.7397C56.3281 74.4043 56.9293 74.5339 57.3205 75.001C57.4196 75.1203 57.5153 75.2417 57.5993 75.3467C57.8881 75.1286 58.1467 74.8467 58.4472 74.7232C59.4917 74.2931 60.4689 75.2026 60.4622 76.5545C60.4606 76.7603 60.4522 76.964 60.4454 77.1697C60.5865 77.3734 60.7275 77.5751 60.8686 77.7788C60.8636 78.0154 60.8568 78.2521 60.8518 78.4907C58.3918 78.4887 55.9318 78.4846 53.4736 78.4825C53.3023 77.8467 53.4736 77.3529 53.89 76.9599Z" fill="#8BC43F"/>
<path d="M34.6986 77.188C34.8732 77.0872 35.0596 77.0069 35.2191 76.8773C35.3131 76.8012 35.4139 76.6489 35.4223 76.5213C35.4626 75.9493 35.7363 75.6386 36.1443 75.4472C36.2552 75.3958 36.3828 75.3485 36.4617 75.2497C37.2442 74.2764 37.9763 74.3094 38.7034 75.404C39.1349 74.9143 39.6017 74.4781 40.2398 74.6283C40.6949 74.7353 41.0643 75.0295 41.3178 75.5172C41.3632 75.5542 41.4068 75.5913 41.4522 75.6263C41.4673 76.081 41.474 76.5357 41.5009 76.9884C41.5076 77.1098 41.5462 77.2641 41.6167 77.3341C41.9274 77.6428 41.9912 78.0296 41.9055 78.4802C39.4472 78.4823 36.989 78.4843 34.5307 78.4885C34.5189 78.2539 34.5088 78.0193 34.4971 77.7847C34.5642 77.5872 34.6314 77.3876 34.6986 77.188Z" fill="#8BC43F"/>
<path d="M53.4724 78.4824C55.9324 78.4845 58.3923 78.4886 60.8506 78.4906C61.0286 78.4906 61.2083 78.4906 61.4501 78.4906C61.4501 79.0256 61.4618 79.5154 61.4383 80.001C61.4333 80.0894 61.2923 80.2191 61.1999 80.2417C61.0404 80.2808 60.8674 80.2499 60.7012 80.2479C58.567 80.2499 56.4328 80.2499 54.2985 80.252C54.1323 80.252 53.9644 80.2685 53.7981 80.2767C53.5765 80.2767 53.3548 80.2767 53.0996 80.2767C53.0996 79.6717 53.0996 79.1182 53.0996 78.5318C53.2306 78.5153 53.3515 78.4989 53.4724 78.4824Z" fill="#C49B6C"/>
<path d="M34.5303 78.4906C36.9886 78.4886 39.4469 78.4865 41.9052 78.4824C42.0832 78.4948 42.2612 78.5071 42.4661 78.5215C42.4661 79.0977 42.4661 79.6491 42.4661 80.2767C42.2125 80.2767 41.9808 80.2767 41.749 80.2767C39.7844 80.2685 37.8181 80.2541 35.8535 80.2561C35.5412 80.2561 35.2288 80.322 34.9165 80.3569C34.6898 80.3034 34.4648 80.2499 34.1727 80.18C34.1727 79.7108 34.1559 79.2088 34.1894 78.7108C34.1945 78.6265 34.4111 78.5627 34.5303 78.4906Z" fill="#C49B6C"/>
<path d="M37.5634 58.6324C37.5617 57.5769 37.5617 56.5233 37.5601 55.4678C38.848 55.4698 40.1359 55.4719 41.4238 55.4739C41.4221 56.5233 41.4205 57.5748 41.4205 58.6242C40.1359 58.6283 38.8497 58.6304 37.5634 58.6324Z" fill="#EFCF84"/>
<path d="M53.8901 58.5458C53.8935 57.5169 53.8969 56.4861 53.8985 55.4572C53.9271 55.4552 53.9556 55.4552 53.9842 55.4531C55.2419 55.4552 56.4996 55.4572 57.7589 55.4614C57.7589 56.5231 57.7573 57.5828 57.7573 58.6445C56.4996 58.6466 55.2435 58.6487 53.9858 58.6507C53.9539 58.6137 53.922 58.5787 53.8901 58.5458Z" fill="#EFCE84"/>
<path d="M38.7033 66.0577C38.3255 66.0392 37.9477 66.0207 37.5699 66.0022C37.5665 64.9939 37.5615 63.9857 37.5581 62.9795C38.8477 62.9815 40.1373 62.9836 41.4269 62.9857C41.4252 64.0021 41.4219 65.0207 41.4202 66.0372C40.5151 66.0433 39.61 66.0495 38.7033 66.0577Z" fill="#F0CF85"/>
<path d="M53.9022 62.2477C53.8988 61.2518 53.8954 60.2559 53.8921 59.26C53.924 59.2271 53.9559 59.1921 53.9878 59.1592C55.2438 59.1612 56.4998 59.1633 57.7575 59.1654C57.7609 60.1921 57.7626 61.2189 57.7659 62.2477C56.4763 62.2477 55.1884 62.2477 53.9022 62.2477Z" fill="#EFCF84"/>
<path d="M53.8887 65.9509C53.892 64.955 53.8954 63.9612 53.8971 62.9653C53.9256 62.9632 53.9542 62.9591 53.9827 62.957C55.2421 62.9611 56.5015 62.9653 57.7608 62.9694C57.7524 63.9838 57.7424 65.0003 57.734 66.0147C57.3729 66.0229 57.0136 66.0332 56.6526 66.0414C56.0296 66.0456 55.4083 66.062 54.787 66.0497C54.4865 66.0435 54.1876 65.9859 53.8887 65.9509Z" fill="#F0CF85"/>
<path d="M37.5552 62.2376C37.5552 61.2479 37.5552 60.2602 37.5552 59.2705C38.8481 59.2726 40.1411 59.2746 41.4324 59.2787C41.4324 60.2623 41.4324 61.2479 41.4324 62.2315C40.1394 62.2335 38.8481 62.2356 37.5552 62.2376Z" fill="#F0CF85"/>
<path d="M53.8994 51.8555C55.1907 51.8575 56.4803 51.8575 57.7716 51.8596C57.7682 52.8534 57.7649 53.8493 57.7615 54.8432C56.4736 54.8432 55.1873 54.8452 53.8994 54.8452C53.9011 53.8473 53.8994 52.8514 53.8994 51.8555Z" fill="#F0CF85"/>
<path d="M38.7488 69.7457C38.7488 68.723 38.7471 67.7004 38.7471 66.6777C39.6404 66.6798 40.5337 66.6819 41.427 66.6819C41.427 67.7004 41.4253 68.721 41.4253 69.7395C40.532 69.7416 39.6404 69.7436 38.7488 69.7457Z" fill="#F0CF85"/>
<path d="M53.8964 69.7567C53.8947 68.7258 53.8947 67.6929 53.8931 66.662C54.8032 66.6558 55.7133 66.6517 56.6217 66.6455C56.6234 67.6805 56.6267 68.7155 56.6284 69.7505C55.7183 69.7526 54.8082 69.7546 53.8964 69.7567Z" fill="#F0CF85"/>
<path d="M37.5552 62.2376C38.8481 62.2356 40.1394 62.2335 41.4324 62.2314C41.4307 62.4826 41.4307 62.7338 41.429 62.985C40.1394 62.983 38.8498 62.9809 37.5602 62.9789C37.5569 62.7318 37.5569 62.4847 37.5552 62.2376Z" fill="#CAAC64"/>
<path d="M57.7607 62.9679C56.5013 62.9638 55.2419 62.9597 53.9826 62.9556C53.9523 62.7517 53.9221 62.5479 53.8936 62.3441C53.8868 62.3111 53.8902 62.2782 53.902 62.2452C55.1899 62.2452 56.4778 62.2452 57.7657 62.2432C57.7624 62.4861 57.7624 62.727 57.7607 62.9679Z" fill="#D2B164"/>
<path d="M41.4253 55.4775C40.1374 55.4754 38.8495 55.4733 37.5616 55.4713C37.5582 55.2263 37.5548 54.9833 37.5498 54.7383C37.6539 54.7753 37.758 54.8412 37.8621 54.8412C39.0527 54.8412 40.2432 54.833 41.432 54.8268C41.4304 55.043 41.427 55.2592 41.4253 55.4775Z" fill="#CAAC64"/>
<path d="M41.4324 59.2796C40.1394 59.2776 38.8465 59.2755 37.5552 59.2714C37.5585 59.0593 37.5619 58.8452 37.5653 58.6331C38.8515 58.6311 40.1377 58.629 41.4223 58.627C41.4256 58.8452 41.429 59.0614 41.4324 59.2796Z" fill="#CAAC64"/>
<path d="M53.9017 54.8448C55.1896 54.8448 56.4759 54.8428 57.7638 54.8428C57.7621 55.0487 57.7604 55.2546 57.7587 55.4605C56.501 55.4584 55.2434 55.4563 53.984 55.4522C53.9538 55.2813 53.9235 55.1104 53.8933 54.9395C53.8883 54.9087 53.8899 54.8757 53.9017 54.8448Z" fill="#D2B164"/>
<path d="M56.624 66.645C55.7139 66.6512 54.8055 66.6553 53.8954 66.6615C53.8937 66.4247 53.892 66.188 53.8887 65.9512C54.1876 65.9862 54.4865 66.0459 54.7853 66.05C55.4066 66.0624 56.0296 66.0459 56.6526 66.0418C56.6425 66.2435 56.6341 66.4453 56.624 66.645Z" fill="#B79C5C"/>
<path d="M53.8965 69.7562C54.8083 69.7541 55.7184 69.7521 56.6302 69.75C56.6302 69.96 56.6302 70.168 56.6302 70.378C55.7201 70.3759 54.8083 70.3739 53.8982 70.3718C53.8965 70.168 53.8965 69.9621 53.8965 69.7562Z" fill="#B79C5C"/>
<path d="M41.4272 66.6827C40.5339 66.6806 39.6406 66.6785 38.7473 66.6785C38.7322 66.4706 38.7187 66.2626 38.7036 66.0567C39.6087 66.0505 40.5154 66.0444 41.4205 66.0361C41.4222 66.2523 41.4255 66.4685 41.4272 66.6827Z" fill="#D2B164"/>
<path d="M38.7495 69.7464C39.6411 69.7444 40.5328 69.7423 41.4261 69.7402C41.4244 69.9235 41.4227 70.1088 41.4211 70.292V70.2879C41.3858 70.3126 41.3505 70.3394 41.317 70.3641C40.4623 70.3703 39.6059 70.3765 38.7512 70.3826C38.7495 70.1706 38.7495 69.9585 38.7495 69.7464Z" fill="#D1B062"/>
<path d="M53.9878 59.1606C53.9559 59.1935 53.924 59.2285 53.8921 59.2615C53.8921 59.0226 53.8921 58.7838 53.8921 58.5449C53.924 58.5799 53.9559 58.6129 53.9878 58.6479C53.9861 58.8208 53.9861 58.9917 53.9878 59.1606Z" fill="#B79C5C"/>
<path d="M53.9878 74.0753C53.9559 74.1103 53.924 74.1432 53.8921 74.1782C53.8938 73.9723 53.8954 73.7664 53.8971 73.5605C53.9257 73.7314 53.9576 73.9044 53.9878 74.0753Z" fill="#B79C5C"/>
<path d="M53.8931 62.3457C53.9233 62.5495 53.9535 62.7534 53.9821 62.9572C53.9535 62.9593 53.925 62.9634 53.8964 62.9655C53.8947 62.7596 53.8931 62.5516 53.8931 62.3457Z" fill="#B79C5C"/>
<path d="M53.8963 51.2363C53.8942 51.4093 53.8942 51.5822 53.8921 51.7573C53.8942 51.5843 53.8963 51.4093 53.8963 51.2363Z" fill="#B79C5C"/>
<path d="M53.895 54.9404C53.9252 55.1113 53.9555 55.2822 53.9857 55.4531C53.9571 55.4552 53.9286 55.4552 53.9001 55.4572C53.8984 55.2843 53.8967 55.1113 53.895 54.9404Z" fill="#B79C5C"/>
<path d="M41.4135 73.983C41.3799 73.8101 41.3463 73.6392 41.311 73.4662C41.3497 73.458 41.3883 73.4497 41.4252 73.4395C41.4219 73.6227 41.4168 73.8018 41.4135 73.983Z" fill="#CAAC64"/>
<path d="M41.4533 75.6304C41.4078 75.5931 41.3622 75.5557 41.3184 75.5205C41.3589 75.5143 41.3977 75.5101 41.4382 75.5039C41.4432 75.5474 41.4483 75.5889 41.4533 75.6304Z" fill="#CAAC64"/>
<path d="M56.6302 70.3784C56.6302 70.1685 56.6302 69.9607 56.6302 69.7508C56.6286 68.7158 56.6252 67.6808 56.6235 66.6458C56.6336 66.4442 56.642 66.2425 56.6521 66.0409C57.0131 66.0326 57.3724 66.0224 57.7335 66.0141C58.1768 66.01 58.6201 66.0038 59.0634 65.9997C59.2481 65.9915 59.4345 65.9833 59.6192 65.975C60.5662 65.973 61.5133 65.9689 62.4586 65.9668C62.5829 65.9812 62.7055 66.008 62.8297 66.008C64.7675 66.01 66.7052 66.008 68.643 66.008C69.0594 66.008 69.4759 66.008 69.8906 66.008C70.2667 66.0244 70.6446 66.0409 71.0207 66.0573C71.0324 66.2631 71.0459 66.4668 71.0576 66.6726C71.0576 67.6993 71.0593 68.724 71.0593 69.7508C71.0593 69.9586 71.0593 70.1685 71.0593 70.3763C71.0442 70.578 71.0291 70.7817 71.0106 71.0142C66.2351 71.0142 61.473 71.0142 56.6722 71.0142C56.6588 70.8064 56.6454 70.5924 56.6302 70.3784Z" fill="#1A1A1A"/>
<path d="M60.867 77.7815C60.7259 77.5777 60.5849 77.3739 60.4438 77.1721C65.0615 77.17 69.6792 77.168 74.2969 77.168C74.2986 77.3739 74.3003 77.5777 74.3003 77.7836C69.8237 77.7815 65.3453 77.7815 60.867 77.7815Z" fill="#D1B062"/>
<path d="M81.4448 73.9744C81.4465 73.9373 81.4482 73.9023 81.4517 73.8652C81.4499 73.9023 81.4465 73.9394 81.4448 73.9744Z" fill="#F0F0F0"/>
<path d="M34.6982 77.1888C34.631 77.3886 34.5638 77.5883 34.4967 77.7901C30.6044 77.788 26.7121 77.7818 22.8198 77.7859C22.2085 77.7859 21.599 77.8436 20.9878 77.8745C20.9878 77.6377 20.9878 77.403 20.9895 77.1683C25.4477 77.1683 29.9058 77.1662 34.364 77.1662C34.4765 77.1641 34.5873 77.1806 34.6982 77.1888Z" fill="#D1B062"/>
<path d="M16.8815 73.9731C16.8815 73.9381 16.8794 73.9051 16.8794 73.8701C16.8794 73.9051 16.8815 73.9402 16.8815 73.9731Z" fill="#F0F0F0"/>
<path d="M48.2761 40.8671C47.8579 40.8651 47.4382 40.863 47.02 40.861C47.02 38.3342 47.02 35.8074 47.02 33.2353C44.906 33.2353 42.8423 33.2353 40.7803 33.2353C40.7803 32.723 40.7803 32.2106 40.7803 31.6983C42.8524 31.6983 44.9261 31.6983 47.0234 31.6983C47.0234 29.2353 47.0234 26.8587 47.0217 24.4821C47.0217 24.3298 46.9965 24.1796 46.9831 24.0273C47.4147 24.0315 47.8445 24.0356 48.2761 24.0397C48.2761 26.5788 48.2761 29.118 48.2761 31.7003C50.3851 31.7003 52.4454 31.7003 54.5058 31.7003C54.5074 32.2127 54.5074 32.7271 54.5091 33.2394C52.4354 33.2394 50.3616 33.2394 48.2777 33.2394C48.2761 35.8341 48.2761 38.3506 48.2761 40.8671Z" fill="#4F5152"/>
<path d="M46.9831 24.0254C46.9965 24.1777 47.0217 24.3279 47.0217 24.4801C47.0234 26.8567 47.0234 29.2333 47.0234 31.6963C44.9261 31.6963 42.8524 31.6963 40.7803 31.6963C40.9448 28.1386 43.3175 24.832 46.1637 24.1941C46.4357 24.1365 46.7094 24.083 46.9831 24.0254Z" fill="#9ED4EB"/>
<path d="M54.5056 31.6977C52.4452 31.6977 50.3849 31.6977 48.2759 31.6977C48.2759 29.1154 48.2759 26.5762 48.2759 24.0371C51.5754 24.356 54.3595 27.78 54.5056 31.6977Z" fill="#9ED4EB"/>
<path d="M40.7803 33.2354C42.844 33.2354 44.906 33.2354 47.02 33.2354C47.02 35.8074 47.02 38.3342 47.02 40.861C44.3183 40.7231 41.7777 38.1428 40.9935 34.7189C40.8827 34.2374 40.8491 33.7312 40.7803 33.2354Z" fill="#9ED4EB"/>
<path d="M48.2759 40.8671C48.2759 38.3506 48.2759 35.8341 48.2759 33.2373C50.3597 33.2373 52.4335 33.2373 54.5073 33.2373C54.2906 37.2024 51.5016 40.6181 48.2759 40.8671Z" fill="#9ED4EB"/>
<path d="M69.8905 66.0069C69.4741 66.0069 69.0576 66.0069 68.6429 66.0069C68.6462 64.0316 68.6513 62.0542 68.6546 60.0788C68.6597 59.1899 68.6647 58.301 68.6697 57.4121C68.6647 57.1343 68.6597 56.8586 68.6529 56.5808C68.658 55.6919 68.663 54.803 68.6697 53.9141C68.6697 53.731 68.6697 53.5478 68.6697 53.3421C68.5572 53.3256 68.475 53.305 68.3944 53.305C65.392 53.303 62.3897 53.3092 59.389 53.2968C59.0716 53.2948 59.0246 53.4594 59.0263 53.7865C59.0347 55.8401 59.028 57.8936 59.0313 59.9451C59.033 60.9204 59.0464 61.8937 59.0548 62.869C59.0464 63.725 59.0397 64.5789 59.0313 65.4349C59.0414 65.6221 59.0515 65.8114 59.0599 65.9987C58.6166 66.0028 58.1733 66.009 57.73 66.0131C57.7401 64.9987 57.7485 63.9822 57.7568 62.9678C57.7585 62.727 57.7602 62.4863 57.7602 62.2455C57.7568 61.2188 57.7552 60.192 57.7518 59.1632C57.7518 58.9883 57.7518 58.8134 57.7535 58.6405C57.7535 57.5788 57.7552 56.5191 57.7552 55.4573C57.7568 55.2516 57.7585 55.0458 57.7602 54.84C57.7636 53.8462 57.7669 52.8503 57.7703 51.8565C57.9348 51.8297 58.0977 51.7824 58.2623 51.7824C61.9783 51.7783 65.6959 51.7783 69.4119 51.7824C69.5614 51.7824 69.7091 51.8318 69.8586 51.8585C69.8603 52.8174 69.8603 53.7783 69.8619 54.7372C69.8653 54.98 69.8703 55.2207 69.8737 55.4635C69.8737 56.5211 69.8754 57.5808 69.8754 58.6385C69.8754 58.8154 69.8754 58.9903 69.8754 59.1673C69.872 60.192 69.8687 61.2167 69.867 62.2414C69.8687 62.4842 69.8703 62.7291 69.8703 62.9719C69.8787 63.9842 69.8854 64.9966 69.8905 66.0069Z" fill="#515150"/>
<path d="M26.7446 62.8696C26.7362 61.9971 26.7211 61.1267 26.7194 60.2543C26.716 58.1493 26.7177 56.0444 26.7177 53.9394C26.7177 53.7542 26.7177 53.569 26.7177 53.3447C29.9434 53.3447 33.1304 53.3447 36.3578 53.3447C36.3578 53.5464 36.3578 53.7295 36.3578 53.9126C36.2738 53.9641 36.1781 54.0011 36.1059 54.0711C35.1924 54.9332 34.2807 55.8016 33.3689 56.6678C31.9181 58.0444 30.4706 59.4251 29.0148 60.7934C28.2659 61.4992 27.5019 62.1803 26.7446 62.8696Z" fill="#9FD5EC"/>
<path d="M26.7448 62.8699C27.5021 62.1786 28.2644 61.4995 29.0133 60.7958C30.4691 59.4275 31.9166 58.0468 33.3674 56.6702C34.2792 55.804 35.191 54.9356 36.1044 54.0735C36.1783 54.0035 36.2723 53.9665 36.3563 53.915C36.3513 54.8039 36.3462 55.6928 36.3395 56.5838C36.1447 56.7402 35.9399 56.8822 35.7552 57.055C33.4312 59.2505 31.1139 61.4522 28.7883 63.6457C28.1082 64.2876 27.4131 64.907 26.7246 65.5346C26.733 64.6457 26.7397 63.7588 26.7448 62.8699Z" fill="#C8E7F1"/>
<path d="M30.1383 65.9658C29.2181 65.9699 28.2996 65.974 27.3794 65.9781C27.455 65.8588 27.5137 65.7168 27.6078 65.6262C28.6472 64.6324 29.6916 63.6468 30.7344 62.6571C32.0609 61.3957 33.3824 60.1241 34.714 58.871C35.2496 58.3669 35.8088 57.8977 36.3562 57.4121C36.3512 58.301 36.3461 59.192 36.3411 60.0809C36.1765 60.2043 36.0036 60.3113 35.8508 60.4533C34.3865 61.8299 32.924 63.2085 31.4698 64.5974C31.0148 65.0336 30.5816 65.509 30.1383 65.9658Z" fill="#C8E7F1"/>
<path d="M30.1377 65.9669C30.581 65.5101 31.0125 65.0348 31.471 64.5986C32.9268 63.2076 34.3893 61.831 35.8519 60.4545C36.003 60.3125 36.1777 60.2055 36.3422 60.082C36.3372 62.0594 36.3305 64.0368 36.3254 66.0142C34.4145 66.0142 32.5036 66.0142 30.5944 66.0122C30.4416 66.0081 30.2888 65.9813 30.1377 65.9669Z" fill="#9FD5EC"/>
<path d="M36.3575 57.4103C35.8085 57.8959 35.251 58.365 34.7153 58.8692C33.3837 60.1223 32.0622 61.3939 30.7357 62.6552C29.6946 63.645 28.6485 64.6306 27.6091 65.6244C27.5151 65.7149 27.4563 65.8569 27.3807 65.9763C27.1692 65.9824 26.9576 65.9866 26.746 65.9927C26.7393 65.8384 26.7343 65.6861 26.7275 65.5318C27.416 64.9022 28.1112 64.2849 28.7912 63.6429C31.1152 61.4494 33.4341 59.2478 35.7581 57.0523C35.9428 56.8774 36.1477 56.7374 36.3424 56.5811C36.3475 56.8568 36.3525 57.1346 36.3575 57.4103Z" fill="#9FD5EC"/>
<path d="M57.757 58.6426C57.757 58.8176 57.757 58.9926 57.7553 59.1656C56.4993 59.1635 55.2433 59.1614 53.9856 59.1594C53.9856 58.9885 53.9856 58.8176 53.9839 58.6467C55.2433 58.6467 56.4993 58.6446 57.757 58.6426Z" fill="#D1B062"/>
<path d="M68.6698 57.4121C68.6648 58.301 68.6598 59.1899 68.6547 60.0788C68.5221 60.1673 68.3777 60.2373 68.2601 60.3484C66.7573 61.7723 65.2544 63.1962 63.7583 64.6303C63.3133 65.0583 62.8902 65.5192 62.4586 65.9658C61.5116 65.9678 60.5645 65.9719 59.6191 65.974C59.6376 65.9287 59.6443 65.867 59.6746 65.8402C60.6854 64.8814 61.6996 63.9287 62.7105 62.9719C64.0404 61.7105 65.3619 60.4369 66.6968 59.1837C67.3416 58.5747 68.0116 58.0006 68.6698 57.4121Z" fill="#C8E7F1"/>
<path d="M62.459 65.9651C62.8922 65.5185 63.3137 65.0576 63.7587 64.6296C65.2548 63.1934 66.756 61.7695 68.2605 60.3477C68.378 60.2366 68.5241 60.1666 68.6551 60.0781C68.6517 62.0535 68.6467 64.0309 68.6433 66.0062C66.7056 66.0062 64.7678 66.0083 62.8301 66.0062C62.7058 66.0062 62.5816 65.9795 62.459 65.9651Z" fill="#9FD5EC"/>
<path d="M68.6696 57.4132C68.0097 58.0038 67.3414 58.5778 66.6933 59.1849C65.3583 60.438 64.0368 61.7116 62.7069 62.973C61.6961 63.9318 60.6819 64.8845 59.671 65.8413C59.6425 65.8681 59.6341 65.9298 59.6156 65.9751C59.4309 65.9833 59.2445 65.9916 59.0598 65.9998C59.0497 65.8125 59.0396 65.6232 59.0312 65.436C59.1538 65.3701 59.2915 65.331 59.3956 65.2343C60.8296 63.8907 62.2586 62.5388 63.6859 61.1869C65.2022 59.7507 66.7168 58.3104 68.2347 56.8782C68.3607 56.7589 68.5135 56.6807 68.6529 56.584C68.6596 56.8577 68.6646 57.1354 68.6696 57.4132Z" fill="#9FD5EC"/>
<path d="M59.055 62.871C59.0466 61.8957 59.0331 60.9224 59.0314 59.9471C59.0281 57.8936 59.0348 55.84 59.0264 53.7886C59.0247 53.4593 59.0717 53.2968 59.3891 53.2988C62.3915 53.3112 65.3938 53.3071 68.3945 53.3071C68.4751 53.3071 68.5557 53.3277 68.6698 53.3441C68.6698 53.5478 68.6698 53.731 68.6698 53.9161C68.5859 53.9696 68.4935 54.0087 68.4197 54.0787C67.3819 55.052 66.3459 56.0273 65.3115 57.0067C63.9917 58.2578 62.6803 59.5212 61.3571 60.7681C60.5981 61.4801 59.824 62.1694 59.055 62.871Z" fill="#9ED4EB"/>
<path d="M59.0548 62.8719C59.8221 62.1723 60.5979 61.483 61.3569 60.769C62.6801 59.5241 63.9915 58.2607 65.3113 57.0076C66.344 56.0281 67.3817 55.0528 68.4195 54.0795C68.4933 54.0096 68.5857 53.9705 68.6696 53.917C68.6646 54.8059 68.6596 55.6948 68.6529 56.5837C68.5135 56.6804 68.3607 56.7586 68.2347 56.878C66.7168 58.3121 65.2022 59.7525 63.6859 61.1867C62.2569 62.5385 60.828 63.8904 59.3956 65.2341C59.2932 65.3308 59.1538 65.3699 59.0312 65.4357C59.0396 64.5818 59.048 63.7258 59.0548 62.8719Z" fill="#C8E7F1"/>
</svg>
