<svg width="308" height="309" viewBox="0 0 308 309" fill="none" xmlns="http://www.w3.org/2000/svg">
<path d="M145.453 274.67V283.876C145.453 283.876 146.695 288.533 136.777 290.972C126.86 293.411 121.567 293.303 121.679 299.736L126.75 300.012C126.75 300.012 126.017 302.341 131.425 301.118C131.425 301.118 135.595 300.289 135.991 300.452C135.991 300.452 135.162 301.954 139.972 301.472C139.972 301.472 151.032 300.452 156.721 296.182C156.721 296.182 158.126 294.13 155.37 291.691C155.37 291.691 152.721 290.693 152.889 285.259C153.058 279.824 153.342 273.281 153.342 273.281L145.453 274.67Z" fill="#FFA103"/>
<path d="M186.532 274.67V283.876C186.532 283.876 185.293 288.533 195.207 290.972C205.122 293.411 210.418 293.303 210.305 299.736L205.234 300.012C205.234 300.012 205.967 302.341 200.559 301.118C200.559 301.118 196.39 300.289 195.997 300.452C195.997 300.452 196.823 301.954 192.016 301.472C192.016 301.472 180.955 300.452 175.263 296.182C175.263 296.182 173.859 294.13 176.617 291.691C176.617 291.691 179.264 290.693 179.095 285.259C178.927 279.824 178.646 273.281 178.646 273.281L186.532 274.67Z" fill="#FFA103"/>
<path d="M165.734 273.119H158.269C153.912 276.482 148.9 275.608 148.9 275.608C139.491 276.438 136.637 271.737 136.637 271.737L136.786 267.226L132.055 257.246C126.301 251.712 127.928 239.956 127.928 239.956L141.073 204.577L165.498 204.829" fill="#6188AC"/>
<path d="M165.733 273.119H173.206C177.563 276.481 182.578 275.607 182.578 275.607C191.987 276.437 194.841 271.736 194.841 271.736L194.69 267.225L199.421 257.245C205.169 251.697 203.553 239.941 203.553 239.941C203.553 239.941 203.25 219.098 201.174 216.41C197.914 212.183 194.314 208.221 190.408 204.562L165.483 204.814" fill="#6188AC"/>
<path d="M155.651 210.341C155.651 210.341 154.749 213.383 155.651 215.222H158.353C158.353 215.222 155.314 216.605 155.651 217.661C155.809 218.109 156.037 218.53 156.328 218.908C156.83 219.602 157.139 220.412 157.224 221.259C157.918 227.666 160.463 253.023 158.348 262.581" stroke="#35506F" stroke-width="2" stroke-linecap="round" stroke-linejoin="round"/>
<path d="M174.704 210.341C174.704 210.341 175.606 213.383 174.704 215.222H171.998C171.998 215.222 175.041 216.605 174.704 217.661C174.543 218.108 174.315 218.528 174.027 218.908C173.525 219.602 173.216 220.412 173.131 221.259C172.434 227.666 169.891 253.023 172.007 262.581" stroke="#35506F" stroke-width="2" stroke-linecap="round" stroke-linejoin="round"/>
<path d="M161.607 211.171C161.607 211.171 161.7 211.086 162.542 224.144C163.447 238.165 162.843 262.075 162.843 262.075H167.762C167.762 262.075 167.647 215.458 168.552 211.113L161.607 211.171Z" fill="#DEDBDA"/>
<path d="M165.177 215.751C166.127 215.751 166.897 214.993 166.897 214.059C166.897 213.124 166.127 212.366 165.177 212.366C164.228 212.366 163.458 213.124 163.458 214.059C163.458 214.993 164.228 215.751 165.177 215.751Z" fill="#528B7F"/>
<path d="M164.944 224.669C165.894 224.669 166.664 223.911 166.664 222.977C166.664 222.042 165.894 221.284 164.944 221.284C163.995 221.284 163.225 222.042 163.225 222.977C163.225 223.911 163.995 224.669 164.944 224.669Z" fill="#528B7F"/>
<path d="M164.944 234.82C165.894 234.82 166.664 234.062 166.664 233.127C166.664 232.192 165.894 231.435 164.944 231.435C163.995 231.435 163.225 232.192 163.225 233.127C163.225 234.062 163.995 234.82 164.944 234.82Z" fill="#528B7F"/>
<path d="M164.944 244.967C165.894 244.967 166.664 244.209 166.664 243.274C166.664 242.34 165.894 241.582 164.944 241.582C163.995 241.582 163.225 242.34 163.225 243.274C163.225 244.209 163.995 244.967 164.944 244.967Z" fill="#528B7F"/>
<path d="M164.944 255.113C165.894 255.113 166.664 254.356 166.664 253.421C166.664 252.486 165.894 251.729 164.944 251.729C163.995 251.729 163.225 252.486 163.225 253.421C163.225 254.356 163.995 255.113 164.944 255.113Z" fill="#528B7F"/>
<path d="M132.386 257.974C132.386 257.974 141.286 261.749 154.749 262.581" stroke="#35506F" stroke-width="2" stroke-linecap="round" stroke-linejoin="round"/>
<path d="M140.552 266.852C140.552 266.852 146.241 271.553 154.299 272.936" stroke="#35506F" stroke-width="2" stroke-linecap="round" stroke-linejoin="round"/>
<path d="M178.016 273.284C178.016 273.284 181.387 273.45 190.184 268.403" stroke="#35506F" stroke-width="2" stroke-linecap="round" stroke-linejoin="round"/>
<path d="M185.45 273.283C187.936 272.791 190.343 271.971 192.605 270.844" stroke="#35506F" stroke-width="2" stroke-linecap="round" stroke-linejoin="round"/>
<path d="M140.552 270.564C143.205 272.116 146.128 273.169 149.172 273.67" stroke="#35506F" stroke-width="2" stroke-linecap="round" stroke-linejoin="round"/>
<path d="M178.317 218.143V224.576C178.317 224.576 190.786 224.852 193.941 223.542L191.693 217.22L178.317 218.143Z" stroke="#35506F" stroke-width="2" stroke-linecap="round" stroke-linejoin="round"/>
<path d="M206.754 192.758C206.754 192.758 206.72 187.733 207.824 183.978C207.99 183.415 208.301 182.903 208.727 182.493C209.152 182.083 209.679 181.788 210.255 181.637C210.83 181.487 211.436 181.485 212.012 181.633C212.589 181.781 213.117 182.074 213.544 182.482C215.23 184.108 217 186.871 217.43 191.472L206.754 192.758Z" fill="#FFA103"/>
<path d="M182.823 198.083C182.823 198.083 179.491 192.665 178.917 190.301H152.492C151.93 192.665 148.646 198.083 148.646 198.083L150.95 201.678L165.483 205.55V205.616L165.609 205.583L165.736 205.616V205.55L180.485 201.678L182.823 198.083Z" fill="#D18405"/>
<path d="M183.401 198.845C183.401 198.845 180.277 194.042 179.468 191.852L166.896 193.414C165.954 193.534 165.001 193.534 164.059 193.414L151.942 191.857C151.147 193.923 148.104 198.735 148.104 198.735L150.964 202.067L165.497 205.543V205.604L165.624 205.574L165.75 205.604V205.546L180.499 202.067L183.401 198.845Z" fill="#FFA103"/>
<path d="M141.058 204.576L143.23 202.74C143.966 202.117 144.581 201.367 145.045 200.528L145.576 199.562C145.807 199.14 146.144 198.783 146.555 198.526C146.966 198.269 147.438 198.12 147.924 198.094C150.97 197.936 158.122 199.3 160.848 204.803C160.839 204.811 150.683 208.315 141.058 204.576Z" fill="#6188AC"/>
<path d="M190.411 204.575L188.077 202.598C187.448 202.066 186.924 201.426 186.529 200.709L185.942 199.639C185.692 199.187 185.328 198.806 184.885 198.532C184.442 198.259 183.935 198.103 183.413 198.079C180.323 197.941 173.339 199.351 170.661 204.772C170.653 204.775 180.775 208.314 190.411 204.575Z" fill="#6188AC"/>
<path d="M168.551 211.103C168.551 211.103 170.431 204.256 171.282 203.802C171.282 203.802 167.793 203.719 165.483 204.828C165.483 204.828 162.435 203.885 160.188 203.802C160.188 203.802 161.297 207.989 161.606 211.161" fill="#DEDBDA"/>
<path d="M198.762 120.782C198.762 120.782 193.834 113.359 188.398 106.142C183.92 100.196 180.776 96.2965 175.292 89.8778C172.856 87.0266 168.985 84.1367 166.133 79.7921C166.029 79.6339 165.887 79.5036 165.719 79.4129C165.552 79.3223 165.364 79.2741 165.172 79.2727C164.981 79.2713 164.792 79.3168 164.623 79.4051C164.454 79.4933 164.31 79.6216 164.203 79.7783C163.273 81.1611 163.304 83.0029 162.535 85.7739C162.535 85.7739 160.377 79.5654 153.747 76.9852C153.747 76.9852 146.796 74.1727 145.771 75.2429C144.745 76.3132 146.074 81.6478 146.074 81.6478C146.074 81.6478 138.166 76.3685 134.704 76.374C134.464 76.3792 134.231 76.4591 134.039 76.6024C133.847 76.7457 133.706 76.945 133.635 77.1719C133.565 77.3988 133.57 77.6417 133.648 77.8659C133.727 78.0901 133.875 78.2842 134.072 78.4205L134.109 78.4454C135.345 79.2473 137.792 82.0737 139.233 88.4923C139.233 88.4923 141.447 94.604 136.921 104.275C131.985 114.828 129.125 118.205 129.125 118.205L198.762 120.782Z" fill="#FFA103"/>
<path d="M119.865 146.113C119.865 121.373 138.904 101.312 162.394 101.312C162.61 101.312 162.824 101.312 163.037 101.312C163.251 101.312 163.467 101.312 163.683 101.312C187.173 101.312 206.212 121.37 206.212 146.113C206.213 148.854 205.976 151.59 205.504 154.291C206.468 162.927 207.628 171.16 200.222 179.498C189.735 191.326 175.266 190.928 163.045 190.911C150.825 190.894 136.356 191.326 125.863 179.498C118.457 171.149 119.618 162.927 120.581 154.291C120.107 151.59 119.867 148.854 119.865 146.113Z" fill="#FFA103"/>
<path d="M141.216 142.034C141.859 142.922 145.832 140.427 149.265 138.016C152.698 135.604 157.297 133.887 156.457 131.862C156.038 130.853 152.361 128.699 146.486 134.545C143.517 137.496 140.57 141.146 141.216 142.034Z" fill="#D16A1D"/>
<path d="M200.047 139.591C199.485 140.523 195.319 138.344 191.703 136.201C188.088 134.057 183.368 132.702 184.045 130.62C184.385 129.583 187.88 127.152 194.201 132.528C197.392 135.244 200.62 138.656 200.047 139.591Z" fill="#D16A1D"/>
<path d="M142.648 155.211C142.648 162.246 148.638 167.058 154.985 167.058C161.331 167.058 166.481 161.356 166.481 154.323C166.481 147.291 164.483 139.821 158.134 139.821C155.1 139.821 150.829 141.323 147.823 144.086C144.542 147.094 142.648 151.539 142.648 155.211Z" fill="#C7C6C5"/>
<path d="M121.292 239.849C121.292 239.849 126.939 240.975 128.633 240.432L130.01 236.779H122.815L121.292 239.849Z" fill="#6188AC"/>
<path d="M201.796 153.554C201.796 159.655 196.601 163.831 191.095 163.831C185.588 163.831 181.124 158.886 181.124 152.783C181.124 146.679 182.857 140.194 188.364 140.194C190.994 140.194 194.699 141.497 197.306 143.895C200.155 146.513 201.796 150.369 201.796 153.554Z" fill="#C7C6C5"/>
<path d="M150.208 147.27C150.208 151.57 153.559 154.988 157.394 154.988C161.229 154.988 165.165 151.775 165.165 147.474C165.165 143.174 162.504 138.871 158.669 138.871C154.835 138.871 150.208 142.97 150.208 147.27Z" fill="#080808"/>
<path d="M161.803 144.922C162.489 144.922 163.045 144.375 163.045 143.7C163.045 143.025 162.489 142.478 161.803 142.478C161.117 142.478 160.561 143.025 160.561 143.7C160.561 144.375 161.117 144.922 161.803 144.922Z" fill="white"/>
<path d="M181.41 147.65C181.41 151.95 184.758 155.368 188.593 155.368C192.428 155.368 196.367 152.155 196.367 147.854C196.367 143.554 193.706 139.251 189.872 139.251C186.037 139.251 181.41 143.349 181.41 147.65Z" fill="#080808"/>
<path d="M190.687 143.699C191.373 143.699 191.929 143.151 191.929 142.476C191.929 141.801 191.373 141.254 190.687 141.254C190.001 141.254 189.445 141.801 189.445 142.476C189.445 143.151 190.001 143.699 190.687 143.699Z" fill="white"/>
<path d="M118.654 214.409L166.411 207.551L163.478 234.802L126.905 237.509L118.654 214.409Z" fill="#0AAFDE"/>
<path d="M118.653 214.409L89 204.257L104.331 231.53L126.905 237.509L118.653 214.409Z" fill="#0AAFDE"/>
<path d="M89 204.256L90.0311 203.108L117.875 212.987L118.653 214.408L89 204.256Z" fill="#5DC7E0"/>
<path d="M117.875 212.988L165.174 206.492L166.41 207.551L118.653 214.41L117.875 212.988Z" fill="#5DC7E0"/>
<path d="M165.174 206.491L163.66 203.106C163.66 203.106 125.435 201.867 119.754 209.356L117.875 212.987L165.174 206.491Z" fill="#E7EDC3"/>
<path d="M119.754 209.356C119.754 209.356 118.069 203.241 96.2873 199.724L92.3008 203.913L117.866 212.987L119.754 209.356Z" fill="#E7EDC3"/>
<path d="M114.442 233.344L115.257 229.968L125.865 232.153L124.629 235.507C124.629 235.507 125.961 241.204 120.73 239.711C115.884 238.322 114.442 233.344 114.442 233.344Z" fill="#6188AC"/>
<path d="M124.932 233.127C124.932 233.127 126.055 228.426 125.822 224.667C125.788 224.105 125.606 223.561 125.295 223.088C124.984 222.615 124.554 222.229 124.047 221.967C123.54 221.706 122.973 221.578 122.401 221.596C121.829 221.614 121.271 221.778 120.782 222.071C118.838 223.24 116.593 225.464 115.2 229.689L124.932 233.127Z" fill="#FFA103"/>
<path d="M113.18 230.313L112.483 232.855C112.222 233.804 112.793 234.782 113.757 235.039L123.556 237.645C124.521 237.902 125.514 237.34 125.775 236.39L126.473 233.849C126.733 232.899 126.163 231.921 125.198 231.665L115.399 229.059C114.434 228.802 113.441 229.364 113.18 230.313Z" fill="#6188AC"/>
<path d="M205.04 192.037L205.163 194.667C205.208 195.65 206.055 196.41 207.053 196.365L217.193 195.906C218.191 195.861 218.963 195.028 218.917 194.045L218.794 191.415C218.748 190.433 217.902 189.673 216.904 189.718L206.764 190.176C205.766 190.222 204.994 191.055 205.04 192.037Z" fill="#6188AC"/>
<path d="M124.491 235.717L129.292 238.681L125.648 239.486L121.527 237.603L124.491 235.717Z" fill="#6188AC"/>
<path d="M116.181 226.849C116.128 227.484 116.212 228.123 116.428 228.724C116.643 229.325 116.985 229.875 117.43 230.338C117.876 230.8 118.415 231.165 119.014 231.409C119.612 231.653 120.256 231.769 120.903 231.752C122.112 231.732 123.314 231.579 124.488 231.296C126.915 230.671 127.702 226.456 125.921 223.596C125.492 222.904 125.013 222.244 124.485 221.622C121.858 218.53 116.723 220.214 116.397 224.23L116.181 226.849Z" fill="#FFA103"/>
<path d="M172.8 159.296C172.8 159.296 165.709 159.996 162.647 166.146C161.702 168.075 160.347 169.781 158.674 171.149C157.146 172.454 155.46 173.173 152.558 174.65C151.187 175.347 149.518 176.373 148.692 177.191C148.297 177.583 148.009 178.066 147.854 178.597C147.699 179.127 147.682 179.687 147.806 180.225C147.929 180.764 148.188 181.263 148.559 181.677C148.93 182.09 149.401 182.405 149.928 182.592C154.207 184.08 162.439 185.607 177.579 184.619C194.744 183.499 208.333 180.015 210.797 175.443C212.109 173.01 208.921 169.387 206.193 170.565L206.075 170.618C202.063 172.429 187.423 164.791 183.11 162.404C177.475 159.288 176.404 159.346 172.8 159.296Z" fill="#D16A1D"/>
<path d="M211.038 174.792C211.038 174.792 211.038 175.754 208.791 176.31C207.948 176.52 207.069 176.133 206.077 176.175C204.391 176.249 201.784 177.217 200.267 177.859C195.898 179.706 186.313 180.945 175.923 182.909C175.923 182.909 183.416 184.889 168.004 184.269C168.004 184.269 165.36 186.62 182.11 184.466C182.107 184.466 208.74 181.968 211.038 174.792Z" fill="#3C1808"/>
<path d="M205.043 179.009C205.043 179.009 196.303 187.358 171.78 186.96L158.247 184.44C158.247 184.44 186.136 182.875 205.043 179.009Z" fill="#D16A1D"/>
<path d="M208.787 177.552L205.042 179.009L202.874 180.32C202.874 180.32 204.739 180.102 208.787 177.552Z" fill="#D16A1D"/>
<path d="M169.209 167.98C169.973 166.969 170.16 165.832 169.626 165.441C169.091 165.05 168.039 165.553 167.275 166.564C166.511 167.575 166.325 168.712 166.859 169.103C167.393 169.494 168.446 168.991 169.209 167.98Z" fill="#B25B19"/>
<path d="M183.262 165.287C183.46 164.923 182.992 164.298 182.217 163.891C181.442 163.484 180.654 163.449 180.457 163.813C180.26 164.177 180.728 164.802 181.502 165.209C182.277 165.616 183.065 165.651 183.262 165.287Z" fill="#B25B19"/>
<path d="M151.762 180.973C153.572 179.951 155.684 179.572 157.743 179.9L173.035 182.433C174.945 182.748 176.207 183.108 178.817 182.505L182.992 181.919" stroke="#3C1808" stroke-miterlimit="10"/>
<path d="M190.125 207.8C190.125 207.8 195.249 210.989 205.782 204.205L214.44 208.315C214.44 208.315 200.767 222.501 200.236 227.872L190.125 207.8Z" fill="#6188AC"/>
<path d="M205.782 204.193C205.782 204.193 209.021 197.478 205.585 191.665C205.585 191.665 213.662 190.446 217.081 194.597C217.081 194.597 218.239 205.044 214.51 209.917L205.782 204.193Z" fill="#6188AC"/>
<path d="M213.858 212.377C206.835 217.67 198.783 224.561 197.844 227.863C196.075 234.199 198.867 216.497 198.867 216.497L209.214 204.854C209.214 204.854 214.833 205.43 214.867 208.256C214.889 208.958 214.611 211.807 213.858 212.377Z" fill="#6188AC"/>
<path d="M51.0429 63.4493L50.3051 86.0478C50.2252 87.9389 49.8982 89.4138 49.3242 90.4725C48.7281 91.4827 47.8175 92.2506 46.5922 92.7765C45.0238 93.4495 43.4585 93.4831 41.896 92.877C40.3116 92.2224 38.0124 90.8301 34.9984 88.7L19.5046 76.9842L28.8476 97.6065C29.794 99.6954 29.9972 101.436 29.4572 102.828C28.9662 104.2 27.7649 105.295 25.8535 106.116C23.6971 107.041 21.9196 107.253 20.5212 106.75C19.1008 106.199 17.7634 104.539 16.5088 101.77L2.1146 69.9989C0.419869 66.2582 0.00100449 63.0725 0.858008 60.4417C1.71501 57.8109 4.17745 55.6226 8.24534 53.8769C9.76467 53.2248 11.209 52.9241 12.5784 52.9747C13.9257 52.9768 15.023 53.2022 15.8702 53.6509C16.7445 54.0301 17.6713 54.5897 18.6506 55.33L38.1749 72.4532L39.1061 46.9866C39.3348 42.7106 41.8016 39.563 46.5067 37.5438C48.7122 36.5973 50.7751 36.1761 52.6956 36.2803C54.5941 36.336 56.3696 37.0247 58.0221 38.3464C59.7017 39.5984 61.1137 41.4876 62.2582 44.0137L76.6194 75.7123C78.7493 80.5427 76.7756 84.262 70.6983 86.8701C68.4928 87.8166 66.4153 88.0119 64.4658 87.4559C62.5432 86.8304 60.9522 85.1922 59.6927 82.5413L51.0429 63.4493Z" fill="#83CFFF"/>
<path d="M109.54 58.0154C111.207 57.3003 112.298 55.9616 112.814 53.9994C113.379 52.0162 113.422 49.8506 112.944 47.5028C112.515 45.1339 111.75 42.7349 110.649 40.3059C109.527 37.8284 108.201 35.6122 106.671 33.6575C105.12 31.6541 103.379 30.1381 101.449 29.1094C99.5689 28.0596 97.8199 27.8818 96.2026 28.5759C94.6342 29.2489 93.6141 30.6152 93.1421 32.6745C92.6702 34.7339 92.6464 37.0071 93.0707 39.4942C93.495 41.9813 94.2574 44.4393 95.3578 46.8683C96.4583 49.2973 97.7623 51.4649 99.2699 53.3711C100.826 55.2562 102.523 56.6751 104.359 57.6277C106.245 58.5592 107.972 58.6885 109.54 58.0154ZM126.085 60.2282C123.072 63.7844 119.139 66.6037 114.287 68.686C109.484 70.7473 104.717 71.6614 99.987 71.4284C95.2838 71.1258 90.9111 69.5499 86.8688 66.7006C82.8266 63.8513 79.6279 59.8277 77.2729 54.6296C73.7074 46.7596 73.2562 39.497 75.9193 32.8416C78.6094 26.1167 83.7528 21.1241 91.3495 17.864C98.9461 14.6038 106.202 14.2749 113.118 16.8774C120.012 19.4312 125.242 24.6431 128.808 32.5131C131.163 37.7112 132.033 42.7339 131.42 47.5814C130.855 52.4077 129.077 56.6234 126.085 60.2282Z" fill="#83CFFF"/>
<path d="M271.675 61.3776C271.675 61.3776 275.143 57.3592 276.658 57.3451C276.658 57.3451 267.717 58.6847 262.766 54.1202C257.815 49.5558 243.24 45.1489 235.604 47.4369L235.54 49.6555L271.675 61.3776Z" fill="#83CFFF"/>
<path d="M211.608 20.4212C211.608 20.4212 214.542 17.2418 214.697 14.9637C214.697 14.9637 215.186 21.7424 221.288 25.6956C221.288 25.6956 232.807 32.6164 235.709 47.9709L230.593 44.3765L211.608 20.4212Z" fill="#83CFFF"/>
<path d="M211.286 20.0452L233.418 45.8416L213.441 72.153L192.805 45.4941L211.286 20.0452Z" fill="#83CFFF"/>
<path d="M239.398 50.296L272.362 61.6125L252.265 86.162L219.279 75.6596L239.398 50.296Z" fill="#83CFFF"/>
<path d="M234.48 45.7761C234.48 45.7761 234.976 49.2313 239.212 49.0299C239.212 49.0299 240.143 49.3717 239.422 50.5877L218.795 76.5096C218.795 76.5096 214.313 75.771 213.444 72.1503L233.418 45.8398C233.418 45.8398 233.948 44.676 234.48 45.7761Z" fill="#83CFFF"/>
<path d="M84.9421 185.786L39.3004 205.984L40.4458 206.401L85.9293 186.273L84.9421 185.786Z" fill="#83CFFF"/>
<path d="M74.5117 145.417L28.8177 165.638L31.4019 201.694L77.4104 181.334L74.5117 145.417Z" fill="#83CFFF"/>
<path d="M75.7842 148.142L75.8025 148.391L78.297 181.807L32.4056 202.115L31.4017 201.694L77.4102 181.334L74.5114 145.417L83.1664 149.834L85.9287 186.274L84.9415 185.787L82.4121 151.61L75.7842 148.142Z" fill="#83CFFF"/>
<path d="M82.412 151.611L84.9414 185.787L39.6674 205.822L33.4693 201.644L78.2969 181.807L75.7841 148.142L82.412 151.611Z" fill="#83CFFF"/>
<rect x="106" y="306" width="120" height="3" rx="1.5" fill="#65C4FF"/>
<path d="M261.202 141.615L250.924 151.205C250.056 152 249.263 152.509 248.546 152.734C247.841 152.927 247.105 152.884 246.338 152.602C245.356 152.243 244.658 151.604 244.243 150.686C243.839 149.738 243.448 148.169 243.07 145.978L241.465 134.379L236.46 147.312C235.953 148.622 235.275 149.469 234.426 149.853C233.607 150.249 232.6 150.228 231.404 149.789C230.054 149.294 229.185 148.645 228.796 147.842C228.418 147.007 228.565 145.722 229.237 143.986L236.948 124.062C237.856 121.716 239.076 120.146 240.609 119.351C242.143 118.556 244.182 118.626 246.728 119.559C247.679 119.907 248.442 120.378 249.018 120.972C249.605 121.535 249.985 122.092 250.157 122.642C250.372 123.173 250.53 123.805 250.632 124.538L251.615 140.187L263.241 129.421C265.225 127.644 267.689 127.295 270.633 128.374C272.014 128.88 273.1 129.557 273.893 130.404C274.697 131.221 275.17 132.264 275.309 133.532C275.491 134.782 275.275 136.198 274.662 137.783L266.969 157.661C265.771 160.666 263.271 161.471 259.468 160.077C258.088 159.571 257.094 158.789 256.488 157.732C255.924 156.656 255.951 155.274 256.568 153.587L261.202 141.615Z" fill="#83CFFF"/>
<path d="M297.022 152.658C298.647 153.254 299.682 153.929 300.126 154.683C300.6 155.449 300.595 156.456 300.112 157.705C299.711 158.741 299.024 159.341 298.049 159.505C297.118 159.651 295.824 159.42 294.167 158.813L286.714 156.081L284.84 160.925L294.805 164.63C296.523 165.26 297.65 165.968 298.185 166.756C298.763 167.525 298.805 168.549 298.31 169.828C297.744 171.29 296.904 172.148 295.791 172.401C294.708 172.665 293.277 172.471 291.498 171.819L276.592 166.354C274.783 165.691 273.631 164.73 273.138 163.47C272.687 162.192 272.933 160.334 273.876 157.897L281.339 138.613C282.754 134.957 285.21 133.77 288.706 135.052L303.612 140.516C305.391 141.168 306.604 141.926 307.25 142.789C307.928 143.663 307.989 144.816 307.435 146.248C306.916 147.589 306.167 148.393 305.188 148.66C304.252 148.908 302.925 148.717 301.207 148.088L291.178 144.411L289.109 149.758L297.022 152.658Z" fill="#83CFFF"/>
</svg>
