<svg width="500" height="523" viewBox="0 0 500 523" fill="none" xmlns="http://www.w3.org/2000/svg">
<path d="M220.701 478.17V493.347C220.701 493.347 222.658 501.032 207.013 505.056C191.369 509.081 183.021 508.899 183.198 519.514L191.197 519.973C191.197 519.973 190.044 523.815 198.574 521.8C198.574 521.8 205.148 520.431 205.77 520.702C205.77 520.702 204.47 523.18 212.05 522.383C212.05 522.383 229.499 520.702 238.475 513.657C238.475 513.657 240.694 510.273 236.341 506.249C236.341 506.249 232.164 504.598 232.432 495.633C232.7 486.667 233.14 475.848 233.14 475.848L220.701 478.17Z" fill="#FFA103"/>
<path d="M285.5 478.171V493.347C285.5 493.347 283.528 501.048 299.203 505.072C314.878 509.097 323.2 508.915 323.018 519.531L315.024 519.989C315.024 519.989 316.177 523.831 307.647 521.816C307.647 521.816 301.074 520.447 300.447 520.718C300.447 520.718 301.751 523.196 294.166 522.399C294.166 522.399 276.722 520.718 267.747 513.673C267.747 513.673 265.527 510.289 269.88 506.265C269.88 506.265 274.057 504.614 273.789 495.649C273.521 486.683 273.076 475.864 273.076 475.864L285.5 478.171Z" fill="#FFA103"/>
<path d="M252.684 475.61H240.902C236.69 478.924 231.383 480.403 226.122 479.728C211.281 481.103 206.781 473.355 206.781 473.355L207.014 465.91L199.55 449.442C190.489 440.289 193.018 420.89 193.018 420.89L179.466 415.772C186.576 388.136 213.749 362.516 213.749 362.516L252.274 362.932" fill="#6188AC"/>
<path d="M252.684 475.61H264.47C268.684 478.925 273.993 480.404 279.255 479.728C294.096 481.103 298.596 473.355 298.596 473.355L298.358 465.91L305.822 449.442C314.878 440.289 312.35 420.89 312.35 420.89L325.916 415.772C318.807 388.136 291.618 362.516 291.618 362.516L252.299 362.932" fill="#6188AC"/>
<path d="M236.786 372.038C236.786 372.038 235.365 377.067 236.786 380.087H241.053C241.053 380.087 236.255 382.378 236.791 384.111C237.041 384.858 237.4 385.56 237.858 386.194C238.648 387.337 239.136 388.672 239.274 390.067C240.371 400.647 244.381 442.481 241.053 458.272" stroke="#35506F" stroke-width="2" stroke-linecap="round" stroke-linejoin="round"/>
<path d="M266.841 372.038C266.841 372.038 268.262 377.067 266.841 380.087H262.574C262.574 380.087 267.372 382.378 266.841 384.111C266.59 384.858 266.228 385.56 265.769 386.194C264.98 387.337 264.494 388.672 264.359 390.067C263.261 400.647 259.252 442.481 262.574 458.272" stroke="#35506F" stroke-width="2" stroke-linecap="round" stroke-linejoin="round"/>
<path d="M246.181 373.381C246.181 373.381 246.327 373.235 247.657 394.785C249.083 417.917 248.132 457.371 248.132 457.371H255.889C255.889 457.371 255.712 380.457 257.138 373.282L246.181 373.381Z" fill="#DEDBDA"/>
<path d="M193.018 420.889C193.018 420.889 202.685 389.046 209.729 383.376" stroke="#35506F" stroke-width="2" stroke-miterlimit="10" stroke-linecap="round"/>
<path d="M313.275 420.889C313.275 420.889 303.612 389.046 296.563 383.376" stroke="#35506F" stroke-width="2" stroke-miterlimit="10" stroke-linecap="round"/>
<path d="M251.814 380.951C253.311 380.951 254.524 379.702 254.524 378.16C254.524 376.619 253.311 375.37 251.814 375.37C250.317 375.37 249.104 376.619 249.104 378.16C249.104 379.702 250.317 380.951 251.814 380.951Z" fill="#528B7F"/>
<path d="M251.445 395.669C252.941 395.669 254.155 394.419 254.155 392.878C254.155 391.337 252.941 390.087 251.445 390.087C249.948 390.087 248.734 391.337 248.734 392.878C248.734 394.419 249.948 395.669 251.445 395.669Z" fill="#528B7F"/>
<path d="M251.445 412.414C252.941 412.414 254.155 411.164 254.155 409.623C254.155 408.082 252.941 406.833 251.445 406.833C249.948 406.833 248.734 408.082 248.734 409.623C248.734 411.164 249.948 412.414 251.445 412.414Z" fill="#528B7F"/>
<path d="M251.445 429.157C252.941 429.157 254.155 427.908 254.155 426.367C254.155 424.826 252.941 423.576 251.445 423.576C249.948 423.576 248.734 424.826 248.734 426.367C248.734 427.908 249.948 429.157 251.445 429.157Z" fill="#528B7F"/>
<path d="M251.445 445.901C252.941 445.901 254.155 444.652 254.155 443.11C254.155 441.569 252.941 440.32 251.445 440.32C249.948 440.32 248.734 441.569 248.734 443.11C248.734 444.652 249.948 445.901 251.445 445.901Z" fill="#528B7F"/>
<path d="M200.096 450.623C200.096 450.623 214.133 456.87 235.375 458.224" stroke="#35506F" stroke-width="2" stroke-linecap="round" stroke-linejoin="round"/>
<path d="M212.97 465.27C212.97 465.27 221.945 473.043 234.652 475.334" stroke="#35506F" stroke-width="2" stroke-linecap="round" stroke-linejoin="round"/>
<path d="M272.064 475.885C272.064 475.885 277.399 476.161 291.279 467.831" stroke="#35506F" stroke-width="2" stroke-linecap="round" stroke-linejoin="round"/>
<path d="M283.795 475.886C287.717 475.076 291.513 473.723 295.081 471.862" stroke="#35506F" stroke-width="2" stroke-linecap="round" stroke-linejoin="round"/>
<path d="M212.97 471.404C217.155 473.964 221.766 475.702 226.567 476.527" stroke="#35506F" stroke-width="2" stroke-linecap="round" stroke-linejoin="round"/>
<path d="M272.54 384.902V395.513C272.54 395.513 292.21 395.961 297.185 393.805L293.646 383.393L272.54 384.902Z" stroke="#35506F" stroke-width="2" stroke-linecap="round" stroke-linejoin="round"/>
<path d="M176.149 425.076C176.149 425.076 174.172 434.406 174.713 441.814C174.791 442.928 175.148 444.001 175.749 444.93C176.35 445.858 177.175 446.61 178.143 447.113C179.112 447.615 180.19 447.85 181.272 447.794C182.355 447.739 183.405 447.395 184.32 446.797C187.956 444.433 192.137 439.976 194.65 431.579L176.149 425.076Z" fill="#FFA103"/>
<path d="M330.163 423.124C330.163 423.124 332.135 432.453 331.599 439.862C331.521 440.975 331.164 442.049 330.563 442.978C329.962 443.906 329.137 444.658 328.169 445.16C327.201 445.663 326.122 445.897 325.04 445.842C323.957 445.787 322.907 445.443 321.992 444.845C318.351 442.481 314.175 438.024 311.662 429.632L330.163 423.124Z" fill="#FFA103"/>
<path d="M175.362 417.485L173.339 422.83C172.686 424.556 173.515 426.5 175.19 427.172L193.758 434.622C195.434 435.294 197.321 434.441 197.974 432.715L199.998 427.369C200.651 425.644 199.821 423.7 198.146 423.028L179.578 415.578C177.903 414.905 176.015 415.759 175.362 417.485Z" fill="#6188AC"/>
<path d="M306.746 426.493L308.769 431.839C309.422 433.564 311.31 434.418 312.985 433.745L331.553 426.295C333.228 425.623 334.058 423.679 333.405 421.954L331.381 416.608C330.728 414.883 328.841 414.029 327.165 414.701L308.597 422.151C306.922 422.824 306.093 424.767 306.746 426.493Z" fill="#6188AC"/>
<path d="M279.649 351.799C279.649 351.799 274.395 342.881 273.49 338.955H231.805C230.92 342.86 225.737 351.799 225.737 351.799L229.373 357.714L252.294 364.102V364.227L252.496 364.17L252.693 364.227V364.118L275.953 357.729L279.649 351.799Z" fill="#D18405"/>
<path d="M280.564 353.058C280.564 353.058 275.634 345.134 274.365 341.521L254.534 344.098C253.048 344.293 251.544 344.293 250.059 344.098L230.94 341.521C229.681 344.926 224.873 352.866 224.873 352.866L229.358 358.374L252.278 364.101V364.226L252.481 364.179L252.678 364.226V364.127L275.938 358.4L280.564 353.058Z" fill="#FFA103"/>
<path d="M213.749 362.514L217.172 359.484C218.334 358.459 219.304 357.224 220.034 355.84L220.873 354.246C221.237 353.549 221.769 352.959 222.418 352.534C223.067 352.109 223.811 351.863 224.579 351.82C229.383 351.565 240.664 353.814 244.952 362.894C244.972 362.884 228.968 368.684 213.749 362.514Z" fill="#6188AC"/>
<path d="M291.618 362.514L287.937 359.255C286.943 358.377 286.115 357.318 285.494 356.131L284.569 354.366C284.173 353.618 283.597 352.988 282.895 352.538C282.193 352.087 281.39 351.831 280.564 351.794C275.675 351.57 264.677 353.876 260.45 362.837C260.45 362.842 276.418 368.683 291.618 362.514Z" fill="#6188AC"/>
<path d="M257.138 373.282C257.138 373.282 260.101 361.984 261.446 361.239C261.446 361.239 255.94 361.099 252.294 362.931C252.294 362.931 247.491 361.369 243.941 361.239C243.941 361.239 245.69 368.143 246.181 373.381" fill="#DEDBDA"/>
<path d="M194.499 224.143C194.499 224.143 202.275 211.902 210.851 199.99C217.93 190.181 222.87 183.746 231.522 173.151C235.365 168.465 241.473 163.68 245.973 156.49C246.139 156.232 246.365 156.021 246.629 155.875C246.894 155.728 247.19 155.652 247.49 155.652C247.79 155.652 248.086 155.728 248.351 155.875C248.616 156.021 248.841 156.232 249.007 156.49C250.468 158.781 250.423 161.811 251.636 166.382C251.636 166.382 255.039 156.141 265.496 151.877C265.496 151.877 276.463 147.244 278.076 149.003C279.689 150.763 277.601 159.578 277.601 159.578C277.601 159.578 290.08 150.862 295.536 150.872C295.918 150.878 296.287 151.008 296.592 151.244C296.897 151.479 297.122 151.808 297.234 152.184C297.347 152.559 297.341 152.961 297.217 153.332C297.094 153.704 296.86 154.026 296.548 154.251L296.492 154.288C294.54 155.61 290.677 160.28 288.402 170.87C288.402 170.87 284.913 180.955 292.047 196.903C299.839 214.313 304.345 219.884 304.345 219.884L194.499 224.143Z" fill="#FFA103"/>
<path d="M318.958 265.944C318.958 225.12 288.922 192.013 251.869 192.013H250.857H249.846C212.793 192.013 182.757 225.105 182.757 265.944C182.756 270.465 183.129 274.978 183.875 279.434C182.358 293.684 180.522 307.252 192.203 321.028C208.753 340.547 231.572 339.891 250.857 339.865C270.143 339.839 292.962 340.547 309.512 321.028C321.193 307.252 319.367 293.684 317.845 279.434C318.586 274.978 318.959 270.465 318.958 265.944Z" fill="#FFA103"/>
<path d="M297.878 276.67C297.878 288.275 288.432 296.22 278.421 296.22C268.409 296.22 260.268 286.812 260.268 275.196C260.268 263.581 263.418 251.247 273.415 251.247C278.203 251.247 284.938 253.725 289.681 258.286C294.895 263.273 297.878 270.614 297.878 276.67Z" fill="#C7C6C5"/>
<path d="M289.651 278.237C289.651 286.474 283.512 293.028 276.504 293.028C269.496 293.028 262.265 286.869 262.265 278.627C262.265 270.386 267.134 262.139 274.163 262.139C281.191 262.139 289.651 269.99 289.651 278.237Z" fill="#080808"/>
<path d="M299.764 255.152C298.98 256.761 292.179 253.694 286.218 250.628C280.256 247.561 272.676 245.942 273.485 242.412C273.885 240.663 279.083 236.222 289.691 244.271C295.051 248.337 300.542 253.549 299.764 255.152Z" fill="#D16A1D"/>
<path d="M198.397 255.152C199.181 256.761 205.982 253.694 211.943 250.628C217.905 247.561 225.484 245.942 224.675 242.412C224.276 240.663 219.078 236.222 208.47 244.271C203.13 248.337 197.618 253.549 198.397 255.152Z" fill="#D16A1D"/>
<path d="M309.027 313.382C309.027 313.382 304.704 307.598 290.05 304.396C282.838 302.801 275.969 299.867 269.779 295.737C267.837 294.446 266.115 292.835 264.682 290.968C258.28 282.565 251.485 281.597 250.074 281.508H249.806C248.385 281.618 241.513 282.581 235.087 291.203C233.834 292.856 232.328 294.288 230.627 295.441C224.357 299.722 217.365 302.759 210.012 304.396C195.424 307.598 191.121 313.382 191.121 313.382C191.121 313.382 185.139 318.932 209.895 318.932C229.833 318.932 237.903 322.446 240.285 323.816C241.001 324.214 241.771 324.498 242.57 324.659C243.819 324.925 245.69 325.289 247.49 325.518C248.934 325.708 250.395 325.708 251.839 325.518C253.861 325.248 256.02 324.862 257.401 324.602C258.186 324.46 258.945 324.187 259.646 323.795C262.037 322.426 270.143 318.911 290.171 318.911C315.034 318.932 309.027 313.382 309.027 313.382Z" fill="#D16A1D"/>
<path d="M264.372 297.7C265.253 296.699 264.353 294.38 262.36 292.52C260.367 290.66 258.038 289.964 257.156 290.966C256.275 291.967 257.175 294.286 259.168 296.146C261.16 298.006 263.49 298.702 264.372 297.7Z" fill="#B25B19"/>
<path d="M240.288 296.153C242.28 294.293 243.181 291.974 242.299 290.973C241.418 289.971 239.088 290.667 237.096 292.527C235.103 294.386 234.202 296.706 235.084 297.707C235.965 298.708 238.295 298.013 240.288 296.153Z" fill="#B25B19"/>
<path d="M199.12 276.67C199.12 288.275 208.565 296.22 218.577 296.22C228.589 296.22 236.709 286.812 236.709 275.207C236.709 263.602 233.559 251.257 223.562 251.257C218.774 251.257 212.039 253.736 207.296 258.296C202.118 263.274 199.12 270.615 199.12 276.67Z" fill="#C7C6C5"/>
<path d="M207.347 278.237C207.347 286.474 213.485 293.029 220.493 293.029C227.502 293.029 234.732 286.87 234.732 278.628C234.732 270.386 229.858 262.139 222.835 262.139C215.811 262.139 207.347 269.99 207.347 278.237Z" fill="#080808"/>
<path d="M214.775 273.739C216.032 273.739 217.05 272.69 217.05 271.396C217.05 270.102 216.032 269.053 214.775 269.053C213.518 269.053 212.5 270.102 212.5 271.396C212.5 272.69 213.518 273.739 214.775 273.739Z" fill="white"/>
<path d="M268.409 273.739C269.665 273.739 270.684 272.69 270.684 271.396C270.684 270.102 269.665 269.053 268.409 269.053C267.152 269.053 266.133 270.102 266.133 271.396C266.133 272.69 267.152 273.739 268.409 273.739Z" fill="white"/>
<path d="M206.427 317.692C206.427 317.692 222.81 315.724 230.46 314.37C238.11 313.016 242.06 308.455 250.853 309.195H250.949C259.737 308.455 263.59 313.016 271.24 314.375C278.891 315.734 295.279 317.697 295.279 317.697C295.279 317.697 247.177 314.583 206.427 317.692Z" fill="#3C1808"/>
<path d="M130.618 232.262L167.642 220.475L163.746 216.963L129.626 229.39L130.618 232.262Z" fill="#1D89C8"/>
<path d="M123.935 179.663L169.992 209.776L128.217 224.833L130.618 232.262L84.457 196.8L86.9629 189.073L120.279 178.771L123.935 179.663Z" fill="#1D89C8"/>
<path d="M164.09 211.904L163.622 218.792L129.863 229.927L128.217 224.834L164.09 211.904Z" fill="#D2EDC5"/>
<path d="M316.506 103.359L330.493 139.597L380.625 138.216L365.73 100.598L316.506 103.359Z" fill="#F9C930"/>
<path d="M365.73 100.598L388.254 67.2935L404.238 106.811L380.625 138.216L365.73 100.598Z" fill="#F9C930"/>
<path d="M316.506 103.359L320.31 100.598L364.407 97.8643L365.73 100.598L316.506 103.359Z" fill="#C18B1E"/>
<path d="M365.73 100.598L388.254 67.2935L384.984 68.5284L364.406 97.8645L365.73 100.598Z" fill="#C18B1E"/>
<path d="M364.406 97.8643C354.865 85.1817 326.094 94.7513 326.094 94.7513L322.619 100.455" fill="#E5EBC1"/>
<path d="M384.155 69.7104L378.051 70.2574C378.051 70.2574 356.083 84.4108 359.045 93.585L363.687 97.9079H364.494L384.155 69.7104Z" fill="#E5EBC1"/>
<path d="M159.134 115.642C156.902 114.666 154.932 114.576 153.224 115.374C151.567 116.195 149.948 118.237 148.366 121.5L143.991 130.526L156.919 136.181L161.368 127.003C162.406 124.861 162.974 123.039 163.073 121.537C163.196 119.984 162.902 118.774 162.19 117.906C161.555 117.01 160.536 116.255 159.134 115.642ZM151.802 146.736L138.875 141.081L136.91 145.135C135.65 147.736 134.022 149.341 132.027 149.952C130.032 150.562 127.321 150.118 123.895 148.619C122.441 147.983 121.346 147.257 120.609 146.44C119.872 145.623 119.375 144.572 119.118 143.285C118.913 142.021 119.073 140.391 119.6 138.397C120.203 136.374 121.031 134.016 122.084 131.325C123.213 128.605 124.754 125.231 126.707 121.203C128.412 117.684 130.333 114.631 132.469 112.042C134.681 109.425 136.905 107.37 139.139 105.875C141.426 104.403 143.745 103.254 146.095 102.429C148.471 101.552 150.803 101.089 153.093 101.04C155.434 101.013 157.586 101.182 159.549 101.546C161.588 101.882 163.516 102.448 165.333 103.243C167.514 104.197 169.52 105.445 171.352 106.988C173.209 108.48 174.881 110.417 176.37 112.799C177.858 115.181 178.888 117.794 179.459 120.64C180.107 123.458 180.135 126.776 179.542 130.596C178.949 134.416 177.639 138.416 175.612 142.598C172.349 149.328 169.667 154.212 167.566 157.248C165.542 160.257 163.624 162.137 161.812 162.889C160.052 163.664 157.952 163.518 155.512 162.451C152.085 160.952 149.968 159.284 149.159 157.447C148.351 155.61 148.577 153.391 149.837 150.79L151.802 146.736Z" fill="#FF993C"/>
<path d="M247.379 95.4968L252.641 108.722C253.071 109.833 253.248 110.764 253.173 111.517C253.073 112.246 252.724 112.913 252.126 113.518C251.362 114.292 250.437 114.696 249.353 114.73C248.244 114.741 246.522 114.503 244.189 114.014L232 111.059L242.771 120.666C243.862 121.639 244.422 122.594 244.452 123.53C244.505 124.442 244.066 125.37 243.133 126.313C242.082 127.377 241.076 127.936 240.116 127.989C239.131 128.02 237.915 127.391 236.468 126.101L219.874 111.3C217.92 109.557 216.867 107.821 216.714 106.092C216.561 104.363 217.476 102.495 219.46 100.488C220.201 99.7383 220.985 99.2098 221.814 98.9025C222.618 98.5726 223.328 98.4331 223.947 98.4839C224.563 98.488 225.257 98.5833 226.027 98.7699L241.982 103.856L236.112 88.9278C235.169 86.4036 235.845 83.9807 238.139 81.6591C239.215 80.5708 240.338 79.8208 241.509 79.4091C242.654 78.9747 243.886 78.9359 245.204 79.2927C246.521 79.6027 247.839 80.3461 249.158 81.523L265.715 96.2901C268.203 98.5548 267.965 101.187 265.001 104.185C263.926 105.274 262.737 105.897 261.435 106.055C260.132 106.166 258.77 105.612 257.351 104.391L247.379 95.4968ZM273.217 66.4534C274.484 65.1717 275.584 64.4693 276.517 64.3462C277.474 64.1989 278.473 64.5892 279.513 65.5171C280.376 66.2865 280.687 67.1554 280.446 68.1236C280.204 69.0451 279.437 70.1587 278.147 71.4646L272.339 77.3411L276.374 80.9395L284.191 73.1019C285.529 71.7476 286.701 70.9727 287.706 70.777C288.709 70.5345 289.744 70.8886 290.81 71.8391C292.028 72.9254 292.531 74.0342 292.32 75.1655C292.133 76.2727 291.346 77.5275 289.96 78.9302L278.345 90.6831C276.935 92.1099 275.502 92.8111 274.046 92.7867C272.589 92.7154 270.846 91.7745 268.816 89.964L252.754 75.6381C249.709 72.9223 249.549 70.186 252.274 67.4291L263.889 55.6762C265.275 54.2735 266.531 53.4373 267.657 53.1676C268.807 52.8736 269.978 53.2585 271.171 54.3222C272.287 55.318 272.775 56.3219 272.634 57.3338C272.492 58.2989 271.752 59.4586 270.413 60.8129L262.598 68.7208L267.051 72.6926L273.217 66.4534Z" fill="#1DB700"/>
<path d="M376.206 211.072L362.67 224.847C361.526 225.99 360.469 226.739 359.499 227.095C358.544 227.409 357.532 227.401 356.465 227.073C355.098 226.653 354.104 225.834 353.482 224.615C352.873 223.354 352.247 221.246 351.602 218.292L348.731 202.626L342.618 220.575C341.999 222.393 341.118 223.594 339.976 224.177C338.877 224.773 337.495 224.815 335.83 224.303C333.951 223.726 332.722 222.904 332.142 221.838C331.576 220.73 331.703 218.971 332.524 216.561L341.942 188.909C343.051 185.653 344.633 183.431 346.689 182.241C348.745 181.051 351.545 181.001 355.089 182.091C356.412 182.497 357.486 183.084 358.31 183.851C359.148 184.576 359.701 185.306 359.969 186.043C360.294 186.75 360.547 187.598 360.729 188.588L362.981 209.809L378.296 194.339C380.913 191.78 384.271 191.131 388.369 192.391C390.291 192.981 391.819 193.825 392.955 194.921C394.105 195.976 394.813 197.361 395.077 199.077C395.399 200.764 395.185 202.707 394.436 204.905L385.04 232.494C383.571 236.667 380.19 237.939 374.896 236.312C372.975 235.721 371.568 234.728 370.675 233.333C369.84 231.909 369.797 230.027 370.546 227.688L376.206 211.072ZM415.783 239.072C417.235 239.518 418.689 239.264 420.146 238.311C421.645 237.371 422.925 236.036 423.986 234.307C425.089 232.591 426.001 230.676 426.721 228.562C427.455 226.405 427.912 224.304 428.09 222.257C428.283 220.167 428.076 218.282 427.469 216.601C426.905 214.933 425.919 213.882 424.51 213.449C423.144 213.029 421.718 213.338 420.232 214.376C418.747 215.414 417.417 216.827 416.242 218.615C415.067 220.402 414.12 222.353 413.4 224.467C412.68 226.581 412.238 228.64 412.074 230.645C411.952 232.663 412.188 234.464 412.781 236.047C413.416 237.644 414.417 238.652 415.783 239.072ZM424.807 249.343C420.873 249.955 416.792 249.611 412.565 248.312C408.381 247.026 404.884 245.04 402.072 242.354C399.318 239.639 397.507 236.303 396.638 232.346C395.769 228.389 396.104 224.148 397.645 219.624C399.978 212.774 403.899 207.978 409.409 205.234C414.976 202.461 421.068 202.092 427.685 204.126C434.303 206.16 439.013 209.85 441.814 215.195C444.631 220.498 444.872 226.575 442.539 233.424C440.998 237.948 438.634 241.566 435.447 244.276C432.303 246.999 428.756 248.688 424.807 249.343Z" fill="#1B5FC1"/>
</svg>
