<svg width="94" height="197" viewBox="0 0 94 197" fill="none" xmlns="http://www.w3.org/2000/svg">
<path d="M31.4821 173.615V181.617C31.4821 181.617 32.5337 185.665 24.1156 187.788C15.6974 189.911 11.2038 189.811 11.3004 195.403L15.6034 195.644C15.6034 195.644 14.9811 197.669 19.5737 196.609C19.5737 196.609 23.1122 195.884 23.4475 196.03C23.4475 196.03 22.7439 197.336 26.8259 196.916C26.8259 196.916 36.2246 196.03 41.051 192.307C41.051 192.307 42.2474 190.515 39.9053 188.402C39.9053 188.402 37.6573 187.534 37.7995 182.81C37.9418 178.086 38.1831 172.398 38.1831 172.398L31.4821 173.615Z" fill="#FFA103"/>
<path d="M66.3531 173.615V181.617C66.3531 181.617 65.3015 185.665 73.7197 187.788C82.1378 189.911 86.6289 189.811 86.5349 195.403L82.2293 195.644C82.2293 195.644 82.8516 197.669 78.2615 196.609C78.2615 196.609 74.723 195.884 74.3877 196.03C74.3877 196.03 75.0888 197.336 71.0093 196.916C71.0093 196.916 61.6106 196.03 56.7843 192.307C56.7843 192.307 55.5904 190.515 57.9324 188.402C57.9324 188.402 60.1805 187.534 60.0357 182.81C59.8909 178.086 59.6547 172.398 59.6547 172.398L66.3531 173.615Z" fill="#FFA103"/>
<path d="M48.6973 172.266H42.3469C38.6484 175.19 34.3936 174.435 34.3936 174.435C26.4072 175.157 23.9788 171.075 23.9788 171.075L24.1058 167.155L20.0898 158.479C15.2126 153.658 16.5818 143.438 16.5818 143.438L27.7408 112.683L48.4713 112.903" fill="#6188AC"/>
<path d="M48.6979 172.266H55.0484C58.7469 175.19 63.0017 174.434 63.0017 174.434C70.988 175.157 73.4165 171.075 73.4165 171.075L73.2869 167.167L77.3029 158.492C82.1801 153.67 80.8109 143.451 80.8109 143.451L88.1114 140.752C84.2859 126.192 69.6519 112.695 69.6519 112.695L48.4922 112.916" fill="#6188AC"/>
<path d="M40.14 117.697C40.14 117.697 39.3779 120.348 40.14 121.94H42.4261C42.4261 121.94 39.8453 123.144 40.14 124.06C40.2744 124.449 40.4681 124.815 40.714 125.144C41.1403 125.748 41.4029 126.454 41.4761 127.192C42.0654 132.764 44.2246 154.803 42.4337 163.112" stroke="#35506F" stroke-width="2" stroke-linecap="round" stroke-linejoin="round"/>
<path d="M56.3131 117.697C56.3131 117.697 57.0751 120.348 56.3131 121.94H54.0269C54.0269 121.94 56.6103 123.144 56.3131 124.06C56.1767 124.449 55.9823 124.814 55.7365 125.144C55.3089 125.747 55.0462 126.454 54.9744 127.192C54.3851 132.764 52.2259 154.803 54.0142 163.112" stroke="#35506F" stroke-width="2" stroke-linecap="round" stroke-linejoin="round"/>
<path d="M45.1948 118.409C45.1948 118.409 45.2736 118.333 45.9899 129.676C46.752 141.865 46.2439 162.649 46.2439 162.649H50.4251C50.4251 162.649 50.3285 122.128 51.0957 118.351L45.1948 118.409Z" fill="#DEDBDA"/>
<path d="M81.3023 143.437C81.3023 143.437 76.1 126.663 72.3101 123.672" stroke="#35506F" stroke-width="2" stroke-miterlimit="10" stroke-linecap="round"/>
<path d="M48.2252 122.395C49.0304 122.395 49.6832 121.737 49.6832 120.925C49.6832 120.113 49.0304 119.455 48.2252 119.455C47.4199 119.455 46.7671 120.113 46.7671 120.925C46.7671 121.737 47.4199 122.395 48.2252 122.395Z" fill="#528B7F"/>
<path d="M48.0298 130.149C48.8351 130.149 49.4879 129.491 49.4879 128.679C49.4879 127.867 48.8351 127.209 48.0298 127.209C47.2246 127.209 46.5718 127.867 46.5718 128.679C46.5718 129.491 47.2246 130.149 48.0298 130.149Z" fill="#528B7F"/>
<path d="M48.0298 138.971C48.8351 138.971 49.4879 138.313 49.4879 137.501C49.4879 136.689 48.8351 136.031 48.0298 136.031C47.2246 136.031 46.5718 136.689 46.5718 137.501C46.5718 138.313 47.2246 138.971 48.0298 138.971Z" fill="#528B7F"/>
<path d="M48.0298 147.791C48.8351 147.791 49.4879 147.133 49.4879 146.321C49.4879 145.51 48.8351 144.852 48.0298 144.852C47.2246 144.852 46.5718 145.51 46.5718 146.321C46.5718 147.133 47.2246 147.791 48.0298 147.791Z" fill="#528B7F"/>
<path d="M48.0298 156.612C48.8351 156.612 49.4879 155.954 49.4879 155.143C49.4879 154.331 48.8351 153.673 48.0298 153.673C47.2246 153.673 46.5718 154.331 46.5718 155.143C46.5718 155.954 47.2246 156.612 48.0298 156.612Z" fill="#528B7F"/>
<path d="M20.3906 159.103C20.3906 159.103 27.9451 162.383 39.3734 163.107" stroke="#35506F" stroke-width="2" stroke-linecap="round" stroke-linejoin="round"/>
<path d="M27.3218 166.816C27.3218 166.816 32.1481 170.913 38.9914 172.119" stroke="#35506F" stroke-width="2" stroke-linecap="round" stroke-linejoin="round"/>
<path d="M59.1221 172.409C59.1221 172.409 61.9925 172.555 69.453 168.169" stroke="#35506F" stroke-width="2" stroke-linecap="round" stroke-linejoin="round"/>
<path d="M65.4336 172.409C67.5438 171.982 69.5869 171.269 71.5072 170.289" stroke="#35506F" stroke-width="2" stroke-linecap="round" stroke-linejoin="round"/>
<path d="M27.3218 170.049C29.5744 171.397 32.0559 172.313 34.64 172.748" stroke="#35506F" stroke-width="2" stroke-linecap="round" stroke-linejoin="round"/>
<path d="M59.3789 124.476V130.068C59.3789 130.068 69.9639 130.301 72.6412 129.17L70.7284 123.672L59.3789 124.476Z" stroke="#35506F" stroke-width="2" stroke-linecap="round" stroke-linejoin="round"/>
<path d="M63.2049 107.036C63.2049 107.036 60.3777 102.33 59.9026 100.273H37.4703C36.9927 102.322 34.2036 107.036 34.2036 107.036L36.1595 110.155L48.4947 113.52V113.578L48.6039 113.548L48.7106 113.578V113.52L61.2311 110.155L63.2049 107.036Z" fill="#D18405"/>
<path d="M63.6967 107.702C63.6967 107.702 61.6239 104.35 60.7196 102.445L49.6901 102.98C48.8899 103.084 48.0798 103.084 47.2795 102.98L36.5676 102.596C35.8919 104.389 33.7378 107.605 33.7378 107.605L36.1484 110.509L48.4835 113.53V113.584L48.5928 113.556L48.6995 113.584V113.53L61.22 110.509L63.6967 107.702Z" fill="#FFA103"/>
<path d="M27.7544 112.683L29.596 111.09C30.2216 110.549 30.7434 109.896 31.1354 109.165L31.5875 108.325C31.7832 107.957 32.0694 107.646 32.4186 107.422C32.7677 107.198 33.1682 107.068 33.5816 107.044C36.1675 106.909 42.2385 108.094 44.545 112.88C44.545 112.883 35.9312 115.935 27.7544 112.683Z" fill="#6188AC"/>
<path d="M69.6463 112.682L67.6649 110.966C67.1303 110.504 66.6843 109.947 66.3491 109.322L65.8411 108.395C65.6294 108.001 65.3199 107.669 64.9428 107.431C64.5657 107.193 64.1339 107.058 63.6895 107.038C61.0554 106.918 55.1367 108.144 52.8633 112.856C52.8734 112.856 61.4669 115.934 69.6463 112.682Z" fill="#6188AC"/>
<path d="M51.091 118.357C51.091 118.357 52.6863 112.404 53.4102 112.012C53.4102 112.012 50.4483 111.938 48.4848 112.903C48.4848 112.903 45.8989 112.081 43.9912 112.012C43.9912 112.012 44.9311 115.651 45.1953 118.414" fill="#DEDBDA"/>
<path d="M17.3823 39.7869C17.3823 39.7869 21.5685 33.3367 26.1815 27.0606C29.9918 21.8933 32.6514 18.503 37.3075 12.9234C39.3727 10.4448 42.6597 7.93278 45.083 4.15586C45.1723 4.01904 45.2939 3.90672 45.4369 3.829C45.5799 3.75128 45.7398 3.71059 45.9022 3.71059C46.0647 3.71059 46.2246 3.75128 46.3676 3.829C46.5106 3.90672 46.6322 4.01904 46.7214 4.15586C47.5089 5.36192 47.4835 6.95719 48.1363 9.36673C48.1363 9.36673 49.9678 3.9715 55.5943 1.72583C55.5943 1.72583 61.4951 -0.717 62.3664 0.209945C63.2377 1.13689 62.1124 5.78186 62.1124 5.78186C62.1124 5.78186 68.8261 1.19066 71.7651 1.19578C71.9733 1.19615 72.1758 1.26399 72.3428 1.38929C72.5098 1.5146 72.6324 1.69072 72.6925 1.89164C72.7526 2.09257 72.7469 2.30764 72.6765 2.5051C72.606 2.70256 72.4744 2.87194 72.3011 2.98822L72.2706 3.00871C71.2215 3.70519 69.1436 6.16339 67.9192 11.743C67.9192 11.743 66.042 17.0563 69.8828 25.4628C74.0741 34.6375 76.4873 37.5694 76.4873 37.5694L17.3823 39.7869Z" fill="#FFA103"/>
<path d="M84.3567 61.8091C84.3567 40.2999 68.1935 22.8672 48.2556 22.8672C48.0727 22.8672 47.8898 22.8672 47.7095 22.8672H47.1608C27.2229 22.8672 11.0521 40.3025 11.0521 61.8091C11.0518 64.1915 11.2532 66.5696 11.6541 68.9174C10.8337 76.4252 9.85061 83.5719 16.135 90.8312C25.0409 101.112 37.3227 100.766 47.7019 100.751C58.081 100.736 70.3603 101.112 79.2662 90.8312C85.5506 83.5719 84.5675 76.4252 83.747 68.9174C84.1505 66.5698 84.3545 64.1917 84.3567 61.8091Z" fill="#FFA103"/>
<path d="M71.2062 53.6997C70.9267 54.6036 67.053 53.605 63.6313 52.5321C60.2097 51.4592 56.0438 51.2671 56.1759 49.3723C56.242 48.4274 58.6272 45.6645 64.9395 48.9216C68.1275 50.5681 71.4856 52.8086 71.2062 53.6997Z" fill="#D16A1D"/>
<path d="M21.9212 54.3079C22.1753 55.2169 26.0744 54.2848 29.5138 53.2683C32.9532 52.2517 37.1217 52.1313 37.0201 50.2339C36.9693 49.2891 34.6298 46.4877 28.2641 49.6373C25.0507 51.23 21.6571 53.4014 21.9212 54.3079Z" fill="#D16A1D"/>
<path d="M79.431 90.3004C79.431 90.3004 77.0966 87.2507 69.222 85.5658C65.3365 84.7259 61.6351 83.1796 58.2992 81.0028C57.2556 80.3219 56.3298 79.4734 55.5584 78.4908C52.1139 74.0635 48.4459 73.5641 47.6965 73.5078H47.5517C46.7897 73.5641 43.0911 74.0737 39.634 78.6137C38.9596 79.4863 38.1479 80.2415 37.2309 80.8491C33.8574 83.1032 30.0962 84.7028 26.1405 85.5658C18.2888 87.2507 15.9798 90.3004 15.9798 90.3004C15.9798 90.3004 12.7614 94.7559 26.0821 94.7559C36.8144 94.7559 41.1555 96.6098 42.4383 97.3293C42.8251 97.5441 43.2423 97.6978 43.6754 97.7851C44.3485 97.9234 45.3545 98.118 46.3223 98.2383C47.0998 98.3382 47.8868 98.3382 48.6643 98.2383C49.7541 98.0949 50.9124 97.8926 51.6465 97.7569C52.0689 97.6806 52.4763 97.5362 52.8531 97.3293C54.1409 96.6098 58.5024 94.7559 69.2804 94.7559C82.6646 94.7559 79.431 90.3004 79.431 90.3004Z" fill="#D16A1D"/>
<path d="M55.4007 82.0405C55.8755 81.5124 55.3909 80.2897 54.3182 79.3096C53.2455 78.3294 51.9909 77.963 51.5161 78.4911C51.0412 79.0192 51.5258 80.2418 52.5986 81.222C53.6713 82.2021 54.9258 82.5686 55.4007 82.0405Z" fill="#B25B19"/>
<path d="M42.4437 81.2217C43.5164 80.2415 44.001 79.0188 43.5261 78.4907C43.0513 77.9626 41.7967 78.3291 40.724 79.3093C39.6513 80.2894 39.1667 81.5121 39.6415 82.0402C40.1164 82.5683 41.371 82.2018 42.4437 81.2217Z" fill="#B25B19"/>
<path d="M24.2197 93.875C24.2197 93.875 32.9783 92.7918 37.1366 92.3898C41.2948 91.9878 43.4667 90.8534 48.1965 91.2529H48.2473C52.9771 90.8637 54.9229 92.4666 59.0964 92.6484C63.2039 92.8277 72.031 94.0875 72.031 94.0875C72.031 94.0875 62.0684 93.7264 48.1254 93.9236C40.5683 94.0235 35.1832 94.0363 24.2197 93.875Z" fill="#3C1808"/>
<path d="M73.8135 70.9602C73.8135 77.0749 68.7332 81.259 63.3403 81.259C57.9475 81.259 53.5835 76.3016 53.5835 70.1869C53.5835 64.0721 55.2778 57.5732 60.6681 57.5732C63.2438 57.5732 66.8687 58.8766 69.419 61.2785C72.2081 63.9031 73.8135 67.7696 73.8135 70.9602Z" fill="#C7C6C5"/>
<path d="M67.5687 73.9043C67.5687 77.4252 64.8914 80.2214 61.8279 80.2214C58.7645 80.2214 55.6172 77.5916 55.6172 74.0759C55.6172 70.5602 57.7433 67.0342 60.8068 67.0342C63.8702 67.0342 67.5687 70.3758 67.5687 73.9043Z" fill="#080808"/>
<path d="M58.3042 71.9878C58.8528 71.9878 59.2975 71.5395 59.2975 70.9866C59.2975 70.4336 58.8528 69.9854 58.3042 69.9854C57.7557 69.9854 57.311 70.4336 57.311 70.9866C57.311 71.5395 57.7557 71.9878 58.3042 71.9878Z" fill="white"/>
<path d="M20.9595 70.9602C20.9595 77.0749 26.0398 81.259 31.4326 81.259C36.8255 81.259 41.1895 76.3016 41.1895 70.1869C41.1895 64.0721 39.5028 57.5732 34.1024 57.5732C31.5266 57.5732 27.9043 58.8766 25.3514 61.2785C22.5649 63.9031 20.9595 67.7696 20.9595 70.9602Z" fill="#C7C6C5"/>
<path d="M26.875 73.9043C26.875 77.4252 29.5524 80.2214 32.6158 80.2214C35.6793 80.2214 38.8266 77.5916 38.8266 74.0759C38.8266 70.5602 36.703 67.0342 33.637 67.0342C30.571 67.0342 26.875 70.3758 26.875 73.9043Z" fill="#080808"/>
<path d="M30.1167 71.9878C30.6653 71.9878 31.11 71.5395 31.11 70.9866C31.11 70.4336 30.6653 69.9854 30.1167 69.9854C29.5682 69.9854 29.1235 70.4336 29.1235 70.9866C29.1235 71.5395 29.5682 71.9878 30.1167 71.9878Z" fill="white"/>
<path d="M89.6941 104.615C89.6941 104.615 89.5391 98.2619 90.8803 97.1045C90.8803 97.1045 83.9837 105.109 75.8704 104.615C67.7571 104.121 51.1824 111.055 46.2163 118.954L47.9589 121.059L89.6941 104.615Z" fill="#E7EDC3"/>
<path d="M2.94526 112.017C2.94526 112.017 2.99098 106.847 1.28906 104.614C1.28906 104.614 7.20769 110.54 15.8519 109.595C15.8519 109.595 31.7306 107.313 46.7431 119.366L39.2724 119.896L2.94526 112.017Z" fill="#E7EDC3"/>
<path d="M2.354 111.912L42.9766 119.123L46.4262 158.659L6.44116 149.515L2.354 111.912Z" fill="#8BE680"/>
<path d="M51.9204 118.736L90.5007 104.314L92.416 142.304L54.4758 157.499L51.9204 118.736Z" fill="#8BE680"/>
<path d="M43.8699 118.259C43.8699 118.259 47.1061 121.091 50.7284 117.701C50.7284 117.701 51.8359 117.314 52.1763 118.981L54.7317 158.645C54.7317 158.645 50.134 161.349 46.4278 158.645L42.9783 119.109C42.9783 119.109 42.5083 117.642 43.8699 118.259Z" fill="#71BA7A"/>
<path d="M0.0126008 130.899C-0.0314345 131.451 0.0402425 132.006 0.222975 132.528C0.405708 133.051 0.695407 133.528 1.07323 133.93C1.45106 134.332 1.90855 134.649 2.41598 134.861C2.9234 135.073 3.4694 135.175 4.01847 135.16C5.04602 135.143 6.06842 135.009 7.06668 134.763C9.12677 134.218 9.79484 130.556 8.28343 128.067C7.91976 127.466 7.5122 126.894 7.06414 126.354C4.83386 123.666 0.474909 125.13 0.205649 128.62L0.0126008 130.899Z" fill="#FFA103"/>
<path d="M93.9871 119.071C94.0312 118.519 93.9594 117.964 93.7766 117.441C93.5937 116.919 93.3037 116.441 92.9256 116.039C92.5475 115.637 92.0897 115.32 91.582 115.108C91.0743 114.897 90.528 114.795 89.9787 114.81C88.9513 114.828 87.929 114.96 86.9305 115.204C84.8679 115.752 84.2023 119.414 85.7137 121.9C86.0774 122.502 86.4849 123.075 86.933 123.616C89.1608 126.302 93.5197 124.84 93.7915 121.347L93.9871 119.071Z" fill="#FFA103"/>
</svg>
