<svg width="1831" height="404" viewBox="0 0 1831 404" fill="none" xmlns="http://www.w3.org/2000/svg">
<path d="M1792.79 349.511L1782.76 355.5C1781.92 355.993 1781.19 356.266 1780.57 356.317C1779.96 356.346 1779.37 356.173 1778.8 355.8C1778.07 355.322 1777.61 354.667 1777.44 353.835C1777.28 352.979 1777.24 351.615 1777.32 349.742L1778.06 339.898L1771.72 349.615C1771.08 350.599 1770.38 351.171 1769.62 351.33C1768.89 351.503 1768.08 351.299 1767.18 350.717C1766.18 350.059 1765.59 349.364 1765.41 348.63C1765.25 347.873 1765.6 346.843 1766.45 345.538L1776.22 330.568C1777.37 328.806 1778.64 327.739 1780.02 327.37C1781.4 327 1783.05 327.435 1784.95 328.675C1785.66 329.138 1786.19 329.667 1786.55 330.262C1786.93 330.835 1787.14 331.364 1787.18 331.848C1787.26 332.325 1787.28 332.875 1787.23 333.497L1785.27 346.56L1796.6 339.853C1798.52 338.758 1800.58 338.927 1802.78 340.361C1803.81 341.034 1804.57 341.792 1805.06 342.636C1805.57 343.458 1805.77 344.403 1805.66 345.473C1805.59 346.535 1805.16 347.662 1804.38 348.852L1794.64 363.787C1793.14 366.039 1790.97 366.238 1788.13 364.386C1787.1 363.713 1786.43 362.886 1786.12 361.903C1785.86 360.913 1786.12 359.781 1786.92 358.507L1792.79 349.511Z" fill="#1D65CD"/>
<path d="M1819.89 365.24C1821.11 366.032 1821.83 366.779 1822.05 367.482C1822.3 368.2 1822.12 369.028 1821.51 369.966C1821 370.744 1820.34 371.111 1819.52 371.066C1818.74 371.013 1817.73 370.583 1816.49 369.776L1810.93 366.146L1808.55 369.786L1815.98 374.683C1817.26 375.519 1818.05 376.311 1818.35 377.059C1818.68 377.799 1818.53 378.649 1817.91 379.611C1817.19 380.709 1816.36 381.26 1815.41 381.261C1814.49 381.278 1813.36 380.853 1812.03 379.987L1800.91 372.726C1799.56 371.845 1798.79 370.84 1798.61 369.712C1798.47 368.577 1799 367.093 1800.2 365.262L1809.65 350.773C1811.45 348.026 1813.65 347.504 1816.26 349.207L1827.38 356.467C1828.71 357.334 1829.56 358.182 1829.93 359.012C1830.33 359.858 1830.17 360.818 1829.47 361.894C1828.81 362.901 1828.06 363.424 1827.22 363.463C1826.42 363.493 1825.38 363.09 1824.09 362.254L1816.61 357.369L1813.99 361.386L1819.89 365.24Z" fill="#1D65CD"/>
<path d="M1042.83 43.0356C1042.61 42.3304 1042.37 41.7989 1042.11 41.4411C1041.84 41.0642 1041.5 40.8254 1041.09 40.7249C1040.7 40.6182 1040.3 40.5999 1039.88 40.67C1039.47 40.715 1038.93 40.8465 1038.24 41.0647L1040.24 47.3544C1040.77 47.1848 1041.23 46.9886 1041.6 46.7661C1041.98 46.5375 1042.31 46.2542 1042.58 45.9164C1042.86 45.5786 1043.01 45.1728 1043.05 44.699C1043.1 44.2 1043.03 43.6455 1042.83 43.0356ZM1041.94 52.7007C1042.43 54.2446 1042.5 55.4409 1042.14 56.2898C1041.77 57.1197 1041 57.7224 1039.82 58.0982C1038.63 58.4739 1037.67 58.4542 1036.93 58.0391C1036.19 57.6049 1035.57 56.6254 1035.09 55.1007L1031.25 43.0358C1030.88 41.8732 1030.92 40.9155 1031.37 40.1628C1031.82 39.391 1032.56 38.8415 1033.59 38.5142L1038.68 36.8962C1039.92 36.5023 1041.12 36.3102 1042.27 36.32C1043.42 36.3107 1044.48 36.4898 1045.43 36.8573C1046.4 37.1997 1047.24 37.7617 1047.95 38.5432C1048.68 39.2996 1049.21 40.2306 1049.57 41.3361C1050 42.6893 1049.98 43.9952 1049.52 45.2539C1049.05 46.4934 1048.26 47.564 1047.14 48.4656C1046.02 49.3672 1044.66 50.0725 1043.06 50.5815L1041.43 51.0997L1041.94 52.7007Z" fill="#1D65CD"/>
<path d="M1065.77 28.3146C1066.87 27.9631 1067.78 27.9062 1068.48 28.1437C1069.17 28.3872 1069.72 29.1475 1070.12 30.4245L1073.98 42.5466C1074.47 44.0904 1074.54 45.2837 1074.2 46.1266C1073.85 46.9503 1073.12 47.541 1071.99 47.8986C1070.89 48.25 1069.98 48.2026 1069.27 47.7563C1068.57 47.3291 1067.98 46.3531 1067.49 44.8283L1065.48 38.6997L1062.42 49.0842C1062.33 49.3866 1062.24 49.6477 1062.14 49.8678L1062.11 49.9717C1061.78 50.7894 1061.03 51.3831 1059.87 51.7528C1058.77 52.1043 1057.86 52.0569 1057.15 51.6106C1056.45 51.1833 1055.85 50.2073 1055.37 48.6825L1051.45 36.645C1051.07 35.4633 1051.1 34.4991 1051.54 33.7524C1051.95 33.0118 1052.65 32.484 1053.65 32.1689C1054.79 31.8052 1055.69 31.7483 1056.36 31.9979C1057.05 32.2415 1057.59 33.0018 1058 34.2788L1060.26 41.3976L1062.14 35.0099L1063.39 30.8338L1063.43 30.6635C1063.55 30.039 1063.81 29.5461 1064.22 29.1849C1064.6 28.8108 1065.12 28.5207 1065.77 28.3146Z" fill="#1D65CD"/>
<path d="M128.524 314.539C128.524 314.539 133.576 308.36 135.813 308.363C135.813 308.363 122.638 310.296 115.253 303.133C107.868 295.97 86.2804 288.896 75.0478 292.321L74.9904 295.763L128.524 314.539Z" fill="#1D65CD"/>
<path d="M39.1756 250.012C39.1756 250.012 43.4523 245.126 43.6438 241.594C43.6438 241.594 44.4791 252.12 53.5514 258.353C53.5514 258.353 70.6711 269.279 75.2111 293.15L67.5991 287.49L39.1756 250.012Z" fill="#1D65CD"/>
<path d="M38.6925 249.425L71.7933 289.81L42.745 330.31L11.8389 288.61L38.6925 249.425Z" fill="#1D65CD"/>
<path d="M80.6956 296.82L129.542 314.915L100.287 352.679L51.4221 335.847L80.6956 296.82Z" fill="#1D65CD"/>
<path d="M73.3598 289.728C73.3598 289.728 74.1498 295.097 80.3998 294.854C80.3998 294.854 81.7793 295.399 80.7361 297.274L50.7221 337.159C50.7221 337.159 44.0929 335.94 42.7495 330.308L71.7943 289.81C71.7943 289.81 72.5565 288.012 73.3598 289.728Z" fill="#1D65CD"/>
<path d="M445.623 24.0162C445.623 24.0162 443.492 22.1125 443.528 21.3126C443.528 21.3126 444.014 26.0559 441.336 28.5861C438.659 31.1162 435.791 38.7286 436.842 42.8003L438.072 42.8744L445.623 24.0162Z" fill="#1D65CD"/>
<path d="M421.146 54.9744C421.146 54.9744 419.465 53.3683 418.205 53.2447C418.205 53.2447 421.983 53.11 424.354 49.9617C424.354 49.9617 428.53 44.0077 437.14 42.7558L434.997 45.3907L421.146 54.9744Z" fill="#1D65CD"/>
<path d="M420.929 55.1379L435.893 43.9263L449.928 54.9494L434.528 65.3554L420.929 55.1379Z" fill="#1D65CD"/>
<path d="M438.539 40.851L445.773 23.6592L458.827 34.7133L452.044 51.9317L438.539 40.851Z" fill="#1D65CD"/>
<path d="M435.888 43.3637C435.888 43.3637 437.821 43.1648 437.831 40.9252C437.831 40.9252 438.048 40.4402 438.702 40.8426L452.502 52.2016C452.502 52.2016 451.963 54.5541 449.927 54.9468L435.892 43.925C435.892 43.925 435.261 43.6243 435.888 43.3637Z" fill="#1D65CD"/>
<path d="M1412 37.3393L1419.49 57.7747L1446.35 56.9958L1438.37 35.7822L1412 37.3393Z" fill="#1D65CD"/>
<path d="M1438.37 35.781L1450.44 17L1459 39.2845L1446.35 56.9946L1438.37 35.781Z" fill="#1D65CD"/>
<path d="M1412 37.3387L1414.04 35.7817L1437.66 34.2402L1438.37 35.7817L1412 37.3387Z" fill="#1D65CD"/>
<path d="M1438.37 35.781L1450.44 17L1448.69 17.6964L1437.66 34.2396L1438.37 35.781Z" fill="#1D65CD"/>
<path d="M1437.66 34.2398C1432.55 27.0879 1417.14 32.4844 1417.14 32.4844L1415.27 35.701" fill="#1D65CD"/>
<path d="M1448.24 18.3623L1444.97 18.6707C1444.97 18.6707 1433.2 26.6521 1434.79 31.8256L1437.28 34.2634H1437.71L1448.24 18.3623Z" fill="#1D65CD"/>
<path d="M578.508 342.985L578.851 360.93C578.866 362.432 578.671 363.618 578.266 364.486C577.842 365.316 577.163 365.971 576.228 366.45C575.032 367.062 573.812 367.168 572.569 366.767C571.306 366.328 569.455 365.341 567.017 363.806L554.453 355.306L562.581 371.175C563.404 372.782 563.634 374.151 563.269 375.282C562.942 376.393 562.049 377.322 560.591 378.069C558.946 378.912 557.568 379.169 556.457 378.842C555.326 378.477 554.215 377.23 553.124 375.099L540.601 350.651C539.127 347.773 538.671 345.27 539.232 343.142C539.794 341.014 541.626 339.155 544.729 337.566C545.888 336.972 547.002 336.661 548.073 336.632C549.124 336.565 549.989 336.688 550.668 337.001C551.366 337.257 552.112 337.654 552.906 338.191L568.835 350.771L568.525 330.544C568.53 327.144 570.327 324.525 573.915 322.687C575.597 321.825 577.19 321.387 578.692 321.373C580.176 321.321 581.589 321.776 582.932 322.74C584.293 323.647 585.472 325.073 586.467 327.017L598.961 351.408C600.819 355.128 599.431 358.175 594.795 360.549C593.113 361.411 591.5 361.671 589.957 361.329C588.431 360.931 587.123 359.713 586.033 357.676L578.508 342.985Z" fill="#1D65CD"/>
<path d="M623.925 335.719C625.196 335.068 625.993 333.952 626.316 332.371C626.676 330.771 626.622 329.053 626.153 327.216C625.722 325.361 625.027 323.499 624.07 321.63C623.094 319.723 621.969 318.034 620.696 316.563C619.404 315.054 617.985 313.94 616.437 313.223C614.927 312.486 613.556 312.434 612.322 313.066C611.126 313.678 610.386 314.813 610.101 316.468C609.817 318.124 609.891 319.927 610.323 321.876C610.755 323.825 611.45 325.735 612.407 327.604C613.364 329.473 614.47 331.124 615.724 332.558C617.015 333.973 618.396 335.012 619.868 335.674C621.377 336.317 622.729 336.332 623.925 335.719ZM636.923 336.635C634.717 339.606 631.763 342.039 628.062 343.934C624.399 345.811 620.717 346.776 617.018 346.831C613.336 346.829 609.86 345.802 606.591 343.749C603.321 341.695 600.662 338.669 598.613 334.669C595.511 328.613 594.864 322.881 596.671 317.472C598.496 312.007 602.306 307.791 608.1 304.823C613.894 301.855 619.542 301.227 625.044 302.94C630.526 304.614 634.818 308.48 637.92 314.536C639.969 318.535 640.852 322.471 640.571 326.344C640.326 330.197 639.111 333.627 636.923 336.635Z" fill="#1D65CD"/>
</svg>
