<svg width="1063" height="415" viewBox="0 0 1063 415" fill="none" xmlns="http://www.w3.org/2000/svg">
<path d="M795 60.5C795 82.8675 776.644 101 754 101C731.356 101 713 82.8675 713 60.5C713 38.1325 731.356 20 754 20C776.644 20 795 38.1325 795 60.5Z" fill="#CFF8C6"/>
<path d="M1063 81C1063 106.957 1041.73 128 1015.5 128C989.266 128 968 106.957 968 81C968 55.0426 989.266 34 1015.5 34C1041.73 34 1063 55.0426 1063 81Z" fill="#CFF8C6"/>
<path d="M68 258C68 276.778 52.7777 292 34 292C15.2223 292 0 276.778 0 258C0 239.222 15.2223 224 34 224C52.7777 224 68 239.222 68 258Z" fill="#C8EFC0"/>
<path d="M857 258C857 267.389 849.165 275 839.5 275C829.835 275 822 267.389 822 258C822 248.611 829.835 241 839.5 241C849.165 241 857 248.611 857 258Z" fill="#C8EFC0"/>
<path d="M831.263 155.497L815.503 167.837C814.186 168.865 812.999 169.486 811.942 169.699C810.861 169.916 809.738 169.785 808.749 169.326C808.09 169.056 807.498 168.657 807.011 168.156C806.524 167.655 806.153 167.062 805.921 166.415C805.418 165.077 804.999 162.861 804.662 159.768L803.452 143.443L794.991 160.969C794.133 162.744 793.085 163.858 791.848 164.309C790.61 164.76 789.146 164.624 787.457 163.903C785.557 163.079 784.369 162.077 783.894 160.897C783.419 159.717 783.749 157.95 784.882 155.596L797.916 128.601C799.451 125.423 801.363 123.356 803.655 122.4C805.946 121.444 808.885 121.745 812.471 123.302C813.686 123.796 814.774 124.535 815.66 125.468C816.347 126.17 816.866 127.007 817.179 127.921C817.425 128.806 817.578 129.713 817.636 130.627L817.56 152.54L835.37 138.705C838.406 136.429 841.998 136.189 846.147 137.984C847.886 138.689 849.432 139.761 850.669 141.12C851.759 142.4 852.383 143.985 852.447 145.637C852.558 147.407 852.096 149.364 851.06 151.509L838.054 178.446C836.036 182.512 832.349 183.385 826.992 181.066C825.047 180.223 823.708 179.031 822.974 177.49C822.241 175.95 822.395 174.033 823.437 171.738L831.263 155.497Z" fill="#CBF6C3"/>
<path d="M882.902 177.918C885.251 178.936 886.731 180.004 887.342 181.12C887.953 182.237 887.85 183.645 887.032 185.343C886.353 186.75 885.303 187.51 883.883 187.623C882.462 187.737 880.556 187.273 878.163 186.234L867.379 181.56L864.2 188.145L878.596 194.46C881.075 195.534 882.694 196.65 883.451 197.806C884.207 198.963 884.166 200.409 883.325 202.144C882.364 204.135 881.061 205.249 879.417 205.488C877.774 205.728 875.668 205.291 873.101 204.178L851.577 194.849C848.961 193.715 847.358 192.234 846.769 190.406C846.179 188.577 846.686 186.003 848.288 182.684L860.951 156.457C863.353 151.483 867.078 150.093 872.129 152.284L893.666 161.619C896.233 162.732 897.969 163.935 898.873 165.228C899.776 166.52 899.758 168.144 898.819 170.089C897.937 171.915 896.78 172.953 895.346 173.205C893.912 173.456 891.953 173.046 889.469 171.975L874.977 165.693L871.467 172.962L882.902 177.918Z" fill="#CBF6C3"/>
<path d="M511.241 198.99C508.013 202.818 503.78 205.868 498.542 208.143C493.305 210.417 488.116 211.464 482.975 211.282C477.814 211.095 472.816 209.478 468.596 206.63C464.154 203.718 460.619 199.551 457.993 194.129C454.018 185.923 453.45 178.274 456.289 171.181C459.128 164.089 464.668 158.753 472.907 155.173C481.151 151.588 489.047 151.081 496.595 153.654C504.143 156.226 509.908 161.615 513.89 169.821C516.518 175.246 517.537 180.506 516.948 185.603C516.451 190.502 514.469 195.153 511.241 198.99ZM493.214 197.051C495.02 196.265 496.207 194.828 496.774 192.739C497.343 190.498 497.367 188.161 496.844 185.905C495.661 180.648 493.25 175.707 489.79 171.447C488.258 169.534 486.322 167.947 484.107 166.788C482.019 165.732 480.095 165.586 478.337 166.35C476.634 167.091 475.539 168.549 475.051 170.726C474.561 173.093 474.561 175.53 475.05 177.901C475.562 180.563 476.428 183.153 477.628 185.61C478.779 188.032 480.253 190.303 482.014 192.369C483.524 194.194 485.432 195.686 487.607 196.74C489.645 197.686 491.514 197.79 493.214 197.051Z" fill="#CBF7C3"/>
<path d="M405.329 383.582L405.022 398.985C404.984 400.275 404.773 401.275 404.388 401.984C403.983 402.713 403.345 403.285 402.575 403.611C402.083 403.846 401.547 403.977 400.999 403.994C400.452 404.011 399.907 403.914 399.397 403.71C398.332 403.301 396.774 402.388 394.722 400.972L384.168 393.177L390.644 407.114C391.3 408.527 391.458 409.703 391.118 410.644C390.778 411.584 389.969 412.348 388.69 412.936C387.245 413.591 386.045 413.748 385.09 413.405C384.135 413.062 383.22 411.96 382.345 410.1L372.371 388.632C371.197 386.105 370.888 383.94 371.443 382.136C371.999 380.332 373.641 378.813 376.37 377.577C377.275 377.141 378.265 376.905 379.273 376.885C380.042 376.858 380.81 376.998 381.522 377.295C382.183 377.615 382.811 377.999 383.398 378.441L396.71 389.877L397.126 372.529C397.243 369.615 398.88 367.442 402.038 366.008C403.331 365.383 404.751 365.059 406.193 365.06C407.515 365.105 408.79 365.573 409.828 366.394C410.962 367.251 411.925 368.533 412.717 370.239L422.67 391.66C424.147 394.924 422.848 397.481 418.773 399.33C417.293 400.001 415.902 400.145 414.6 399.762C413.297 399.38 412.205 398.288 411.325 396.486L405.329 383.582Z" fill="#CBF7C3"/>
<path d="M159.262 181.231C158.301 183.304 157.219 184.604 156.017 185.13C154.814 185.656 153.394 185.548 151.756 184.805C150.117 184.063 149.101 183.117 148.708 181.967C148.315 180.816 148.594 179.215 149.545 177.163L157.062 160.949C157.786 159.388 158.758 158.426 159.98 158.065C161.202 157.703 162.527 157.845 163.955 158.491L171.008 161.682C172.626 162.397 174.126 163.35 175.452 164.508C176.63 165.531 177.616 166.747 178.363 168.101C179.055 169.389 179.427 170.815 179.446 172.261C179.464 173.804 179.127 175.327 178.459 176.717C177.699 178.448 176.349 179.864 174.635 180.727C172.886 181.589 170.922 181.962 168.956 181.805C166.722 181.632 164.534 181.055 162.505 180.103L160.246 179.081L159.262 181.231ZM169.562 172.043C169.939 171.296 170.197 170.496 170.328 169.67C170.408 169.083 170.268 168.483 169.934 167.982C169.605 167.494 169.181 167.073 168.686 166.744C167.993 166.305 167.265 165.921 166.511 165.596L162.596 174.04C163.253 174.344 163.943 174.574 164.652 174.727C165.267 174.854 165.9 174.873 166.519 174.781C167.162 174.678 167.756 174.388 168.224 173.95C168.796 173.408 169.251 172.76 169.562 172.043Z" fill="#CBF6C3"/>
<path d="M127.282 60.6937C128.09 62.1096 127.845 64.1592 126.548 66.8427L114.236 92.3148C112.669 95.556 110.929 97.6112 109.016 98.4805C107.122 99.3069 104.92 99.1755 102.41 98.0864C99.94 97.0148 98.4418 95.5886 97.9151 93.8079C97.3648 92.0702 97.865 89.5976 99.4155 86.39L102.628 79.5856L105.527 73.429L83.9484 85.7996C83.3928 86.1161 82.8177 86.4014 82.2262 86.6538L82.0092 86.7765C80.1613 87.6232 77.939 87.4832 75.3424 86.3564C72.8726 85.2847 71.3744 83.8585 70.8477 82.0778C70.2975 80.3402 70.7976 77.8676 72.3481 74.66L84.4108 49.2201C85.6097 46.74 87.1723 45.2128 89.0986 44.6386C90.9806 44.0502 93.0274 44.2358 95.2388 45.1954C97.7909 46.3028 99.4494 47.5563 100.214 48.9559C101.025 50.3728 100.78 52.4224 99.4806 55.105L92.2511 70.0612L105.513 62.4398L114.229 57.4989L114.568 57.2843C115.608 56.4861 116.908 56.05 118.252 56.0489C119.655 56.0417 121.043 56.344 122.303 56.9317C124.774 58.0013 126.433 59.2553 127.282 60.6937Z" fill="#CBF6C3"/>
</svg>
