<svg width="281" height="200" viewBox="0 0 281 200" fill="none" xmlns="http://www.w3.org/2000/svg">
<path d="M152.68 173.643C152.041 173.943 151.409 173.981 150.782 173.756C150.123 173.46 149.659 173.029 149.391 172.461C149.224 172.106 149.109 171.77 149.046 171.453L142.121 91.0883C141.966 90.2076 142.074 89.3329 142.445 88.4644C142.816 87.5959 143.569 86.8941 144.704 86.3591L158.326 79.9386C159.461 79.4036 160.482 79.2694 161.388 79.536C162.294 79.8026 163.037 80.2759 163.618 80.956L221.198 137.445C221.403 137.695 221.589 137.998 221.756 138.353C222.023 138.92 222.061 139.553 221.87 140.25C221.645 140.876 221.213 141.34 220.574 141.641L209.507 146.857C208.443 147.359 207.545 147.478 206.815 147.216C206.084 146.953 205.547 146.643 205.205 146.284L195.011 136.522L165.001 150.667L166.043 164.743C166.102 165.235 166 165.847 165.737 166.578C165.475 167.308 164.811 167.924 163.747 168.426L152.68 173.643ZM162.468 135.083L184.496 124.7L159.089 99.218L162.468 135.083Z" fill="#FFDA55"/>
<path d="M236.617 189.022C232.562 186.992 229.398 184.573 227.126 181.763C224.855 178.954 223.563 175.8 223.253 172.301C222.965 168.757 223.78 164.902 225.699 160.735C226.614 158.797 227.54 156.892 228.477 155.02C229.436 153.104 230.429 151.177 231.455 149.239C233.596 145.295 236.172 142.377 239.181 140.484C242.258 138.569 245.612 137.656 249.245 137.747C252.922 137.861 256.744 138.91 260.71 140.895C264.631 142.858 267.717 145.267 269.966 148.121C272.26 150.997 273.562 154.24 273.873 157.851C274.205 161.416 273.412 165.227 271.494 169.282C270.601 171.288 269.675 173.248 268.716 175.165C267.779 177.036 266.786 178.908 265.738 180.779C263.552 184.812 260.954 187.775 257.945 189.668C254.957 191.516 251.659 192.372 248.048 192.237C244.438 192.102 240.627 191.03 236.617 189.022ZM240.933 180.399C243.518 181.693 246.025 181.973 248.455 181.239C250.951 180.482 253.114 178.388 254.943 174.957C256.014 173.041 256.973 171.236 257.821 169.543C258.691 167.805 259.561 165.956 260.431 163.995C261.546 161.656 262.071 159.55 262.005 157.678C261.939 155.806 261.405 154.201 260.403 152.863C259.468 151.503 258.131 150.388 256.393 149.518C254.655 148.648 252.939 148.235 251.245 148.279C249.574 148.278 247.969 148.812 246.431 149.881C244.937 150.972 243.566 152.654 242.316 154.927C241.313 156.821 240.376 158.637 239.506 160.374C238.658 162.068 237.766 163.906 236.829 165.889C235.222 169.432 234.842 172.418 235.688 174.848C236.556 177.233 238.304 179.083 240.933 180.399Z" fill="#FFC46C"/>
<path d="M65.7881 113.913C61.775 116.981 57.6883 119.198 53.5281 120.562C49.3801 121.834 45.4529 122.153 41.7464 121.518C38.092 120.844 34.8868 119.082 32.1307 116.234C31.7199 115.805 31.5513 115.315 31.6249 114.763C31.7506 114.171 32.048 113.696 32.5171 113.337L41.1166 106.761C41.742 106.283 42.2648 106.049 42.6848 106.058C43.1569 106.027 43.7486 106.153 44.4598 106.435C46.0969 107.496 48.0299 107.917 50.2587 107.7C52.5396 107.442 55.0873 106.237 57.9017 104.085C61.2372 101.535 63.0461 98.4995 63.3282 94.98C63.5705 91.4084 62.2369 87.7203 59.3276 83.9156L58.2515 82.5084L42.0687 94.8831C41.4954 95.3214 40.8869 95.4977 40.2431 95.4119C39.5594 95.2739 38.9984 94.9183 38.56 94.345L34.4949 89.0289C34.0565 88.4556 33.8802 87.847 33.9661 87.2032C34.0121 86.5073 34.3217 85.9401 34.8951 85.5017L51.0778 73.1271L50.0616 71.7981C46.9131 67.6807 43.6635 65.3752 40.3126 64.8816C36.974 64.296 33.6109 65.2984 30.2232 67.8889C27.4088 70.041 25.5984 72.21 24.7921 74.3959C24.0379 76.5419 23.9704 78.4518 24.5896 80.1257C24.7276 80.8462 24.746 81.4103 24.6448 81.818C24.5436 82.2258 24.1803 82.6688 23.5549 83.147L14.8772 89.7827C14.4081 90.1414 13.8716 90.3039 13.2676 90.2701C12.6637 90.2364 12.2084 89.9651 11.9018 89.4561C9.84785 85.906 8.97418 82.2792 9.28082 78.5757C9.59973 74.7803 10.9303 71.1199 13.2726 67.5943C15.6272 63.9767 18.785 60.6535 22.746 57.6246C27.1761 54.2371 31.7287 52.0359 36.404 51.0212C41.0395 49.9544 45.6028 50.3056 50.0941 52.0746C54.5854 53.8436 58.9479 57.2804 63.1816 62.3849C64.3895 63.8565 65.4318 65.1656 66.3086 66.3122C67.1455 67.4067 68.0024 68.5273 68.8792 69.6739C69.7161 70.7684 70.6864 72.0912 71.7901 73.6425C75.6467 79.118 77.8601 84.2808 78.4302 89.1308C79.0126 93.8889 78.1817 98.3649 75.9375 102.559C73.7056 106.661 70.3224 110.445 65.7881 113.913Z" fill="#FFC46C"/>
<path d="M111.715 79.0158C111.203 78.5071 110.946 77.928 110.944 77.2785C110.942 76.629 111.195 76.0483 111.704 75.5364L127.106 60.04L117.333 50.3274C113.983 46.9974 111.652 43.4322 110.341 39.632C109.077 35.878 108.903 32.1439 109.82 28.4296C110.782 24.6688 112.859 21.1829 116.051 17.9719C119.011 14.9936 122.368 12.9652 126.123 11.8866C129.924 10.8543 133.844 10.9582 137.884 12.1984C142.017 13.4383 146.061 16.0239 150.017 19.9552L167.886 37.7154C168.398 38.2241 168.655 38.8033 168.657 39.4528C168.659 40.1023 168.406 40.683 167.897 41.1949L122.803 86.5671C122.294 87.079 121.715 87.3359 121.066 87.3379C120.416 87.3399 119.835 87.0865 119.323 86.5778L111.715 79.0158ZM83.7935 51.2656C83.3747 50.8493 83.1645 50.3629 83.1627 49.8061C83.2073 49.2029 83.4146 48.7151 83.7846 48.3428C84.0158 48.1101 84.34 47.9236 84.7571 47.7831L114.171 40.3857L122.837 52.4678L96.207 59.8566C95.5118 60.0907 94.7467 60.2091 93.9116 60.2116C93.1228 60.1676 92.3328 59.7525 91.5417 58.9663L83.7935 51.2656ZM127.68 43.1278L135.847 51.2448L149.861 37.1445L141.694 29.0275C139.46 26.8075 137.068 25.771 134.516 25.918C131.965 26.065 129.626 27.2089 127.498 29.3495C125.325 31.5367 124.218 33.8134 124.179 36.1796C124.186 38.4992 125.353 40.8153 127.68 43.1278Z" fill="#FFC46C"/>
<path d="M57.7522 167.009C57.236 166.722 56.9049 166.323 56.7589 165.812C56.6389 165.254 56.7093 164.741 56.9699 164.272L82.382 118.52C82.6687 118.004 83.0675 117.673 83.5784 117.527C84.1363 117.407 84.6498 117.477 85.119 117.738L92.7912 122C93.3073 122.286 93.6384 122.685 93.7844 123.196C93.9305 123.707 93.8601 124.22 93.5734 124.737L76.6842 155.144L115.456 136.246C115.873 136.048 116.311 135.923 116.77 135.871C117.301 135.798 117.849 135.918 118.412 136.23L125.31 140.062C125.826 140.348 126.157 140.747 126.303 141.258C126.449 141.769 126.379 142.283 126.092 142.799L100.68 188.55C100.393 189.066 99.9944 189.397 99.4835 189.543C98.9726 189.689 98.459 189.619 97.9429 189.332L90.2707 185.071C89.8015 184.81 89.4704 184.411 89.2775 183.874C89.1314 183.363 89.2018 182.85 89.4885 182.334L105.869 152.842L67.6062 170.824C67.309 171.027 66.918 171.179 66.4331 171.278C65.9483 171.377 65.3774 171.244 64.7205 170.879L57.7522 167.009Z" fill="#FFC46C"/>
<path d="M249.936 85.2944C249.48 85.6431 248.996 85.7833 248.484 85.715C247.972 85.6467 247.542 85.3846 247.193 84.9286L216.286 44.5106C215.938 44.0546 215.797 43.5706 215.866 43.0585C215.934 42.5464 216.196 42.116 216.652 41.7673L244.82 20.2277C245.276 19.879 245.76 19.7388 246.273 19.8071C246.785 19.8754 247.215 20.1375 247.564 20.5935L251.368 25.5681C251.685 25.9826 251.809 26.4459 251.741 26.958C251.672 27.4701 251.41 27.9005 250.954 28.2491L230.807 43.655L238.273 53.4174L257.051 39.0577C257.507 38.709 257.991 38.5688 258.503 38.6371C259.016 38.7054 259.446 38.9675 259.795 39.4235L263.313 44.025C263.63 44.4395 263.755 44.9028 263.686 45.4149C263.618 45.927 263.356 46.3573 262.9 46.706L244.121 61.0658L251.824 71.1392L272.468 55.353C272.924 55.0043 273.408 54.8641 273.92 54.9324C274.432 55.0007 274.863 55.2628 275.211 55.7188L278.968 60.6311C279.317 61.0871 279.457 61.5712 279.388 62.0832C279.32 62.5953 279.058 63.0257 278.602 63.3744L249.936 85.2944Z" fill="#FFC46C"/>
</svg>
