<svg width="582" height="97" viewBox="0 0 582 97" fill="none" xmlns="http://www.w3.org/2000/svg">
<path d="M58.2714 0H38.5588C17.2633 0 0 17.2633 0 38.5588V58.2714C0 79.5668 17.2633 96.8302 38.5588 96.8302H58.2714C79.5668 96.8302 96.8302 79.5668 96.8302 58.2714V38.5588C96.8302 17.2633 79.5668 0 58.2714 0Z" fill="#235390"/>
<path d="M74.3771 58.6989C74.3771 42.8733 63.6075 30.4609 48.8167 30.4609H48.4084H48.0032C33.2155 30.4609 22.8418 43.291 22.8418 59.1166C22.8418 60.9027 21.3798 62.6483 21.6729 64.3471C21.065 69.8707 20.3325 75.1293 24.9957 80.4689C31.6009 88.0341 40.7122 87.7816 48.4084 87.7692C56.1045 87.7567 65.2159 88.0341 71.8242 80.4689C76.4843 75.1293 75.7549 69.8707 75.147 64.3471C75.4432 62.6514 74.3771 60.485 74.3771 58.6989Z" fill="#000061"/>
<path d="M71.5851 56.1C71.5851 40.2744 59.5966 27.4443 44.8059 27.4443H44.4007H43.9954C29.2047 27.4443 17.2163 40.2744 17.2163 56.1C17.2148 57.8562 17.3639 59.6092 17.662 61.3399C17.0386 66.8634 16.3248 72.122 20.988 77.4647C27.5932 85.03 36.717 84.765 44.4007 84.7557C52.0844 84.7463 61.2082 85.0206 67.8134 77.4554C72.489 72.1126 71.7472 66.8572 71.1393 61.3305C71.4369 59.6029 71.586 57.853 71.5851 56.1Z" fill="url(#paint0_linear_201_2)"/>
<path d="M25.9214 39.8997C25.9214 39.8997 29.0385 35.1523 32.4486 30.5483C35.254 26.7423 37.2459 24.2486 40.6996 20.1433C42.2333 18.3198 44.6709 16.4714 46.4663 13.6909C46.5329 13.5906 46.6232 13.5083 46.7292 13.4514C46.8353 13.3945 46.9538 13.3647 47.0742 13.3647C47.1945 13.3647 47.313 13.3945 47.4191 13.4514C47.5251 13.5083 47.6155 13.5906 47.682 13.6909C48.268 14.5762 48.2493 15.7513 48.7325 17.525C48.7325 17.525 50.0915 13.5538 54.2653 11.9142C54.2653 11.9142 58.6293 10.1187 59.287 10.8013C59.9447 11.484 59.0969 14.9004 59.0969 14.9004C59.0969 14.9004 64.0843 11.5214 66.2663 11.5245C66.4178 11.5283 66.5642 11.5797 66.6848 11.6715C66.8053 11.7634 66.8938 11.8909 66.9377 12.0359C66.9815 12.181 66.9785 12.3362 66.9291 12.4794C66.8796 12.6227 66.7862 12.7466 66.6621 12.8337L66.6403 12.8493C65.861 13.3605 64.3212 15.1715 63.4141 19.2768C63.4141 19.2768 62.0207 23.1857 64.8698 29.3731C67.9682 36.0937 69.7605 38.2507 69.7605 38.2507L25.9214 39.8997Z" fill="#FFAB03"/>
<path d="M75.5968 56.099C75.5968 40.2734 63.6084 27.4434 48.8208 27.4434H48.4124H48.0072C33.2196 27.4434 21.228 40.2734 21.228 56.099C21.2275 57.8553 21.3777 59.6083 21.6769 61.3389C21.0691 66.8624 20.3365 72.121 24.9997 77.4638C31.6049 85.029 40.7163 84.7734 48.4124 84.7641C56.1086 84.7547 65.2199 85.029 71.8282 77.4638C76.4883 72.121 75.7589 66.8656 75.1511 61.3389C75.4492 59.6082 75.5983 57.8552 75.5968 56.099Z" fill="#FFAB03"/>
<path d="M67.1807 60.2546C67.1807 64.7526 63.4121 67.8323 59.4128 67.8323C55.4136 67.8323 52.178 64.1853 52.178 59.6873C52.178 55.1893 53.4248 50.4014 57.4303 50.4014C59.3411 50.4014 62.0312 51.3614 63.9233 53.132C65.9899 55.0615 67.1807 57.9074 67.1807 60.2546Z" fill="#D1D0CF"/>
<path d="M63.9018 60.8623C63.9018 64.0574 61.4518 66.5978 58.6464 66.5978C55.841 66.5978 52.9639 64.2101 52.9639 61.0151C52.9639 57.82 54.909 54.625 57.7112 54.625C60.5135 54.625 63.9018 57.6704 63.9018 60.8623Z" fill="#080808"/>
<path d="M27.7654 60.2546C27.7654 64.7526 31.5371 67.8323 35.5332 67.8323C39.5294 67.8323 42.7712 64.1853 42.7712 59.6873C42.7712 55.1893 41.5243 50.4014 37.5157 50.4014C35.6049 50.4014 32.918 51.3614 31.0228 53.132C28.9561 55.0615 27.7654 57.9074 27.7654 60.2546Z" fill="#D1D0CF"/>
<path d="M31.0476 60.8694C31.0476 64.0645 33.4977 66.6049 36.3031 66.6049C39.1085 66.6049 41.9856 64.2172 41.9856 61.0346C41.9856 57.852 40.0405 54.6445 37.2382 54.6445C34.4359 54.6445 31.0476 57.6775 31.0476 60.8694Z" fill="#080808"/>
<path d="M67.9369 51.914C67.6252 52.5374 64.9071 51.3498 62.5287 50.159C60.1504 48.9683 57.1236 48.3324 57.4478 46.9733C57.6068 46.2938 59.6828 44.5731 63.9159 47.6965C66.0542 49.2706 68.2486 51.2905 67.9369 51.914Z" fill="#DB6A1D"/>
<path d="M27.4765 51.914C27.7883 52.5374 30.5064 51.3498 32.8816 50.159C35.2569 48.9683 38.2742 48.3324 37.9625 46.9733C37.8004 46.2938 35.7276 44.5731 31.4945 47.6965C29.3562 49.2706 27.1648 51.2905 27.4765 51.914Z" fill="#DB6A1D"/>
<path d="M71.6273 74.4883C71.6273 74.4883 69.9004 72.244 64.0527 71.0034C61.1625 70.3804 58.4099 69.2365 55.9295 67.6275C55.162 67.1252 54.4818 66.5008 53.9158 65.7791C51.3629 62.5373 48.6572 62.1694 48.0961 62.1289H47.987C47.4228 62.1725 44.6798 62.5466 42.1144 65.8882C41.6272 66.5163 41.0408 67.0606 40.3782 67.4997C37.8658 69.1733 35.0618 70.3606 32.1116 71.0002C26.2888 72.2471 24.5681 74.4852 24.5681 74.4852C24.5681 74.4852 22.1835 76.6329 32.0648 76.6329C41.9461 76.6329 44.5333 78.7307 44.5333 78.7307C44.5333 78.7307 46.7153 79.3354 48.0619 79.0424C49.4084 79.3541 51.6029 78.7307 51.6029 78.7307C51.6029 78.7307 54.1932 76.6329 64.1181 76.6329C74.043 76.6329 71.6273 74.4883 71.6273 74.4883Z" fill="#DB6A1D"/>
<path d="M53.8063 68.4183C54.1578 68.0305 53.7975 67.1314 53.0016 66.4099C52.2056 65.6885 51.2755 65.418 50.924 65.8057C50.5725 66.1935 50.9328 67.0927 51.7287 67.8141C52.5247 68.5356 53.4548 68.8061 53.8063 68.4183Z" fill="#BC5B19"/>
<path d="M44.1966 67.803C44.9926 67.0815 45.3528 66.1823 45.0014 65.7946C44.6499 65.4068 43.7197 65.6773 42.9238 66.3988C42.1279 67.1202 41.7676 68.0194 42.1191 68.4072C42.4705 68.7949 43.4007 68.5244 44.1966 67.803Z" fill="#BC5B19"/>
<path d="M34.0164 59.1319C34.5191 59.1319 34.9266 58.7244 34.9266 58.2217C34.9266 57.719 34.5191 57.3115 34.0164 57.3115C33.5137 57.3115 33.1062 57.719 33.1062 58.2217C33.1062 58.7244 33.5137 59.1319 34.0164 59.1319Z" fill="white"/>
<path d="M55.4239 59.1319C55.9266 59.1319 56.3341 58.7244 56.3341 58.2217C56.3341 57.719 55.9266 57.3115 55.4239 57.3115C54.9212 57.3115 54.5137 57.719 54.5137 58.2217C54.5137 58.7244 54.9212 59.1319 55.4239 59.1319Z" fill="white"/>
<path d="M30.6826 76.1569C30.6826 76.1569 37.2286 75.3932 40.2771 74.8695C43.3257 74.3459 44.906 72.5785 48.4128 72.8652H48.4533C51.9601 72.5785 53.4968 74.349 56.5578 74.8727C59.6188 75.3963 66.1523 76.16 66.1523 76.16C66.1523 76.16 46.9477 74.9537 30.6826 76.1569Z" fill="#3C1808"/>
<path d="M127.053 33.0002C131.041 33.0002 134.442 33.8215 137.259 35.4643C140.075 37.1071 141.478 38.8503 141.469 40.694C141.479 41.1449 141.362 41.5895 141.131 41.9768C140.943 42.3014 140.664 42.5638 140.329 42.7317C140.005 42.8812 139.653 42.9575 139.296 42.9551C138.694 42.9551 137.787 42.647 136.588 42.0276C135.39 41.4082 134.04 40.7854 132.567 40.1659C131.288 39.5902 129.907 39.2739 128.505 39.2351C126.524 39.2351 125.535 40.0396 125.537 41.6485C125.541 42.1652 125.708 42.6674 126.014 43.0837C126.441 43.6367 126.96 44.1129 127.547 44.4918C128.251 44.977 128.939 45.4035 129.609 45.7713C130.279 46.1391 131.201 46.6333 132.374 47.2538C133.55 47.8767 134.539 48.4216 135.343 48.8888C137.922 50.3646 139.727 51.7727 140.759 53.1131C141.789 54.4318 142.339 56.0631 142.316 57.7368C142.316 64.6758 137.64 68.1453 128.289 68.1453C126.489 68.1505 124.694 67.9656 122.934 67.5936C121.376 67.2789 119.859 66.7895 118.412 66.1347C117.205 65.5832 116.058 64.9095 114.99 64.1241C114.118 63.505 113.361 62.7387 112.752 61.8596C112.297 61.228 112.036 60.4776 112.001 59.7C111.985 59.0001 112.246 58.3223 112.728 57.8147C113.212 57.2934 113.927 57.0328 114.864 57.0328C115.568 57.0328 117.261 57.4773 119.942 58.3664C122.622 59.2555 124.784 59.7 126.427 59.7C127.932 59.7 128.686 59.1799 128.688 58.1396C128.692 57.8535 128.632 57.5702 128.512 57.3103C128.371 57.0181 128.173 56.7569 127.93 56.5419C127.631 56.2816 127.312 56.0461 126.975 55.8379C126.623 55.6122 126.137 55.3358 125.516 55.0086L123.655 53.9931L121.218 52.6866C120.211 52.1518 119.239 51.6158 118.3 51.0788C117.091 50.4001 116.011 49.5145 115.108 48.4623C114.296 47.5466 113.641 46.5022 113.172 45.3719C112.795 44.4714 112.59 43.508 112.569 42.5319C112.569 39.7157 113.826 37.4197 116.34 35.6437C118.854 33.8678 122.425 32.9866 127.053 33.0002Z" fill="#FF3E20"/>
<path d="M166.922 60.2638C166.922 62.1729 166.688 63.6927 166.218 64.8131C165.868 65.7956 165.184 66.6237 164.285 67.152C163.273 67.6289 162.16 67.8531 161.042 67.8053C159.063 67.8053 157.63 67.2773 156.743 66.2212C155.857 65.1651 155.392 63.2922 155.349 60.6023L155.247 42.0498H150.986C148.874 42.0498 147.294 41.7113 146.247 41.0344C145.2 40.3574 144.672 39.1671 144.663 37.4633C144.617 36.598 144.836 35.7393 145.292 35.0025C145.752 34.3685 146.419 33.9148 147.178 33.7197C148.277 33.4376 149.411 33.3111 150.546 33.3439H172.063C173.941 33.3439 175.295 33.6824 176.125 34.3594C176.956 35.0364 177.374 36.1918 177.381 37.8255C177.381 38.9312 177.138 39.7944 176.653 40.4149C176.162 41.0393 175.483 41.4891 174.717 41.6978C173.699 41.9546 172.649 42.0685 171.6 42.0363H166.922V60.2638Z" fill="#FF3E20"/>
<path d="M205.586 66.1065C202.797 67.4147 199.754 68.0929 196.674 68.0929C193.593 68.0929 190.55 67.4147 187.761 66.1065C185.124 64.7765 182.931 62.7062 181.452 60.1491C179.872 57.5021 179.083 54.3858 179.083 50.8001C179.083 45.3685 180.716 41.0528 183.984 37.8529C187.251 34.6531 191.484 33.0521 196.68 33.0498C201.871 33.0498 206.111 34.6508 209.401 37.8529C212.691 41.055 214.335 45.3662 214.333 50.7865C214.333 54.37 213.543 57.4863 211.963 60.1356C210.463 62.703 208.247 64.7778 205.586 66.1065ZM196.687 60.755C197.261 60.7487 197.825 60.609 198.336 60.347C198.846 60.085 199.289 59.7078 199.629 59.2453C200.491 58.154 201.092 56.8807 201.389 55.522C201.75 53.9686 201.928 52.378 201.917 50.7831C201.925 49.1489 201.739 47.5195 201.362 45.9293C201.045 44.5204 200.438 43.1933 199.578 42.0333C198.757 40.9591 197.793 40.4232 196.687 40.4254C195.582 40.4277 194.643 40.9636 193.871 42.0333C193.017 43.2102 192.402 44.543 192.06 45.9563C191.653 47.5339 191.451 49.1573 191.458 50.7865C191.446 52.3844 191.641 53.9771 192.036 55.5254C192.363 56.8831 192.981 58.1536 193.847 59.2487C194.666 60.2529 195.613 60.755 196.687 60.755Z" fill="#FF3E20"/>
<path d="M231.579 60.2647C231.579 65.2901 229.618 67.8039 225.696 67.8062C223.72 67.8062 222.27 67.2781 221.347 66.2221C220.424 65.166 219.964 63.293 219.966 60.6032V39.3868C219.966 37.4439 220.494 35.9602 221.55 34.9357C222.606 33.9112 223.988 33.4001 225.696 33.4024H236.247C240.37 33.4024 243.705 34.3659 246.253 36.293C248.8 38.2201 250.074 40.6922 250.074 43.7093C250.074 45.9907 249.597 47.7756 248.642 49.0641C247.688 50.3527 246.155 51.2993 244.042 51.9041C245.651 52.0056 247.143 52.7853 248.517 54.243C249.897 55.7188 250.638 57.6799 250.579 59.6994C250.579 61.9086 250.369 63.609 249.949 64.8004C249.529 65.9919 248.935 66.7885 248.165 67.1902C247.393 67.5918 246.304 67.7927 244.895 67.7927C242.919 67.7927 241.469 67.382 240.546 66.5606C239.623 65.7392 239.163 64.4913 239.165 62.8169C239.165 60.7386 238.964 59.1375 238.562 58.0138C238.161 56.89 237.64 56.1611 237.002 55.8271C236.166 55.4509 235.253 55.278 234.338 55.3228L231.573 55.3736L231.579 60.2647ZM239.273 43.3708C239.273 41.7641 238.686 40.6584 237.513 40.0536C236.34 39.4489 234.362 39.1476 231.579 39.1499V47.8456C234.192 47.8456 236.127 47.5195 237.384 46.8674C238.641 46.2152 239.271 45.0452 239.273 43.3573V43.3708Z" fill="#FFAB03"/>
<path d="M268.229 60.2642C268.229 62.8774 267.743 64.7876 266.771 65.9948C265.798 67.2021 264.323 67.8057 262.347 67.8057C260.404 67.8057 258.971 67.2867 258.048 66.2487C257.125 65.2107 256.664 63.3501 256.667 60.667V39.3863C256.667 35.3651 258.56 33.3545 262.347 33.3545C264.289 33.3545 265.756 33.7223 266.747 34.458C267.738 35.1936 268.232 36.6875 268.229 38.9395V60.2642Z" fill="#FFAB03"/>
<path d="M304.127 70.1567C305.433 70.2244 306.406 70.6272 307.044 71.3651C307.683 72.103 308.001 73.3442 307.999 75.0885C307.999 77.0991 307.463 78.4813 306.391 79.235C305.319 79.9887 303.811 80.3655 301.866 80.3655C299.998 80.3785 298.139 80.0987 296.358 79.5362C294.944 79.1251 293.591 78.525 292.337 77.7524C291.416 77.1438 290.564 76.4354 289.798 75.6402C289.244 75.0672 288.779 74.4146 288.417 73.7041C287.963 72.8313 287.6 71.9135 287.334 70.9657C287.032 69.9164 286.847 68.8368 286.783 67.7467C282.694 66.9795 279.383 65.1189 276.851 62.1651C274.319 59.2112 273.055 55.4404 273.057 50.8528C273.057 45.3919 274.708 41.0683 278.009 37.882C281.31 34.6957 285.555 33.1025 290.743 33.1025C295.906 33.1025 300.121 34.6946 303.389 37.8786C306.656 41.0626 308.29 45.3862 308.29 50.8494C308.29 55.243 307.143 58.8885 304.848 61.7859C302.546 64.689 299.321 66.7191 295.708 67.5402C297.099 69.0499 299.905 69.9221 304.127 70.1567ZM295.38 55.5781C295.726 54.0226 295.895 52.4328 295.881 50.8393C295.89 49.1987 295.713 47.5623 295.353 45.9617C295.059 44.5628 294.468 43.2433 293.62 42.0928C292.814 41.0367 291.859 40.5086 290.753 40.5086C289.647 40.5086 288.684 41.0446 287.862 42.1165C286.999 43.2779 286.383 44.6038 286.051 46.0124C285.659 47.5992 285.466 49.2285 285.476 50.863C285.474 51.8222 285.541 52.7803 285.676 53.73C285.803 54.6498 286.014 55.5562 286.305 56.4379C286.553 57.2218 286.894 57.973 287.321 58.6753C287.699 59.2867 288.205 59.8096 288.803 60.2086C289.377 60.5901 290.051 60.7917 290.739 60.7874C291.31 60.783 291.872 60.644 292.379 60.3817C292.886 60.1194 293.324 59.7412 293.657 59.2778C294.505 58.1911 295.094 56.926 295.38 55.5781Z" fill="#235390"/>
<path d="M333.054 60.1487H324.707V62.816C324.707 64.5265 324.255 65.7834 323.353 66.5867C322.45 67.3901 320.892 67.7917 318.678 67.7917C317.888 67.8203 317.101 67.6831 316.366 67.3889C315.724 67.0911 315.176 66.6228 314.782 66.035C314.247 65.1894 313.9 64.2379 313.767 63.2458C313.52 61.7812 313.352 60.3044 313.263 58.8218C313.143 57.0955 313.084 54.9078 313.086 52.2585C313.067 50.1167 313.312 47.9806 313.814 45.8984C314.218 44.1752 314.88 42.5228 315.777 40.9971C316.558 39.7059 317.495 38.5156 318.567 37.4531C319.549 36.4689 320.694 35.6616 321.951 35.0668C323.096 34.5235 324.291 34.0938 325.519 33.7839C326.663 33.5012 327.837 33.358 329.016 33.3574C330.425 33.3586 331.828 33.5522 333.186 33.9328C334.673 34.3723 336.081 35.0428 337.359 35.9198C338.778 36.8692 340.028 38.05 341.056 39.413C342.232 41.0511 343.109 42.8847 343.645 44.8288C344.348 47.2477 344.69 49.7568 344.661 52.2755C344.661 56.6984 344.502 59.9704 344.183 62.0916C343.865 64.2128 343.329 65.6965 342.576 66.5427C341.82 67.3799 340.654 67.7985 339.079 67.7985C336.868 67.7985 335.309 67.3968 334.404 66.5935C333.5 65.7901 333.048 64.5332 333.05 62.8227L333.054 60.1487ZM328.931 41.5488C327.489 41.5488 326.425 41.9674 325.739 42.8046C325.053 43.6418 324.715 45.1334 324.724 47.2794V53.2131H333.054V47.1779C333.093 46.0283 332.922 44.8812 332.55 43.793C332.314 43.0603 331.824 42.436 331.169 42.0329C330.469 41.6854 329.694 41.519 328.914 41.5488H328.931Z" fill="#235390"/>
<path d="M377.48 33C381.467 33 384.869 33.8214 387.685 35.4642C390.502 37.107 391.91 38.8502 391.91 40.6938C391.921 41.1449 391.804 41.59 391.571 41.9767C391.383 42.3013 391.104 42.5637 390.769 42.7315C390.451 42.8787 390.104 42.9549 389.753 42.9549C389.151 42.9549 388.248 42.6458 387.046 42.0275C385.841 41.408 384.497 40.7852 383.024 40.1658C381.745 39.5901 380.365 39.2737 378.962 39.2349C376.983 39.2349 375.994 40.0394 375.994 41.6483C375.998 42.1656 376.166 42.6683 376.475 43.0835C376.902 43.6366 377.421 44.1128 378.008 44.4916C378.673 44.9534 379.361 45.3804 380.069 45.7711C380.746 46.1412 381.668 46.6354 382.835 47.2537C384.001 47.872 384.99 48.417 385.8 48.8886C388.379 50.3644 390.184 51.7725 391.216 53.1129C392.247 54.4316 392.796 56.063 392.773 57.7367C392.773 64.6756 388.097 68.1451 378.746 68.1451C376.946 68.1502 375.152 67.9652 373.391 67.5934C371.834 67.2787 370.317 66.7893 368.869 66.1345C367.663 65.5831 366.518 64.9094 365.45 64.1239C364.577 63.5068 363.819 62.7401 363.213 61.8594C362.756 61.2288 362.493 60.478 362.458 59.6999C362.443 59.0002 362.705 58.323 363.186 57.8145C363.673 57.2932 364.385 57.0326 365.321 57.0326C366.025 57.0326 367.718 57.4771 370.399 58.3662C373.08 59.2553 375.241 59.6999 376.884 59.6999C378.389 59.6999 379.143 59.1797 379.145 58.1394C379.149 57.8533 379.089 57.57 378.969 57.3102C378.821 57.021 378.616 56.7644 378.367 56.5553C378.062 56.2989 377.737 56.068 377.395 55.8648C377.043 55.6392 376.557 55.3627 375.936 55.0355L374.075 54.0201L371.638 52.7135C370.633 52.1787 369.661 51.6427 368.72 51.1057C367.512 50.4258 366.432 49.5404 365.528 48.4892C364.716 47.5743 364.062 46.5297 363.595 45.3988C363.217 44.4985 363.011 43.5351 362.989 42.5589C362.989 39.7427 364.246 37.4466 366.76 35.6707C369.274 33.8947 372.847 33.0045 377.48 33Z" fill="#1DB700"/>
<path d="M417.953 42.8064C417.952 42.4577 417.873 42.1138 417.72 41.8003C417.568 41.4867 417.347 41.2116 417.073 40.9955C416.494 40.4963 415.752 40.2276 414.988 40.2407C413.377 40.2407 412.052 41.1546 411.014 42.9824C409.958 44.8786 409.421 47.02 409.457 49.1903C409.433 50.847 409.78 52.4882 410.473 53.9934C411.107 55.373 412.117 56.5461 413.387 57.3782C414.703 58.2301 416.244 58.6687 417.811 58.6374C419.039 58.6401 420.254 58.3913 421.382 57.9063C422.376 57.5058 423.308 56.9643 424.148 56.2985C424.843 55.718 425.573 55.181 426.334 54.6907C426.914 54.2642 427.603 54.0107 428.321 53.9595C428.684 53.9594 429.043 54.038 429.372 54.1899C429.702 54.3419 429.995 54.5635 430.23 54.8396C430.723 55.3256 431.012 55.9822 431.036 56.6742C430.999 57.5303 430.784 58.3694 430.406 59.1384C429.891 60.2259 429.222 61.2336 428.419 62.1306C427.478 63.22 426.417 64.1989 425.254 65.0484C423.88 66.0185 422.361 66.7646 420.752 67.2587C418.926 67.85 417.016 68.1471 415.096 68.1388C412.625 68.1629 410.168 67.7634 407.832 66.9575C405.695 66.2243 403.722 65.0801 402.024 63.5895C400.337 62.0675 399.015 60.1852 398.155 58.0823C397.186 55.7212 396.707 53.1876 396.747 50.6356C396.747 45.2063 398.372 40.9187 401.621 37.7731C404.871 34.6274 409.128 33.0478 414.392 33.0342C416.938 33.0083 419.465 33.4678 421.839 34.3882C423.932 35.1703 425.795 36.4671 427.255 38.1589C428.538 39.6199 429.252 41.4946 429.265 43.4393C429.269 45.6423 428.484 47.7737 427.052 49.4475C426.371 50.3103 425.499 51.0027 424.504 51.4698C423.51 51.9369 422.42 52.1658 421.321 52.1385C420.029 52.1537 418.765 51.7669 417.703 51.0316C417.184 50.687 416.763 50.2143 416.481 49.6592C416.199 49.1041 416.064 48.4855 416.092 47.8634C416.092 47.227 416.402 46.3391 417.022 45.1995C417.642 44.0791 417.953 43.2769 417.953 42.8064Z" fill="#1DB700"/>
<path d="M469.888 60.2647C469.888 62.9726 469.403 64.9087 468.433 66.0731C467.462 67.2375 465.986 67.8152 464.005 67.8062C462.062 67.8062 460.638 67.2781 459.733 66.2221C458.829 65.166 458.377 63.2975 458.379 60.6167L458.329 54.9369H448.073V60.2647C448.073 63.0132 447.603 64.9573 446.664 66.0968C445.726 67.2364 444.234 67.8005 442.19 67.7893C440.247 67.7893 438.823 67.2612 437.918 66.2051C437.013 65.1491 436.562 63.2806 436.564 60.5998L436.412 39.3834C436.412 37.3051 436.94 35.7797 437.996 34.8071C439.052 33.8345 440.451 33.3493 442.193 33.3516C444.204 33.3516 445.687 33.7194 446.644 34.455C447.601 35.1907 448.078 36.6823 448.076 38.9298V47.392H458.281V39.3868C458.236 38.1749 458.504 36.9718 459.06 35.8936C459.506 35.0431 460.21 34.3558 461.07 33.9304C461.997 33.5263 463.001 33.3299 464.012 33.355C465.959 33.355 467.426 33.7228 468.412 34.4584C469.398 35.1941 469.893 36.6857 469.895 38.9332L469.888 60.2647Z" fill="#1DB700"/>
<path d="M501.62 66.1065C498.831 67.4147 495.788 68.0929 492.708 68.0929C489.627 68.0929 486.585 67.4147 483.796 66.1065C481.158 64.7765 478.965 62.7062 477.486 60.1491C475.907 57.5021 475.117 54.3858 475.117 50.8001C475.117 45.3685 476.75 41.0528 480.018 37.8529C483.286 34.6531 487.518 33.0521 492.715 33.0498C497.905 33.0498 502.145 34.6508 505.435 37.8529C508.725 41.055 510.367 45.3662 510.36 50.7865C510.36 54.37 509.57 57.4863 507.991 60.1356C506.492 62.702 504.278 64.7767 501.62 66.1065ZM492.721 60.755C493.295 60.7487 493.86 60.609 494.37 60.347C494.881 60.085 495.323 59.7078 495.663 59.2453C496.525 58.154 497.127 56.8807 497.423 55.522C497.784 53.9686 497.962 52.378 497.951 50.7831C497.959 49.1489 497.773 47.5195 497.396 45.9293C497.08 44.5204 496.472 43.1933 495.612 42.0333C494.791 40.9591 493.827 40.4232 492.721 40.4254C491.616 40.4277 490.677 40.9636 489.905 42.0333C489.051 43.2102 488.436 44.543 488.094 45.9563C487.689 47.5331 487.487 49.1551 487.492 50.7831C487.481 52.3811 487.675 53.9738 488.071 55.522C488.397 56.8797 489.015 58.1502 489.882 59.2453C490.696 60.2518 491.641 60.755 492.715 60.755H492.721Z" fill="#1DB700"/>
<path d="M542.086 66.1065C539.297 67.4147 536.254 68.0929 533.174 68.0929C530.093 68.0929 527.05 67.4147 524.261 66.1065C521.623 64.7775 519.43 62.707 517.952 60.1491C516.372 57.5021 515.583 54.3858 515.583 50.8001C515.583 45.3685 517.216 41.0528 520.484 37.8529C523.751 34.6531 527.984 33.0521 533.18 33.0498C538.371 33.0498 542.611 34.6508 545.901 37.8529C549.191 41.055 550.835 45.3662 550.833 50.7865C550.833 54.37 550.037 57.4863 548.446 60.1356C546.95 62.7005 544.74 64.7751 542.086 66.1065ZM533.187 60.755C533.764 60.7517 534.331 60.6138 534.845 60.3523C535.358 60.0908 535.804 59.7129 536.146 59.2487C537.007 58.1574 537.609 56.884 537.906 55.5254C538.619 52.3711 538.61 49.0964 537.879 45.9462C537.562 44.5373 536.955 43.2103 536.095 42.0502C535.271 40.976 534.308 40.4401 533.204 40.4424C532.101 40.4446 531.162 40.9806 530.388 42.0502C529.534 43.2271 528.919 44.5599 528.577 45.9733C528.17 47.5498 527.968 49.172 527.975 50.8001C527.963 52.398 528.158 53.9907 528.553 55.5389C528.88 56.8959 529.497 58.1661 530.361 59.2623C531.173 60.2574 532.115 60.755 533.187 60.755Z" fill="#1DB700"/>
<path d="M563.099 67.7945C561.821 67.8151 560.552 67.5671 559.376 67.0668C558.425 66.5995 557.675 65.805 557.264 64.8294C556.796 63.7891 556.562 62.3979 556.56 60.6558V39.3887C556.56 37.6127 557.08 36.1629 558.12 35.0391C559.16 33.9153 560.535 33.3512 562.243 33.3467C564.253 33.3467 565.736 33.7145 566.69 34.4502C567.645 35.1858 568.123 36.6774 568.126 38.925V59.0853H576.723C578.666 59.0853 580.031 59.3707 580.819 59.9416C581.606 60.5125 582 61.686 582 63.4619C582 65.2672 581.549 66.4395 580.646 66.9788C579.744 67.5181 578.269 67.7866 576.222 67.7844L563.099 67.7945Z" fill="#1DB700"/>
<defs>
<linearGradient id="paint0_linear_201_2" x1="-11.8758" y1="56.1031" x2="42.4961" y2="56.1031" gradientUnits="userSpaceOnUse">
<stop stop-color="#000061"/>
<stop offset="1" stop-color="#235390" stop-opacity="0"/>
</linearGradient>
</defs>
</svg>
