<svg width="65" height="65" viewBox="0 0 65 65" fill="none" xmlns="http://www.w3.org/2000/svg">
<path d="M40.199 0H24.4763C10.9584 0 0 10.9584 0 24.4763V40.199C0 53.7169 10.9584 64.6753 24.4763 64.6753H40.199C53.7169 64.6753 64.6753 53.7169 64.6753 40.199V24.4763C64.6753 10.9584 53.7169 0 40.199 0Z" fill="#235390"/>
<path d="M49.6806 39.2056C49.6806 28.6354 42.4861 20.3447 32.6085 20.3447H32.3374H32.0664C22.1868 20.3447 15.2594 28.9144 15.2594 39.4846C15.2594 40.6718 14.2819 41.8451 14.4679 42.9769C14.0722 46.6672 13.5736 50.1794 16.688 53.7469C21.1005 58.8005 27.185 58.6303 32.3196 58.6244C37.4543 58.6184 43.5447 58.8005 47.9513 53.7469C51.0657 50.1853 50.577 46.6672 50.1713 42.9769C50.391 41.8451 49.6806 40.3987 49.6806 39.2056Z" fill="#000061"/>
<path d="M47.8133 37.4684C47.8133 26.8983 39.8056 18.3286 29.928 18.3286H29.6569H29.3858C19.5082 18.3286 11.5005 26.8983 11.5005 37.4684C11.5004 38.6389 11.5997 39.8072 11.7973 40.9608C11.4016 44.6511 10.9049 48.1632 14.0194 51.7308C18.4318 56.7844 24.5064 56.6142 29.651 56.6063C34.7956 56.5984 40.8761 56.7844 45.2826 51.7308C48.397 48.1692 47.9103 44.6511 47.5047 40.9608C47.7062 39.8075 47.8095 38.6392 47.8133 37.4684Z" fill="url(#paint0_linear_121_7862)"/>
<path d="M17.3125 26.6451C17.3125 26.6451 19.3842 23.4792 21.6656 20.3905C23.5493 17.8499 24.8691 16.1838 27.1762 13.4414C28.2012 12.2245 29.8297 10.9878 31.0287 9.13179C31.0728 9.06443 31.133 9.00911 31.2038 8.97082C31.2746 8.93253 31.3539 8.91248 31.4344 8.91248C31.5149 8.91248 31.5941 8.93253 31.6649 8.97082C31.7358 9.00911 31.7959 9.06443 31.84 9.13179C32.2357 9.7254 32.2179 10.5169 32.5405 11.6922C32.5405 11.6922 33.4487 9.04078 36.2367 7.93271C36.2367 7.93271 39.1611 6.73165 39.6004 7.18872C40.0397 7.6458 39.4718 9.92524 39.4718 9.92524C39.4718 9.92524 42.798 7.66954 44.2543 7.6735C44.3557 7.67503 44.454 7.70875 44.5351 7.76978C44.6161 7.83081 44.6757 7.916 44.7052 8.01307C44.7347 8.11014 44.7326 8.21407 44.6992 8.30987C44.6658 8.40567 44.6029 8.48839 44.5194 8.5461L44.5036 8.55797C43.9852 8.90028 42.9543 10.1073 42.3488 12.8497C42.3488 12.8497 41.4188 15.4616 43.3223 19.5931C45.398 24.1025 46.599 25.543 46.599 25.543L17.3125 26.6451Z" fill="#FFAB03"/>
<path d="M50.4935 37.4684C50.4935 26.8983 42.4858 18.3286 32.6082 18.3286H32.3371H32.066C22.1865 18.3286 14.1787 26.8983 14.1787 37.4684C14.1783 38.639 14.2782 39.8074 14.4775 40.9608C14.0818 44.6511 13.5831 48.1632 16.6976 51.7308C21.11 56.7844 27.1945 56.6142 32.3292 56.6063C37.4639 56.5984 43.5543 56.7844 47.9608 51.7308C51.0753 48.1692 50.5865 44.6511 50.1809 40.9608C50.3848 39.8078 50.4894 38.6394 50.4935 37.4684Z" fill="#FFAB03"/>
<path d="M44.8804 40.251C44.8804 43.2566 42.3616 45.3125 39.6923 45.3125C37.0231 45.3125 34.8584 42.8767 34.8584 39.8711C34.8584 36.8655 35.6974 33.6719 38.3686 33.6719C39.6429 33.6719 41.4395 34.313 42.7039 35.4942C44.089 36.7764 44.8804 38.6681 44.8804 40.251Z" fill="#D1D0CF"/>
<path d="M42.6797 40.6465C42.6797 42.7795 41.0433 44.4752 39.1715 44.4752C37.2997 44.4752 35.3823 42.8843 35.3823 40.7513C35.3823 38.6183 36.6744 36.4912 38.5482 36.4912C40.422 36.4912 42.6797 38.5154 42.6797 40.6465Z" fill="#080808"/>
<path d="M18.5435 40.251C18.5435 43.2566 21.0623 45.3125 23.7316 45.3125C26.4008 45.3125 28.5655 42.8767 28.5655 39.8711C28.5655 36.8655 27.7265 33.6719 25.0573 33.6719C23.781 33.6719 21.9844 34.313 20.72 35.4942C19.3389 36.7764 18.5435 38.6681 18.5435 40.251Z" fill="#D1D0CF"/>
<path d="M20.7402 40.6461C20.7402 42.7791 22.3766 44.4749 24.2484 44.4749C26.1203 44.4749 28.0455 42.8801 28.0455 40.747C28.0455 38.614 26.7455 36.479 24.8796 36.479C23.0137 36.479 20.7402 38.5151 20.7402 40.6461Z" fill="#080808"/>
<path d="M45.3762 34.6728C45.1684 35.0903 43.352 34.2969 41.7651 33.5014C40.1782 32.706 38.152 32.2826 38.3697 31.3743C38.4765 30.9212 39.8616 29.7716 42.6911 31.8552C44.1197 32.9098 45.584 34.2573 45.3762 34.6728Z" fill="#DB6A1D"/>
<path d="M18.3513 34.6728C18.5492 35.0903 20.3755 34.2969 21.9624 33.5014C23.5493 32.706 25.5735 32.2826 25.3579 31.3743C25.251 30.9212 23.8659 29.7716 21.0364 31.8552C19.6078 32.9098 18.1436 34.2573 18.3513 34.6728Z" fill="#DB6A1D"/>
<path d="M47.8479 49.7487C47.8479 49.7487 46.6963 48.2508 42.7884 47.4217C40.857 47.0076 39.0176 46.2438 37.3609 45.168C36.8476 44.8332 36.3924 44.4168 36.0134 43.9353C34.3078 41.7706 32.5012 41.5253 32.1272 41.4976H32.056C31.6781 41.5253 29.8438 41.7766 28.1323 44.0065C27.8065 44.4262 27.4149 44.7903 26.9728 45.0849C25.2934 46.2039 23.4187 46.9973 21.4463 47.4237C17.5582 48.2528 16.4105 49.7487 16.4105 49.7487C16.4105 49.7487 14.8177 51.1832 21.4166 51.1832C28.0155 51.1832 29.737 52.5861 29.737 52.5861C29.737 52.5861 31.1973 52.9819 32.0936 52.784C32.9939 52.9819 34.468 52.5861 34.468 52.5861C34.468 52.5861 36.1974 51.1832 42.826 51.1832C49.4546 51.1832 47.8479 49.7487 47.8479 49.7487Z" fill="#DB6A1D"/>
<path d="M35.941 45.6884C36.1758 45.4293 35.9356 44.829 35.4045 44.3475C34.8733 43.8661 34.2524 43.6858 34.0175 43.9449C33.7827 44.204 34.0229 44.8044 34.554 45.2858C35.0852 45.7672 35.7061 45.9475 35.941 45.6884Z" fill="#BC5B19"/>
<path d="M29.5207 45.2863C30.0519 44.8048 30.292 44.2045 30.0572 43.9454C29.8223 43.6863 29.2014 43.8665 28.6702 44.348C28.1391 44.8294 27.8989 45.4298 28.1337 45.6889C28.3686 45.948 28.9896 45.7677 29.5207 45.2863Z" fill="#BC5B19"/>
<path d="M22.7188 39.4869C23.0543 39.4869 23.3262 39.2149 23.3262 38.8794C23.3262 38.5439 23.0543 38.272 22.7188 38.272C22.3833 38.272 22.1113 38.5439 22.1113 38.8794C22.1113 39.2149 22.3833 39.4869 22.7188 39.4869Z" fill="white"/>
<path d="M37.0171 39.4869C37.3526 39.4869 37.6246 39.2149 37.6246 38.8794C37.6246 38.5439 37.3526 38.272 37.0171 38.272C36.6816 38.272 36.4097 38.5439 36.4097 38.8794C36.4097 39.2149 36.6816 39.4869 37.0171 39.4869Z" fill="white"/>
<path d="M20.4922 50.8659C20.4922 50.8659 24.8591 50.3554 26.8992 50.0052C28.9392 49.655 29.9919 48.4757 32.3366 48.6656H32.3623C34.7051 48.4678 35.7261 49.655 37.772 50.0072C39.818 50.3594 44.179 50.8679 44.179 50.8679C44.179 50.8679 31.3552 50.0606 20.4922 50.8659Z" fill="#3C1808"/>
<defs>
<linearGradient id="paint0_linear_121_7862" x1="-7.9302" y1="37.4684" x2="28.3846" y2="37.4684" gradientUnits="userSpaceOnUse">
<stop stop-color="#000061"/>
<stop offset="1" stop-color="#235390" stop-opacity="0"/>
</linearGradient>
</defs>
</svg>
