<svg width="280" height="29" viewBox="0 0 280 29" fill="none" xmlns="http://www.w3.org/2000/svg">
<path d="M8.96787 9.15444e-05C11.3433 9.15444e-05 13.3699 0.489433 15.0477 1.46812C16.7254 2.4468 17.5616 3.4853 17.5562 4.58363C17.5622 4.85228 17.4923 5.11715 17.3546 5.34789C17.2426 5.54126 17.0765 5.6976 16.8767 5.79758C16.6839 5.88669 16.4739 5.93213 16.2616 5.93067C15.9027 5.93067 15.3622 5.74717 14.6484 5.37814C13.9345 5.00912 13.13 4.63808 12.2528 4.26906C11.4907 3.92609 10.6683 3.73761 9.83296 3.71451C8.65262 3.71451 8.06312 4.19378 8.06446 5.15229C8.067 5.4601 8.16649 5.75927 8.34879 6.0073C8.60344 6.33677 8.91235 6.62046 9.26228 6.84617C9.68171 7.13521 10.0911 7.38928 10.4903 7.60841C10.8896 7.82754 11.4388 8.12195 12.1378 8.49165C12.8382 8.86269 13.4277 9.18735 13.9063 9.46563C15.4429 10.3448 16.5184 11.1837 17.1327 11.9822C17.7469 12.7678 18.0742 13.7397 18.0603 14.7368C18.0603 18.8707 15.2749 20.9376 9.70389 20.9376C8.63191 20.9407 7.56259 20.8305 6.51376 20.6089C5.58591 20.4214 4.68218 20.1299 3.8197 19.7398C3.10096 19.4113 2.41782 19.0099 1.78099 18.542C1.26165 18.1732 0.810587 17.7167 0.448078 17.1929C0.177088 16.8167 0.0215337 16.3696 0.000410276 15.9064C-0.00909129 15.4894 0.146769 15.0856 0.43396 14.7832C0.722323 14.4726 1.14781 14.3174 1.70638 14.3174C2.12582 14.3174 3.13408 14.5822 4.73116 15.1119C6.32824 15.6416 7.61613 15.9064 8.59481 15.9064C9.49149 15.9064 9.9405 15.5965 9.94184 14.9768C9.94415 14.8063 9.90833 14.6375 9.83699 14.4827C9.75287 14.3087 9.63496 14.1531 9.49014 14.025C9.31235 13.8699 9.12216 13.7296 8.92148 13.6055C8.71177 13.4711 8.42206 13.3064 8.05237 13.1115L6.94328 12.5065L5.49139 11.7282C4.89181 11.4095 4.3124 11.0903 3.75315 10.7703C3.03297 10.366 2.38934 9.8384 1.85157 9.21155C1.3677 8.66603 0.977902 8.04385 0.698124 7.37046C0.473456 6.834 0.351693 6.26007 0.339184 5.6786C0.339184 4.00086 1.08799 2.63299 2.58559 1.57499C4.08319 0.516992 6.21061 -0.00797453 8.96787 9.15444e-05Z" fill="#120058"/>
<path d="M32.7193 16.2425C32.7193 17.3799 32.5802 18.2853 32.2999 18.9527C32.0917 19.5381 31.6841 20.0314 31.1484 20.3462C30.5455 20.6302 29.8826 20.7638 29.2166 20.7353C28.0376 20.7353 27.184 20.4208 26.6556 19.7916C26.1273 19.1625 25.8504 18.0467 25.8248 16.4442L25.7643 5.39166H23.2255C21.9672 5.39166 21.0262 5.19001 20.4024 4.7867C19.7786 4.3834 19.4641 3.67426 19.4587 2.65928C19.4311 2.14378 19.562 1.63219 19.8338 1.19326C20.1078 0.815529 20.505 0.54524 20.957 0.429003C21.612 0.260963 22.2874 0.185621 22.9634 0.205172H35.7824C36.9009 0.205172 37.7075 0.406824 38.2022 0.810127C38.6969 1.21343 38.9463 1.90174 38.9504 2.87505C38.9504 3.53378 38.8058 4.04798 38.5168 4.41768C38.2243 4.78964 37.8199 5.05761 37.3633 5.18194C36.7566 5.33493 36.1316 5.40279 35.5061 5.3836H32.7193V16.2425Z" fill="#120058"/>
<path d="M55.7532 19.7226C54.0917 20.502 52.279 20.906 50.4437 20.906C48.6085 20.906 46.7957 20.502 45.1342 19.7226C43.5628 18.9303 42.2566 17.6969 41.3754 16.1735C40.4344 14.5966 39.9639 12.7401 39.9639 10.6039C39.9639 7.36807 40.9372 4.79701 42.8838 2.89073C44.8304 0.984449 47.3517 0.0306412 50.4477 0.0292969C53.5397 0.0292969 56.0658 0.983104 58.0258 2.89073C59.9859 4.79836 60.9652 7.36673 60.9639 10.5959C60.9639 12.7307 60.4934 14.5872 59.5523 16.1655C58.6583 17.695 57.3382 18.931 55.7532 19.7226ZM50.4518 16.5345C50.7936 16.5308 51.1299 16.4475 51.434 16.2915C51.7381 16.1354 52.0018 15.9107 52.2041 15.6351C52.7176 14.985 53.0762 14.2264 53.2527 13.417C53.4681 12.4915 53.5737 11.544 53.5673 10.5938C53.5721 9.62023 53.4611 8.64952 53.2366 7.70215C53.0481 6.86285 52.6861 6.07225 52.1739 5.38114C51.6845 4.74123 51.1105 4.42195 50.4518 4.42329C49.7931 4.42464 49.2338 4.74392 48.774 5.38114C48.2653 6.08231 47.8988 6.87628 47.6952 7.71828C47.4528 8.65813 47.3321 9.62524 47.3363 10.5959C47.3296 11.5478 47.4455 12.4966 47.6811 13.419C47.8756 14.2278 48.2437 14.9847 48.7599 15.6371C49.2479 16.2354 49.8119 16.5345 50.4518 16.5345Z" fill="#120058"/>
<path d="M71.239 16.2433C71.239 19.2372 70.0708 20.7348 67.7343 20.7361C66.5566 20.7361 65.6929 20.4215 65.143 19.7924C64.5932 19.1632 64.319 18.0474 64.3203 16.445V3.80544C64.3203 2.64796 64.6349 1.76405 65.264 1.15372C65.8932 0.543388 66.7166 0.238894 67.7343 0.240239H74.0198C76.4759 0.240239 78.4628 0.81427 79.9806 1.96234C81.4984 3.11041 82.2572 4.58315 82.2572 6.38054C82.2572 7.73967 81.9729 8.80304 81.4043 9.57066C80.8356 10.3383 79.9221 10.9022 78.6638 11.2625C79.6223 11.323 80.5109 11.7875 81.3296 12.6559C82.1517 13.5351 82.5931 14.7035 82.5577 15.9066C82.5577 17.2227 82.4327 18.2356 82.1826 18.9455C81.9326 19.6553 81.5784 20.1298 81.1199 20.3691C80.6602 20.6084 80.0108 20.7281 79.172 20.7281C77.9943 20.7281 77.1306 20.4834 76.5807 19.994C76.0309 19.5047 75.7567 18.7613 75.758 17.7638C75.758 16.5256 75.6384 15.5718 75.3991 14.9023C75.1598 14.2329 74.8499 13.7986 74.4694 13.5997C73.9716 13.3755 73.4278 13.2725 72.8824 13.2992L71.235 13.3295L71.239 16.2433ZM75.8225 6.17889C75.8225 5.22171 75.473 4.56297 74.7739 4.20269C74.0749 3.84241 72.8966 3.66294 71.239 3.66428V8.84472C72.7957 8.84472 73.9485 8.65046 74.6973 8.26194C75.4461 7.87343 75.8212 7.17638 75.8225 6.17081V6.17889Z" fill="#120058"/>
<path d="M93.073 16.2432C93.073 17.8 92.7833 18.938 92.2039 19.6572C91.6245 20.3764 90.7459 20.736 89.5683 20.736C88.4108 20.736 87.5571 20.4268 87.0073 19.8084C86.4575 19.19 86.1832 18.0816 86.1846 16.4832V3.80535C86.1846 1.40973 87.3125 0.211914 89.5683 0.211914C90.7258 0.211914 91.5996 0.431044 92.1898 0.869301C92.7799 1.30756 93.0743 2.19751 93.073 3.53917V16.2432Z" fill="#120058"/>
<path d="M114.459 22.1354C115.237 22.1757 115.817 22.4157 116.197 22.8553C116.578 23.2949 116.767 24.0343 116.766 25.0734C116.766 26.2712 116.446 27.0947 115.808 27.5437C115.169 27.9927 114.271 28.2172 113.112 28.2172C111.999 28.2249 110.892 28.0582 109.831 27.7231C108.988 27.4782 108.182 27.1207 107.435 26.6604C106.886 26.2979 106.379 25.8759 105.923 25.4021C105.593 25.0607 105.315 24.672 105.1 24.2487C104.829 23.7287 104.613 23.182 104.455 22.6173C104.275 21.9922 104.164 21.349 104.126 20.6996C101.69 20.2425 99.7181 19.1341 98.2097 17.3744C96.7014 15.6146 95.9479 13.3682 95.9492 10.6352C95.9492 7.38185 96.9326 4.80609 98.8994 2.90787C100.866 1.00965 103.395 0.0605469 106.486 0.0605469C109.561 0.0605469 112.073 1.00898 114.019 2.90585C115.966 4.80272 116.939 7.37849 116.939 10.6332C116.939 13.2506 116.256 15.4224 114.888 17.1485C113.517 18.878 111.596 20.0874 109.444 20.5766C110.272 21.476 111.944 21.9956 114.459 22.1354ZM109.248 13.4502C109.455 12.5236 109.555 11.5764 109.547 10.6271C109.552 9.64972 109.447 8.67486 109.232 7.7213C109.057 6.8879 108.705 6.10186 108.2 5.41642C107.72 4.78727 107.15 4.47269 106.492 4.47269C105.833 4.47269 105.259 4.79197 104.769 5.43054C104.255 6.12244 103.888 6.91234 103.691 7.75155C103.457 8.69684 103.342 9.6675 103.348 10.6412C103.347 11.2127 103.386 11.7835 103.467 12.3492C103.543 12.8972 103.668 13.4372 103.842 13.9624C103.989 14.4294 104.192 14.877 104.447 15.2953C104.672 15.6596 104.974 15.9711 105.33 16.2088C105.672 16.4361 106.073 16.5562 106.484 16.5536C106.824 16.551 107.158 16.4682 107.46 16.3119C107.762 16.1557 108.023 15.9304 108.222 15.6543C108.727 15.0069 109.078 14.2532 109.248 13.4502Z" fill="#120058"/>
<path d="M131.691 16.1736H126.718V17.7626C126.718 18.7817 126.449 19.5305 125.912 20.0091C125.374 20.4876 124.446 20.7269 123.127 20.7269C122.656 20.7439 122.187 20.6622 121.75 20.487C121.367 20.3096 121.041 20.0306 120.806 19.6804C120.487 19.1766 120.28 18.6098 120.201 18.0187C120.054 17.1462 119.954 16.2664 119.9 15.3832C119.829 14.3547 119.794 13.0514 119.796 11.4731C119.784 10.1971 119.93 8.92454 120.229 7.68409C120.47 6.65751 120.864 5.67314 121.399 4.76417C121.864 3.99495 122.422 3.28586 123.06 2.65287C123.646 2.06654 124.328 1.58561 125.077 1.23123C125.759 0.907546 126.47 0.651563 127.202 0.466968C127.884 0.298529 128.583 0.213219 129.285 0.212891C130.125 0.213595 130.961 0.328925 131.77 0.555695C132.655 0.817495 133.494 1.21694 134.256 1.73939C135.101 2.30501 135.846 3.00846 136.458 3.82045C137.159 4.79635 137.681 5.88872 138.001 7.04688C138.419 8.48791 138.623 9.98275 138.606 11.4832C138.606 14.1181 138.511 16.0674 138.321 17.3311C138.132 18.5948 137.812 19.4787 137.363 19.9828C136.913 20.4816 136.219 20.731 135.28 20.731C133.963 20.731 133.035 20.4917 132.496 20.0131C131.956 19.5345 131.688 18.7857 131.689 17.7667L131.691 16.1736ZM129.235 5.09287C128.376 5.09287 127.742 5.34224 127.333 5.84099C126.925 6.33974 126.723 7.22836 126.728 8.50683V12.0418H131.691V8.44634C131.714 7.76149 131.613 7.07812 131.391 6.42982C131.25 5.99334 130.958 5.62142 130.568 5.38123C130.151 5.17423 129.69 5.07508 129.225 5.09287H129.235Z" fill="#120058"/>
<path d="M158.159 0C160.534 0 162.561 0.489342 164.238 1.46803C165.916 2.44671 166.755 3.48521 166.755 4.58354C166.762 4.8523 166.692 5.11745 166.553 5.3478C166.441 5.54117 166.275 5.69751 166.075 5.79749C165.886 5.88516 165.679 5.93056 165.471 5.93058C165.112 5.93058 164.574 5.7464 163.857 5.37805C163.139 5.00903 162.339 4.63799 161.462 4.26897C160.7 3.926 159.877 3.73752 159.042 3.71442C157.863 3.71442 157.273 4.19368 157.273 5.1522C157.276 5.46037 157.376 5.75982 157.56 6.0072C157.814 6.33668 158.123 6.62037 158.473 6.84608C158.869 7.12114 159.279 7.37556 159.701 7.60832C160.105 7.82879 160.654 8.12321 161.349 8.49156C162.044 8.85991 162.633 9.18457 163.115 9.46554C164.652 10.3447 165.727 11.1836 166.342 11.9821C166.956 12.7678 167.283 13.7396 167.269 14.7367C167.269 18.8706 164.484 20.9375 158.913 20.9375C157.841 20.9405 156.772 20.8303 155.723 20.6088C154.795 20.4214 153.891 20.1298 153.029 19.7397C152.311 19.4112 151.628 19.0098 150.992 18.5419C150.472 18.1742 150.02 17.7175 149.659 17.1928C149.387 16.8171 149.23 16.3699 149.209 15.9063C149.201 15.4895 149.356 15.086 149.643 14.7831C149.933 14.4726 150.357 14.3173 150.915 14.3173C151.335 14.3173 152.343 14.5821 153.94 15.1118C155.537 15.6415 156.825 15.9063 157.804 15.9063C158.7 15.9063 159.149 15.5964 159.151 14.9767C159.153 14.8062 159.117 14.6374 159.046 14.4826C158.957 14.3104 158.835 14.1575 158.687 14.0329C158.506 13.8802 158.312 13.7426 158.108 13.6216C157.899 13.4871 157.609 13.3225 157.239 13.1275L156.13 12.5226L154.678 11.7442C154.08 11.4256 153.5 11.1063 152.94 10.7864C152.22 10.3813 151.577 9.85384 151.038 9.22759C150.554 8.68254 150.165 8.06022 149.887 7.38651C149.662 6.85018 149.539 6.27625 149.526 5.69465C149.526 4.0169 150.275 2.64903 151.772 1.59103C153.27 0.53303 155.399 0.00268869 158.159 0Z" fill="#120058"/>
<path d="M182.27 5.84282C182.269 5.63512 182.222 5.43023 182.131 5.24342C182.04 5.05662 181.908 4.89273 181.745 4.76399C181.401 4.46659 180.958 4.30652 180.503 4.31431C179.543 4.31431 178.754 4.85876 178.136 5.94768C177.507 7.07736 177.187 8.35307 177.208 9.64598C177.194 10.633 177.4 11.6107 177.813 12.5074C178.191 13.3293 178.793 14.0282 179.549 14.5239C180.333 15.0314 181.251 15.2927 182.185 15.2741C182.916 15.2757 183.64 15.1275 184.312 14.8385C184.905 14.5999 185.46 14.2773 185.96 13.8807C186.374 13.5348 186.809 13.2149 187.263 12.9228C187.608 12.6688 188.018 12.5177 188.446 12.4872C188.662 12.4872 188.876 12.534 189.072 12.6245C189.269 12.715 189.443 12.8471 189.584 13.0115C189.877 13.3011 190.049 13.6922 190.063 14.1045C190.041 14.6145 189.914 15.1144 189.688 15.5725C189.381 16.2204 188.983 16.8207 188.505 17.3551C187.944 18.0041 187.312 18.5873 186.619 19.0934C185.801 19.6713 184.895 20.1158 183.937 20.4101C182.849 20.7624 181.712 20.9394 180.568 20.9344C179.096 20.9488 177.632 20.7108 176.24 20.2307C174.967 19.7939 173.792 19.1123 172.78 18.2242C171.775 17.3175 170.987 16.1962 170.475 14.9434C169.897 13.5368 169.612 12.0274 169.636 10.507C169.636 7.27253 170.604 4.71827 172.54 2.84426C174.476 0.970238 177.012 0.0291959 180.148 0.0211298C181.665 0.0056453 183.171 0.2794 184.585 0.827737C185.832 1.29365 186.941 2.06623 187.811 3.07414C188.576 3.9445 189.001 5.06137 189.009 6.21991C189.011 7.53228 188.543 8.80206 187.69 9.79923C187.285 10.3132 186.765 10.7257 186.172 11.004C185.58 11.2823 184.931 11.4187 184.276 11.4024C183.507 11.4114 182.753 11.181 182.12 10.743C181.811 10.5377 181.561 10.256 181.393 9.92534C181.224 9.59466 181.144 9.22614 181.161 8.8555C181.161 8.47639 181.345 7.94739 181.715 7.2685C182.084 6.60103 182.27 6.12311 182.27 5.84282Z" fill="#120058"/>
<path d="M213.209 16.2433C213.209 17.8565 212.92 19.01 212.342 19.7036C211.764 20.3973 210.885 20.7415 209.704 20.7361C208.547 20.7361 207.699 20.4215 207.159 19.7924C206.62 19.1632 206.351 18.0501 206.353 16.453L206.323 13.0693H200.213V16.2433C200.213 17.8807 199.933 19.0389 199.374 19.7178C198.814 20.3967 197.926 20.7327 196.708 20.726C195.55 20.726 194.702 20.4114 194.163 19.7823C193.624 19.1531 193.355 18.04 193.356 16.4429L193.266 3.8034C193.266 2.56526 193.58 1.65648 194.209 1.07707C194.839 0.497659 195.672 0.208621 196.71 0.209966C197.908 0.209966 198.792 0.429096 199.362 0.867352C199.932 1.30561 200.216 2.19422 200.215 3.53318V8.57448H206.294V3.80542C206.268 3.08341 206.427 2.36668 206.758 1.72437C207.024 1.21771 207.443 0.80825 207.956 0.554795C208.508 0.314045 209.106 0.197036 209.708 0.211984C210.868 0.211984 211.742 0.431114 212.33 0.869371C212.917 1.30763 213.212 2.19623 213.213 3.5352L213.209 16.2433Z" fill="#120058"/>
<path d="M232.114 19.7226C230.452 20.502 228.639 20.906 226.804 20.906C224.969 20.906 223.156 20.502 221.495 19.7226C219.923 18.9303 218.617 17.6969 217.736 16.1735C216.795 14.5966 216.324 12.7401 216.324 10.6039C216.324 7.36807 217.298 4.79701 219.244 2.89073C221.191 0.984449 223.712 0.0306412 226.808 0.0292969C229.9 0.0292969 232.426 0.983104 234.386 2.89073C236.346 4.79836 237.324 7.36673 237.32 10.5959C237.32 12.7307 236.85 14.5872 235.909 16.1655C235.016 17.6944 233.697 18.9304 232.114 19.7226ZM226.812 16.5345C227.154 16.5308 227.49 16.4475 227.794 16.2915C228.099 16.1354 228.362 15.9107 228.564 15.6351C229.078 14.985 229.437 14.2264 229.613 13.417C229.828 12.4915 229.934 11.544 229.928 10.5938C229.933 9.62023 229.821 8.64952 229.597 7.70215C229.408 6.86285 229.046 6.07225 228.534 5.38114C228.045 4.74123 227.471 4.42195 226.812 4.42329C226.153 4.42464 225.594 4.74392 225.134 5.38114C224.626 6.08231 224.259 6.87628 224.056 7.71828C223.814 8.65766 223.694 9.62396 223.697 10.5938C223.69 11.5458 223.806 12.4946 224.041 13.417C224.236 14.2258 224.604 14.9827 225.12 15.6351C225.606 16.2347 226.168 16.5345 226.808 16.5345H226.812Z" fill="#120058"/>
<path d="M256.221 19.7226C254.559 20.502 252.747 20.906 250.911 20.906C249.076 20.906 247.264 20.502 245.602 19.7226C244.03 18.9309 242.724 17.6974 241.843 16.1735C240.902 14.5966 240.432 12.7401 240.432 10.6039C240.432 7.36807 241.405 4.79701 243.352 2.89073C245.298 0.984449 247.819 0.0306412 250.916 0.0292969C254.008 0.0292969 256.534 0.983104 258.494 2.89073C260.454 4.79836 261.433 7.36673 261.432 10.5959C261.432 12.7307 260.958 14.5872 260.01 16.1655C259.119 17.6936 257.802 18.9295 256.221 19.7226ZM250.92 16.5345C251.263 16.5326 251.601 16.4504 251.907 16.2946C252.213 16.1388 252.478 15.9137 252.682 15.6371C253.195 14.987 253.554 14.2284 253.731 13.419C254.155 11.5398 254.15 9.58895 253.714 7.71223C253.526 6.87293 253.164 6.08233 252.652 5.39122C252.161 4.75131 251.587 4.43203 250.93 4.43337C250.272 4.43472 249.713 4.754 249.252 5.39122C248.743 6.09239 248.377 6.88637 248.173 7.72837C247.931 8.66757 247.81 9.63398 247.814 10.6039C247.807 11.5559 247.923 12.5047 248.159 13.427C248.354 14.2355 248.721 14.9922 249.236 15.6452C249.72 16.2381 250.281 16.5345 250.92 16.5345Z" fill="#120058"/>
<path d="M268.74 20.7291C267.978 20.7414 267.222 20.5937 266.521 20.2956C265.955 20.0172 265.509 19.5439 265.263 18.9627C264.985 18.3429 264.845 17.5141 264.844 16.4763V3.80652C264.844 2.74852 265.154 1.88477 265.773 1.21529C266.393 0.545806 267.212 0.20972 268.229 0.207031C269.427 0.207031 270.311 0.426162 270.879 0.864418C271.448 1.30268 271.733 2.19129 271.734 3.53026V15.5406H276.856C278.014 15.5406 278.827 15.7107 279.296 16.0508C279.765 16.3909 280 17.09 280 18.148C280 19.2235 279.731 19.9219 279.193 20.2432C278.656 20.5645 277.777 20.7244 276.558 20.7231L268.74 20.7291Z" fill="#120058"/>
</svg>
