<svg width="351" height="357" viewBox="0 0 351 357" fill="none" xmlns="http://www.w3.org/2000/svg">
<path d="M176.616 272.031L178.273 281.273C178.273 281.273 180.341 285.733 170.947 289.946C161.552 294.16 156.284 294.989 157.554 301.434L162.633 300.812C162.633 300.812 162.327 303.282 167.469 301.094C167.469 301.094 171.452 299.519 171.872 299.614C171.872 299.614 171.326 301.27 176.003 299.931C176.003 299.931 186.789 296.941 191.661 291.64C191.661 291.64 192.687 289.329 189.512 287.368C189.512 287.368 186.706 286.834 185.896 281.344C185.086 275.853 184.182 269.215 184.182 269.215L176.616 272.031Z" fill="#FF9E03"/>
<path d="M217.347 264.73L219.004 273.973C219.004 273.973 218.605 278.885 228.897 279.57C239.189 280.255 244.401 279.206 245.445 285.692L240.47 286.871C240.47 286.871 241.614 289.082 236.033 288.815C236.033 288.815 231.751 288.722 231.387 288.958C231.387 288.958 232.477 290.32 227.623 290.689C227.623 290.689 216.474 291.63 210.063 288.352C210.063 288.352 208.298 286.541 210.596 283.599C210.596 283.599 213.041 282.124 211.894 276.694C210.747 271.264 209.286 264.725 209.286 264.725L217.347 264.73Z" fill="#FF9E03"/>
<path d="M196.44 266.868L189.034 268.195C186.748 270.688 183.574 272.186 180.193 272.368C171.015 274.877 167.34 270.666 167.34 270.666L166.674 266.106L160.185 256.917C153.491 252.364 152.962 240.265 152.962 240.265C152.962 240.265 152.667 212.682 156.894 206.285C158.519 203.821 159.626 202.379 159.626 202.379L183.888 198.293" fill="#6185A9"/>
<path d="M196.44 266.868L203.849 265.54C206.86 267.084 210.358 267.387 213.592 266.382C223.071 265.547 225.054 260.322 225.054 260.322L224.092 255.815L226.986 244.945C231.68 238.351 227.973 226.822 227.973 226.822L235.942 222.177C228.457 206.148 208.57 193.608 208.57 193.608L183.9 198.291" fill="#6185A9"/>
<path d="M175.143 205.584C175.143 205.584 174.798 208.807 176.021 210.486L178.704 210.005C178.704 210.005 175.937 211.941 176.464 212.936C176.702 213.363 177.005 213.75 177.361 214.084C177.983 214.691 178.436 215.449 178.674 216.284C180.519 222.603 187.605 247.628 187.237 257.62" stroke="#35506F" stroke-linecap="round" stroke-linejoin="round"/>
<path d="M194.035 202.198C194.035 202.198 195.477 205.101 194.914 207.1L192.231 207.581C192.231 207.581 195.497 208.435 195.353 209.551C195.276 210.034 195.126 210.502 194.906 210.94C194.535 211.725 194.375 212.593 194.442 213.458C194.907 220.024 196.953 245.953 200.765 255.195" stroke="#35506F" stroke-linecap="round" stroke-linejoin="round"/>
<path d="M181.195 205.343C181.195 205.343 181.271 205.238 184.459 218.212C187.88 232.139 191.589 256.273 191.589 256.273L196.465 255.399C196.465 255.399 187.958 208.579 188.072 204.049L181.195 205.343Z" fill="#DBD8D7"/>
<path d="M228.555 226.718C228.555 226.718 219.005 208.415 213.956 205.756" stroke="#35506F" stroke-miterlimit="10" stroke-linecap="round"/>
<path d="M185.562 209.319C186.503 209.151 187.129 208.253 186.961 207.314C186.793 206.376 185.894 205.752 184.953 205.92C184.012 206.089 183.385 206.986 183.554 207.925C183.722 208.864 184.621 209.488 185.562 209.319Z" fill="#52887F"/>
<path d="M186.936 218.324C187.877 218.156 188.504 217.258 188.335 216.319C188.167 215.381 187.268 214.757 186.327 214.925C185.386 215.094 184.76 215.991 184.928 216.93C185.096 217.869 185.995 218.493 186.936 218.324Z" fill="#52887F"/>
<path d="M188.764 228.521C189.705 228.353 190.331 227.455 190.163 226.517C189.995 225.578 189.096 224.954 188.155 225.122C187.214 225.291 186.588 226.189 186.756 227.127C186.924 228.066 187.823 228.69 188.764 228.521Z" fill="#52887F"/>
<path d="M190.591 238.719C191.532 238.55 192.158 237.652 191.99 236.714C191.822 235.775 190.923 235.151 189.982 235.32C189.041 235.488 188.415 236.386 188.583 237.324C188.751 238.263 189.65 238.887 190.591 238.719Z" fill="#52887F"/>
<path d="M192.419 248.915C193.36 248.746 193.986 247.849 193.818 246.91C193.65 245.972 192.75 245.347 191.81 245.516C190.869 245.685 190.242 246.582 190.411 247.521C190.579 248.459 191.478 249.084 192.419 248.915Z" fill="#52887F"/>
<path d="M160.658 257.576C160.658 257.576 170.163 259.8 183.663 258.231" stroke="#35506F" stroke-linecap="round" stroke-linejoin="round"/>
<path d="M170.348 265.045C170.348 265.045 176.838 268.768 185.076 268.731" stroke="#35506F" stroke-linecap="round" stroke-linejoin="round"/>
<path d="M208.653 264.852C208.653 264.852 212.036 264.419 219.852 257.783" stroke="#35506F" stroke-linecap="round" stroke-linejoin="round"/>
<path d="M216.027 263.531C218.404 262.596 220.642 261.344 222.682 259.809" stroke="#35506F" stroke-linecap="round" stroke-linejoin="round"/>
<path d="M171.018 268.78C173.928 269.868 177.015 270.407 180.123 270.368" stroke="#35506F" stroke-linecap="round" stroke-linejoin="round"/>
<path d="M199.021 209.391L200.179 215.853C200.179 215.853 212.592 213.91 215.485 212.037L212.123 206.094L199.021 209.391Z" stroke="#35506F" stroke-linecap="round" stroke-linejoin="round"/>
<path d="M239.414 226.175C239.414 226.175 241.672 231.635 242.144 236.207C242.216 236.894 242.109 237.588 241.832 238.221C241.556 238.855 241.119 239.406 240.566 239.821C240.012 240.235 239.36 240.5 238.673 240.588C237.987 240.676 237.289 240.585 236.648 240.324C234.102 239.295 230.99 237.051 228.495 232.223L239.414 226.175Z" fill="#FF9E03"/>
<path d="M225.062 230.865L226.917 233.893C227.516 234.87 228.796 235.177 229.776 234.579L240.634 227.95C241.614 227.352 241.923 226.075 241.324 225.097L239.469 222.07C238.87 221.093 237.59 220.785 236.61 221.384L225.752 228.012C224.772 228.611 224.463 229.888 225.062 230.865Z" fill="#6185A9"/>
<path d="M199.878 188.43C199.878 188.43 195.602 183.591 194.604 181.302L168.401 185.998C168.271 188.476 165.989 194.504 165.989 194.504L168.92 197.696L184.025 199.004L184.039 199.08L184.16 199.023L184.29 199.035L184.278 198.969L198.201 192.458L199.878 188.43Z" fill="#CE8105"/>
<path d="M200.59 189.095C200.59 189.095 196.626 184.825 195.434 182.767L183.25 186.571C182.337 186.857 181.392 187.026 180.437 187.075L168.138 187.659C167.718 189.875 165.562 195.252 165.562 195.252L168.982 198.101L184.015 199.007L184.029 199.083L184.151 199.031L184.28 199.038L184.269 198.977L198.265 192.869L200.59 189.095Z" fill="#FF9E03"/>
<path d="M159.622 202.381L161.443 200.15C162.062 199.395 162.537 198.533 162.845 197.608L163.198 196.543C163.351 196.077 163.621 195.658 163.983 195.326C164.344 194.994 164.785 194.761 165.263 194.648C168.255 193.951 175.592 194.05 179.278 199.097C179.289 199.088 169.863 204.423 159.622 202.381Z" fill="#6185A9"/>
<path d="M208.57 193.608L205.9 192.038C205.18 191.615 204.544 191.064 204.024 190.411L203.25 189.44C202.92 189.029 202.488 188.711 201.998 188.515C201.508 188.32 200.975 188.254 200.452 188.325C197.354 188.739 190.693 191.383 189.014 197.316C189.014 197.319 199.689 199.078 208.57 193.608Z" fill="#6185A9"/>
<path d="M188.072 204.049C188.072 204.049 188.701 196.835 189.465 196.23C189.465 196.23 185.989 196.764 183.897 198.291C183.897 198.291 180.707 197.881 178.462 198.202C178.462 198.202 180.315 202.209 181.195 205.343" fill="#DBD8D7"/>
<path d="M132.419 120.281C132.419 120.281 135.972 111.95 140.062 103.73C143.441 96.9585 145.844 92.483 150.126 85.056C152.03 81.7694 155.348 78.1674 157.392 73.2817C157.468 73.106 157.587 72.9519 157.737 72.833C157.887 72.7141 158.065 72.6342 158.254 72.6003C158.443 72.5665 158.637 72.5798 158.819 72.639C159.001 72.6983 159.166 72.8017 159.299 72.9399C160.467 74.1704 160.769 76.0209 162.031 78.668C162.031 78.668 163.053 72.0479 169.16 68.2731C169.16 68.2731 175.548 64.2156 176.754 65.1056C177.96 65.9956 177.61 71.5988 177.61 71.5988C177.61 71.5988 184.503 64.8852 187.933 64.2769C188.174 64.2375 188.42 64.275 188.638 64.3841C188.855 64.4932 189.032 64.6682 189.144 64.884C189.255 65.0999 189.296 65.3455 189.259 65.5856C189.222 65.8257 189.109 66.0481 188.938 66.2207L188.907 66.2492C187.824 67.2744 185.906 70.5538 185.631 77.2593C185.631 77.2593 184.539 83.794 190.764 92.7021C197.562 102.427 201.002 105.312 201.002 105.312L132.419 120.281Z" fill="#FF9E03"/>
<path d="M215.216 131.717C210.76 106.856 188.267 90.0769 164.975 94.2512L164.34 94.3651L163.704 94.4791C140.412 98.6534 125.145 122.19 129.602 147.061C130.094 149.815 130.822 152.521 131.777 155.15C132.379 164 132.706 172.469 141.552 179.543C154.085 189.565 168.357 186.595 180.477 184.407C192.597 182.218 207.018 180.079 215.291 166.327C221.129 156.622 218.501 148.564 215.989 140.058C215.968 137.26 215.71 134.47 215.216 131.717Z" fill="#FF9E03"/>
<path d="M203.136 140.624C204.402 147.692 199.332 153.594 193.039 154.722C186.746 155.85 180.602 151.038 179.334 143.964C178.066 136.89 178.7 129.024 184.984 127.898C187.994 127.358 192.498 128.109 195.977 130.352C199.798 132.802 202.475 136.937 203.136 140.624Z" fill="#C4C3C2"/>
<path d="M198.135 142.505C199.034 147.521 195.891 152.204 191.486 152.994C187.081 153.783 181.863 150.847 180.964 145.828C180.064 140.809 182.225 135.238 186.643 134.446C191.061 133.654 197.235 137.482 198.135 142.505Z" fill="#080808"/>
<path d="M201.972 127.307C201.655 128.375 197.045 127.274 192.963 126.078C188.881 124.882 183.94 124.75 184.063 122.509C184.124 121.399 186.906 118.109 194.453 121.815C198.266 123.688 202.287 126.243 201.972 127.307Z" fill="#CE6A1D"/>
<path d="M138.255 138.726C138.923 139.618 142.863 136.984 146.276 134.445C149.689 131.906 154.276 130.066 153.383 128.007C152.941 126.987 149.188 124.868 143.399 130.965C140.486 134.043 137.59 137.837 138.255 138.726Z" fill="#CE6A1D"/>
<path d="M214.151 161.725C214.151 161.725 210.802 158.689 201.241 158.39C196.534 158.231 191.896 157.218 187.554 155.401C186.193 154.833 184.935 154.046 183.83 153.07C178.889 148.674 174.511 148.85 173.615 148.955L173.446 148.985C172.565 149.212 168.351 150.573 165.252 156.547C164.646 157.695 163.855 158.737 162.911 159.631C159.438 162.944 155.374 165.582 150.93 167.407C142.11 171 140.037 175.007 140.037 175.007C140.037 175.007 136.882 179.061 152.444 176.272C164.976 174.026 170.433 175.257 172.079 175.823C172.573 175.985 173.088 176.071 173.608 176.079C174.422 176.1 175.638 176.111 176.794 176.048C177.722 176.001 178.641 175.836 179.528 175.558C180.769 175.165 182.085 174.687 182.924 174.373C183.402 174.198 183.849 173.947 184.247 173.629C185.601 172.526 190.312 169.472 202.902 167.216C218.533 164.428 214.151 161.725 214.151 161.725Z" fill="#CE6A1D"/>
<path d="M184.37 157.205C184.814 156.495 183.995 155.185 182.54 154.276C181.084 153.368 179.544 153.207 179.099 153.916C178.654 154.625 179.473 155.936 180.929 156.844C182.384 157.752 183.925 157.914 184.37 157.205Z" fill="#AF5B19"/>
<path d="M169.061 158.977C170.111 157.62 170.424 156.106 169.761 155.595C169.097 155.085 167.709 155.771 166.659 157.128C165.61 158.485 165.297 159.999 165.96 160.509C166.623 161.02 168.012 160.334 169.061 158.977Z" fill="#AF5B19"/>
<path d="M141.058 151.75C142.325 158.817 149.129 162.592 155.422 161.464C161.715 160.336 165.793 153.691 164.526 146.624C163.26 139.556 159.932 132.394 153.649 133.52C150.639 134.059 146.676 136.327 144.192 139.639C141.481 143.254 140.397 148.062 141.058 151.75Z" fill="#C4C3C2"/>
<path d="M146.4 151.777C147.299 156.793 151.873 160.094 156.278 159.304C160.684 158.515 164.557 153.949 163.657 148.93C162.757 143.911 158.793 139.438 154.379 140.229C149.964 141.02 145.5 146.755 146.4 151.777Z" fill="#080808"/>
<path d="M150.578 148.201C151.368 148.059 151.894 147.306 151.753 146.518C151.612 145.73 150.857 145.206 150.067 145.347C149.277 145.489 148.751 146.242 148.892 147.03C149.034 147.818 149.789 148.342 150.578 148.201Z" fill="white"/>
<path d="M184.292 142.159C185.082 142.017 185.608 141.264 185.466 140.476C185.325 139.688 184.57 139.164 183.78 139.305C182.99 139.447 182.465 140.2 182.606 140.988C182.747 141.776 183.502 142.3 184.292 142.159Z" fill="white"/>
<path d="M150.128 175.908C150.128 175.908 160.211 172.864 164.873 171.178C169.534 169.492 171.518 166.269 177.126 165.729L177.187 165.718C182.63 164.278 185.55 166.621 190.507 166.587C195.464 166.552 205.98 165.902 205.98 165.902C205.98 165.902 175.404 169.425 150.128 175.908Z" fill="#3C1808"/>
<path d="M126.797 187.62C126.797 187.62 121.382 185.21 116.818 184.621C116.133 184.529 115.436 184.616 114.794 184.873C114.153 185.129 113.588 185.547 113.156 186.086C112.725 186.625 112.44 187.266 112.33 187.946C112.219 188.627 112.288 189.325 112.528 189.971C113.486 192.535 115.642 195.706 120.408 198.337L126.797 187.62Z" fill="#FF9E03"/>
<path d="M164.727 210.818L127.707 188.821L124.553 201.128L155.218 218.789" fill="#6185A9"/>
<path d="M132.194 188.653L129.141 186.832C128.156 186.244 126.879 186.565 126.289 187.548L119.751 198.446C119.162 199.43 119.482 200.704 120.467 201.291L123.52 203.113C124.505 203.7 125.782 203.38 126.372 202.396L132.909 191.498C133.499 190.515 133.179 189.241 132.194 188.653Z" fill="#6185A9"/>
<path d="M129.496 197.17L131.67 193.544" stroke="#35506F" stroke-miterlimit="10" stroke-linecap="round"/>
<path d="M126.358 202.395L154.599 223.969L155.201 216.145L144.894 203.959C144.894 203.959 131.72 200.577 130.906 200.5C130.092 200.424 126.358 202.395 126.358 202.395Z" fill="#6185A9"/>
<path d="M147.081 217.737L139.854 212.262L129.496 204.294" stroke="#35506F" stroke-miterlimit="10" stroke-linecap="round"/>
<path d="M150.459 220.808C150.459 220.808 153.029 223.947 153.188 229.04L154.695 222.716L150.459 220.808Z" fill="#6185A9"/>
<path d="M149.523 201.785C149.523 201.785 154.657 204.308 159.958 201.983L157.046 206.508L149.523 201.785Z" fill="#6185A9"/>
<path d="M155.24 221.341C155.24 221.341 157.376 224.695 154.023 228.886" stroke="#35506F" stroke-miterlimit="10" stroke-linecap="round"/>
</svg>
