<svg width="234" height="235" viewBox="0 0 234 235" fill="none" xmlns="http://www.w3.org/2000/svg">
<path d="M28 168.388C28 163.756 31.8056 160 36.5 160V160C41.1944 160 45 163.756 45 168.388V226.612C45 231.244 41.1944 235 36.5 235V235C31.8056 235 28 231.244 28 226.612V168.388Z" fill="#1E8F15"/>
<path d="M66 25.1262C66 19.6647 70.2533 15.2373 75.5 15.2373V15.2373C80.7467 15.2373 85 19.6647 85 25.1262V94.3484C85 99.8099 80.7467 104.237 75.5 104.237V104.237C70.2533 104.237 66 99.8099 66 94.3484V25.1262Z" fill="#2BAE20"/>
<path d="M211 4.66912C211 2.2215 212.791 0.237305 215 0.237305V0.237305C217.209 0.237305 219 2.2215 219 4.66912V34.8055C219 37.2531 217.209 39.2373 215 39.2373V39.2373C212.791 39.2373 211 37.2531 211 34.8055V4.66912Z" fill="#2BAE20"/>
<path d="M194 186.3C194 184.477 195.343 183 197 183V183C198.657 183 200 184.477 200 186.3V212.7C200 214.523 198.657 216 197 216V216C195.343 216 194 214.523 194 212.7V186.3Z" fill="#2BAE20"/>
<path d="M67.5 190C72.1944 190 76 193.358 76 197.5C76 201.642 72.1944 205 67.5 205L8.5 205C3.80558 205 -5.08894e-07 201.642 -3.27835e-07 197.5C-1.46777e-07 193.358 3.80558 190 8.5 190L67.5 190Z" fill="#1E8F15"/>
<path d="M108.333 50.2373C113.672 50.2373 118 54.0429 118 58.7373V58.7373C118 63.4317 113.672 67.2373 108.333 67.2373L40.6667 67.2373C35.3279 67.2373 31 63.4317 31 58.7373V58.7373C31 54.0429 35.3279 50.2373 40.6667 50.2373L108.333 50.2373Z" fill="#2BAE20"/>
<path d="M229.568 15.2373C232.016 15.2373 234 17.252 234 19.7373V19.7373C234 22.2226 232.016 24.2373 229.568 24.2373L199.432 24.2373C196.984 24.2373 195 22.2226 195 19.7373V19.7373C195 17.252 196.984 15.2373 199.432 15.2373L229.568 15.2373Z" fill="#2BAE20"/>
<path d="M209.8 196C211.567 196 213 197.567 213 199.5V199.5C213 201.433 211.567 203 209.8 203L184.2 203C182.433 203 181 201.433 181 199.5V199.5C181 197.567 182.433 196 184.2 196L209.8 196Z" fill="#2BAE20"/>
</svg>
