<svg width="224" height="239" viewBox="0 0 224 239" fill="none" xmlns="http://www.w3.org/2000/svg">
<path d="M23.3032 186.768C23.3032 183.157 26.1616 180.23 29.6876 180.23C33.2136 180.23 36.072 183.157 36.072 186.768V232.144C36.072 235.755 33.2136 238.682 29.6876 238.682C26.1616 238.682 23.3032 235.755 23.3032 232.144V186.768Z" fill="#F86537"/>
<path d="M65.2578 21.8472C65.2578 17.1611 68.9329 13.3623 73.4663 13.3623C77.9997 13.3623 81.6748 17.1611 81.6748 21.8472V81.2411C81.6748 85.9271 77.9997 89.7259 73.4663 89.7259C68.9329 89.7259 65.2578 85.9271 65.2578 81.2411V21.8472Z" fill="#FD8C48"/>
<path d="M186.56 4.01984C186.56 1.88981 188.398 0.163086 190.664 0.163086C192.931 0.163086 194.769 1.88981 194.769 4.01984V30.2457C194.769 32.3758 192.931 34.1025 190.664 34.1025C188.398 34.1025 186.56 32.3758 186.56 30.2457V4.01984Z" fill="#FD8C48"/>
<path d="M209.362 218.317C209.362 217.068 210.383 216.055 211.642 216.055C212.901 216.055 213.922 217.068 213.922 218.317V236.418C213.922 237.668 212.901 238.681 211.642 238.681C210.383 238.681 209.362 237.668 209.362 236.418V218.317Z" fill="#FD8C48"/>
<path d="M50.7245 203.8C54.2173 203.8 57.0488 206.543 57.0488 209.928C57.0488 213.312 54.2173 216.056 50.7245 216.056L6.82595 216.056C3.3331 216.056 0.501587 213.312 0.501587 209.928C0.501587 206.543 3.3331 203.8 6.82595 203.8L50.7245 203.8Z" fill="#F86537"/>
<path d="M101.74 43.5303C106.273 43.5303 109.948 47.3291 109.948 52.0151C109.948 56.7012 106.273 60.5 101.74 60.5L44.2805 60.5C39.7471 60.5 36.072 56.7012 36.072 52.0151C36.072 47.3291 39.7471 43.5303 44.2805 43.5303L101.74 43.5303Z" fill="#FD8C48"/>
<path d="M202.998 13.3623C205.001 13.3623 206.625 15.0507 206.625 17.1334C206.625 19.216 205.001 20.9044 202.998 20.9044L178.331 20.9044C176.328 20.9044 174.704 19.216 174.704 17.1333C174.704 15.0507 176.328 13.3623 178.331 13.3623L202.998 13.3623Z" fill="#FD8C48"/>
<path d="M220.854 225.484C222.063 225.484 223.043 226.54 223.043 227.841C223.043 229.143 222.063 230.198 220.854 230.198L203.343 230.198C202.134 230.198 201.154 229.143 201.154 227.841C201.154 226.54 202.134 225.484 203.343 225.484L220.854 225.484Z" fill="#FD8C48"/>
</svg>
