<svg width="1125" height="842" viewBox="0 0 1125 842" fill="none" xmlns="http://www.w3.org/2000/svg">
<path d="M357.438 576.145L356.315 595.77C356.206 597.412 355.894 598.69 355.379 599.604C354.847 600.476 354.05 601.134 352.99 601.579C351.632 602.148 350.291 602.162 348.967 601.62C347.624 601.035 345.686 599.803 343.152 597.923L330.14 587.591L337.691 605.599C338.456 607.423 338.592 608.938 338.1 610.142C337.649 611.328 336.597 612.268 334.943 612.962C333.076 613.745 331.55 613.911 330.363 613.461C329.159 612.968 328.05 611.513 327.036 609.095L315.403 581.351C314.033 578.085 313.743 575.313 314.534 573.036C315.325 570.759 317.481 568.882 321.002 567.406C322.317 566.854 323.561 566.607 324.732 566.665C325.886 566.68 326.82 566.887 327.536 567.285C328.276 567.623 329.058 568.118 329.88 568.771L346.225 583.84L347.576 561.725C347.865 558.012 350.045 555.302 354.118 553.594C356.027 552.794 357.802 552.448 359.444 552.558C361.069 552.625 362.574 553.241 363.96 554.405C365.371 555.51 366.539 557.165 367.464 559.371L379.071 587.051C380.789 591.268 379.019 594.48 373.758 596.686C371.849 597.486 370.066 597.635 368.409 597.133C366.777 596.571 365.45 595.132 364.429 592.816L357.438 576.145Z" fill="#FFDC97"/>
<path d="M404.936 553.235C407.185 552.292 408.905 551.994 410.099 552.342C411.334 552.672 412.317 553.706 413.046 555.446C413.651 556.888 413.535 558.159 412.699 559.257C411.888 560.296 410.337 561.296 408.046 562.256L397.737 566.579L400.566 573.324L414.401 567.597C416.776 566.601 418.624 566.25 419.945 566.544C421.29 566.778 422.336 567.786 423.083 569.568C423.937 571.604 423.918 573.283 423.026 574.605C422.176 575.909 420.521 577.077 418.06 578.109L397.443 586.754C394.94 587.804 392.819 587.92 391.08 587.103C389.366 586.226 387.797 584.09 386.374 580.696L375.114 553.844C372.979 548.753 374.33 545.194 379.166 543.166L399.783 534.521C402.243 533.489 404.227 533.106 405.735 533.372C407.286 533.619 408.479 534.74 409.315 536.734C410.098 538.6 410.119 540.138 409.378 541.346C408.663 542.494 407.117 543.566 404.742 544.562L390.87 550.379L393.992 557.824L404.936 553.235Z" fill="#FFDC97"/>
<path d="M750.773 579.195C750.691 579.006 750.474 578.764 750.122 578.468C748.924 577.463 747.378 578.088 745.486 580.343C745.102 580.801 744.622 581.48 744.048 582.379C743.438 583.249 742.986 583.86 742.69 584.212C741.212 585.974 739.398 585.953 737.248 584.15C735.063 582.316 736.13 578.827 740.446 573.683C743.226 570.37 745.842 568.362 748.294 567.657C750.776 566.918 752.881 567.273 754.608 568.721C757.074 570.791 758.143 573.489 757.814 576.816C759.17 576.273 760.317 575.944 761.254 575.829C762.155 575.685 763.094 575.783 764.071 576.122C765.012 576.431 766.011 577.029 767.068 577.916C769.218 579.72 770.253 582.029 770.172 584.844C770.092 587.659 768.855 590.494 766.459 593.348C763.473 596.907 760.992 599.149 759.016 600.073C756.975 601.002 755.214 600.846 753.734 599.604C752.466 598.54 751.827 597.583 751.818 596.735C751.774 595.858 752.121 594.978 752.86 594.097C753.245 593.639 753.889 592.979 754.793 592.116C755.632 591.259 756.259 590.584 756.673 590.09C758.92 587.412 759.55 585.659 758.564 584.831C758.247 584.565 757.938 584.396 757.638 584.325C757.338 584.253 756.981 584.284 756.569 584.418C756.191 584.582 755.792 584.878 755.373 585.307C754.888 585.741 754.351 586.31 753.759 587.015C752.547 588.46 751.513 589.334 750.658 589.637C749.768 589.911 748.812 589.619 747.79 588.762C746.275 587.49 746.36 585.85 748.045 583.842C749.169 582.503 749.926 581.457 750.317 580.704C750.709 579.952 750.861 579.449 750.773 579.195Z" fill="#FFDC97"/>
<path d="M779.826 561.317C781.28 561.517 782.421 561.123 783.249 560.136C784.047 559.185 784.034 557.913 783.209 556.32C782.934 555.789 782.611 555.278 782.242 554.788C782.048 554.805 781.838 554.84 781.614 554.892C781.237 555.056 780.806 555.354 780.321 555.789C779.902 556.217 779.396 556.784 778.805 557.489C778.243 558.158 777.702 558.695 777.183 559.1L779.826 561.317ZM774.231 548.877C772.419 548.317 771.129 548.495 770.36 549.412C769.562 550.363 769.422 551.567 769.941 553.024L772.426 555.108C772.633 554.861 772.854 554.597 773.091 554.315C774.214 552.976 774.972 551.93 775.363 551.178C775.754 550.425 775.892 549.94 775.775 549.722C775.734 549.627 775.675 549.518 775.599 549.394C775.123 549.175 774.667 549.002 774.231 548.877ZM787.652 543.295C788.589 543.18 789.546 543.292 790.522 543.632C791.499 543.971 792.551 544.613 793.679 545.559C795.899 547.422 796.971 549.793 796.897 552.673C796.903 554.24 796.536 555.823 795.794 557.423C795.342 558.605 794.673 559.725 793.786 560.782C791.214 563.847 788.224 565.872 784.816 566.856C785.499 568.69 784.865 570.77 782.913 573.096C781.05 575.316 779.344 576.526 777.794 576.727C776.209 576.898 774.36 576.097 772.246 574.323L758.503 562.791C756.283 560.928 755.211 559.128 755.288 557.391C755.329 555.624 756.148 553.79 757.745 551.887C759.519 549.772 761.686 548.979 764.246 549.506C764.278 545.389 765.491 541.903 767.886 539.049C768.744 538.027 769.715 537.191 770.801 536.541C772 535.685 773.156 535.094 774.27 534.768C776.788 534.058 778.945 534.457 780.742 535.965C783.314 538.124 784.439 540.899 784.115 544.29C785.507 543.776 786.686 543.445 787.652 543.295Z" fill="#FFDC97"/>
<path d="M813.317 507.235C819.342 512.291 823.405 516.001 825.506 518.364C827.419 520.449 828.899 522.442 829.947 524.342C831.03 526.272 831.712 528.285 831.994 530.383C832.311 532.51 832.059 534.671 831.239 536.865C830.418 539.059 829.032 541.319 827.081 543.645C825.514 545.512 823.768 547.02 821.844 548.168C819.985 549.31 818.251 550.017 816.642 550.288C815.098 550.554 813.717 550.626 812.498 550.504C811.279 550.382 810.388 550.085 809.824 549.612C809.261 549.138 808.88 548.519 808.682 547.752C808.549 546.98 808.749 546.277 809.281 545.643C809.666 545.185 810.25 544.775 811.035 544.412C811.849 544.014 812.669 543.681 813.494 543.413C814.32 543.145 815.199 542.742 816.131 542.203C817.063 541.664 817.84 541.025 818.461 540.285C820.058 538.382 820.706 536.644 820.405 535.07C820.133 533.462 819.117 531.918 817.355 530.439C817.099 531.246 816.822 532.004 816.525 532.716C816.228 533.428 815.911 534.092 815.573 534.709C815.235 535.327 814.877 535.897 814.498 536.42C814.149 536.907 813.783 537.38 813.398 537.838C811.654 539.917 809.579 541.209 807.174 541.713C804.77 542.217 802.441 542.095 800.187 541.345C797.929 540.53 795.812 539.295 793.839 537.639C791.866 535.984 790.207 534.561 788.862 533.373C787.547 532.149 786.435 531.006 785.525 529.943C784.581 528.85 783.88 527.932 783.423 527.188C782.996 526.409 782.766 525.646 782.733 524.898C782.665 524.12 782.782 523.408 783.085 522.761C783.387 522.114 783.849 521.421 784.47 520.681C786.333 518.461 788.022 517.235 789.536 517.005C791.045 516.71 792.61 517.242 794.231 518.602L802.785 525.69C803.349 526.163 803.772 526.518 804.053 526.755C804.3 526.961 804.632 527.21 805.049 527.5C805.496 527.755 805.837 527.921 806.072 527.998C806.337 528.04 806.635 528.08 806.964 528.116C807.288 528.088 807.589 527.98 807.866 527.792C808.173 527.569 808.49 527.264 808.815 526.877C809.702 525.82 809.967 524.931 809.61 524.211C809.248 523.427 808.291 522.384 806.741 521.083L798.222 513.845C797.13 512.928 796.397 512.013 796.023 511.099C795.679 510.149 795.7 509.086 796.087 507.91C796.474 506.733 797.303 505.387 798.574 503.872C799.343 502.956 800.152 502.314 801.001 501.945C801.845 501.512 802.676 501.309 803.495 501.335C804.278 501.332 805.219 501.642 806.319 502.264C807.412 502.821 808.464 503.464 809.475 504.192C810.486 504.92 811.766 505.934 813.317 507.235Z" fill="#FFDC97"/>
<path d="M836.745 484.251C838.135 482.595 839.873 481.562 841.959 481.151C844.04 480.675 846.085 481.279 848.093 482.965C850.771 485.212 852.22 487.028 852.439 488.413C852.629 489.833 851.777 491.671 849.885 493.926C848.14 496.005 846.528 497.174 845.049 497.434C843.564 497.63 842.011 497.047 840.391 495.687C839.58 495.007 838.922 494.575 838.416 494.39C837.875 494.177 837.445 494.116 837.127 494.209C836.814 494.367 836.451 494.693 836.037 495.186L834.44 497.089C836.272 498.627 837.538 500.589 838.237 502.977C838.935 505.365 838.545 507.44 837.067 509.201C835.411 511.175 833.638 512.179 831.747 512.214C829.851 512.184 827.493 510.986 824.674 508.621L813.68 499.395C812.2 498.153 811.209 496.901 810.706 495.639C810.169 494.348 810.032 493.152 810.295 492.051C810.587 490.915 811.23 489.684 812.224 488.356C814.057 486.171 816.025 485.33 818.125 485.832C819.591 486.16 821.44 487.141 823.672 488.775C824.415 488.677 825.17 488.17 825.939 487.254C826.649 486.408 826.943 485.664 826.821 485.022C826.706 484.444 826.084 483.682 824.956 482.736C823.3 481.346 822.457 479.918 822.426 478.452C822.426 476.95 823.298 475.159 825.042 473.08C826.875 470.895 828.508 469.773 829.939 469.713C831.365 469.588 833.117 470.398 835.196 472.143C837.381 473.976 838.525 476.047 838.629 478.356C838.733 480.666 838.105 482.631 836.745 484.251Z" fill="#FFDC97"/>
<path d="M856.606 463.266C858.615 464.951 860.27 465.018 861.571 463.468C862.014 462.939 862.24 462.348 862.248 461.695C862.251 460.976 862.041 460.26 861.619 459.546C861.198 458.832 860.599 458.149 859.824 457.499L852.741 451.556C851.543 450.55 850.681 449.466 850.155 448.304C849.593 447.113 849.406 445.905 849.593 444.68C849.78 443.456 850.331 442.298 851.248 441.205C852.845 439.302 854.509 438.177 856.242 437.83C857.94 437.453 859.898 438.195 862.118 440.058L875.861 451.59C878.011 453.393 879.121 455.076 879.192 456.637C879.264 458.198 878.368 460.088 876.505 462.308C875.707 463.26 874.939 463.996 874.201 464.518C873.427 465.01 872.67 465.305 871.927 465.403C871.214 465.465 870.452 465.336 869.64 465.015C869.379 467.258 868.763 469.353 867.79 471.299C866.847 473.21 865.548 475.152 863.892 477.125C861.793 479.627 859.316 480.611 856.461 480.077C853.571 479.514 849.888 477.355 845.413 473.599C843.193 471.737 841.44 470.176 840.155 468.917C838.834 467.629 837.769 466.465 836.96 465.425C836.145 464.321 835.683 463.333 835.574 462.461C835.495 461.554 835.615 460.694 835.936 459.883C836.286 459.036 836.905 458.084 837.792 457.026C839.448 455.053 841.001 453.954 842.45 453.729C843.93 453.469 845.409 453.96 846.889 455.202L856.606 463.266Z" fill="#FFDC97"/>
<path d="M919 394.213L1025.85 445.625L1091.59 379.708L984.012 327.942L919 394.213Z" fill="#FFDC97"/>
<path d="M66.5594 137.159L128.761 74.5278L234.626 125.467L235.763 144.164L130.942 93.7262L69.7028 155.46L66.5594 137.159Z" fill="#FFDC97"/>
<path d="M690.049 348.466L626.438 377.389L631.43 432.028L695.479 402.906L690.049 348.466Z" fill="#FFDC97"/>
<path d="M701.411 358.123L706.256 409.917L643.229 438.574L634.341 432.027L696.746 403.653L691.945 352.633L701.411 358.123Z" fill="#FFDC97"/>
<path d="M147.246 634.975C147.246 634.975 142.58 626.512 143.592 624C143.592 624 139.824 639.678 128.444 644.748C117.065 649.818 99.3809 670.889 98.1665 685.057L102.008 686.673L147.246 634.975Z" fill="#FFDC97"/>
<path d="M34.4454 706.295C34.4454 706.295 30.8832 699.285 27 697.478C27 697.478 39.2058 701.285 50.3012 693.899C50.3012 693.899 70.2987 679.586 99.173 685.247L89.3798 691.249L34.4454 706.295Z" fill="#FFDC97"/>
<path d="M33.5657 706.571L93.8769 687.58L126.295 738.486L65.4966 754.418L33.5657 706.571Z" fill="#FFDC97"/>
<path d="M105.769 680.737L148.128 634.001L177.379 683.905L136.43 731.232L105.769 680.737Z" fill="#FFDC97"/>
<path d="M94.4911 685.785C94.4911 685.785 100.881 687.318 103.426 680.184C103.426 680.184 104.661 678.88 106.298 680.898L137.589 732.611C137.589 732.611 133.23 739.512 126.295 738.482L93.877 687.581C93.877 687.581 92.2009 685.914 94.4911 685.785Z" fill="#FFDC97"/>
<path d="M1078.98 124.123C1078.98 124.123 1085.54 116.096 1088.45 116.099C1088.45 116.099 1071.33 118.611 1061.73 109.305C1052.14 99.9991 1024.09 90.8074 1009.5 95.2583L1009.42 99.7293L1078.98 124.123Z" fill="#FFDC97"/>
<path d="M962.894 40.2903C962.894 40.2903 968.451 33.943 968.7 29.3541C968.7 29.3541 969.785 43.0292 981.572 51.1273C981.572 51.1273 1003.81 65.3222 1009.71 96.3361L999.823 88.9821L962.894 40.2903Z" fill="#FFDC97"/>
<path d="M962.268 39.5253L1005.27 91.9951L967.533 144.613L927.38 90.4362L962.268 39.5253Z" fill="#FFDC97"/>
<path d="M1016.84 101.103L1080.3 124.612L1042.29 173.676L978.806 151.807L1016.84 101.103Z" fill="#FFDC97"/>
<path d="M1007.31 91.889C1007.31 91.889 1008.33 98.8647 1016.45 98.5482C1016.45 98.5482 1018.25 99.257 1016.89 101.693L977.895 153.512C977.895 153.512 969.283 151.928 967.537 144.611L1005.27 91.995C1005.27 91.995 1006.26 89.6601 1007.31 91.889Z" fill="#FFDC97"/>
<path d="M53.8708 391.863C54.038 391.743 54.229 391.48 54.4438 391.073C55.1739 389.69 54.2373 388.311 51.6338 386.937C51.1049 386.658 50.3405 386.332 49.3404 385.96C48.3618 385.548 47.6692 385.234 47.2624 385.019C45.2284 383.946 44.8664 382.168 46.1763 379.687C47.5078 377.164 51.1431 377.471 57.0823 380.606C60.9062 382.625 63.4209 384.759 64.6265 387.008C65.8727 389.278 65.9697 391.41 64.9174 393.403C63.4141 396.251 61.0019 397.864 57.6806 398.244C58.4976 399.455 59.0608 400.507 59.3703 401.398C59.7013 402.249 59.8041 403.188 59.6785 404.214C59.5745 405.199 59.2003 406.302 58.5561 407.523C57.2461 410.004 55.2068 411.502 52.4381 412.017C49.6695 412.532 46.6376 411.92 43.3426 410.181C39.2339 408.012 36.5197 406.059 35.2 404.322C33.8611 402.522 33.6426 400.769 34.5445 399.06C35.3176 397.596 36.1178 396.77 36.945 396.582C37.7937 396.354 38.7265 396.508 39.7435 397.045C40.2724 397.324 41.0537 397.815 42.0877 398.517C43.1024 399.156 43.8945 399.627 44.464 399.927C47.5557 401.559 49.4021 401.806 50.0034 400.667C50.1967 400.301 50.2968 399.963 50.3036 399.655C50.3104 399.346 50.2047 399.005 49.9867 398.629C49.7471 398.295 49.3737 397.968 48.8663 397.648C48.3398 397.266 47.6697 396.86 46.8561 396.431C45.1882 395.55 44.1159 394.724 43.6391 393.952C43.1838 393.139 43.2675 392.143 43.8903 390.964C44.8137 389.214 46.4348 388.952 48.7535 390.176C50.2993 390.992 51.4813 391.512 52.2994 391.736C53.1176 391.96 53.6414 392.002 53.8708 391.863Z" fill="#FFDC97"/>
<path d="M922.072 612.317C920.854 609.678 923.724 607.022 926.26 608.441L965.719 630.511C966.854 631.146 968.268 630.978 969.221 630.095L1002.4 599.387C1004.54 597.413 1007.95 599.322 1007.39 602.173L998.589 646.521C998.336 647.795 998.933 649.088 1000.07 649.722L1039.53 671.793C1042.06 673.211 1041.3 677.047 1038.42 677.39L993.52 682.728C992.229 682.882 991.184 683.849 990.932 685.123L982.135 729.471C981.57 732.322 977.687 732.783 976.469 730.145L957.518 689.096C956.973 687.916 955.731 687.221 954.44 687.375L909.545 692.713C906.659 693.056 905.02 689.506 907.153 687.532L940.336 656.825C941.29 655.942 941.567 654.545 941.023 653.365L922.072 612.317Z" fill="#FFDC97"/>
</svg>
