<svg width="1099" height="301" viewBox="0 0 1099 301" fill="none" xmlns="http://www.w3.org/2000/svg">
<path d="M882 41.5C882 64.4198 862.972 83 839.5 83C816.028 83 797 64.4198 797 41.5C797 18.5802 816.028 0 839.5 0C862.972 0 882 18.5802 882 41.5Z" fill="#FFDC97"/>
<path d="M594 201C594 212.046 585.27 221 574.5 221C563.73 221 555 212.046 555 201C555 189.954 563.73 181 574.5 181C585.27 181 594 189.954 594 201Z" fill="#FFDC97"/>
<path d="M1060 69.5C1060 96.2858 1037.84 118 1010.5 118C983.162 118 961 96.2858 961 69.5C961 42.7142 983.162 21 1010.5 21C1037.84 21 1060 42.7142 1060 69.5Z" fill="#FFDC97"/>
<path d="M129 225C129 244.33 113.106 260 93.5 260C73.8939 260 58 244.33 58 225C58 205.67 73.8939 190 93.5 190C113.106 190 129 205.67 129 225Z" fill="#FFDC97"/>
<path d="M611 37.5C611 47.165 602.717 55 592.5 55C582.283 55 574 47.165 574 37.5C574 27.835 582.283 20 592.5 20C602.717 20 611 27.835 611 37.5Z" fill="#FFDC97"/>
<path d="M792.122 155.2L775.189 168.846C773.774 169.983 772.498 170.669 771.362 170.905C770.201 171.144 768.994 170.999 767.931 170.492C767.223 170.193 766.588 169.753 766.064 169.199C765.541 168.644 765.142 167.989 764.892 167.274C764.352 165.793 763.902 163.343 763.54 159.923L762.24 141.871L753.149 161.251C752.227 163.215 751.102 164.446 749.771 164.944C748.441 165.443 746.869 165.293 745.054 164.495C743.012 163.585 741.736 162.477 741.226 161.172C740.716 159.867 741.07 157.913 742.288 155.31L756.292 125.46C757.941 121.946 759.996 119.66 762.458 118.603C764.92 117.546 768.077 117.878 771.931 119.6C773.237 120.147 774.405 120.963 775.357 121.995C776.095 122.771 776.652 123.697 776.989 124.708C777.253 125.686 777.418 126.689 777.48 127.7L777.398 151.93L796.535 136.633C799.796 134.116 803.656 133.85 808.114 135.836C809.982 136.615 811.643 137.8 812.973 139.302C814.144 140.718 814.814 142.471 814.883 144.297C815.002 146.254 814.506 148.419 813.393 150.791L799.419 180.577C797.251 185.073 793.289 186.038 787.533 183.474C785.443 182.541 784.004 181.224 783.216 179.52C782.428 177.817 782.594 175.697 783.714 173.16L792.122 155.2Z" fill="#FFDC97"/>
<path d="M854.127 179.443C856.651 180.569 858.241 181.749 858.897 182.984C859.554 184.219 859.443 185.776 858.564 187.654C857.834 189.21 856.706 190.05 855.18 190.175C853.654 190.3 851.606 189.788 849.035 188.639L837.448 183.47L834.032 190.752L849.5 197.734C852.164 198.923 853.903 200.156 854.716 201.435C855.529 202.714 855.484 204.313 854.581 206.232C853.548 208.433 852.149 209.665 850.383 209.93C848.616 210.194 846.354 209.711 843.595 208.481L820.469 198.165C817.658 196.911 815.936 195.274 815.303 193.252C814.669 191.23 815.214 188.384 816.936 184.713L830.542 155.712C833.122 150.213 837.125 148.675 842.551 151.098L865.692 161.42C868.451 162.65 870.315 163.981 871.287 165.411C872.257 166.84 872.237 168.636 871.228 170.786C870.281 172.805 869.038 173.953 867.497 174.231C865.956 174.509 863.851 174.056 861.183 172.872L845.611 165.926L841.84 173.963L854.127 179.443Z" fill="#FFDC97"/>
<path d="M478.81 160.57C475.349 164.782 470.812 168.139 465.199 170.642C459.585 173.145 454.024 174.296 448.514 174.097C442.982 173.891 437.625 172.111 433.102 168.977C428.341 165.773 424.552 161.188 421.737 155.221C417.477 146.192 416.868 137.775 419.911 129.97C422.954 122.165 428.892 116.293 437.723 112.354C446.558 108.409 455.021 107.852 463.112 110.682C471.202 113.513 477.381 119.443 481.649 128.473C484.466 134.442 485.558 140.231 484.926 145.839C484.394 151.231 482.269 156.348 478.81 160.57ZM459.488 158.436C461.424 157.572 462.695 155.991 463.304 153.692C463.913 151.226 463.939 148.654 463.379 146.172C462.111 140.387 459.527 134.949 455.818 130.262C454.176 128.157 452.101 126.41 449.727 125.135C447.489 123.973 445.427 123.812 443.543 124.654C441.718 125.468 440.543 127.073 440.02 129.469C439.495 132.073 439.495 134.755 440.019 137.363C440.568 140.293 441.496 143.143 442.782 145.847C444.016 148.512 445.596 151.012 447.483 153.285C449.102 155.293 451.148 156.934 453.478 158.094C455.663 159.136 457.666 159.25 459.488 158.436Z" fill="#FFDC97"/>
<path d="M116.539 42.5706C117.405 44.1286 117.143 46.3841 115.753 49.337L102.556 77.3666C100.877 80.9331 99.0121 83.1947 96.9621 84.1513C94.9313 85.0606 92.5709 84.9161 89.8808 83.7176C87.2337 82.5384 85.6279 80.969 85.0634 79.0095C84.4737 77.0974 85.0097 74.3765 86.6716 70.8468L90.1146 63.3593L93.2219 56.5846L70.0938 70.1971C69.4983 70.5455 68.8819 70.8594 68.2479 71.1372L68.0154 71.2722C66.0347 72.2039 63.6529 72.0498 60.8697 70.8099C58.2226 69.6306 56.6168 68.0612 56.0523 66.1017C55.4626 64.1896 55.9986 61.4687 57.6604 57.9391L70.5894 29.945C71.8743 27.2159 73.5491 25.5354 75.6138 24.9035C77.631 24.256 79.8247 24.4603 82.1949 25.5162C84.9303 26.7348 86.7079 28.1142 87.5276 29.6543C88.3962 31.2134 88.1341 33.4689 86.7414 36.4207L78.9927 52.8786L93.2066 44.492L102.549 39.055L102.912 38.8188C104.027 37.9405 105.421 37.4607 106.861 37.4594C108.365 37.4515 109.852 37.7842 111.203 38.4308C113.851 39.6078 115.63 40.9877 116.539 42.5706Z" fill="#FFDC97"/>
</svg>
