<svg width="515" height="423" viewBox="0 0 515 423" fill="none" xmlns="http://www.w3.org/2000/svg">
<circle cx="207.5" cy="211.5" r="207.5" fill="#2B69FF"/>
<circle cx="170" cy="308" r="115" fill="#1754E7"/>
<circle cx="334" cy="20" r="11" fill="#2B69FF"/>
<circle cx="117.5" cy="7.5" r="7.5" fill="#2B69FF"/>
<circle cx="494.5" cy="210.5" r="20.5" fill="#2B69FF"/>
<circle cx="419" cy="280" r="43" fill="#2B69FF"/>
<path d="M191.152 288.832V300.706C191.152 300.706 192.73 306.718 180.112 309.866C167.495 313.015 160.762 312.872 160.905 321.178L167.356 321.536C167.356 321.536 166.427 324.542 173.306 322.966C173.306 322.966 178.608 321.895 179.109 322.106C179.109 322.106 178.061 324.045 184.174 323.422C184.174 323.422 198.247 322.106 205.486 316.595C205.486 316.595 207.276 313.948 203.765 310.799C203.765 310.799 200.396 309.508 200.613 302.494C200.829 295.48 201.184 287.016 201.184 287.016L191.152 288.832Z" fill="#FFA103"/>
<path d="M243.411 288.832V300.705C243.411 300.705 241.821 306.729 254.462 309.878C267.104 313.027 273.817 312.884 273.67 321.189L267.222 321.548C267.222 321.548 268.152 324.554 261.273 322.977C261.273 322.977 255.971 321.906 255.466 322.118C255.466 322.118 256.518 324.057 250.401 323.434C250.401 323.434 236.332 322.118 229.093 316.607C229.093 316.607 227.303 313.959 230.814 310.811C230.814 310.811 234.182 309.52 233.966 302.506C233.75 295.491 233.391 287.027 233.391 287.027L243.411 288.832Z" fill="#FFA103"/>
<path d="M216.945 286.828H207.443C204.046 289.421 199.766 290.578 195.523 290.05C183.554 291.125 179.925 285.064 179.925 285.064L180.112 279.239L174.093 266.356C166.786 259.195 168.825 244.018 168.825 244.018L157.896 240.014C163.629 218.394 185.544 198.35 185.544 198.35L216.615 198.675" fill="#6188AC"/>
<path d="M216.945 286.828H226.451C229.849 289.422 234.131 290.579 238.375 290.05C250.344 291.125 253.973 285.064 253.973 285.064L253.782 279.239L259.801 266.356C267.105 259.195 265.066 244.018 265.066 244.018L276.007 240.014C270.273 218.394 248.346 198.35 248.346 198.35L216.635 198.675" fill="#6188AC"/>
<path d="M204.124 205.799C204.124 205.799 202.978 209.734 204.124 212.096H207.565C207.565 212.096 203.695 213.888 204.128 215.245C204.329 215.829 204.619 216.378 204.988 216.874C205.626 217.768 206.019 218.812 206.13 219.904C207.015 228.181 210.249 260.909 207.565 273.263" stroke="#35506F" stroke-linecap="round" stroke-linejoin="round"/>
<path d="M228.363 205.799C228.363 205.799 229.509 209.734 228.363 212.096H224.922C224.922 212.096 228.792 213.888 228.363 215.245C228.161 215.829 227.869 216.378 227.499 216.874C226.863 217.768 226.47 218.813 226.361 219.904C225.476 228.181 222.242 260.909 224.922 273.263" stroke="#35506F" stroke-linecap="round" stroke-linejoin="round"/>
<path d="M211.701 206.851C211.701 206.851 211.819 206.737 212.891 223.596C214.041 241.693 213.275 272.56 213.275 272.56H219.53C219.53 272.56 219.388 212.386 220.538 206.773L211.701 206.851Z" fill="#DEDBDA"/>
<path d="M168.824 244.019C168.824 244.019 176.621 219.108 182.302 214.672" stroke="#35506F" stroke-miterlimit="10" stroke-linecap="round"/>
<path d="M265.812 244.019C265.812 244.019 258.019 219.108 252.334 214.672" stroke="#35506F" stroke-miterlimit="10" stroke-linecap="round"/>
<path d="M216.243 212.773C217.451 212.773 218.429 211.795 218.429 210.589C218.429 209.384 217.451 208.406 216.243 208.406C215.036 208.406 214.058 209.384 214.058 210.589C214.058 211.795 215.036 212.773 216.243 212.773Z" fill="#528B7F"/>
<path d="M215.946 224.288C217.153 224.288 218.132 223.311 218.132 222.105C218.132 220.899 217.153 219.922 215.946 219.922C214.739 219.922 213.76 220.899 213.76 222.105C213.76 223.311 214.739 224.288 215.946 224.288Z" fill="#528B7F"/>
<path d="M215.946 237.388C217.153 237.388 218.132 236.41 218.132 235.205C218.132 233.999 217.153 233.021 215.946 233.021C214.739 233.021 213.76 233.999 213.76 235.205C213.76 236.41 214.739 237.388 215.946 237.388Z" fill="#528B7F"/>
<path d="M215.946 250.488C217.153 250.488 218.132 249.51 218.132 248.304C218.132 247.099 217.153 246.121 215.946 246.121C214.739 246.121 213.76 247.099 213.76 248.304C213.76 249.51 214.739 250.488 215.946 250.488Z" fill="#528B7F"/>
<path d="M215.946 263.585C217.153 263.585 218.132 262.608 218.132 261.402C218.132 260.196 217.153 259.219 215.946 259.219C214.739 259.219 213.76 260.196 213.76 261.402C213.76 262.608 214.739 263.585 215.946 263.585Z" fill="#528B7F"/>
<path d="M174.534 267.281C174.534 267.281 185.854 272.169 202.986 273.228" stroke="#35506F" stroke-linecap="round" stroke-linejoin="round"/>
<path d="M184.917 278.738C184.917 278.738 192.155 284.82 202.403 286.612" stroke="#35506F" stroke-linecap="round" stroke-linejoin="round"/>
<path d="M232.576 287.043C232.576 287.043 236.878 287.259 248.073 280.742" stroke="#35506F" stroke-linecap="round" stroke-linejoin="round"/>
<path d="M242.037 287.043C245.2 286.409 248.262 285.35 251.139 283.895" stroke="#35506F" stroke-linecap="round" stroke-linejoin="round"/>
<path d="M184.917 283.537C188.292 285.54 192.01 286.899 195.882 287.545" stroke="#35506F" stroke-linecap="round" stroke-linejoin="round"/>
<path d="M232.959 215.865V224.166C232.959 224.166 248.823 224.516 252.836 222.83L249.981 214.684L232.959 215.865Z" stroke="#35506F" stroke-linecap="round" stroke-linejoin="round"/>
<path d="M155.22 247.293C155.22 247.293 153.626 254.592 154.062 260.388C154.125 261.259 154.413 262.099 154.898 262.826C155.383 263.552 156.048 264.141 156.829 264.533C157.609 264.926 158.479 265.11 159.352 265.067C160.225 265.023 161.072 264.755 161.81 264.286C164.742 262.437 168.115 258.95 170.142 252.38L155.22 247.293Z" fill="#FFA103"/>
<path d="M279.432 245.766C279.432 245.766 281.023 253.065 280.59 258.861C280.528 259.732 280.24 260.572 279.755 261.298C279.27 262.025 278.604 262.613 277.824 263.006C277.043 263.399 276.173 263.583 275.3 263.539C274.427 263.496 273.58 263.227 272.842 262.759C269.906 260.91 266.538 257.423 264.511 250.857L279.432 245.766Z" fill="#FFA103"/>
<path d="M154.585 241.354L152.954 245.536C152.427 246.886 153.096 248.407 154.447 248.933L169.422 254.761C170.773 255.287 172.296 254.62 172.822 253.27L174.454 249.087C174.981 247.737 174.312 246.217 172.96 245.691L157.986 239.862C156.634 239.336 155.112 240.004 154.585 241.354Z" fill="#6188AC"/>
<path d="M260.546 248.401L262.178 252.583C262.704 253.933 264.227 254.601 265.578 254.075L280.553 248.246C281.904 247.72 282.573 246.2 282.046 244.85L280.415 240.668C279.888 239.318 278.366 238.65 277.014 239.176L262.04 245.004C260.688 245.53 260.019 247.051 260.546 248.401Z" fill="#6188AC"/>
<path d="M238.693 189.969C238.693 189.969 234.456 182.991 233.726 179.92H200.107C199.393 182.975 195.213 189.969 195.213 189.969L198.145 194.596L216.631 199.594V199.691L216.794 199.646L216.953 199.691V199.606L235.712 194.608L238.693 189.969Z" fill="#D18405"/>
<path d="M239.431 190.954C239.431 190.954 235.455 184.755 234.431 181.928L218.437 183.944C217.239 184.096 216.026 184.096 214.828 183.944L199.409 181.928C198.394 184.592 194.516 190.803 194.516 190.803L198.133 195.113L216.618 199.593V199.691L216.782 199.654L216.941 199.691V199.614L235.699 195.133L239.431 190.954Z" fill="#FFA103"/>
<path d="M185.544 198.35L188.305 195.979C189.242 195.178 190.025 194.211 190.613 193.128L191.29 191.882C191.584 191.336 192.013 190.875 192.536 190.542C193.06 190.21 193.66 190.017 194.28 189.984C198.154 189.784 207.252 191.544 210.71 198.647C210.726 198.639 197.819 203.177 185.544 198.35Z" fill="#6188AC"/>
<path d="M248.346 198.351L245.377 195.801C244.576 195.115 243.908 194.286 243.407 193.357L242.661 191.977C242.342 191.392 241.877 190.899 241.311 190.547C240.745 190.194 240.098 189.993 239.431 189.964C235.488 189.789 226.618 191.594 223.209 198.604C223.209 198.608 236.087 203.178 248.346 198.351Z" fill="#6188AC"/>
<path d="M220.538 206.773C220.538 206.773 222.927 197.934 224.012 197.352C224.012 197.352 219.571 197.242 216.631 198.675C216.631 198.675 212.757 197.453 209.894 197.352C209.894 197.352 211.305 202.753 211.701 206.85" fill="#DEDBDA"/>
<path d="M170.019 90.0966C170.019 90.0966 176.291 80.5205 183.207 71.201C188.917 63.5271 192.901 58.4926 199.878 50.2036C202.978 46.5377 207.904 42.7944 211.533 37.1693C211.667 36.9677 211.849 36.8022 212.062 36.6878C212.276 36.5734 212.514 36.5135 212.757 36.5135C212.999 36.5135 213.237 36.5734 213.451 36.6878C213.664 36.8022 213.846 36.9677 213.98 37.1693C215.159 38.9615 215.122 41.3321 216.101 44.9084C216.101 44.9084 218.845 36.8964 227.278 33.5604C227.278 33.5604 236.124 29.9353 237.424 31.312C238.725 32.6888 237.041 39.5847 237.041 39.5847C237.041 39.5847 247.106 32.7662 251.506 32.7743C251.813 32.7789 252.111 32.8806 252.357 33.0649C252.603 33.2492 252.785 33.5065 252.875 33.8C252.966 34.0936 252.961 34.4082 252.862 34.6988C252.762 34.9895 252.573 35.2412 252.321 35.4178L252.277 35.4463C250.702 36.4809 247.587 40.1346 245.752 48.4195C245.752 48.4195 242.938 56.3093 248.692 68.7856C254.976 82.4064 258.61 86.7647 258.61 86.7647L170.019 90.0966Z" fill="#FFA103"/>
<path d="M270.396 122.801C270.396 90.8625 246.172 64.9609 216.289 64.9609H215.473H214.657C184.774 64.9609 160.55 90.8503 160.55 122.801C160.549 126.338 160.85 129.868 161.452 133.354C160.228 144.503 158.748 155.117 168.168 165.895C181.515 181.166 199.919 180.652 215.473 180.632C231.026 180.612 249.43 181.166 262.778 165.895C272.198 155.117 270.726 144.503 269.498 133.354C270.096 129.868 270.396 126.337 270.396 122.801Z" fill="#FFA103"/>
<path d="M253.394 131.192C253.394 140.271 245.777 146.487 237.702 146.487C229.628 146.487 223.062 139.127 223.062 130.04C223.062 120.952 225.603 111.303 233.665 111.303C237.527 111.303 242.959 113.242 246.784 116.81C250.988 120.712 253.394 126.455 253.394 131.192Z" fill="#C7C6C5"/>
<path d="M246.759 132.417C246.759 138.86 241.809 143.989 236.157 143.989C230.504 143.989 224.673 139.17 224.673 132.722C224.673 126.274 228.6 119.822 234.268 119.822C239.937 119.822 246.759 125.965 246.759 132.417Z" fill="#080808"/>
<path d="M254.915 114.357C254.283 115.616 248.798 113.217 243.99 110.817C239.182 108.418 233.069 107.152 233.722 104.39C234.044 103.021 238.236 99.5468 246.792 105.844C251.115 109.025 255.543 113.102 254.915 114.357Z" fill="#D16A1D"/>
<path d="M173.164 114.357C173.796 115.616 179.281 113.217 184.089 110.817C188.897 108.418 195.009 107.152 194.357 104.39C194.035 103.021 189.843 99.5468 181.287 105.844C176.981 109.025 172.536 113.102 173.164 114.357Z" fill="#D16A1D"/>
<path d="M262.386 159.911C262.386 159.911 258.9 155.385 247.082 152.88C241.265 151.633 235.725 149.338 230.733 146.107C229.167 145.096 227.778 143.836 226.622 142.376C221.459 135.801 215.979 135.044 214.841 134.975H214.625C213.479 135.06 207.937 135.814 202.754 142.559C201.744 143.853 200.529 144.973 199.157 145.875C194.1 149.224 188.461 151.6 182.531 152.88C170.766 155.385 167.295 159.911 167.295 159.911C167.295 159.911 162.471 164.253 182.437 164.253C198.517 164.253 205.025 167.002 206.946 168.074C207.523 168.385 208.145 168.607 208.789 168.733C209.796 168.941 211.305 169.226 212.757 169.405C213.921 169.554 215.1 169.554 216.264 169.405C217.895 169.194 219.637 168.892 220.75 168.689C221.384 168.577 221.995 168.364 222.56 168.057C224.489 166.986 231.026 164.237 247.179 164.237C267.231 164.253 262.386 159.911 262.386 159.911Z" fill="#D16A1D"/>
<path d="M226.372 147.643C227.083 146.86 226.357 145.045 224.75 143.59C223.143 142.136 221.264 141.591 220.553 142.375C219.842 143.158 220.568 144.972 222.175 146.427C223.782 147.882 225.661 148.427 226.372 147.643Z" fill="#B25B19"/>
<path d="M206.948 146.433C208.555 144.978 209.281 143.164 208.57 142.38C207.86 141.597 205.981 142.141 204.374 143.596C202.767 145.051 202.04 146.866 202.751 147.649C203.462 148.432 205.341 147.888 206.948 146.433Z" fill="#B25B19"/>
<path d="M173.747 131.192C173.747 140.271 181.364 146.487 189.439 146.487C197.513 146.487 204.062 139.126 204.062 130.047C204.062 120.968 201.522 111.311 193.46 111.311C189.598 111.311 184.166 113.249 180.341 116.818C176.165 120.712 173.747 126.455 173.747 131.192Z" fill="#C7C6C5"/>
<path d="M180.381 132.419C180.381 138.862 185.332 143.991 190.984 143.991C196.636 143.991 202.468 139.172 202.468 132.724C202.468 126.276 198.537 119.824 192.872 119.824C187.208 119.824 180.381 125.967 180.381 132.419Z" fill="#080808"/>
<path d="M186.372 128.898C187.386 128.898 188.207 128.078 188.207 127.065C188.207 126.053 187.386 125.232 186.372 125.232C185.359 125.232 184.537 126.053 184.537 127.065C184.537 128.078 185.359 128.898 186.372 128.898Z" fill="white"/>
<path d="M229.628 128.898C230.641 128.898 231.463 128.078 231.463 127.065C231.463 126.053 230.641 125.232 229.628 125.232C228.614 125.232 227.792 126.053 227.792 127.065C227.792 128.078 228.614 128.898 229.628 128.898Z" fill="white"/>
<path d="M179.639 163.285C179.639 163.285 192.852 161.745 199.022 160.686C205.192 159.627 208.377 156.059 215.469 156.637H215.546C222.634 156.059 225.741 159.627 231.911 160.69C238.081 161.753 251.298 163.289 251.298 163.289C251.298 163.289 212.504 160.853 179.639 163.285Z" fill="#3C1808"/>
<path d="M125.66 72.1014L130.815 85.6855C131.236 86.8268 131.41 87.7835 131.338 88.5555C131.242 89.3042 130.902 89.9884 130.321 90.608C129.576 91.4012 128.675 91.8145 127.618 91.8478C126.536 91.8579 124.856 91.6102 122.579 91.1047L110.685 88.0521L121.207 97.9311C122.273 98.9318 122.821 99.9127 122.851 100.874C122.905 101.81 122.478 102.762 121.57 103.729C120.546 104.819 119.566 105.391 118.629 105.445C117.668 105.475 116.481 104.827 115.068 103.501L98.8574 88.2807C96.9488 86.4887 95.9184 84.7051 95.7662 82.93C95.614 81.1548 96.5037 79.2386 98.4353 77.1812C99.1567 76.4128 99.9214 75.8715 100.729 75.5574C101.512 75.22 102.206 75.0779 102.809 75.1311C103.41 75.1362 104.087 75.2351 104.838 75.4279L120.41 80.6737L114.659 65.3405C113.735 62.7477 114.391 60.2616 116.625 57.882C117.672 56.7666 118.766 55.9984 119.907 55.5776C121.024 55.1335 122.225 55.0956 123.512 55.464C124.797 55.7842 126.084 56.5495 127.373 57.7596L143.546 72.9446C145.977 75.2734 145.75 77.9745 142.864 81.0482C141.817 82.1636 140.658 82.8015 139.388 82.9618C138.117 83.074 136.788 82.5025 135.402 81.2474L125.66 72.1014Z" fill="#8DE880"/>
<path d="M150.815 42.3279C152.049 41.0142 153.121 40.2949 154.031 40.1699C154.964 40.0202 155.939 40.4225 156.955 41.3766C157.798 42.1679 158.103 43.0603 157.869 44.0538C157.635 44.9993 156.889 46.1413 155.632 47.4798L149.977 53.5032L153.918 57.2034L161.531 49.1701C162.834 47.782 163.975 46.9883 164.955 46.789C165.934 46.5417 166.943 46.9067 167.984 47.8842C169.174 49.0012 169.667 50.1403 169.463 51.3013C169.283 52.4375 168.517 53.7244 167.168 55.1621L155.857 67.2087C154.484 68.6712 153.088 69.3887 151.668 69.3613C150.246 69.2859 148.544 68.3172 146.561 66.4555L130.871 51.7243C127.896 48.9316 127.735 46.1224 130.388 43.2967L141.699 31.25C143.048 29.8124 144.272 28.956 145.37 28.6808C146.491 28.3809 147.634 28.7778 148.799 29.8716C149.89 30.8956 150.367 31.9268 150.232 32.9654C150.094 33.9559 149.374 35.1452 148.071 36.5333L140.461 44.6388L144.811 48.723L150.815 42.3279Z" fill="#8DE880"/>
<path d="M331.832 136.889L318.809 143.331C317.714 143.86 316.778 144.126 316.003 144.129C315.249 144.105 314.535 143.833 313.862 143.314C313.001 142.649 312.502 141.792 312.367 140.743C312.253 139.667 312.337 137.972 312.621 135.657L314.511 123.523L305.694 134.949C304.8 136.107 303.877 136.747 302.923 136.87C301.996 137.014 301.008 136.68 299.958 135.87C298.774 134.956 298.11 134.036 297.966 133.109C297.843 132.155 298.374 130.911 299.558 129.377L313.142 111.773C314.741 109.7 316.417 108.503 318.169 108.18C319.922 107.857 321.915 108.558 324.149 110.282C324.983 110.926 325.596 111.634 325.987 112.408C326.398 113.155 326.606 113.831 326.612 114.437C326.665 115.036 326.631 115.719 326.512 116.486L322.793 132.491L337.5 125.287C339.992 124.117 342.529 124.53 345.113 126.524C346.325 127.458 347.195 128.473 347.724 129.569C348.274 130.637 348.427 131.829 348.185 133.145C347.99 134.455 347.353 135.81 346.273 137.21L332.719 154.773C330.636 157.418 327.926 157.452 324.588 154.876C323.376 153.941 322.63 152.85 322.348 151.601C322.113 150.347 322.554 148.969 323.669 147.468L331.832 136.889Z" fill="#FFAB03"/>
<path d="M352.821 167.644C353.736 168.35 354.828 168.549 356.097 168.24C357.394 167.952 358.633 167.319 359.816 166.342C361.026 165.387 362.151 164.236 363.189 162.89C364.248 161.517 365.097 160.111 365.736 158.671C366.395 157.204 366.721 155.781 366.713 154.4C366.731 153.04 366.297 152.017 365.408 151.332C364.547 150.667 363.461 150.516 362.15 150.879C360.84 151.242 359.545 151.918 358.266 152.907C356.988 153.896 355.829 155.063 354.791 156.409C353.752 157.755 352.924 159.134 352.306 160.547C351.715 161.981 351.431 163.351 351.454 164.657C351.504 165.984 351.96 166.979 352.821 167.644ZM356.634 177.479C353.697 176.888 350.896 175.564 348.232 173.508C345.594 171.472 343.617 169.109 342.3 166.418C341.031 163.721 340.585 160.822 340.961 157.719C341.337 154.616 342.636 151.625 344.858 148.745C348.223 144.384 352.198 141.932 356.782 141.39C361.414 140.842 365.816 142.177 369.988 145.397C374.161 148.616 376.569 152.536 377.213 157.155C377.877 161.748 376.527 166.225 373.162 170.586C370.94 173.466 368.362 175.471 365.429 176.6C362.523 177.75 359.591 178.043 356.634 177.479Z" fill="#FFAB03"/>
<path d="M93.4927 165.813L100.853 185.887L127.236 185.122L119.398 164.283L93.4927 165.813Z" fill="#F9C930"/>
<path d="M119.397 164.283L131.251 145.834L139.663 167.725L127.236 185.122L119.397 164.283Z" fill="#F9C930"/>
<path d="M93.4927 165.811L95.4946 164.282L118.701 162.768L119.398 164.282L93.4927 165.811Z" fill="#C18B1E"/>
<path d="M119.398 164.283L131.251 145.834L129.531 146.518L118.701 162.769L119.398 164.283Z" fill="#C18B1E"/>
<path d="M118.701 162.769C113.68 155.743 98.5383 161.045 98.5383 161.045L96.7095 164.204" fill="#E5EBC1"/>
<path d="M129.094 147.172L125.882 147.475C125.882 147.475 114.321 155.315 115.879 160.397L118.322 162.792H118.747L129.094 147.172Z" fill="#E5EBC1"/>
<path d="M419.159 303.105L448.16 293.386L445.108 290.49L418.381 300.736L419.159 303.105Z" fill="#1D89C8"/>
<path d="M413.923 259.735L450 284.564L417.277 296.978L419.158 303.104L383 273.865L384.963 267.494L411.06 259L413.923 259.735Z" fill="#1DB700"/>
<path d="M445.377 286.318L445.01 291.997L418.567 301.178L417.277 296.979L445.377 286.318Z" fill="#D2EDC5"/>
</svg>
