<svg width="1092" height="851" viewBox="0 0 1092 851" fill="none" xmlns="http://www.w3.org/2000/svg">
<path d="M663.338 718.855L662.215 738.48C662.105 740.122 661.793 741.4 661.279 742.314C660.747 743.186 659.95 743.844 658.89 744.289C657.532 744.858 656.191 744.871 654.866 744.33C653.524 743.745 651.586 742.513 649.051 740.633L636.04 730.301L643.591 748.309C644.356 750.133 644.492 751.648 644 752.852C643.549 754.038 642.497 754.978 640.843 755.672C638.976 756.455 637.45 756.621 636.263 756.171C635.059 755.678 633.95 754.223 632.936 751.805L621.302 724.061C619.933 720.795 619.643 718.023 620.434 715.746C621.225 713.469 623.381 711.592 626.902 710.116C628.217 709.564 629.461 709.317 630.632 709.375C631.786 709.39 632.72 709.596 633.436 709.995C634.176 710.333 634.958 710.828 635.78 711.481L652.125 726.55L653.476 704.435C653.765 700.722 655.945 698.012 660.018 696.304C661.927 695.504 663.702 695.158 665.344 695.268C666.969 695.335 668.474 695.951 669.86 697.115C671.271 698.22 672.439 699.875 673.364 702.081L684.971 729.761C686.689 733.978 684.918 737.19 679.658 739.396C677.749 740.196 675.966 740.345 674.309 739.843C672.677 739.281 671.35 737.842 670.329 735.526L663.338 718.855Z" fill="#FFDC97"/>
<path d="M710.836 695.945C713.085 695.002 714.805 694.704 715.999 695.052C717.234 695.382 718.217 696.416 718.946 698.156C719.551 699.598 719.435 700.869 718.599 701.967C717.788 703.006 716.236 704.006 713.946 704.966L703.637 709.289L706.466 716.034L720.3 710.307C722.676 709.311 724.524 708.96 725.845 709.254C727.19 709.488 728.236 710.496 728.983 712.278C729.837 714.314 729.818 715.993 728.925 717.315C728.076 718.619 726.42 719.787 723.96 720.819L703.343 729.464C700.84 730.513 698.719 730.63 696.98 729.813C695.265 728.936 693.697 726.8 692.274 723.406L681.014 696.554C678.879 691.463 680.23 687.904 685.066 685.876L705.683 677.231C708.143 676.199 710.127 675.816 711.635 676.082C713.186 676.329 714.379 677.45 715.215 679.444C715.998 681.31 716.019 682.848 715.278 684.056C714.563 685.204 713.017 686.276 710.641 687.272L696.77 693.089L699.891 700.534L710.836 695.945Z" fill="#FFDC97"/>
<path d="M382.626 251.461C382.544 251.272 382.327 251.03 381.975 250.734C380.777 249.729 379.232 250.354 377.339 252.609C376.955 253.067 376.475 253.746 375.901 254.645C375.291 255.514 374.839 256.125 374.543 256.478C373.065 258.24 371.251 258.219 369.101 256.415C366.916 254.582 367.983 251.093 372.3 245.948C375.079 242.636 377.695 240.627 380.147 239.923C382.629 239.184 384.734 239.538 386.461 240.987C388.927 243.057 389.996 245.755 389.667 249.082C391.023 248.538 392.17 248.21 393.107 248.095C394.008 247.951 394.947 248.048 395.924 248.387C396.865 248.697 397.864 249.295 398.921 250.182C401.071 251.986 402.106 254.295 402.025 257.11C401.945 259.925 400.708 262.76 398.313 265.614C395.326 269.173 392.845 271.414 390.869 272.338C388.828 273.268 387.067 273.112 385.587 271.87C384.319 270.805 383.68 269.849 383.671 269.001C383.627 268.123 383.974 267.244 384.714 266.363C385.098 265.905 385.742 265.244 386.646 264.382C387.485 263.525 388.112 262.849 388.526 262.356C390.773 259.678 391.403 257.925 390.417 257.097C390.1 256.831 389.791 256.662 389.491 256.59C389.191 256.519 388.834 256.55 388.422 256.684C388.044 256.848 387.645 257.144 387.226 257.572C386.741 258.006 386.204 258.576 385.612 259.281C384.4 260.725 383.366 261.599 382.511 261.903C381.621 262.177 380.665 261.885 379.643 261.027C378.128 259.756 378.213 258.116 379.898 256.107C381.022 254.768 381.779 253.722 382.17 252.97C382.562 252.217 382.714 251.714 382.626 251.461Z" fill="#FFDC97"/>
<path d="M411.679 233.583C413.133 233.782 414.274 233.389 415.102 232.402C415.9 231.451 415.887 230.178 415.062 228.585C414.787 228.054 414.464 227.544 414.095 227.054C413.901 227.071 413.691 227.105 413.467 227.158C413.09 227.321 412.659 227.62 412.174 228.054C411.755 228.483 411.249 229.049 410.658 229.754C410.096 230.424 409.555 230.961 409.036 231.365L411.679 233.583ZM406.084 221.143C404.272 220.583 402.982 220.761 402.213 221.677C401.415 222.629 401.275 223.833 401.794 225.289L404.279 227.374C404.486 227.127 404.707 226.863 404.944 226.581C406.068 225.242 406.825 224.196 407.216 223.443C407.607 222.691 407.745 222.205 407.628 221.987C407.587 221.893 407.528 221.784 407.452 221.66C406.976 221.44 406.52 221.268 406.084 221.143ZM419.505 215.561C420.442 215.446 421.399 215.558 422.375 215.897C423.352 216.236 424.404 216.879 425.532 217.825C427.752 219.688 428.824 222.059 428.75 224.939C428.756 226.506 428.389 228.089 427.647 229.688C427.195 230.87 426.526 231.99 425.639 233.047C423.067 236.113 420.077 238.138 416.669 239.122C417.352 240.956 416.718 243.035 414.766 245.361C412.903 247.581 411.197 248.792 409.647 248.993C408.062 249.164 406.213 248.362 404.099 246.588L390.356 235.057C388.136 233.194 387.064 231.394 387.141 229.657C387.182 227.89 388.001 226.055 389.598 224.152C391.372 222.038 393.539 221.244 396.099 221.771C396.131 217.655 397.344 214.169 399.739 211.315C400.597 210.293 401.568 209.457 402.654 208.807C403.853 207.951 405.009 207.36 406.123 207.034C408.641 206.324 410.798 206.723 412.595 208.231C415.167 210.389 416.292 213.164 415.968 216.556C417.36 216.042 418.539 215.71 419.505 215.561Z" fill="#FFDC97"/>
<path d="M445.17 179.501C451.195 184.557 455.258 188.266 457.359 190.629C459.272 192.715 460.752 194.708 461.8 196.608C462.883 198.537 463.565 200.551 463.847 202.649C464.164 204.776 463.912 206.937 463.092 209.131C462.271 211.325 460.885 213.585 458.934 215.91C457.367 217.778 455.621 219.286 453.697 220.434C451.838 221.576 450.104 222.283 448.495 222.554C446.951 222.82 445.57 222.892 444.351 222.77C443.133 222.648 442.241 222.35 441.677 221.877C441.114 221.404 440.733 220.784 440.535 220.018C440.402 219.246 440.602 218.543 441.134 217.909C441.519 217.45 442.103 217.04 442.888 216.678C443.702 216.28 444.522 215.947 445.347 215.679C446.173 215.411 447.052 215.007 447.984 214.469C448.916 213.93 449.693 213.291 450.314 212.551C451.911 210.648 452.559 208.91 452.258 207.336C451.986 205.727 450.97 204.184 449.208 202.705C448.952 203.511 448.675 204.27 448.378 204.982C448.081 205.693 447.764 206.358 447.426 206.975C447.088 207.592 446.73 208.162 446.352 208.685C446.002 209.173 445.636 209.646 445.251 210.104C443.507 212.183 441.432 213.475 439.027 213.979C436.623 214.483 434.294 214.36 432.04 213.611C429.782 212.796 427.665 211.561 425.692 209.905C423.719 208.249 422.06 206.827 420.715 205.639C419.4 204.415 418.288 203.272 417.378 202.208C416.434 201.116 415.733 200.197 415.276 199.454C414.849 198.675 414.619 197.911 414.586 197.163C414.518 196.386 414.635 195.673 414.938 195.026C415.24 194.38 415.702 193.686 416.323 192.946C418.186 190.726 419.875 189.501 421.389 189.27C422.898 188.975 424.463 189.508 426.084 190.868L434.638 197.956C435.202 198.429 435.625 198.784 435.906 199.02C436.153 199.227 436.485 199.476 436.902 199.766C437.349 200.02 437.69 200.186 437.925 200.264C438.19 200.306 438.488 200.345 438.817 200.382C439.141 200.353 439.442 200.245 439.72 200.058C440.027 199.835 440.343 199.53 440.668 199.142C441.555 198.085 441.82 197.197 441.463 196.477C441.101 195.692 440.144 194.65 438.594 193.349L430.075 186.111C428.983 185.194 428.25 184.279 427.876 183.364C427.532 182.415 427.553 181.352 427.94 180.175C428.327 178.999 429.156 177.653 430.427 176.138C431.196 175.221 432.005 174.579 432.854 174.211C433.698 173.778 434.529 173.575 435.348 173.601C436.131 173.598 437.072 173.907 438.172 174.529C439.265 175.087 440.317 175.729 441.328 176.457C442.339 177.185 443.619 178.2 445.17 179.501Z" fill="#FFDC97"/>
<path d="M468.598 156.517C469.988 154.861 471.726 153.827 473.812 153.416C475.893 152.94 477.938 153.545 479.946 155.23C482.624 157.478 484.073 159.294 484.292 160.678C484.482 162.099 483.63 163.936 481.738 166.191C479.993 168.27 478.381 169.44 476.902 169.7C475.417 169.895 473.865 169.313 472.244 167.953C471.433 167.273 470.775 166.84 470.269 166.656C469.728 166.442 469.298 166.382 468.98 166.475C468.667 166.633 468.304 166.959 467.89 167.452L466.293 169.355C468.125 170.892 469.391 172.855 470.09 175.243C470.788 177.63 470.398 179.705 468.92 181.467C467.264 183.44 465.491 184.445 463.6 184.479C461.704 184.449 459.346 183.252 456.527 180.886L445.533 171.661C444.053 170.419 443.062 169.167 442.559 167.905C442.022 166.613 441.885 165.417 442.148 164.317C442.44 163.181 443.083 161.949 444.077 160.622C445.91 158.437 447.878 157.595 449.978 158.097C451.444 158.426 453.293 159.407 455.525 161.04C456.268 160.943 457.023 160.436 457.792 159.52C458.502 158.674 458.796 157.93 458.674 157.287C458.559 156.71 457.937 155.948 456.809 155.002C455.153 153.612 454.31 152.184 454.279 150.717C454.279 149.215 455.151 147.425 456.895 145.346C458.728 143.161 460.361 142.039 461.792 141.979C463.218 141.854 464.97 142.664 467.049 144.408C469.234 146.242 470.378 148.313 470.482 150.622C470.587 152.931 469.958 154.896 468.598 156.517Z" fill="#FFDC97"/>
<path d="M488.459 135.531C490.468 137.217 492.123 137.284 493.424 135.734C493.867 135.205 494.093 134.614 494.101 133.96C494.104 133.242 493.894 132.525 493.472 131.811C493.051 131.097 492.452 130.415 491.677 129.764L484.594 123.821C483.396 122.816 482.534 121.732 482.008 120.57C481.447 119.378 481.259 118.17 481.446 116.946C481.633 115.722 482.184 114.563 483.101 113.471C484.698 111.568 486.362 110.443 488.095 110.095C489.793 109.718 491.751 110.461 493.971 112.324L507.714 123.855C509.864 125.659 510.974 127.341 511.045 128.902C511.117 130.463 510.221 132.354 508.358 134.574C507.56 135.525 506.792 136.262 506.054 136.784C505.28 137.276 504.523 137.571 503.78 137.668C503.067 137.731 502.305 137.601 501.493 137.281C501.232 139.524 500.616 141.618 499.643 143.565C498.7 145.475 497.401 147.418 495.745 149.391C493.646 151.893 491.169 152.877 488.314 152.343C485.424 151.78 481.741 149.62 477.266 145.865C475.046 144.002 473.293 142.441 472.008 141.183C470.687 139.894 469.622 138.73 468.813 137.691C467.998 136.587 467.536 135.599 467.427 134.727C467.348 133.819 467.468 132.96 467.789 132.148C468.139 131.301 468.758 130.349 469.645 129.292C471.301 127.319 472.854 126.22 474.303 125.995C475.783 125.735 477.262 126.226 478.742 127.468L488.459 135.531Z" fill="#FFDC97"/>
<path d="M55.772 226.904L162.619 278.316L228.366 212.399L120.784 160.633L55.772 226.904Z" fill="#FFDC97"/>
<path d="M57.141 219.904L57.5943 219.448L118.38 158.17L225.689 209.804L226.367 212.399L118.784 160.633L53.7723 226.905L49.4501 203.197L115.673 136.296L116.199 138.972L53.9976 201.603L57.141 219.904Z" fill="#FFDC97"/>
<path d="M116.199 138.972L222.924 190.325L222.028 187.472L115.673 136.297L116.199 138.972Z" fill="#FFDC97"/>
<path d="M53.9974 201.603L116.199 138.972L222.064 189.912L223.201 208.608L118.38 158.171L57.1408 219.904L53.9974 201.603Z" fill="#FFDC97"/>
<path d="M689.082 463.466L625.471 492.389L630.463 547.028L694.512 517.906L689.082 463.466Z" fill="#FFDC97"/>
<path d="M690.976 467.633L691.012 468.01L695.778 518.653L631.892 547.701L630.462 547.027L694.511 517.905L689.081 463.465L701.439 470.463L706.696 525.689L705.287 524.917L700.443 473.123L690.976 467.633Z" fill="#FFDC97"/>
<path d="M705.571 525.399L642.033 554.288L643.662 554.961L706.98 526.171L705.571 525.399Z" fill="#FFDC97"/>
<path d="M700.444 473.123L705.288 524.917L642.262 553.574L633.374 547.027L695.779 518.653L690.977 467.633L700.444 473.123Z" fill="#FFDC97"/>
<path d="M222.246 630.975C222.246 630.975 217.58 622.512 218.591 620C218.591 620 214.824 635.678 203.444 640.748C192.065 645.818 174.381 666.889 173.166 681.057L177.008 682.673L222.246 630.975Z" fill="#FFDC97"/>
<path d="M109.445 702.295C109.445 702.295 105.883 695.285 102 693.478C102 693.478 114.206 697.285 125.301 689.899C125.301 689.899 145.299 675.586 174.173 681.247L164.38 687.249L109.445 702.295Z" fill="#FFDC97"/>
<path d="M108.566 702.571L168.877 683.58L201.295 734.486L140.497 750.418L108.566 702.571Z" fill="#FFDC97"/>
<path d="M180.769 676.737L223.128 630.001L252.379 679.905L211.43 727.232L180.769 676.737Z" fill="#FFDC97"/>
<path d="M169.491 681.785C169.491 681.785 175.881 683.318 178.426 676.184C178.426 676.184 179.661 674.88 181.298 676.898L212.589 728.611C212.589 728.611 208.23 735.512 201.295 734.482L168.877 683.581C168.877 683.581 167.201 681.914 169.491 681.785Z" fill="#FFDC97"/>
<path d="M1081.98 240.123C1081.98 240.123 1088.54 232.096 1091.45 232.099C1091.45 232.099 1074.33 234.611 1064.73 225.305C1055.14 215.999 1027.09 206.807 1012.5 211.258L1012.42 215.729L1081.98 240.123Z" fill="#FFDC97"/>
<path d="M965.894 156.29C965.894 156.29 971.451 149.943 971.699 145.354C971.699 145.354 972.785 159.029 984.571 167.127C984.571 167.127 1006.81 181.322 1012.71 212.336L1002.82 204.982L965.894 156.29Z" fill="#FFDC97"/>
<path d="M965.268 155.525L1008.27 207.995L970.533 260.613L930.38 206.436L965.268 155.525Z" fill="#FFDC97"/>
<path d="M1019.84 217.103L1083.3 240.612L1045.29 289.676L981.805 267.807L1019.84 217.103Z" fill="#FFDC97"/>
<path d="M1010.31 207.889C1010.31 207.889 1011.33 214.865 1019.45 214.548C1019.45 214.548 1021.25 215.257 1019.89 217.693L980.895 269.512C980.895 269.512 972.282 267.928 970.537 260.611L1008.27 207.995C1008.27 207.995 1009.26 205.66 1010.31 207.889Z" fill="#FFDC97"/>
<path d="M29.7321 499.479C29.8993 499.359 30.0904 499.096 30.3051 498.689C31.0353 497.306 30.0986 495.928 27.4951 494.553C26.9663 494.274 26.2018 493.948 25.2018 493.577C24.2232 493.164 23.5305 492.85 23.1237 492.636C21.0897 491.562 20.7277 489.784 22.0377 487.303C23.3691 484.781 27.0045 485.087 32.9437 488.223C36.7676 490.241 39.2823 492.375 40.4878 494.624C41.734 496.894 41.831 499.026 40.7787 501.019C39.2755 503.867 36.8632 505.48 33.542 505.86C34.3589 507.071 34.9221 508.123 35.2317 509.015C35.5627 509.866 35.6654 510.804 35.5399 511.83C35.4358 512.815 35.0617 513.918 34.4174 515.139C33.1074 517.62 31.0681 519.118 28.2995 519.633C25.5308 520.149 22.4989 519.536 19.2039 517.797C15.0952 515.628 12.3811 513.675 11.0613 511.938C9.72242 510.139 9.50393 508.385 10.4059 506.676C11.179 505.212 11.9791 504.386 12.8063 504.198C13.655 503.97 14.5879 504.124 15.6049 504.661C16.1337 504.941 16.9151 505.431 17.949 506.133C18.9637 506.773 19.7558 507.243 20.3253 507.543C23.417 509.176 25.2635 509.422 25.8648 508.283C26.058 507.917 26.1581 507.58 26.1649 507.271C26.1717 506.963 26.0661 506.621 25.848 506.246C25.6085 505.911 25.235 505.584 24.7277 505.264C24.2011 504.882 23.531 504.476 22.7174 504.047C21.0496 503.166 19.9772 502.34 19.5004 501.568C19.0451 500.756 19.1288 499.76 19.7516 498.58C20.675 496.831 22.2961 496.568 24.6148 497.792C26.1607 498.608 27.3426 499.128 28.1608 499.352C28.9789 499.576 29.5027 499.618 29.7321 499.479Z" fill="#FFDC97"/>
<path d="M732.072 172.317C730.854 169.678 733.724 167.022 736.26 168.441L775.719 190.511C776.854 191.146 778.268 190.978 779.221 190.095L812.405 159.387C814.538 157.413 817.951 159.322 817.385 162.173L808.589 206.521C808.336 207.795 808.933 209.088 810.067 209.722L849.526 231.793C852.062 233.211 851.301 237.047 848.415 237.39L803.52 242.728C802.229 242.882 801.184 243.849 800.932 245.123L792.135 289.471C791.57 292.322 787.687 292.783 786.469 290.145L767.518 249.096C766.973 247.916 765.731 247.221 764.44 247.375L719.545 252.713C716.659 253.056 715.02 249.506 717.153 247.532L750.336 216.825C751.29 215.942 751.567 214.545 751.023 213.365L732.072 172.317Z" fill="#FFDC97"/>
</svg>
