<svg width="144" height="125" viewBox="0 0 144 125" fill="none" xmlns="http://www.w3.org/2000/svg">
<path d="M26.559 102.399C26.4457 102.399 26.3494 102.365 26.27 102.297C26.202 102.218 26.168 102.122 26.168 102.008V93.9504C26.168 93.8371 26.202 93.7464 26.27 93.6784C26.3494 93.5991 26.4457 93.5594 26.559 93.5594H27.324C27.4374 93.5594 27.528 93.5991 27.596 93.6784C27.6754 93.7464 27.715 93.8371 27.715 93.9504V94.5454C27.9757 94.1941 28.3044 93.9164 28.701 93.7124C29.0977 93.4971 29.5737 93.3894 30.129 93.3894C31.4097 93.3781 32.3164 93.8994 32.849 94.9534C33.1097 94.4774 33.4894 94.0977 33.988 93.8144C34.4867 93.5311 35.0534 93.3894 35.688 93.3894C36.2774 93.3894 36.81 93.5254 37.286 93.7974C37.7734 94.0694 38.153 94.4831 38.425 95.0384C38.7084 95.5824 38.85 96.2681 38.85 97.0954V102.008C38.85 102.122 38.8104 102.218 38.731 102.297C38.663 102.365 38.5724 102.399 38.459 102.399H37.66C37.5467 102.399 37.4504 102.365 37.371 102.297C37.303 102.218 37.269 102.122 37.269 102.008V97.2484C37.269 96.6137 37.1784 96.1151 36.997 95.7524C36.8157 95.3897 36.572 95.1347 36.266 94.9874C35.96 94.8401 35.6257 94.7664 35.263 94.7664C34.9684 94.7664 34.668 94.8401 34.362 94.9874C34.056 95.1347 33.801 95.3897 33.597 95.7524C33.4044 96.1151 33.308 96.6137 33.308 97.2484V102.008C33.308 102.122 33.2684 102.218 33.189 102.297C33.121 102.365 33.0304 102.399 32.917 102.399H32.118C32.0047 102.399 31.9084 102.365 31.829 102.297C31.761 102.218 31.727 102.122 31.727 102.008V97.2484C31.727 96.6137 31.6307 96.1151 31.438 95.7524C31.2454 95.3897 30.996 95.1347 30.69 94.9874C30.384 94.8401 30.061 94.7664 29.721 94.7664C29.4264 94.7664 29.126 94.8401 28.82 94.9874C28.514 95.1347 28.259 95.3897 28.055 95.7524C27.8624 96.1151 27.766 96.6081 27.766 97.2314V102.008C27.766 102.122 27.7264 102.218 27.647 102.297C27.579 102.365 27.4884 102.399 27.375 102.399H26.559ZM44.1654 102.569C43.5988 102.569 43.0831 102.456 42.6184 102.229C42.1538 102.003 41.7798 101.697 41.4964 101.311C41.2131 100.926 41.0714 100.49 41.0714 100.002C41.0714 99.2204 41.3888 98.5971 42.0234 98.1324C42.6581 97.6677 43.4854 97.3617 44.5054 97.2144L47.0384 96.8574V96.3644C47.0384 95.8204 46.8798 95.3954 46.5624 95.0894C46.2564 94.7834 45.7521 94.6304 45.0494 94.6304C44.5394 94.6304 44.1258 94.7324 43.8084 94.9364C43.5024 95.1404 43.2871 95.4011 43.1624 95.7184C43.0944 95.8884 42.9754 95.9734 42.8054 95.9734H42.0404C41.9158 95.9734 41.8194 95.9394 41.7514 95.8714C41.6948 95.7921 41.6664 95.7014 41.6664 95.5994C41.6664 95.4294 41.7288 95.2197 41.8534 94.9704C41.9894 94.7211 42.1934 94.4774 42.4654 94.2394C42.7374 94.0014 43.0831 93.8031 43.5024 93.6444C43.9331 93.4744 44.4544 93.3894 45.0664 93.3894C45.7464 93.3894 46.3188 93.4801 46.7834 93.6614C47.2481 93.8314 47.6108 94.0637 47.8714 94.3584C48.1434 94.6531 48.3361 94.9874 48.4494 95.3614C48.5741 95.7354 48.6364 96.1151 48.6364 96.5004V102.008C48.6364 102.122 48.5968 102.218 48.5174 102.297C48.4494 102.365 48.3588 102.399 48.2454 102.399H47.4634C47.3388 102.399 47.2424 102.365 47.1744 102.297C47.1064 102.218 47.0724 102.122 47.0724 102.008V101.277C46.9251 101.481 46.7268 101.685 46.4774 101.889C46.2281 102.082 45.9164 102.246 45.5424 102.382C45.1684 102.507 44.7094 102.569 44.1654 102.569ZM44.5224 101.294C44.9871 101.294 45.4121 101.198 45.7974 101.005C46.1828 100.801 46.4831 100.49 46.6984 100.07C46.9251 99.6511 47.0384 99.1241 47.0384 98.4894V98.0134L45.0664 98.3024C44.2618 98.4157 43.6554 98.6084 43.2474 98.8804C42.8394 99.1411 42.6354 99.4754 42.6354 99.8834C42.6354 100.201 42.7261 100.467 42.9074 100.682C43.1001 100.886 43.3381 101.039 43.6214 101.141C43.9161 101.243 44.2164 101.294 44.5224 101.294ZM54.5653 102.569C53.9307 102.569 53.3867 102.49 52.9333 102.331C52.48 102.173 52.1117 101.98 51.8283 101.753C51.545 101.527 51.3297 101.3 51.1823 101.073C51.0463 100.847 50.9727 100.665 50.9613 100.529C50.95 100.405 50.9897 100.308 51.0803 100.24C51.171 100.172 51.2617 100.138 51.3523 100.138H52.1003C52.1683 100.138 52.2193 100.15 52.2533 100.172C52.2987 100.184 52.3553 100.229 52.4233 100.308C52.5707 100.467 52.735 100.626 52.9163 100.784C53.0977 100.943 53.3187 101.073 53.5793 101.175C53.8513 101.277 54.1857 101.328 54.5823 101.328C55.1603 101.328 55.6363 101.221 56.0103 101.005C56.3843 100.779 56.5713 100.45 56.5713 100.019C56.5713 99.7361 56.492 99.5094 56.3333 99.3394C56.186 99.1694 55.914 99.0164 55.5173 98.8804C55.132 98.7444 54.5993 98.6027 53.9193 98.4554C53.2393 98.2967 52.701 98.1041 52.3043 97.8774C51.9077 97.6394 51.6243 97.3617 51.4543 97.0444C51.2843 96.7157 51.1993 96.3474 51.1993 95.9394C51.1993 95.5201 51.324 95.1177 51.5733 94.7324C51.8227 94.3357 52.1853 94.0127 52.6613 93.7634C53.1487 93.5141 53.755 93.3894 54.4803 93.3894C55.0697 93.3894 55.574 93.4631 55.9933 93.6104C56.4127 93.7577 56.7583 93.9447 57.0303 94.1714C57.3023 94.3867 57.5063 94.6021 57.6423 94.8174C57.7783 95.0327 57.852 95.2141 57.8633 95.3614C57.8747 95.4747 57.8407 95.5711 57.7613 95.6504C57.682 95.7184 57.5913 95.7524 57.4893 95.7524H56.7753C56.696 95.7524 56.628 95.7354 56.5713 95.7014C56.526 95.6674 56.4807 95.6277 56.4353 95.5824C56.322 95.4351 56.186 95.2877 56.0273 95.1404C55.88 94.9931 55.6817 94.8741 55.4323 94.7834C55.1943 94.6814 54.877 94.6304 54.4803 94.6304C53.9137 94.6304 53.4887 94.7494 53.2053 94.9874C52.922 95.2254 52.7803 95.5257 52.7803 95.8884C52.7803 96.1037 52.8427 96.2964 52.9673 96.4664C53.092 96.6364 53.33 96.7894 53.6813 96.9254C54.0327 97.0614 54.554 97.2087 55.2453 97.3674C55.9933 97.5147 56.5827 97.7131 57.0133 97.9624C57.444 98.2117 57.75 98.5007 57.9313 98.8294C58.1127 99.1581 58.2033 99.5377 58.2033 99.9684C58.2033 100.444 58.0617 100.881 57.7783 101.277C57.5063 101.674 57.0983 101.991 56.5543 102.229C56.0217 102.456 55.3587 102.569 54.5653 102.569ZM64.0307 102.399C63.3961 102.399 62.8804 102.28 62.4837 102.042C62.0871 101.793 61.7981 101.447 61.6167 101.005C61.4354 100.552 61.3447 100.019 61.3447 99.4074V94.9194H60.0187C59.9054 94.9194 59.8091 94.8854 59.7297 94.8174C59.6617 94.7381 59.6277 94.6417 59.6277 94.5284V93.9504C59.6277 93.8371 59.6617 93.7464 59.7297 93.6784C59.8091 93.5991 59.9054 93.5594 60.0187 93.5594H61.3447V90.7204C61.3447 90.6071 61.3787 90.5164 61.4467 90.4484C61.5261 90.3691 61.6224 90.3294 61.7357 90.3294H62.5347C62.6481 90.3294 62.7387 90.3691 62.8067 90.4484C62.8861 90.5164 62.9257 90.6071 62.9257 90.7204V93.5594H65.0337C65.1471 93.5594 65.2377 93.5991 65.3057 93.6784C65.3851 93.7464 65.4247 93.8371 65.4247 93.9504V94.5284C65.4247 94.6417 65.3851 94.7381 65.3057 94.8174C65.2377 94.8854 65.1471 94.9194 65.0337 94.9194H62.9257V99.2884C62.9257 99.8211 63.0164 100.24 63.1977 100.546C63.3791 100.852 63.7021 101.005 64.1667 101.005H65.2037C65.3171 101.005 65.4077 101.045 65.4757 101.124C65.5551 101.192 65.5947 101.283 65.5947 101.396V102.008C65.5947 102.122 65.5551 102.218 65.4757 102.297C65.4077 102.365 65.3171 102.399 65.2037 102.399H64.0307ZM71.1644 102.569C69.997 102.569 69.0677 102.212 68.3764 101.498C67.685 100.773 67.3054 99.7871 67.2374 98.5404C67.226 98.3931 67.2204 98.2061 67.2204 97.9794C67.2204 97.7414 67.226 97.5487 67.2374 97.4014C67.2827 96.5967 67.4697 95.8941 67.7984 95.2934C68.127 94.6814 68.5747 94.2111 69.1414 93.8824C69.7194 93.5537 70.3937 93.3894 71.1644 93.3894C72.0257 93.3894 72.7454 93.5707 73.3234 93.9334C73.9127 94.2961 74.3604 94.8117 74.6664 95.4804C74.9724 96.1491 75.1254 96.9311 75.1254 97.8264V98.1154C75.1254 98.2401 75.0857 98.3364 75.0064 98.4044C74.9384 98.4724 74.8477 98.5064 74.7344 98.5064H68.8524C68.8524 98.5177 68.8524 98.5404 68.8524 98.5744C68.8524 98.6084 68.8524 98.6367 68.8524 98.6594C68.875 99.1241 68.977 99.5604 69.1584 99.9684C69.3397 100.365 69.6004 100.688 69.9404 100.937C70.2804 101.187 70.6884 101.311 71.1644 101.311C71.5724 101.311 71.9124 101.249 72.1844 101.124C72.4564 101 72.6774 100.864 72.8474 100.716C73.0174 100.558 73.1307 100.439 73.1874 100.359C73.2894 100.212 73.3687 100.127 73.4254 100.104C73.482 100.07 73.5727 100.053 73.6974 100.053H74.5134C74.6267 100.053 74.7174 100.087 74.7854 100.155C74.8647 100.212 74.8987 100.297 74.8874 100.41C74.876 100.58 74.7854 100.79 74.6154 101.039C74.4454 101.277 74.2017 101.515 73.8844 101.753C73.567 101.991 73.1817 102.19 72.7284 102.348C72.275 102.496 71.7537 102.569 71.1644 102.569ZM68.8524 97.3334H73.5104V97.2824C73.5104 96.7724 73.414 96.3191 73.2214 95.9224C73.04 95.5257 72.7737 95.2141 72.4224 94.9874C72.071 94.7494 71.6517 94.6304 71.1644 94.6304C70.677 94.6304 70.2577 94.7494 69.9064 94.9874C69.5664 95.2141 69.3057 95.5257 69.1244 95.9224C68.943 96.3191 68.8524 96.7724 68.8524 97.2824V97.3334ZM77.9741 102.399C77.8607 102.399 77.7644 102.365 77.6851 102.297C77.6171 102.218 77.5831 102.122 77.5831 102.008V93.9674C77.5831 93.8541 77.6171 93.7577 77.6851 93.6784C77.7644 93.5991 77.8607 93.5594 77.9741 93.5594H78.7561C78.8694 93.5594 78.9657 93.5991 79.0451 93.6784C79.1244 93.7577 79.1641 93.8541 79.1641 93.9674V94.7154C79.3907 94.3301 79.7024 94.0411 80.0991 93.8484C80.4957 93.6557 80.9717 93.5594 81.5271 93.5594H82.2071C82.3204 93.5594 82.4111 93.5991 82.4791 93.6784C82.5471 93.7464 82.5811 93.8371 82.5811 93.9504V94.6474C82.5811 94.7607 82.5471 94.8514 82.4791 94.9194C82.4111 94.9874 82.3204 95.0214 82.2071 95.0214H81.1871C80.5751 95.0214 80.0934 95.2027 79.7421 95.5654C79.3907 95.9167 79.2151 96.3984 79.2151 97.0104V102.008C79.2151 102.122 79.1754 102.218 79.0961 102.297C79.0167 102.365 78.9204 102.399 78.8071 102.399H77.9741ZM87.8701 102.569C87.0654 102.569 86.3684 102.416 85.7791 102.11C85.2011 101.793 84.7534 101.345 84.4361 100.767C84.1187 100.178 83.9487 99.4754 83.9261 98.6594C83.9147 98.4894 83.9091 98.2627 83.9091 97.9794C83.9091 97.6961 83.9147 97.4694 83.9261 97.2994C83.9487 96.4834 84.1187 95.7864 84.4361 95.2084C84.7534 94.6191 85.2011 94.1714 85.7791 93.8654C86.3684 93.5481 87.0654 93.3894 87.8701 93.3894C88.5274 93.3894 89.0884 93.4801 89.5531 93.6614C90.0291 93.8427 90.4201 94.0751 90.7261 94.3584C91.0321 94.6417 91.2587 94.9477 91.4061 95.2764C91.5647 95.6051 91.6497 95.9167 91.6611 96.2114C91.6724 96.3247 91.6384 96.4154 91.5591 96.4834C91.4797 96.5514 91.3834 96.5854 91.2701 96.5854H90.4541C90.3407 96.5854 90.2557 96.5627 90.1991 96.5174C90.1424 96.4607 90.0857 96.3701 90.0291 96.2454C89.8251 95.6901 89.5474 95.2991 89.1961 95.0724C88.8447 94.8457 88.4084 94.7324 87.8871 94.7324C87.2071 94.7324 86.6517 94.9421 86.2211 95.3614C85.8017 95.7807 85.5751 96.4551 85.5411 97.3844C85.5297 97.7924 85.5297 98.1891 85.5411 98.5744C85.5751 99.5151 85.8017 100.195 86.2211 100.614C86.6517 101.022 87.2071 101.226 87.8871 101.226C88.4084 101.226 88.8447 101.113 89.1961 100.886C89.5474 100.66 89.8251 100.269 90.0291 99.7134C90.0857 99.5887 90.1424 99.5037 90.1991 99.4584C90.2557 99.4017 90.3407 99.3734 90.4541 99.3734H91.2701C91.3834 99.3734 91.4797 99.4074 91.5591 99.4754C91.6384 99.5434 91.6724 99.6341 91.6611 99.7474C91.6497 99.9854 91.5987 100.229 91.5081 100.478C91.4174 100.728 91.2701 100.983 91.0661 101.243C90.8734 101.493 90.6297 101.719 90.3351 101.923C90.0404 102.116 89.6834 102.275 89.2641 102.399C88.8561 102.513 88.3914 102.569 87.8701 102.569ZM96.5699 102.569C96.0033 102.569 95.4876 102.456 95.0229 102.229C94.5583 102.003 94.1843 101.697 93.9009 101.311C93.6176 100.926 93.4759 100.49 93.4759 100.002C93.4759 99.2204 93.7933 98.5971 94.4279 98.1324C95.0626 97.6677 95.8899 97.3617 96.9099 97.2144L99.4429 96.8574V96.3644C99.4429 95.8204 99.2843 95.3954 98.9669 95.0894C98.6609 94.7834 98.1566 94.6304 97.4539 94.6304C96.9439 94.6304 96.5303 94.7324 96.2129 94.9364C95.9069 95.1404 95.6916 95.4011 95.5669 95.7184C95.4989 95.8884 95.3799 95.9734 95.2099 95.9734H94.4449C94.3203 95.9734 94.2239 95.9394 94.1559 95.8714C94.0993 95.7921 94.0709 95.7014 94.0709 95.5994C94.0709 95.4294 94.1333 95.2197 94.2579 94.9704C94.3939 94.7211 94.5979 94.4774 94.8699 94.2394C95.1419 94.0014 95.4876 93.8031 95.9069 93.6444C96.3376 93.4744 96.8589 93.3894 97.4709 93.3894C98.1509 93.3894 98.7233 93.4801 99.1879 93.6614C99.6526 93.8314 100.015 94.0637 100.276 94.3584C100.548 94.6531 100.741 94.9874 100.854 95.3614C100.979 95.7354 101.041 96.1151 101.041 96.5004V102.008C101.041 102.122 101.001 102.218 100.922 102.297C100.854 102.365 100.763 102.399 100.65 102.399H99.8679C99.7433 102.399 99.6469 102.365 99.5789 102.297C99.5109 102.218 99.4769 102.122 99.4769 102.008V101.277C99.3296 101.481 99.1313 101.685 98.8819 101.889C98.6326 102.082 98.3209 102.246 97.9469 102.382C97.5729 102.507 97.1139 102.569 96.5699 102.569ZM96.9269 101.294C97.3916 101.294 97.8166 101.198 98.2019 101.005C98.5873 100.801 98.8876 100.49 99.1029 100.07C99.3296 99.6511 99.4429 99.1241 99.4429 98.4894V98.0134L97.4709 98.3024C96.6663 98.4157 96.0599 98.6084 95.6519 98.8804C95.2439 99.1411 95.0399 99.4754 95.0399 99.8834C95.0399 100.201 95.1306 100.467 95.3119 100.682C95.5046 100.886 95.7426 101.039 96.0259 101.141C96.3206 101.243 96.6209 101.294 96.9269 101.294ZM104.301 102.399C104.187 102.399 104.091 102.365 104.012 102.297C103.944 102.218 103.91 102.122 103.91 102.008V93.9674C103.91 93.8541 103.944 93.7577 104.012 93.6784C104.091 93.5991 104.187 93.5594 104.301 93.5594H105.083C105.196 93.5594 105.292 93.5991 105.372 93.6784C105.451 93.7577 105.491 93.8541 105.491 93.9674V94.7154C105.717 94.3301 106.029 94.0411 106.426 93.8484C106.822 93.6557 107.298 93.5594 107.854 93.5594H108.534C108.647 93.5594 108.738 93.5991 108.806 93.6784C108.874 93.7464 108.908 93.8371 108.908 93.9504V94.6474C108.908 94.7607 108.874 94.8514 108.806 94.9194C108.738 94.9874 108.647 95.0214 108.534 95.0214H107.514C106.902 95.0214 106.42 95.2027 106.069 95.5654C105.717 95.9167 105.542 96.3984 105.542 97.0104V102.008C105.542 102.122 105.502 102.218 105.423 102.297C105.343 102.365 105.247 102.399 105.134 102.399H104.301ZM113.84 102.569C113.217 102.569 112.679 102.462 112.225 102.246C111.772 102.02 111.398 101.719 111.103 101.345C110.82 100.96 110.605 100.524 110.457 100.036C110.321 99.5491 110.242 99.0334 110.219 98.4894C110.208 98.3081 110.202 98.1381 110.202 97.9794C110.202 97.8207 110.208 97.6507 110.219 97.4694C110.242 96.9367 110.321 96.4267 110.457 95.9394C110.605 95.4521 110.82 95.0157 111.103 94.6304C111.398 94.2451 111.772 93.9447 112.225 93.7294C112.679 93.5027 113.217 93.3894 113.84 93.3894C114.509 93.3894 115.064 93.5084 115.506 93.7464C115.948 93.9844 116.311 94.2791 116.594 94.6304V90.7204C116.594 90.6071 116.628 90.5164 116.696 90.4484C116.776 90.3691 116.872 90.3294 116.985 90.3294H117.801C117.915 90.3294 118.005 90.3691 118.073 90.4484C118.153 90.5164 118.192 90.6071 118.192 90.7204V102.008C118.192 102.122 118.153 102.218 118.073 102.297C118.005 102.365 117.915 102.399 117.801 102.399H117.036C116.912 102.399 116.815 102.365 116.747 102.297C116.679 102.218 116.645 102.122 116.645 102.008V101.294C116.362 101.657 115.994 101.963 115.54 102.212C115.087 102.45 114.52 102.569 113.84 102.569ZM114.197 101.192C114.764 101.192 115.217 101.062 115.557 100.801C115.897 100.541 116.152 100.212 116.322 99.8154C116.492 99.4074 116.583 98.9937 116.594 98.5744C116.606 98.3931 116.611 98.1777 116.611 97.9284C116.611 97.6677 116.606 97.4467 116.594 97.2654C116.583 96.8687 116.487 96.4777 116.305 96.0924C116.135 95.7071 115.875 95.3897 115.523 95.1404C115.183 94.8911 114.741 94.7664 114.197 94.7664C113.619 94.7664 113.16 94.8967 112.82 95.1574C112.48 95.4067 112.237 95.7411 112.089 96.1604C111.942 96.5684 111.857 97.0104 111.834 97.4864C111.823 97.8151 111.823 98.1437 111.834 98.4724C111.857 98.9484 111.942 99.3961 112.089 99.8154C112.237 100.223 112.48 100.558 112.82 100.818C113.16 101.068 113.619 101.192 114.197 101.192Z" fill="black"/>
<path d="M86.3299 24.7207H56.8145V77.7608H86.3299V24.7207Z" fill="#FF5F00"/>
<path d="M58.6869 51.2437C58.6822 46.1355 59.8397 41.0933 62.0719 36.4986C64.304 31.904 67.5521 27.8774 71.5705 24.7236C66.5943 20.8122 60.6181 18.3798 54.3249 17.7044C48.0317 17.0289 41.6754 18.1377 35.9825 20.9039C30.2896 23.6702 25.4899 27.9823 22.1319 33.3475C18.7739 38.7126 16.9932 44.9143 16.9932 51.2437C16.9932 57.573 18.7739 63.7747 22.1319 69.1398C25.4899 74.505 30.2896 78.8172 35.9825 81.5834C41.6754 84.3497 48.0317 85.4584 54.3249 84.783C60.6181 84.1075 66.5943 81.6751 71.5705 77.7637C67.5522 74.6099 64.304 70.5833 62.0719 65.9887C59.8398 61.394 58.6822 56.3518 58.6869 51.2437Z" fill="#EB001B"/>
<path d="M126.146 51.2437C126.146 57.5729 124.366 63.7746 121.008 69.1397C117.65 74.5049 112.85 78.817 107.158 81.5833C101.465 84.3496 95.1087 85.4584 88.8156 84.7829C82.5225 84.1075 76.5463 81.6751 71.5703 77.7637C75.5851 74.6068 78.8308 70.5795 81.0625 65.9856C83.2943 61.3917 84.4539 56.351 84.4539 51.2437C84.4539 46.1363 83.2943 41.0956 81.0625 36.5017C78.8308 31.9078 75.5851 27.8805 71.5703 24.7236C76.5463 20.8122 82.5225 18.3798 88.8156 17.7044C95.1087 17.0289 101.465 18.1377 107.158 20.904C112.85 23.6703 117.65 27.9824 121.008 33.3476C124.366 38.7127 126.146 44.9144 126.146 51.2437Z" fill="#F79E1B"/>
<path d="M122.928 72.1442V71.0583H123.366V70.8371H122.251V71.0583H122.689V72.1442H122.928ZM125.093 72.1442V70.835H124.751L124.358 71.7355L123.965 70.835H123.623V72.1442H123.864V71.1566L124.233 72.0081H124.483L124.852 71.1545V72.1442H125.093Z" fill="#F79E1B"/>
</svg>
