<svg width="187" height="80" viewBox="0 0 187 80" fill="none" xmlns="http://www.w3.org/2000/svg">
<path d="M38.856 60.3876C38.7002 58.3455 38.5763 56.7111 38.4564 55.0766L38.876 54.9887C39.0798 55.2484 39.3076 55.4962 39.4875 55.7879C42.2848 60.0239 46.305 62.3657 51.2084 63.2289C55.4604 63.9802 59.8203 64.3079 63.7766 66.1981C69.1436 68.7597 73.5394 72.4003 76.069 77.9471C76.2462 78.4732 76.372 79.0152 76.4447 79.5656L76.089 79.7134C75.8812 79.5895 75.6015 79.5136 75.4776 79.3138C70.5742 72.0686 63.5368 68.432 55.0528 67.357C51.6785 66.9292 48.2526 67.1833 44.9783 68.1043C37.3575 70.2343 29.8765 69.3951 22.5114 66.9774C17.1525 65.2111 12.357 62.4337 8.46862 58.2496C3.78503 53.1983 1.27539 47.1281 0.512106 40.3704C-0.582864 30.7235 2.2225 22.0996 8.12894 14.5387C14.3511 6.5702 22.6233 1.85064 32.6339 0.447956C42.1889 -0.890785 51.0166 1.19925 58.7373 7.08171C65.3511 12.117 69.4952 18.7867 70.9379 26.991C72.6802 36.9137 70.4903 45.9811 64.6078 54.1654C64.384 54.4771 64.1083 54.7569 63.6767 55.2684C61.7026 49.33 58.1139 45.4297 51.7799 44.6344C53.7305 43.9873 55.8523 44.0913 57.7303 44.9261C60.2519 46.0131 60.0841 46.2609 60.5756 43.4355C61.5703 37.8697 60.8483 32.1329 58.5056 26.987C54.1896 17.3081 47.1163 10.7023 36.6701 8.17669C29.9045 6.54222 23.6024 7.80104 18.3274 12.5166C14.5326 15.9057 12.0266 20.5027 11.234 25.5284C9.59956 35.0314 11.9494 43.5115 18.2274 50.7487C21.9879 55.0726 26.9712 57.7341 32.522 59.1967C34.5201 59.7202 36.5942 59.968 38.856 60.3876Z" fill="#F49722"/>
<path d="M125.75 38.0832C126.401 35.9812 126.949 34.1789 127.512 32.3766C128.343 29.6565 129.174 26.9337 130.006 24.2083C130.245 23.409 130.489 22.6497 131.536 22.6337C132.663 22.6337 132.899 23.457 133.135 24.2762C134.387 28.3124 135.638 32.3499 136.887 36.3888C137.017 36.8877 137.287 37.3387 137.666 37.6876C138.199 35.6388 138.732 33.5901 139.265 31.5414C139.904 29.0397 140.52 26.5341 141.171 24.0364C141.515 22.7137 143.969 21.9704 144.972 22.9215C145.107 23.1068 145.199 23.3198 145.242 23.545C145.285 23.7703 145.277 24.0023 145.219 24.2242C144.068 28.4283 142.862 32.6163 141.679 36.8124C140.879 39.6377 140.08 42.4591 139.301 45.2884C139.025 46.2875 138.574 46.9309 137.387 46.9469C136.2 46.9629 135.788 46.3554 135.472 45.3484C134.226 41.496 132.899 37.6716 131.596 33.8392C131.484 33.5115 131.336 33.1958 131.041 32.4805C130.517 34.055 130.094 35.2778 129.706 36.5167C128.771 39.4899 127.836 42.4591 126.949 45.4443C126.633 46.4993 126.045 46.9668 124.922 46.9509C123.799 46.9349 123.392 46.3594 123.116 45.3803C121.15 38.4029 119.12 31.4335 117.146 24.464C116.746 23.0933 117.062 22.6857 118.504 22.6217C118.948 22.6018 119.4 22.6537 119.839 22.6217C121.274 22.4699 121.893 23.1532 122.213 24.516C123.216 28.8039 124.335 33.0639 125.41 37.3319C125.511 37.5879 125.624 37.8386 125.75 38.0832Z" fill="#2367B0"/>
<path d="M100.846 34.5502C100.778 37.995 100.027 41.0961 97.8688 43.6337C96.9177 44.7526 95.611 45.6318 94.3521 46.4311C93.6088 46.8986 93.437 47.2303 93.8326 47.9936C94.9196 50.0756 96.8218 51.0987 98.8679 51.9299C99.4873 52.1816 100.219 52.2296 100.75 52.5853C101.214 52.897 101.469 53.5164 101.817 53.9999C101.326 54.2957 100.798 54.8911 100.351 54.8351C97.2294 54.4355 94.1963 53.6363 91.7226 51.5742C90.5477 50.5991 89.6526 49.2844 88.5856 48.1694C88.2068 47.7038 87.7159 47.3422 87.1589 47.1184C82.6192 45.8516 80.1495 42.7225 79.2623 38.2747C78.3752 33.8269 78.9506 29.6668 81.712 25.9703C85.6363 20.7232 94.5 20.935 98.2845 26.294C100.079 28.8236 100.73 31.6689 100.846 34.5502ZM95.7029 34.5143C95.7532 34.1523 95.7532 33.7852 95.7029 33.4233C95.3552 31.8248 95.1234 30.1663 94.504 28.6678C93.5649 26.3939 91.5628 25.1671 89.6646 25.3269C88.5227 25.4331 87.4423 25.8928 86.5741 26.6421C85.7059 27.3914 85.0931 28.3929 84.8211 29.507C84.3997 31.0008 84.1582 32.5396 84.1018 34.0907C84.0658 36.6642 84.2017 39.2418 85.5724 41.5836C86.5635 43.27 87.9701 44.2211 89.9043 44.2211C91.9025 44.2211 93.3611 43.1821 94.3002 41.4597C95.4311 39.4176 95.7668 37.1917 95.7029 34.5143Z" fill="#2367B0"/>
<path d="M150.807 34.7766C150.807 31.3119 150.807 27.8431 150.807 24.3864C150.807 22.8079 150.995 22.644 152.585 22.616C155.663 22.5601 155.663 22.5601 155.663 25.6292C155.663 32.0738 155.663 38.5184 155.663 44.963C155.663 46.7893 155.523 46.9172 153.664 46.9332C150.787 46.9571 150.787 46.9571 150.787 44.1158L150.807 34.7766Z" fill="#2367B0"/>
<path d="M111.534 34.786C111.534 38.2547 111.498 41.7275 111.534 45.2002C111.554 46.455 111.094 46.9386 109.819 46.9466C106.662 46.9466 106.662 47.0025 106.662 43.8055C106.662 37.3956 106.662 30.9856 106.662 24.5756C106.662 22.7453 106.802 22.6215 108.66 22.6055C111.526 22.6055 111.526 22.6055 111.526 25.4388L111.534 34.786Z" fill="#2367B0"/>
<path d="M54.0009 55.751C55.3117 55.751 56.5865 57.1377 56.5665 58.5204C56.5589 59.0371 56.3546 59.5314 55.9953 59.9026C55.6359 60.2739 55.1484 60.4942 54.6323 60.5185C53.3855 60.5185 52.0867 59.0559 52.1107 57.7211C52.1267 56.5023 52.862 55.747 54.0009 55.751Z" fill="#F49722"/>
<path d="M62.312 56.2422L61.5806 57.4091C61.2769 57.1933 60.8533 57.0454 60.6895 56.7497C60.2997 56.0566 59.9888 55.322 59.7624 54.5598C59.6784 54.2601 59.8862 53.6047 60.0661 53.5607C60.4177 53.4768 61.0412 53.5887 61.201 53.8444C61.63 54.6152 62.0013 55.4166 62.312 56.2422Z" fill="#F49722"/>
<path d="M106.864 59.7632V49.3003H108.472V53.8506H109.534L113.295 49.3003H115.365L111.142 54.341L115.42 59.7632H113.349L109.916 55.3492H108.472V59.7632H106.864Z" fill="#F49722"/>
<path d="M120.987 59.9812C120.042 59.9812 119.213 59.7564 118.5 59.3068C117.792 58.8572 117.238 58.2283 116.838 57.4199C116.443 56.6116 116.246 55.667 116.246 54.5862C116.246 53.4964 116.443 52.545 116.838 51.7321C117.238 50.9192 117.792 50.288 118.5 49.8384C119.213 49.3889 120.042 49.1641 120.987 49.1641C121.931 49.1641 122.758 49.3889 123.466 49.8384C124.179 50.288 124.733 50.9192 125.128 51.7321C125.528 52.545 125.728 53.4964 125.728 54.5862C125.728 55.667 125.528 56.6116 125.128 57.4199C124.733 58.2283 124.179 58.8572 123.466 59.3068C122.758 59.7564 121.931 59.9812 120.987 59.9812ZM120.987 58.5371C121.704 58.5371 122.295 58.3531 122.758 57.9853C123.221 57.6175 123.564 57.1338 123.786 56.5344C124.009 55.935 124.12 55.2856 124.12 54.5862C124.12 53.8869 124.009 53.2352 123.786 52.6313C123.564 52.0273 123.221 51.5391 122.758 51.1667C122.295 50.7943 121.704 50.6082 120.987 50.6082C120.269 50.6082 119.679 50.7943 119.216 51.1667C118.753 51.5391 118.41 52.0273 118.187 52.6313C117.965 53.2352 117.853 53.8869 117.853 54.5862C117.853 55.2856 117.965 55.935 118.187 56.5344C118.41 57.1338 118.753 57.6175 119.216 57.9853C119.679 58.3531 120.269 58.5371 120.987 58.5371Z" fill="#F49722"/>
<path d="M128.182 49.3003H129.789V58.2646H133.74V49.3003H135.348V58.2646H139.299V49.3003H140.906V59.7632H128.182V49.3003Z" fill="#F49722"/>
<path d="M148.229 59.9812C147.221 59.9812 146.351 59.7586 145.62 59.3136C144.893 58.864 144.332 58.2373 143.937 57.4336C143.547 56.6252 143.352 55.6852 143.352 54.6135C143.352 53.5418 143.547 52.5972 143.937 51.7798C144.332 50.9578 144.882 50.3175 145.586 49.8589C146.294 49.3957 147.121 49.1641 148.065 49.1641C148.61 49.1641 149.148 49.2549 149.68 49.4365C150.211 49.6182 150.695 49.9134 151.131 50.3221C151.567 50.7262 151.914 51.2621 152.173 51.9296C152.432 52.5972 152.561 53.4192 152.561 54.3955V55.0767H144.496V53.6871H150.926C150.926 53.0967 150.808 52.57 150.572 52.1067C150.34 51.6435 150.009 51.278 149.577 51.0101C149.151 50.7421 148.647 50.6082 148.065 50.6082C147.425 50.6082 146.871 50.7671 146.403 51.085C145.94 51.3983 145.584 51.807 145.334 52.3111C145.084 52.8152 144.959 53.3556 144.959 53.9323V54.8587C144.959 55.6489 145.095 56.3187 145.368 56.8682C145.645 57.4131 146.029 57.8286 146.519 58.1147C147.009 58.3963 147.579 58.5371 148.229 58.5371C148.651 58.5371 149.033 58.478 149.373 58.36C149.718 58.2373 150.016 58.0557 150.265 57.815C150.515 57.5698 150.708 57.2655 150.844 56.9022L152.398 57.3382C152.234 57.865 151.959 58.3282 151.573 58.7278C151.187 59.1229 150.711 59.4317 150.143 59.6542C149.575 59.8722 148.937 59.9812 148.229 59.9812Z" fill="#F49722"/>
<path d="M154.08 59.7632V58.2646H154.462C154.775 58.2646 155.036 58.2033 155.245 58.0807C155.454 57.9535 155.622 57.7333 155.749 57.4199C155.881 57.1021 155.981 56.6616 156.049 56.0985C156.121 55.5308 156.174 54.8088 156.205 53.9323L156.396 49.3003H163.371V59.7632H161.764V50.7989H157.922L157.758 54.5317C157.722 55.39 157.645 56.1461 157.527 56.8001C157.413 57.4495 157.238 57.9944 157.002 58.4349C156.771 58.8754 156.462 59.2069 156.076 59.4294C155.69 59.6519 155.206 59.7632 154.625 59.7632H154.08Z" fill="#F49722"/>
<path d="M170.708 59.9812C169.699 59.9812 168.83 59.7586 168.099 59.3136C167.372 58.864 166.811 58.2373 166.416 57.4336C166.026 56.6252 165.83 55.6852 165.83 54.6135C165.83 53.5418 166.026 52.5972 166.416 51.7798C166.811 50.9578 167.361 50.3175 168.065 49.8589C168.773 49.3957 169.6 49.1641 170.544 49.1641C171.089 49.1641 171.627 49.2549 172.159 49.4365C172.69 49.6182 173.173 49.9134 173.609 50.3221C174.045 50.7262 174.393 51.2621 174.652 51.9296C174.91 52.5972 175.04 53.4192 175.04 54.3955V55.0767H166.975V53.6871H173.405C173.405 53.0967 173.287 52.57 173.051 52.1067C172.819 51.6435 172.488 51.278 172.056 51.0101C171.629 50.7421 171.125 50.6082 170.544 50.6082C169.904 50.6082 169.35 50.7671 168.882 51.085C168.419 51.3983 168.062 51.807 167.813 52.3111C167.563 52.8152 167.438 53.3556 167.438 53.9323V54.8587C167.438 55.6489 167.574 56.3187 167.847 56.8682C168.124 57.4131 168.507 57.8286 168.998 58.1147C169.488 58.3963 170.058 58.5371 170.708 58.5371C171.13 58.5371 171.511 58.478 171.852 58.36C172.197 58.2373 172.495 58.0557 172.744 57.815C172.994 57.5698 173.187 57.2655 173.323 56.9022L174.876 57.3382C174.713 57.865 174.438 58.3282 174.052 58.7278C173.666 59.1229 173.189 59.4317 172.622 59.6542C172.054 59.8722 171.416 59.9812 170.708 59.9812Z" fill="#F49722"/>
<path d="M177.485 59.7632V49.3003H179.093V53.8506H180.156L183.916 49.3003H185.986L181.763 54.341L186.041 59.7632H183.97L180.537 55.3492H179.093V59.7632H177.485Z" fill="#F49722"/>
</svg>
