<svg width="234" height="149" viewBox="0 0 234 149" fill="none" xmlns="http://www.w3.org/2000/svg">
<path d="M126.904 133.628C126.381 133.875 125.862 133.906 125.348 133.722C124.807 133.479 124.427 133.125 124.208 132.659C124.071 132.368 123.976 132.093 123.925 131.833L118.245 65.9253C118.118 65.203 118.207 64.4857 118.511 63.7735C118.815 63.0612 119.433 62.4856 120.364 62.0469L131.535 56.7815C132.466 56.3427 133.303 56.2326 134.046 56.4512C134.789 56.6699 135.399 57.0581 135.875 57.6158L183.096 103.942C183.264 104.148 183.417 104.396 183.554 104.687C183.773 105.152 183.804 105.671 183.647 106.243C183.463 106.756 183.109 107.137 182.585 107.383L173.508 111.662C172.636 112.073 171.9 112.171 171.301 111.956C170.701 111.74 170.261 111.486 169.98 111.191L161.62 103.185L137.009 114.786L137.864 126.329C137.912 126.733 137.828 127.235 137.613 127.834C137.398 128.433 136.854 128.939 135.981 129.35L126.904 133.628ZM134.932 102.005L152.997 93.4903L132.161 72.5925L134.932 102.005Z" fill="#FFDA55"/>
<path d="M195.741 146.242C192.416 144.577 189.821 142.593 187.958 140.289C186.095 137.985 185.036 135.398 184.782 132.529C184.545 129.622 185.214 126.461 186.788 123.044C187.538 121.454 188.297 119.892 189.065 118.357C189.852 116.785 190.666 115.205 191.508 113.615C193.264 110.381 195.376 107.988 197.844 106.435C200.367 104.865 203.118 104.117 206.097 104.191C209.113 104.284 212.247 105.145 215.5 106.773C218.716 108.383 221.246 110.358 223.091 112.698C224.972 115.057 226.04 117.717 226.295 120.678C226.567 123.602 225.917 126.727 224.344 130.053C223.612 131.698 222.853 133.306 222.066 134.877C221.297 136.412 220.483 137.947 219.624 139.482C217.831 142.789 215.7 145.219 213.232 146.771C210.782 148.287 208.077 148.989 205.116 148.878C202.155 148.767 199.03 147.888 195.741 146.242ZM199.281 139.17C201.401 140.231 203.457 140.461 205.45 139.859C207.497 139.238 209.271 137.521 210.771 134.707C211.649 133.136 212.435 131.656 213.131 130.267C213.844 128.842 214.558 127.325 215.271 125.717C216.186 123.798 216.616 122.071 216.562 120.536C216.508 119.001 216.07 117.685 215.248 116.588C214.481 115.472 213.385 114.558 211.96 113.844C210.534 113.131 209.127 112.792 207.738 112.828C206.367 112.827 205.051 113.265 203.79 114.142C202.565 115.037 201.44 116.416 200.416 118.28C199.592 119.833 198.824 121.322 198.11 122.748C197.415 124.136 196.683 125.644 195.915 127.27C194.598 130.176 194.286 132.625 194.979 134.617C195.691 136.573 197.125 138.091 199.281 139.17Z" fill="#FFC46C"/>
<path d="M55.6446 84.6441C52.3534 87.1607 49.0019 88.9785 45.5901 90.0972C42.1883 91.1406 38.9676 91.402 35.9279 90.8815C32.931 90.3283 30.3024 88.8839 28.0421 86.5481C27.7052 86.1961 27.5669 85.7938 27.6273 85.3413C27.7304 84.856 27.9743 84.4663 28.359 84.1722L35.4115 78.7793C35.9244 78.3871 36.353 78.1947 36.6975 78.2023C37.0847 78.1771 37.5699 78.2802 38.1532 78.5115C39.4958 79.3815 41.081 79.7272 42.9089 79.5488C44.7795 79.3376 46.8688 78.3495 49.1769 76.5846C51.9124 74.4928 53.3958 72.0037 53.6272 69.1174C53.8259 66.1883 52.7322 63.1637 50.3463 60.0435L49.4638 58.8895L36.1923 69.0379C35.7221 69.3974 35.2231 69.542 34.6951 69.4716C34.1344 69.3584 33.6743 69.0668 33.3148 68.5966L29.981 64.2369C29.6215 63.7667 29.4769 63.2676 29.5473 62.7396C29.585 62.1689 29.839 61.7038 30.3091 61.3443L43.5807 51.1958L42.7472 50.1059C40.1652 46.7292 37.5001 44.8385 34.7521 44.4337C32.0141 43.9534 29.256 44.7755 26.4777 46.9C24.1696 48.6649 22.6849 50.4437 22.0237 52.2363C21.4051 53.9963 21.3498 55.5626 21.8576 56.9354C21.9708 57.5263 21.9859 57.9889 21.9029 58.3233C21.8199 58.6577 21.522 59.021 21.0091 59.4132L13.8924 64.8551C13.5078 65.1493 13.0678 65.2825 12.5725 65.2548C12.0772 65.2272 11.7038 65.0046 11.4524 64.5873C9.7679 61.6758 9.0514 58.7014 9.30288 55.6643C9.56441 52.5516 10.6556 49.5497 12.5766 46.6584C14.5075 43.6916 17.0972 40.9662 20.3457 38.4822C23.9788 35.7041 27.7124 33.8989 31.5467 33.0668C35.3482 32.1919 39.0906 32.4798 42.7739 33.9306C46.4572 35.3814 50.0349 38.1999 53.507 42.3861C54.4976 43.593 55.3524 44.6666 56.0714 45.6069C56.7578 46.5045 57.4605 47.4235 58.1796 48.3638C58.8659 49.2614 59.6617 50.3463 60.5668 51.6185C63.7296 56.109 65.5448 60.343 66.0124 64.3205C66.49 68.2226 65.8086 71.8933 63.9681 75.3328C62.1377 78.6968 59.3632 81.8005 55.6446 84.6441Z" fill="#FFC46C"/>
<path d="M93.3091 56.025C92.8893 55.6077 92.6786 55.1328 92.677 54.6001C92.6753 54.0675 92.8831 53.5912 93.3004 53.1714L105.931 40.4628L97.9166 32.4975C95.1688 29.7666 93.2575 26.8428 92.1826 23.7262C91.1458 20.6476 91.0033 17.5852 91.7548 14.5391C92.5444 11.4548 94.2477 8.59605 96.8649 5.96274C99.2924 3.52025 102.046 1.85672 105.125 0.972171C108.242 0.125546 111.457 0.210781 114.771 1.22788C118.16 2.24474 121.477 4.36519 124.721 7.58925L139.375 22.1544C139.795 22.5716 140.006 23.0466 140.008 23.5792C140.009 24.1119 139.801 24.5881 139.384 25.0079L102.402 62.2177C101.985 62.6375 101.51 62.8483 100.978 62.8499C100.445 62.8515 99.9687 62.6437 99.5489 62.2265L93.3091 56.025ZM70.4108 33.2669C70.0673 32.9256 69.8949 32.5266 69.8935 32.07C69.93 31.5753 70.1 31.1753 70.4034 30.87C70.5931 30.6791 70.8589 30.5261 71.201 30.411L95.3234 24.3443L102.431 34.2529L80.5911 40.3124C80.021 40.5044 79.3935 40.6015 78.7086 40.6036C78.0617 40.5675 77.4139 40.2271 76.7651 39.5823L70.4108 33.2669ZM106.402 26.5931L113.1 33.2499L124.593 21.6862L117.895 15.0295C116.063 13.2088 114.101 12.3588 112.009 12.4794C109.916 12.5999 107.998 13.538 106.253 15.2935C104.47 17.0872 103.563 18.9543 103.531 20.8949C103.537 22.7972 104.494 24.6966 106.402 26.5931Z" fill="#FFC46C"/>
<path d="M49.0542 128.188C48.6309 127.953 48.3594 127.626 48.2396 127.207C48.1412 126.749 48.1989 126.328 48.4127 125.943L69.2531 88.4226C69.4883 87.9993 69.8153 87.7278 70.2343 87.608C70.6918 87.5096 71.113 87.5673 71.4978 87.781L77.7897 91.2758C78.213 91.511 78.4846 91.838 78.6043 92.257C78.7241 92.676 78.6664 93.0972 78.4313 93.5205L64.5804 118.457L96.377 102.96C96.719 102.797 97.0782 102.694 97.4544 102.652C97.8905 102.592 98.3395 102.69 98.8013 102.946L104.458 106.089C104.882 106.324 105.153 106.651 105.273 107.07C105.393 107.489 105.335 107.91 105.1 108.333L84.2593 145.854C84.0242 146.277 83.6971 146.549 83.2781 146.668C82.8591 146.788 82.4379 146.731 82.0146 146.495L75.7227 143.001C75.3379 142.787 75.0663 142.46 74.9081 142.019C74.7884 141.6 74.846 141.179 75.0812 140.756L88.5153 116.57L57.1355 131.317C56.8918 131.484 56.5711 131.608 56.1735 131.689C55.7758 131.77 55.3076 131.661 54.7689 131.362L49.0542 128.188Z" fill="#FFC46C"/>
<path d="M206.665 61.1739C206.291 61.4598 205.894 61.5748 205.474 61.5188C205.054 61.4628 204.701 61.2478 204.415 60.8739L179.069 27.727C178.783 27.3531 178.668 26.9561 178.724 26.5362C178.78 26.1162 178.995 25.7632 179.369 25.4773L202.469 7.81262C202.843 7.52666 203.24 7.41168 203.66 7.46768C204.08 7.52368 204.433 7.73866 204.719 8.11263L207.839 12.1922C208.099 12.5322 208.201 12.9122 208.145 13.3321C208.089 13.7521 207.874 14.105 207.5 14.391L190.977 27.0253L197.1 35.0316L212.5 23.2551C212.874 22.9691 213.271 22.8542 213.691 22.9102C214.111 22.9662 214.464 23.1812 214.75 23.5551L217.635 27.3288C217.895 27.6687 217.997 28.0487 217.941 28.4686C217.885 28.8886 217.67 29.2416 217.296 29.5275L201.896 41.304L208.213 49.5652L225.143 36.6189C225.517 36.3329 225.914 36.2179 226.334 36.2739C226.754 36.3299 227.107 36.5449 227.393 36.9189L230.474 40.9475C230.76 41.3215 230.875 41.7184 230.819 42.1384C230.763 42.5583 230.548 42.9113 230.174 43.1973L206.665 61.1739Z" fill="#FFC46C"/>
</svg>
