<svg width="240" height="81" viewBox="0 0 240 81" fill="none" xmlns="http://www.w3.org/2000/svg">
<path d="M2.0386 80.9664C1.47232 80.9664 0.990986 80.7645 0.594591 80.3606C0.198197 79.9567 0 79.4663 0 78.8893V2.12395C0 1.54699 0.198197 1.05657 0.594591 0.652687C0.990986 0.248812 1.47232 0.046875 2.0386 0.046875H20.1312C20.6975 0.046875 21.1788 0.248812 21.5752 0.652687C21.9716 1.05657 22.1698 1.54699 22.1698 2.12395V7.4032C22.1698 7.98016 21.9716 8.47058 21.5752 8.87446C21.1788 9.27833 20.6975 9.48027 20.1312 9.48027H10.3629V70.9272H20.1312C20.6975 70.9272 21.1788 71.1291 21.5752 71.533C21.9716 71.9369 22.1698 72.4273 22.1698 73.0043V78.8893C22.1698 79.4663 21.9716 79.9567 21.5752 80.3606C21.1788 80.7645 20.6975 80.9664 20.1312 80.9664H2.0386Z" fill="white"/>
<path d="M35.1247 67.2058C34.5584 67.2058 34.0771 67.0038 33.6807 66.6C33.2843 66.1961 33.0861 65.7057 33.0861 65.1287V8.78792C33.0861 8.15325 33.2843 7.63398 33.6807 7.23011C34.0771 6.82623 34.5584 6.62429 35.1247 6.62429H59.7578C64.3446 6.62429 68.0821 7.3455 70.9701 8.78792C73.8581 10.1726 75.9817 12.1055 77.3407 14.5864C78.7564 17.0674 79.4642 19.9522 79.4642 23.2409C79.4642 25.4334 79.0679 27.3662 78.2751 29.0394C77.5389 30.6549 76.6045 31.982 75.472 33.0205C74.3961 34.059 73.3201 34.8668 72.2442 35.4438C74.4527 36.4823 76.4064 38.2132 78.1052 40.6365C79.804 43.0597 80.6534 45.9446 80.6534 49.291C80.6534 52.7528 79.889 55.8395 78.36 58.5513C76.8311 61.263 74.566 63.3978 71.5647 64.9556C68.5634 66.4557 64.8543 67.2058 60.4373 67.2058H35.1247ZM44.893 58.032H59.0783C62.1362 58.032 64.4579 57.1954 66.0435 55.5222C67.629 53.7913 68.4218 51.7142 68.4218 49.291C68.4218 46.7523 67.6007 44.6464 65.9585 42.9732C64.3729 41.3 62.0795 40.4634 59.0783 40.4634H44.893V58.032ZM44.893 31.4627H58.2288C61.2301 31.4627 63.4669 30.7415 64.9392 29.2991C66.4682 27.799 67.2327 25.8661 67.2327 23.5006C67.2327 21.0773 66.4682 19.2022 64.9392 17.8751C63.4669 16.4904 61.2301 15.7981 58.2288 15.7981H44.893V31.4627Z" fill="white"/>
<path d="M91.0628 80.9664C90.4965 80.9664 90.0152 80.7645 89.6188 80.3606C89.2224 79.9567 89.0242 79.4663 89.0242 78.8893V73.0043C89.0242 72.4273 89.2224 71.9369 89.6188 71.533C90.0152 71.1291 90.4965 70.9272 91.0628 70.9272H100.831V9.48027H91.0628C90.4965 9.48027 90.0152 9.27833 89.6188 8.87446C89.2224 8.47058 89.0242 7.98016 89.0242 7.4032V2.12395C89.0242 1.54699 89.2224 1.05657 89.6188 0.652687C90.0152 0.248812 90.4965 0.046875 91.0628 0.046875H109.155C109.778 0.046875 110.26 0.248812 110.599 0.652687C110.996 1.05657 111.194 1.54699 111.194 2.12395V78.8893C111.194 79.4663 110.996 79.9567 110.599 80.3606C110.26 80.7645 109.778 80.9664 109.155 80.9664H91.0628Z" fill="white"/>
<path d="M126.697 80.9664C126.131 80.9664 125.65 80.7645 125.253 80.3606C124.857 79.9567 124.659 79.4663 124.659 78.8893V2.12395C124.659 1.54699 124.857 1.05657 125.253 0.652687C125.65 0.248812 126.131 0.046875 126.697 0.046875H144.79C145.356 0.046875 145.837 0.248812 146.234 0.652687C146.63 1.05657 146.828 1.54699 146.828 2.12395V7.4032C146.828 7.98016 146.63 8.47058 146.234 8.87446C145.837 9.27833 145.356 9.48027 144.79 9.48027H135.021V70.9272H144.79C145.356 70.9272 145.837 71.1291 146.234 71.533C146.63 71.9369 146.828 72.4273 146.828 73.0043V78.8893C146.828 79.4663 146.63 79.9567 146.234 80.3606C145.837 80.7645 145.356 80.9664 144.79 80.9664H126.697Z" fill="white"/>
<path d="M197.073 67.2058C196.506 67.2058 196.025 67.0038 195.629 66.6C195.232 66.1961 195.034 65.7057 195.034 65.1287V17.4424H176.602V28.3471C176.602 35.2707 176.234 41.1846 175.497 46.0888C174.818 50.993 173.685 54.9741 172.1 58.032C170.514 61.0322 168.362 63.2824 165.644 64.7825C162.926 66.2249 159.528 67.0038 155.451 67.1192C154.885 67.1769 154.375 67.0038 153.922 66.6C153.526 66.1384 153.328 65.6191 153.328 65.0421V58.5513C153.328 57.3396 153.979 56.6473 155.281 56.4742C156.98 56.1857 158.424 55.378 159.613 54.0509C160.859 52.7239 161.878 50.8488 162.671 48.4255C163.521 46.0022 164.144 43.002 164.54 39.4248C164.936 35.7899 165.135 31.5781 165.135 26.7893V8.70137C165.135 8.1244 165.333 7.63398 165.729 7.23011C166.126 6.82623 166.607 6.62429 167.173 6.62429H204.717C205.34 6.62429 205.85 6.82623 206.246 7.23011C206.643 7.63398 206.841 8.15325 206.841 8.78792V65.1287C206.841 65.7057 206.643 66.1961 206.246 66.6C205.85 67.0038 205.34 67.2058 204.717 67.2058H197.073Z" fill="white"/>
<path d="M219.869 80.9664C219.303 80.9664 218.821 80.7645 218.425 80.3606C218.028 79.9567 217.83 79.4663 217.83 78.8893V73.0043C217.83 72.4273 218.028 71.9369 218.425 71.533C218.821 71.1291 219.303 70.9272 219.869 70.9272H229.637V9.48027H219.869C219.303 9.48027 218.821 9.27833 218.425 8.87446C218.028 8.47058 217.83 7.98016 217.83 7.4032V2.12395C217.83 1.54699 218.028 1.05657 218.425 0.652687C218.821 0.248812 219.303 0.046875 219.869 0.046875H237.961C238.584 0.046875 239.066 0.248812 239.405 0.652687C239.802 1.05657 240 1.54699 240 2.12395V78.8893C240 79.4663 239.802 79.9567 239.405 80.3606C239.066 80.7645 238.584 80.9664 237.961 80.9664H219.869Z" fill="white"/>
</svg>
