<svg width="234" height="145" viewBox="0 0 234 145" fill="none" xmlns="http://www.w3.org/2000/svg">
<path d="M34.3223 113.285C27.4046 113.285 21.4372 112.156 16.42 109.898C11.4028 107.64 7.48782 104.253 4.67513 99.7376C1.86245 95.1465 0.342083 89.3888 0.114028 82.4645C0.0380092 79.2282 0 76.0295 0 72.8684C0 69.632 0.0380092 66.358 0.114028 63.0464C0.342083 56.2726 1.86245 50.5902 4.67513 45.9991C7.56383 41.3327 11.5168 37.833 16.534 35.4998C21.6272 33.1666 27.5567 32 34.3223 32C41.0119 32 46.8654 33.1666 51.8826 35.4998C56.9758 37.833 60.9668 41.3327 63.8555 45.9991C66.7442 50.5902 68.2646 56.2726 68.4166 63.0464C68.5686 66.358 68.6446 69.632 68.6446 72.8684C68.6446 76.0295 68.5686 79.2282 68.4166 82.4645C68.1885 89.3888 66.6682 95.1465 63.8555 99.7376C61.0428 104.253 57.1278 107.64 52.1106 109.898C47.0934 112.156 41.164 113.285 34.3223 113.285ZM34.3223 98.7216C38.7314 98.7216 42.3423 97.4044 45.1549 94.7702C48.0436 92.0607 49.564 87.7706 49.7161 81.9C49.8681 78.5884 49.9441 75.5026 49.9441 72.6426C49.9441 69.7073 49.8681 66.6214 49.7161 63.3851C49.64 59.4714 48.9179 56.2726 47.5495 53.7889C46.1812 51.3052 44.3568 49.4989 42.0762 48.3699C39.8717 47.1657 37.287 46.5636 34.3223 46.5636C31.3576 46.5636 28.735 47.1657 26.4544 48.3699C24.1739 49.4989 22.3494 51.3052 20.9811 53.7889C19.6888 56.2726 18.9666 59.4714 18.8146 63.3851C18.7385 66.6214 18.7005 69.7073 18.7005 72.6426C18.7005 75.5026 18.7385 78.5884 18.8146 81.9C19.0426 87.7706 20.563 92.0607 23.3757 94.7702C26.1883 97.4044 29.8372 98.7216 34.3223 98.7216Z" fill="white"/>
<path d="M131.91 112.156C131.15 112.156 130.504 111.893 129.972 111.366C129.44 110.839 129.174 110.162 129.174 109.334V83.9322C127.957 84.9859 126.399 85.889 124.499 86.6417C122.598 87.3191 120.508 87.8459 118.227 88.2222C116.023 88.5233 113.818 88.6738 111.613 88.6738C102.035 88.6738 94.9274 86.3783 90.2903 81.7871C85.7292 77.196 83.4486 70.2718 83.4486 61.0143V35.9514C83.4486 35.1235 83.7147 34.4461 84.2468 33.9192C84.779 33.3924 85.4251 33.129 86.1853 33.129H98.7283C99.5645 33.129 100.249 33.3924 100.781 33.9192C101.313 34.4461 101.579 35.1235 101.579 35.9514V60.224C101.579 64.2883 102.605 67.2988 104.658 69.2557C106.71 71.2126 110.207 72.191 115.148 72.191C116.593 72.191 118.113 72.0781 119.709 71.8523C121.306 71.5512 122.826 71.0997 124.271 70.4975C125.715 69.8954 126.893 69.0675 127.805 68.0138C128.718 66.9601 129.174 65.643 129.174 64.0625V35.9514C129.174 35.1235 129.44 34.4461 129.972 33.9192C130.504 33.3924 131.15 33.129 131.91 33.129H144.453C145.29 33.129 145.974 33.3924 146.506 33.9192C147.038 34.4461 147.304 35.1235 147.304 35.9514V109.334C147.304 110.162 147.038 110.839 146.506 111.366C145.974 111.893 145.29 112.156 144.453 112.156H131.91Z" fill="white"/>
<path d="M214.72 112.156C213.884 112.156 213.2 111.893 212.668 111.366C212.136 110.839 211.87 110.162 211.87 109.334V84.2709H195.906C190.432 84.2709 185.605 83.2548 181.424 81.2227C177.319 79.1905 174.126 76.2929 171.846 72.5297C169.565 68.6912 168.425 64.1754 168.425 58.9822C168.425 54.1653 169.527 49.7999 171.732 45.8862C174.012 41.9725 177.319 38.8867 181.652 36.6287C186.061 34.2956 191.497 33.129 197.958 33.129H227.149C227.985 33.129 228.67 33.3924 229.202 33.9192C229.734 34.4461 230 35.1235 230 35.9514V109.334C230 110.162 229.734 110.839 229.202 111.366C228.67 111.893 227.985 112.156 227.149 112.156H214.72ZM169.109 112.156C168.425 112.156 167.855 111.93 167.399 111.479C166.943 110.952 166.715 110.387 166.715 109.785C166.715 109.409 166.829 108.995 167.057 108.544L185.187 78.739L202.177 81.5614L186.327 109.108C185.947 109.861 185.415 110.576 184.731 111.253C184.047 111.855 183.059 112.156 181.766 112.156H169.109ZM198.528 70.046H211.87V47.241H198.528C194.879 47.241 192.067 48.3323 190.09 50.5149C188.114 52.6976 187.126 55.52 187.126 58.9822C187.126 62.5196 188.076 65.2667 189.976 67.2236C191.877 69.1052 194.727 70.046 198.528 70.046Z" fill="white"/>
</svg>
