<svg width="187" height="111" viewBox="0 0 187 111" fill="none" xmlns="http://www.w3.org/2000/svg">
<path fill-rule="evenodd" clip-rule="evenodd" d="M34.8636 21.9145C35.2619 20.9371 34.8612 20.2052 34.2625 19.4807C34.023 19.1879 33.7761 18.8999 33.5292 18.612C32.8135 17.7772 32.0983 16.943 31.5647 15.9934C28.7365 10.9515 29.9014 6.79128 33.7756 2.93803C36.6155 0.108873 40.089 -0.767871 43.7932 0.705649C47.5719 2.20618 50.0344 5.17041 50.8335 9.32819C51.5324 12.9359 49.9412 15.9197 47.707 18.5524C47.5282 18.7622 47.333 18.9557 47.1377 19.1493C46.9946 19.2911 46.8515 19.433 46.7146 19.5814C46.0689 20.2742 45.8221 21.1008 46.2112 21.9999H64.6367C65.4202 21.9999 66.0612 22.2471 66.5598 22.7416C67.0584 23.236 67.3077 23.8717 67.3077 24.6487V81.1213H72.329C73.1125 81.1213 73.7535 81.3686 74.2521 81.863C74.7507 82.3574 75 82.9932 75 83.7701V108.351C75 109.057 74.7507 109.658 74.2521 110.152C73.7535 110.717 73.1125 111 72.329 111H60.6837C59.9003 111 59.2592 110.717 58.7607 110.152C58.2621 109.658 58.0128 109.057 58.0128 108.351V96.1666H16.9872V108.351C16.9872 109.057 16.7023 109.658 16.1325 110.152C15.6339 110.717 14.9929 111 14.2094 111H2.5641C1.85185 111 1.24644 110.753 0.747863 110.258C0.249288 109.764 0 109.128 0 108.351V83.7701C0 82.9932 0.249288 82.3574 0.747863 81.863C1.24644 81.3686 1.85185 81.1213 2.5641 81.1213H4.59402C6.30342 81.1213 7.76353 80.309 8.97436 78.6844C10.1852 77.0598 11.1467 74.7642 11.859 71.7975C12.5712 68.7602 13.1054 65.1225 13.4615 60.8844C13.8177 56.5757 13.9957 51.7725 13.9957 46.4749V24.6487C13.9957 23.8717 14.245 23.236 14.7436 22.7416C15.2422 22.2471 15.8476 21.9999 16.5598 21.9999H34.8305C34.8422 21.9718 34.8532 21.9433 34.8636 21.9145ZM50.3205 81.1213H25C26.7806 78.1547 28.1339 74.0225 29.0598 68.7249C29.9857 63.4273 30.4487 56.717 30.4487 48.594V37.0452H50.3205V81.1213Z" fill="#FF9E44"/>
<path d="M70.5193 55.2627C69.7948 55.8614 69.0629 56.2621 68.0855 55.8637C67.8458 55.7773 67.6265 55.6468 67.4403 55.4796C67.254 55.3125 67.1043 55.1121 67 54.8899L67 68.197C67.1748 67.7669 67.5205 67.419 67.9627 67.2279C68.8763 66.8155 69.7162 67.0601 70.4186 67.7148C70.7698 68.0386 71.0841 68.3974 71.4476 68.7072C74.0803 70.9414 77.0641 72.5325 80.6718 71.8336C84.8296 71.0346 87.7938 68.5721 89.2944 64.7934C90.7679 61.0892 89.8911 57.6156 87.062 54.7758C83.2087 50.9015 79.0485 49.7367 74.0066 52.5649C72.7295 53.2824 71.6612 54.3285 70.5193 55.2627Z" fill="#FF9E44"/>
<path d="M115.347 104.571C114.473 104.571 113.758 104.301 113.202 103.761C112.646 103.143 112.368 102.448 112.368 101.675V26.3719C112.368 25.5223 112.646 24.8272 113.202 24.2865C113.837 23.7459 114.552 23.4756 115.347 23.4756H128.335C129.209 23.4756 129.924 23.7459 130.48 24.2865C131.036 24.8272 131.315 25.5223 131.315 26.3719V76.4196L167.897 25.5609C168.295 25.0203 168.771 24.5569 169.327 24.1707C169.963 23.7073 170.757 23.4756 171.711 23.4756H183.389C184.262 23.4756 184.977 23.7459 185.534 24.2865C186.09 24.8272 186.368 25.5223 186.368 26.3719V101.675C186.368 102.525 186.09 103.22 185.534 103.761C184.977 104.301 184.262 104.571 183.389 104.571H170.4C169.605 104.571 168.89 104.301 168.255 103.761C167.699 103.22 167.421 102.525 167.421 101.675V53.1335L130.838 102.486C130.6 102.95 130.202 103.413 129.646 103.876C129.09 104.34 128.256 104.571 127.144 104.571H115.347Z" fill="#EDFB51"/>
<path d="M106.812 54.1531C106.078 54.76 105.336 55.1662 104.345 54.7624C104.102 54.6748 103.88 54.5424 103.691 54.373C103.502 54.2036 103.35 54.0005 103.244 53.7752L103.244 67.2646C103.422 66.8286 103.772 66.4759 104.22 66.2822C105.146 65.8642 105.998 66.1122 106.71 66.7758C107.066 67.104 107.385 67.4677 107.753 67.7818C110.422 70.0466 113.447 71.6595 117.104 70.9511C121.318 70.141 124.323 67.6448 125.844 63.8143C127.338 60.0594 126.449 56.5383 123.581 53.6595C119.675 49.7322 115.458 48.5514 110.347 51.4184C109.053 52.1457 107.97 53.2061 106.812 54.1531Z" fill="#FF9E44"/>
</svg>
