<svg width="234" height="146" viewBox="0 0 234 146" fill="none" xmlns="http://www.w3.org/2000/svg">
<path d="M1.53096 52.0231C1.09354 52.0231 0.729027 51.8767 0.437416 51.5839C0.145805 51.2423 0 50.8762 0 50.4858C0 50.2418 0.0243009 50.0222 0.0729027 49.827L17.4237 2.7555C17.5695 2.21866 17.8612 1.75502 18.2986 1.36458C18.736 0.974152 19.3435 0.778936 20.1211 0.778936H29.4527C30.2303 0.778936 30.8378 0.974152 31.2753 1.36458C31.7127 1.75502 32.0043 2.21866 32.1501 2.7555L49.5009 49.827C49.5495 50.0222 49.5738 50.2418 49.5738 50.4858C49.5738 50.8762 49.428 51.2423 49.1364 51.5839C48.8448 51.8767 48.4803 52.0231 48.0429 52.0231H40.461C39.732 52.0231 39.1973 51.8523 38.8571 51.5107C38.5169 51.1691 38.2982 50.8518 38.201 50.559L35.0662 42.36H14.5076L11.3728 50.559C11.2756 50.8518 11.0569 51.1691 10.7167 51.5107C10.3765 51.8523 9.84186 52.0231 9.11284 52.0231H1.53096ZM17.205 32.9164H32.2959L24.7869 11.833L17.205 32.9164Z" fill="#1472FF"/>
<path d="M79.8142 52.7552C75.3914 52.7552 71.5762 52.0231 68.3685 50.559C65.1608 49.0949 62.6578 46.8987 60.8595 43.9705C59.0612 40.9934 58.0892 37.2599 57.9434 32.77C57.8948 30.6714 57.8705 28.5972 57.8705 26.5475C57.8705 24.4489 57.8948 22.3259 57.9434 20.1785C58.0892 15.7862 59.0612 12.1015 60.8595 9.12442C62.7064 6.09857 65.2337 3.82919 68.4414 2.31626C71.6977 0.803338 75.4886 0.046875 79.8142 0.046875C84.0912 0.046875 87.8335 0.803338 91.0412 2.31626C94.2975 3.82919 96.8491 6.09857 98.696 9.12442C100.543 12.1015 101.515 15.7862 101.612 20.1785C101.709 22.3259 101.758 24.4489 101.758 26.5475C101.758 28.5972 101.709 30.6714 101.612 32.77C101.466 37.2599 100.494 40.9934 98.696 43.9705C96.8977 46.8987 94.3947 49.0949 91.187 50.559C87.9793 52.0231 84.1884 52.7552 79.8142 52.7552ZM79.8142 43.3116C82.6331 43.3116 84.9417 42.4576 86.74 40.7494C88.5868 38.9925 89.5589 36.2106 89.6561 32.4039C89.7533 30.2566 89.8019 28.2556 89.8019 26.401C89.8019 24.4977 89.7533 22.4967 89.6561 20.3981C89.6075 17.8603 89.1457 15.7862 88.2709 14.1756C87.3961 12.5651 86.2296 11.3938 84.7716 10.6618C83.3621 9.88089 81.7097 9.49045 79.8142 9.49045C77.9187 9.49045 76.242 9.88089 74.7839 10.6618C73.3259 11.3938 72.1594 12.5651 71.2846 14.1756C70.4584 15.7862 69.9966 17.8603 69.8994 20.3981C69.8508 22.4967 69.8265 24.4977 69.8265 26.401C69.8265 28.2556 69.8508 30.2566 69.8994 32.4039C70.0452 36.2106 71.0173 38.9925 72.8155 40.7494C74.6138 42.4576 76.9467 43.3116 79.8142 43.3116Z" fill="#1472FF"/>
<path d="M116.326 52.0231C115.791 52.0231 115.354 51.8523 115.014 51.5107C114.673 51.1203 114.503 50.681 114.503 50.193V2.60909C114.503 2.07224 114.673 1.63301 115.014 1.29138C115.402 0.949749 115.84 0.778936 116.326 0.778936H124.272C124.807 0.778936 125.244 0.949749 125.585 1.29138C125.925 1.63301 126.095 2.07224 126.095 2.60909V34.2341L148.476 2.09664C148.719 1.75502 149.011 1.46219 149.351 1.21817C149.74 0.925348 150.226 0.778936 150.809 0.778936H157.953C158.488 0.778936 158.925 0.949749 159.266 1.29138C159.606 1.63301 159.776 2.07224 159.776 2.60909V50.193C159.776 50.7298 159.606 51.1691 159.266 51.5107C158.925 51.8523 158.488 52.0231 157.953 52.0231H150.007C149.521 52.0231 149.084 51.8523 148.695 51.5107C148.354 51.1691 148.184 50.7298 148.184 50.193V19.5197L125.803 50.7054C125.657 50.9983 125.414 51.2911 125.074 51.5839C124.734 51.8767 124.224 52.0231 123.543 52.0231H116.326Z" fill="#1472FF"/>
<path d="M176.052 52.0231C175.517 52.0231 175.08 51.8523 174.74 51.5107C174.4 51.1691 174.229 50.7298 174.229 50.193V2.60909C174.229 2.07224 174.4 1.63301 174.74 1.29138C175.08 0.949749 175.517 0.778936 176.052 0.778936H183.998C184.533 0.778936 184.97 0.949749 185.311 1.29138C185.651 1.63301 185.821 2.07224 185.821 2.60909V18.8608H193.33C199.308 18.8608 203.949 20.2273 207.254 22.9604C210.559 25.6446 212.212 29.7197 212.212 35.1858C212.212 38.4068 211.483 41.3107 210.025 43.8973C208.615 46.4351 206.501 48.436 203.682 49.9002C200.912 51.3155 197.461 52.0231 193.33 52.0231H176.052ZM185.821 42.8724H192.965C195.298 42.8724 197.097 42.1647 198.36 40.7494C199.624 39.2853 200.256 37.4307 200.256 35.1858C200.256 32.7456 199.624 30.9398 198.36 29.7685C197.097 28.5484 195.298 27.9384 192.965 27.9384H185.821V42.8724ZM219.939 52.0231C219.405 52.0231 218.967 51.8523 218.627 51.5107C218.287 51.1691 218.117 50.7298 218.117 50.193V2.60909C218.117 2.07224 218.287 1.63301 218.627 1.29138C218.967 0.949749 219.405 0.778936 219.939 0.778936H228.177C228.712 0.778936 229.149 0.949749 229.49 1.29138C229.83 1.63301 230 2.07224 230 2.60909V50.193C230 50.7298 229.83 51.1691 229.49 51.5107C229.149 51.8523 228.712 52.0231 228.177 52.0231H219.939Z" fill="#1472FF"/>
<path d="M3.90822 134.38C3.34848 134.38 2.8905 134.202 2.5343 133.847C2.1781 133.491 2 133.034 2 132.475V82.9516C2 82.3929 2.1781 81.9358 2.5343 81.5802C2.8905 81.2247 3.34848 81.0469 3.90822 81.0469H39.6302C40.1899 81.0469 40.6479 81.2247 41.0041 81.5802C41.3603 81.9358 41.5384 82.3929 41.5384 82.9516V89.4278C41.5384 89.9358 41.3603 90.3675 41.0041 90.7231C40.6479 91.0786 40.1899 91.2564 39.6302 91.2564H14.1363V101.923H25.9673C31.8701 101.923 36.5007 103.371 39.8592 106.266C43.2685 109.161 44.9732 113.072 44.9732 117.999C44.9732 120.183 44.5407 122.266 43.6756 124.247C42.8614 126.228 41.6656 127.98 40.0881 129.504C38.5107 131.028 36.5261 132.221 34.1345 133.085C31.7937 133.948 29.0713 134.38 25.9673 134.38H3.90822ZM14.1363 125.466H24.8224C26.4507 125.466 27.8246 125.11 28.9441 124.399C30.1145 123.688 30.9796 122.748 31.5393 121.58C32.1499 120.412 32.4552 119.168 32.4552 117.847C32.4552 115.815 31.7937 114.114 30.4707 112.742C29.1985 111.371 27.3158 110.685 24.8224 110.685H14.1363V125.466Z" fill="#9756FF"/>
<path d="M66.0418 134.38C65.482 134.38 65.024 134.202 64.6678 133.847C64.3116 133.491 64.1335 133.034 64.1335 132.475V82.9516C64.1335 82.3929 64.3116 81.9358 64.6678 81.5802C65.024 81.2247 65.482 81.0469 66.0418 81.0469H88.7114C92.935 81.0469 96.3952 81.6564 99.0922 82.8754C101.789 84.0945 103.774 85.8215 105.046 88.0564C106.369 90.2913 107.03 92.9072 107.03 95.904C107.03 97.7834 106.674 99.4342 105.962 100.856C105.3 102.279 104.461 103.447 103.443 104.361C102.476 105.275 101.535 105.961 100.619 106.418C102.603 107.333 104.333 108.856 105.809 110.99C107.336 113.072 108.099 115.561 108.099 118.456C108.099 121.656 107.387 124.45 105.962 126.837C104.537 129.225 102.425 131.079 99.6265 132.399C96.8278 133.72 93.4184 134.38 89.3984 134.38H66.0418ZM76.2698 125.466H87.9482C90.4416 125.466 92.3244 124.78 93.5965 123.409C94.8687 121.987 95.5047 120.31 95.5047 118.38C95.5047 116.399 94.8432 114.748 93.5202 113.428C92.248 112.056 90.3907 111.371 87.9482 111.371H76.2698V125.466ZM76.2698 102.609H87.2612C89.6528 102.609 91.4338 102.025 92.6042 100.856C93.8255 99.6374 94.4361 98.0881 94.4361 96.2088C94.4361 94.3294 93.8255 92.831 92.6042 91.7135C91.4338 90.5453 89.6528 89.9612 87.2612 89.9612H76.2698V102.609Z" fill="#9756FF"/>
<path d="M131.381 134.38C130.821 134.38 130.363 134.202 130.007 133.847C129.65 133.491 129.472 133.034 129.472 132.475V82.9516C129.472 82.3929 129.65 81.9358 130.007 81.5802C130.363 81.2247 130.821 81.0469 131.381 81.0469H163.362C163.922 81.0469 164.38 81.2247 164.736 81.5802C165.092 81.9358 165.271 82.3929 165.271 82.9516V89.4278C165.271 89.9358 165.092 90.3675 164.736 90.7231C164.38 91.0786 163.922 91.2564 163.362 91.2564H141.609V132.475C141.609 133.034 141.43 133.491 141.074 133.847C140.718 134.202 140.26 134.38 139.7 134.38H131.381Z" fill="#9756FF"/>
<path d="M182.249 145.047C181.74 145.047 181.308 144.869 180.951 144.514C180.595 144.158 180.417 143.701 180.417 143.142V125.466C180.417 124.907 180.595 124.45 180.951 124.094C181.308 123.739 181.74 123.561 182.249 123.561H183.699C184.92 123.561 185.964 122.977 186.829 121.809C187.694 120.641 188.381 118.99 188.89 116.856C189.398 114.672 189.78 112.056 190.035 109.009C190.289 105.91 190.416 102.456 190.416 98.6469V82.9516C190.416 82.3929 190.594 81.9358 190.95 81.5802C191.307 81.2247 191.739 81.0469 192.248 81.0469H226.596C227.156 81.0469 227.614 81.2247 227.97 81.5802C228.326 81.9358 228.504 82.3929 228.504 82.9516V123.561H232.092C232.652 123.561 233.109 123.739 233.466 124.094C233.822 124.45 234 124.907 234 125.466V143.142C234 143.65 233.822 144.082 233.466 144.437C233.109 144.844 232.652 145.047 232.092 145.047H223.772C223.212 145.047 222.754 144.844 222.398 144.437C222.042 144.082 221.864 143.65 221.864 143.142V134.38H192.553V143.142C192.553 143.65 192.35 144.082 191.943 144.437C191.587 144.844 191.129 145.047 190.569 145.047H182.249ZM198.278 123.561H216.368V91.8659H202.171V100.171C202.171 106.012 201.84 110.837 201.179 114.647C200.517 118.456 199.55 121.428 198.278 123.561Z" fill="#9756FF"/>
</svg>
